%TF.GenerationSoftware,KiCad,Pcbnew,7.0.6*%
%TF.CreationDate,2023-09-02T14:35:45+09:00*%
%TF.ProjectId,ember_top_plate,656d6265-725f-4746-9f70-5f706c617465,rev?*%
%TF.SameCoordinates,Original*%
%TF.FileFunction,Legend,Bot*%
%TF.FilePolarity,Positive*%
%FSLAX46Y46*%
G04 Gerber Fmt 4.6, Leading zero omitted, Abs format (unit mm)*
G04 Created by KiCad (PCBNEW 7.0.6) date 2023-09-02 14:35:45*
%MOMM*%
%LPD*%
G01*
G04 APERTURE LIST*
%ADD10C,0.300000*%
%ADD11C,2.200000*%
G04 APERTURE END LIST*
D10*
X181428571Y-53300828D02*
X181428571Y-54372257D01*
X181428571Y-54372257D02*
X181500000Y-54586542D01*
X181500000Y-54586542D02*
X181642857Y-54729400D01*
X181642857Y-54729400D02*
X181857143Y-54800828D01*
X181857143Y-54800828D02*
X182000000Y-54800828D01*
X180000000Y-54800828D02*
X180714286Y-54800828D01*
X180714286Y-54800828D02*
X180714286Y-53300828D01*
X178642857Y-54657971D02*
X178714285Y-54729400D01*
X178714285Y-54729400D02*
X178928571Y-54800828D01*
X178928571Y-54800828D02*
X179071428Y-54800828D01*
X179071428Y-54800828D02*
X179285714Y-54729400D01*
X179285714Y-54729400D02*
X179428571Y-54586542D01*
X179428571Y-54586542D02*
X179500000Y-54443685D01*
X179500000Y-54443685D02*
X179571428Y-54157971D01*
X179571428Y-54157971D02*
X179571428Y-53943685D01*
X179571428Y-53943685D02*
X179500000Y-53657971D01*
X179500000Y-53657971D02*
X179428571Y-53515114D01*
X179428571Y-53515114D02*
X179285714Y-53372257D01*
X179285714Y-53372257D02*
X179071428Y-53300828D01*
X179071428Y-53300828D02*
X178928571Y-53300828D01*
X178928571Y-53300828D02*
X178714285Y-53372257D01*
X178714285Y-53372257D02*
X178642857Y-53443685D01*
X177571428Y-53300828D02*
X177571428Y-54372257D01*
X177571428Y-54372257D02*
X177642857Y-54586542D01*
X177642857Y-54586542D02*
X177785714Y-54729400D01*
X177785714Y-54729400D02*
X178000000Y-54800828D01*
X178000000Y-54800828D02*
X178142857Y-54800828D01*
X176142857Y-54800828D02*
X176857143Y-54800828D01*
X176857143Y-54800828D02*
X176857143Y-53300828D01*
X174785714Y-54657971D02*
X174857142Y-54729400D01*
X174857142Y-54729400D02*
X175071428Y-54800828D01*
X175071428Y-54800828D02*
X175214285Y-54800828D01*
X175214285Y-54800828D02*
X175428571Y-54729400D01*
X175428571Y-54729400D02*
X175571428Y-54586542D01*
X175571428Y-54586542D02*
X175642857Y-54443685D01*
X175642857Y-54443685D02*
X175714285Y-54157971D01*
X175714285Y-54157971D02*
X175714285Y-53943685D01*
X175714285Y-53943685D02*
X175642857Y-53657971D01*
X175642857Y-53657971D02*
X175571428Y-53515114D01*
X175571428Y-53515114D02*
X175428571Y-53372257D01*
X175428571Y-53372257D02*
X175214285Y-53300828D01*
X175214285Y-53300828D02*
X175071428Y-53300828D01*
X175071428Y-53300828D02*
X174857142Y-53372257D01*
X174857142Y-53372257D02*
X174785714Y-53443685D01*
X173714285Y-53300828D02*
X173714285Y-54372257D01*
X173714285Y-54372257D02*
X173785714Y-54586542D01*
X173785714Y-54586542D02*
X173928571Y-54729400D01*
X173928571Y-54729400D02*
X174142857Y-54800828D01*
X174142857Y-54800828D02*
X174285714Y-54800828D01*
X172285714Y-54800828D02*
X173000000Y-54800828D01*
X173000000Y-54800828D02*
X173000000Y-53300828D01*
X170928571Y-54657971D02*
X170999999Y-54729400D01*
X170999999Y-54729400D02*
X171214285Y-54800828D01*
X171214285Y-54800828D02*
X171357142Y-54800828D01*
X171357142Y-54800828D02*
X171571428Y-54729400D01*
X171571428Y-54729400D02*
X171714285Y-54586542D01*
X171714285Y-54586542D02*
X171785714Y-54443685D01*
X171785714Y-54443685D02*
X171857142Y-54157971D01*
X171857142Y-54157971D02*
X171857142Y-53943685D01*
X171857142Y-53943685D02*
X171785714Y-53657971D01*
X171785714Y-53657971D02*
X171714285Y-53515114D01*
X171714285Y-53515114D02*
X171571428Y-53372257D01*
X171571428Y-53372257D02*
X171357142Y-53300828D01*
X171357142Y-53300828D02*
X171214285Y-53300828D01*
X171214285Y-53300828D02*
X170999999Y-53372257D01*
X170999999Y-53372257D02*
X170928571Y-53443685D01*
X169857142Y-53300828D02*
X169857142Y-54372257D01*
X169857142Y-54372257D02*
X169928571Y-54586542D01*
X169928571Y-54586542D02*
X170071428Y-54729400D01*
X170071428Y-54729400D02*
X170285714Y-54800828D01*
X170285714Y-54800828D02*
X170428571Y-54800828D01*
X168428571Y-54800828D02*
X169142857Y-54800828D01*
X169142857Y-54800828D02*
X169142857Y-53300828D01*
X167071428Y-54657971D02*
X167142856Y-54729400D01*
X167142856Y-54729400D02*
X167357142Y-54800828D01*
X167357142Y-54800828D02*
X167499999Y-54800828D01*
X167499999Y-54800828D02*
X167714285Y-54729400D01*
X167714285Y-54729400D02*
X167857142Y-54586542D01*
X167857142Y-54586542D02*
X167928571Y-54443685D01*
X167928571Y-54443685D02*
X167999999Y-54157971D01*
X167999999Y-54157971D02*
X167999999Y-53943685D01*
X167999999Y-53943685D02*
X167928571Y-53657971D01*
X167928571Y-53657971D02*
X167857142Y-53515114D01*
X167857142Y-53515114D02*
X167714285Y-53372257D01*
X167714285Y-53372257D02*
X167499999Y-53300828D01*
X167499999Y-53300828D02*
X167357142Y-53300828D01*
X167357142Y-53300828D02*
X167142856Y-53372257D01*
X167142856Y-53372257D02*
X167071428Y-53443685D01*
%LPC*%
D11*
%TO.C,H3*%
X70000000Y-113000000D03*
%TD*%
%TO.C,H1*%
X70000000Y-75000000D03*
%TD*%
%TO.C,H4*%
X165000000Y-73000000D03*
%TD*%
%TO.C,H2*%
X165000000Y-130000000D03*
%TD*%
%TO.C,H5*%
X117500000Y-127000000D03*
%TD*%
%TO.C,H6*%
X117500000Y-70000000D03*
%TD*%
%LPD*%
M02*
