%TF.GenerationSoftware,KiCad,Pcbnew,7.0.6*%
%TF.CreationDate,2023-09-02T14:35:45+09:00*%
%TF.ProjectId,ember_top_plate,656d6265-725f-4746-9f70-5f706c617465,rev?*%
%TF.SameCoordinates,Original*%
%TF.FileFunction,Soldermask,Top*%
%TF.FilePolarity,Negative*%
%FSLAX46Y46*%
G04 Gerber Fmt 4.6, Leading zero omitted, Abs format (unit mm)*
G04 Created by KiCad (PCBNEW 7.0.6) date 2023-09-02 14:35:45*
%MOMM*%
%LPD*%
G01*
G04 APERTURE LIST*
%ADD10C,2.200000*%
G04 APERTURE END LIST*
%TO.C,G\u002A\u002A\u002A*%
G36*
X58680756Y-140251587D02*
G01*
X58709307Y-140256239D01*
X58770266Y-140265714D01*
X58859392Y-140279367D01*
X58972446Y-140296555D01*
X59105188Y-140316632D01*
X59253377Y-140338956D01*
X59412775Y-140362882D01*
X59457850Y-140369632D01*
X59617485Y-140393658D01*
X59765275Y-140416148D01*
X59897296Y-140436488D01*
X60009624Y-140454061D01*
X60098336Y-140468252D01*
X60159506Y-140478446D01*
X60189212Y-140484026D01*
X60191434Y-140484740D01*
X60188480Y-140503735D01*
X60177242Y-140552158D01*
X60159281Y-140623716D01*
X60136155Y-140712115D01*
X60122240Y-140764004D01*
X60048354Y-141037272D01*
X59981508Y-141035070D01*
X59948557Y-141031817D01*
X59883432Y-141023494D01*
X59790571Y-141010736D01*
X59674410Y-140994175D01*
X59539386Y-140974448D01*
X59389938Y-140952187D01*
X59230503Y-140928027D01*
X59202808Y-140923789D01*
X59045167Y-140899538D01*
X58899419Y-140876932D01*
X58769528Y-140856601D01*
X58659461Y-140839174D01*
X58573183Y-140825279D01*
X58514661Y-140815545D01*
X58487859Y-140810602D01*
X58486589Y-140810199D01*
X58489622Y-140791730D01*
X58500836Y-140743663D01*
X58518704Y-140672160D01*
X58541703Y-140583385D01*
X58557389Y-140524171D01*
X58585854Y-140418271D01*
X58607106Y-140343141D01*
X58623429Y-140293732D01*
X58637108Y-140265000D01*
X58650425Y-140251898D01*
X58665666Y-140249378D01*
X58680756Y-140251587D01*
G37*
G36*
X70052324Y-140240709D02*
G01*
X70359456Y-140240965D01*
X70632703Y-140241412D01*
X70873647Y-140242067D01*
X71083872Y-140242946D01*
X71264962Y-140244065D01*
X71418500Y-140245441D01*
X71546069Y-140247091D01*
X71649254Y-140249031D01*
X71729637Y-140251277D01*
X71788803Y-140253846D01*
X71828334Y-140256754D01*
X71849814Y-140260019D01*
X71855069Y-140262976D01*
X71850161Y-140284855D01*
X71836103Y-140338748D01*
X71813894Y-140421033D01*
X71784531Y-140528089D01*
X71749013Y-140656292D01*
X71708339Y-140802022D01*
X71663507Y-140961655D01*
X71620150Y-141115200D01*
X71385231Y-141945076D01*
X69231524Y-141945076D01*
X67077816Y-141945076D01*
X67113643Y-141820022D01*
X67126625Y-141774635D01*
X67148446Y-141698254D01*
X67177782Y-141595520D01*
X67202736Y-141508106D01*
X68501750Y-141508106D01*
X68519668Y-141510289D01*
X68570988Y-141512128D01*
X68652062Y-141513596D01*
X68759239Y-141514666D01*
X68888871Y-141515309D01*
X69037308Y-141515500D01*
X69200901Y-141515209D01*
X69357507Y-141514517D01*
X70213263Y-141509701D01*
X70244884Y-141403173D01*
X70276505Y-141296645D01*
X69418232Y-141296645D01*
X68559960Y-141296645D01*
X68530855Y-141396761D01*
X68514909Y-141453462D01*
X68504337Y-141494593D01*
X68501750Y-141508106D01*
X67202736Y-141508106D01*
X67213309Y-141471070D01*
X67253703Y-141329544D01*
X67297639Y-141175581D01*
X67343794Y-141013819D01*
X67356923Y-140967797D01*
X67387616Y-140860210D01*
X68687017Y-140860210D01*
X68704934Y-140862313D01*
X68756248Y-140864273D01*
X68837303Y-140866044D01*
X68944443Y-140867583D01*
X69074012Y-140868845D01*
X69222353Y-140869787D01*
X69385811Y-140870363D01*
X69539700Y-140870532D01*
X70392383Y-140870532D01*
X70407738Y-140828847D01*
X70424219Y-140777628D01*
X70435423Y-140736214D01*
X70447752Y-140685266D01*
X69588110Y-140685266D01*
X68728469Y-140685266D01*
X68707743Y-140767577D01*
X68695331Y-140818936D01*
X68687929Y-140853563D01*
X68687017Y-140860210D01*
X67387616Y-140860210D01*
X67564376Y-140240627D01*
X69709722Y-140240627D01*
X70052324Y-140240709D01*
G37*
G36*
X61001353Y-135998112D02*
G01*
X61307412Y-135998367D01*
X61579610Y-135998814D01*
X61819541Y-135999467D01*
X62028804Y-136000345D01*
X62208992Y-136001464D01*
X62361702Y-136002841D01*
X62488529Y-136004492D01*
X62591070Y-136006434D01*
X62670920Y-136008685D01*
X62729675Y-136011260D01*
X62768930Y-136014176D01*
X62790282Y-136017451D01*
X62795551Y-136020440D01*
X62790732Y-136047099D01*
X62777790Y-136100282D01*
X62758994Y-136170946D01*
X62746736Y-136214859D01*
X62697922Y-136386869D01*
X61224033Y-136391611D01*
X59750143Y-136396353D01*
X59596948Y-136924362D01*
X59558177Y-137058661D01*
X59522962Y-137181928D01*
X59492596Y-137289535D01*
X59468371Y-137376854D01*
X59451581Y-137439258D01*
X59443517Y-137472119D01*
X59442992Y-137475529D01*
X59449824Y-137480041D01*
X59472024Y-137483966D01*
X59511675Y-137487340D01*
X59570859Y-137490198D01*
X59651658Y-137492573D01*
X59756156Y-137494502D01*
X59886433Y-137496019D01*
X60044574Y-137497159D01*
X60232659Y-137497957D01*
X60452772Y-137498448D01*
X60706995Y-137498668D01*
X60822465Y-137498687D01*
X61044935Y-137498748D01*
X61256281Y-137498923D01*
X61453631Y-137499203D01*
X61634115Y-137499579D01*
X61794861Y-137500040D01*
X61932995Y-137500578D01*
X62045648Y-137501182D01*
X62129947Y-137501843D01*
X62183020Y-137502551D01*
X62201995Y-137503296D01*
X62202008Y-137503319D01*
X62196993Y-137521910D01*
X62183987Y-137568494D01*
X62165136Y-137635422D01*
X62148777Y-137693216D01*
X62096237Y-137878483D01*
X60708118Y-137883231D01*
X59319999Y-137887979D01*
X59091512Y-138689139D01*
X59043281Y-138858181D01*
X58997349Y-139019021D01*
X58954889Y-139167562D01*
X58917075Y-139299707D01*
X58885079Y-139411357D01*
X58860075Y-139498417D01*
X58843235Y-139556789D01*
X58836958Y-139578300D01*
X58810891Y-139666302D01*
X58143292Y-139666302D01*
X57964723Y-139666102D01*
X57819988Y-139665419D01*
X57705871Y-139664130D01*
X57619154Y-139662114D01*
X57556622Y-139659247D01*
X57515057Y-139655406D01*
X57491242Y-139650469D01*
X57481961Y-139644313D01*
X57481683Y-139641048D01*
X57487518Y-139620077D01*
X57502875Y-139565896D01*
X57527064Y-139480917D01*
X57559396Y-139367549D01*
X57599183Y-139228203D01*
X57645735Y-139065289D01*
X57698365Y-138881216D01*
X57756382Y-138678395D01*
X57819099Y-138459236D01*
X57885826Y-138226149D01*
X57955874Y-137981544D01*
X58005898Y-137806913D01*
X58524124Y-135998031D01*
X60659837Y-135998031D01*
X61001353Y-135998112D01*
G37*
G36*
X65449673Y-135998148D02*
G01*
X65717746Y-135998491D01*
X65972983Y-135999043D01*
X66213078Y-135999792D01*
X66435724Y-136000720D01*
X66638616Y-136001814D01*
X66819448Y-136003058D01*
X66975913Y-136004437D01*
X67105706Y-136005938D01*
X67206521Y-136007544D01*
X67276051Y-136009240D01*
X67311991Y-136011013D01*
X67316644Y-136011925D01*
X67311835Y-136031914D01*
X67297799Y-136084169D01*
X67275476Y-136165322D01*
X67245808Y-136272010D01*
X67209735Y-136400866D01*
X67168197Y-136548524D01*
X67122135Y-136711619D01*
X67072490Y-136886785D01*
X67052640Y-136956661D01*
X66788038Y-137887501D01*
X65305036Y-137887624D01*
X63822035Y-137887746D01*
X63593515Y-138689022D01*
X63545280Y-138858077D01*
X63499344Y-139018929D01*
X63456882Y-139167482D01*
X63419064Y-139299639D01*
X63387064Y-139411303D01*
X63362056Y-139498377D01*
X63345211Y-139556765D01*
X63338928Y-139578300D01*
X63312861Y-139666302D01*
X62645261Y-139666302D01*
X62466692Y-139666102D01*
X62321957Y-139665419D01*
X62207840Y-139664130D01*
X62121124Y-139662114D01*
X62058591Y-139659247D01*
X62017026Y-139655406D01*
X61993211Y-139650469D01*
X61983930Y-139644313D01*
X61983652Y-139641048D01*
X61989488Y-139620077D01*
X62004844Y-139565896D01*
X62029033Y-139480917D01*
X62061365Y-139367549D01*
X62101152Y-139228203D01*
X62147705Y-139065289D01*
X62200334Y-138881216D01*
X62258351Y-138678395D01*
X62321068Y-138459236D01*
X62387795Y-138226149D01*
X62457844Y-137981544D01*
X62507868Y-137806913D01*
X62602750Y-137475723D01*
X63944961Y-137475723D01*
X63951784Y-137481503D01*
X63974485Y-137486197D01*
X64015793Y-137489867D01*
X64078440Y-137492577D01*
X64165154Y-137494389D01*
X64278665Y-137495366D01*
X64421704Y-137495570D01*
X64597000Y-137495064D01*
X64752398Y-137494250D01*
X65560595Y-137489424D01*
X65715782Y-136952507D01*
X65754658Y-136817545D01*
X65789969Y-136694067D01*
X65820453Y-136586564D01*
X65844845Y-136499528D01*
X65861880Y-136437453D01*
X65870295Y-136404830D01*
X65870970Y-136401145D01*
X65853070Y-136398233D01*
X65801870Y-136395734D01*
X65721124Y-136393691D01*
X65614583Y-136392150D01*
X65485999Y-136391156D01*
X65339125Y-136390752D01*
X65177713Y-136390983D01*
X65061539Y-136391527D01*
X64252108Y-136396353D01*
X64098915Y-136924362D01*
X64060143Y-137058673D01*
X64024927Y-137181962D01*
X63994561Y-137289599D01*
X63970337Y-137376954D01*
X63953547Y-137439399D01*
X63945485Y-137472302D01*
X63944961Y-137475723D01*
X62602750Y-137475723D01*
X63026093Y-135998031D01*
X65171070Y-135998031D01*
X65449673Y-135998148D01*
G37*
G36*
X71401448Y-142375750D02*
G01*
X71341591Y-142584245D01*
X69745883Y-142588979D01*
X68150174Y-142593714D01*
X68094379Y-142704243D01*
X68066112Y-142761585D01*
X68046039Y-142804869D01*
X68038585Y-142824459D01*
X68056664Y-142825975D01*
X68109112Y-142827526D01*
X68193243Y-142829089D01*
X68306373Y-142830639D01*
X68445818Y-142832151D01*
X68608892Y-142833602D01*
X68792911Y-142834966D01*
X68995191Y-142836219D01*
X69213045Y-142837337D01*
X69443791Y-142838295D01*
X69619923Y-142838883D01*
X71201261Y-142843618D01*
X70951214Y-143719001D01*
X70701166Y-144594384D01*
X70112368Y-144594384D01*
X69523570Y-144594384D01*
X69559040Y-144469329D01*
X69573242Y-144419424D01*
X69596001Y-144339655D01*
X69625671Y-144235781D01*
X69660607Y-144113559D01*
X69699164Y-143978746D01*
X69739697Y-143837100D01*
X69749638Y-143802370D01*
X69904765Y-143260467D01*
X69851740Y-143260467D01*
X69837965Y-143261586D01*
X69824463Y-143266954D01*
X69809487Y-143279586D01*
X69791288Y-143302496D01*
X69768120Y-143338700D01*
X69738235Y-143391212D01*
X69699884Y-143463048D01*
X69651321Y-143557222D01*
X69590797Y-143676750D01*
X69516566Y-143824646D01*
X69465135Y-143927425D01*
X69131555Y-144594384D01*
X68714706Y-144594384D01*
X68297857Y-144594384D01*
X68631437Y-143927425D01*
X68965016Y-143260467D01*
X68871787Y-143260467D01*
X68778557Y-143260467D01*
X68451856Y-143927425D01*
X68125155Y-144594384D01*
X67711337Y-144594384D01*
X67592001Y-144593791D01*
X67486157Y-144592130D01*
X67399052Y-144589578D01*
X67335931Y-144586311D01*
X67302038Y-144582504D01*
X67297690Y-144580489D01*
X67305677Y-144561351D01*
X67328386Y-144512671D01*
X67364051Y-144438091D01*
X67410910Y-144341253D01*
X67467196Y-144225798D01*
X67531147Y-144095368D01*
X67600998Y-143953606D01*
X67620802Y-143913530D01*
X67943745Y-143260467D01*
X67875374Y-143260569D01*
X67807002Y-143260672D01*
X67532299Y-143797841D01*
X67257595Y-144335011D01*
X66731022Y-144335011D01*
X66595652Y-144334596D01*
X66473168Y-144333425D01*
X66368223Y-144331606D01*
X66285469Y-144329247D01*
X66229559Y-144326457D01*
X66205144Y-144323346D01*
X66204449Y-144322713D01*
X66212659Y-144304323D01*
X66236232Y-144256114D01*
X66273587Y-144181218D01*
X66323141Y-144082766D01*
X66383310Y-143963890D01*
X66452514Y-143827723D01*
X66529169Y-143677396D01*
X66611692Y-143516040D01*
X66639825Y-143461136D01*
X66723905Y-143296950D01*
X66802640Y-143142866D01*
X66874450Y-143002001D01*
X66937753Y-142877473D01*
X66990969Y-142772399D01*
X67032516Y-142689896D01*
X67060814Y-142633082D01*
X67074280Y-142605075D01*
X67075200Y-142602683D01*
X67057874Y-142599123D01*
X67010695Y-142596208D01*
X66940860Y-142594236D01*
X66855568Y-142593508D01*
X66855254Y-142593508D01*
X66635307Y-142593508D01*
X66695144Y-142385084D01*
X66754982Y-142176659D01*
X69108143Y-142171957D01*
X71461305Y-142167255D01*
X71401448Y-142375750D01*
G37*
G36*
X59446967Y-141875246D02*
G01*
X59569925Y-141876379D01*
X59669717Y-141878035D01*
X59742610Y-141880169D01*
X59784872Y-141882740D01*
X59794238Y-141884836D01*
X59789292Y-141904963D01*
X59775107Y-141957222D01*
X59752664Y-142038126D01*
X59722943Y-142144191D01*
X59686924Y-142271932D01*
X59645588Y-142417862D01*
X59599914Y-142578498D01*
X59550884Y-142750353D01*
X59545430Y-142769433D01*
X59496236Y-142941790D01*
X59450405Y-143102892D01*
X59408899Y-143249318D01*
X59372681Y-143377646D01*
X59342714Y-143484455D01*
X59319961Y-143566324D01*
X59305383Y-143619832D01*
X59299945Y-143641556D01*
X59299953Y-143641865D01*
X59318435Y-143643583D01*
X59371190Y-143648021D01*
X59455550Y-143654966D01*
X59568851Y-143664205D01*
X59708428Y-143675525D01*
X59871614Y-143688713D01*
X60055745Y-143703556D01*
X60258154Y-143719842D01*
X60476177Y-143737356D01*
X60707148Y-143755887D01*
X60948402Y-143775221D01*
X61197273Y-143795146D01*
X61451095Y-143815448D01*
X61707204Y-143835915D01*
X61962934Y-143856333D01*
X62215619Y-143876490D01*
X62462594Y-143896173D01*
X62701194Y-143915168D01*
X62928753Y-143933263D01*
X63142605Y-143950245D01*
X63340086Y-143965901D01*
X63518530Y-143980018D01*
X63675270Y-143992383D01*
X63807643Y-144002784D01*
X63912982Y-144011006D01*
X63988623Y-144016837D01*
X64031898Y-144020065D01*
X64041466Y-144020665D01*
X64051237Y-144026676D01*
X64053419Y-144048631D01*
X64047250Y-144090666D01*
X64031964Y-144156918D01*
X64006798Y-144251524D01*
X63983411Y-144335011D01*
X63912472Y-144585120D01*
X63812545Y-144581203D01*
X63781869Y-144579270D01*
X63716565Y-144574580D01*
X63618941Y-144567310D01*
X63491305Y-144557640D01*
X63335966Y-144545748D01*
X63155232Y-144531815D01*
X62951411Y-144516017D01*
X62726812Y-144498535D01*
X62483743Y-144479548D01*
X62224512Y-144459234D01*
X61951429Y-144437773D01*
X61666800Y-144415342D01*
X61372934Y-144392122D01*
X61345032Y-144389914D01*
X58977447Y-144202543D01*
X58214033Y-144390129D01*
X58050721Y-144430296D01*
X57897849Y-144467965D01*
X57759329Y-144502170D01*
X57639072Y-144531939D01*
X57540987Y-144556306D01*
X57468987Y-144574301D01*
X57426980Y-144584954D01*
X57418198Y-144587298D01*
X57391370Y-144586648D01*
X57385777Y-144577391D01*
X57390478Y-144554627D01*
X57403168Y-144504599D01*
X57421729Y-144434913D01*
X57444041Y-144353177D01*
X57467987Y-144266999D01*
X57491446Y-144183986D01*
X57512301Y-144111745D01*
X57528432Y-144057884D01*
X57537721Y-144030009D01*
X57538830Y-144027874D01*
X57557477Y-144022231D01*
X57605098Y-144009848D01*
X57674610Y-143992520D01*
X57758930Y-143972040D01*
X57764018Y-143970819D01*
X57984782Y-143917882D01*
X58202864Y-143149167D01*
X58249238Y-142985620D01*
X58292741Y-142832034D01*
X58332274Y-142692310D01*
X58366733Y-142570347D01*
X58395017Y-142470047D01*
X58416026Y-142395309D01*
X58428658Y-142350033D01*
X58431722Y-142338767D01*
X58435210Y-142320496D01*
X58430273Y-142308538D01*
X58410781Y-142301556D01*
X58370602Y-142298210D01*
X58303606Y-142297164D01*
X58240727Y-142297082D01*
X58038954Y-142297082D01*
X58098788Y-142088658D01*
X58158623Y-141880233D01*
X58976430Y-141875409D01*
X59146487Y-141874718D01*
X59304577Y-141874678D01*
X59446967Y-141875246D01*
G37*
G36*
X66219069Y-140243801D02*
G01*
X66357263Y-140244399D01*
X66440281Y-140244998D01*
X67033773Y-140249890D01*
X66943845Y-140555580D01*
X66914248Y-140657383D01*
X66888688Y-140747577D01*
X66868905Y-140819844D01*
X66856635Y-140867863D01*
X66853399Y-140884427D01*
X66865221Y-140896666D01*
X66904103Y-140904097D01*
X66974171Y-140907331D01*
X67010357Y-140907586D01*
X67081521Y-140909099D01*
X67135947Y-140913138D01*
X67165131Y-140918950D01*
X67167834Y-140921520D01*
X67163018Y-140944026D01*
X67149976Y-140994206D01*
X67130818Y-141064151D01*
X67112254Y-141129905D01*
X67089789Y-141208901D01*
X67071677Y-141273354D01*
X67059996Y-141315818D01*
X67056674Y-141329027D01*
X67039506Y-141331058D01*
X66993438Y-141332643D01*
X66926622Y-141333559D01*
X66885173Y-141333698D01*
X66713672Y-141333698D01*
X66391341Y-142440664D01*
X66334323Y-142636377D01*
X66280232Y-142821854D01*
X66229978Y-142993983D01*
X66184473Y-143149650D01*
X66144628Y-143285743D01*
X66111356Y-143399149D01*
X66085566Y-143486756D01*
X66068172Y-143545450D01*
X66060083Y-143572120D01*
X66059742Y-143573129D01*
X66061629Y-143586587D01*
X66084149Y-143592869D01*
X66133653Y-143592956D01*
X66173779Y-143590778D01*
X66240837Y-143587889D01*
X66278586Y-143590791D01*
X66294491Y-143600746D01*
X66296653Y-143611594D01*
X66291877Y-143644014D01*
X66279456Y-143701745D01*
X66261477Y-143776865D01*
X66240030Y-143861448D01*
X66217204Y-143947573D01*
X66195086Y-144027314D01*
X66175766Y-144092748D01*
X66161333Y-144135952D01*
X66154998Y-144148976D01*
X66134785Y-144152669D01*
X66082022Y-144159169D01*
X66001076Y-144168069D01*
X65896311Y-144178961D01*
X65772092Y-144191438D01*
X65632784Y-144205090D01*
X65482751Y-144219511D01*
X65326358Y-144234293D01*
X65167971Y-144249028D01*
X65011953Y-144263309D01*
X64862671Y-144276726D01*
X64724488Y-144288874D01*
X64601770Y-144299343D01*
X64498881Y-144307726D01*
X64420186Y-144313616D01*
X64370050Y-144316604D01*
X64357657Y-144316891D01*
X64317211Y-144316484D01*
X64362532Y-144154376D01*
X64387586Y-144063659D01*
X64413044Y-143969669D01*
X64434155Y-143889986D01*
X64437653Y-143876477D01*
X64454585Y-143816956D01*
X64469663Y-143774760D01*
X64479094Y-143759520D01*
X64501746Y-143757330D01*
X64551827Y-143752525D01*
X64619882Y-143746010D01*
X64643954Y-143743708D01*
X64715492Y-143735882D01*
X64771758Y-143727874D01*
X64803430Y-143721077D01*
X64806866Y-143719368D01*
X64813605Y-143700388D01*
X64829855Y-143648793D01*
X64854735Y-143567534D01*
X64887359Y-143459560D01*
X64926846Y-143327823D01*
X64972312Y-143175273D01*
X65022875Y-143004860D01*
X65077651Y-142819534D01*
X65135756Y-142622247D01*
X65163939Y-142526318D01*
X65511319Y-141342961D01*
X65348402Y-141337634D01*
X65275901Y-141334240D01*
X65219994Y-141329675D01*
X65189043Y-141324711D01*
X65185485Y-141322572D01*
X65190321Y-141301915D01*
X65203449Y-141253210D01*
X65222799Y-141183989D01*
X65243680Y-141110872D01*
X65301874Y-140908907D01*
X65470256Y-140903615D01*
X65638639Y-140898322D01*
X65734089Y-140577839D01*
X65765100Y-140474792D01*
X65792869Y-140384537D01*
X65815561Y-140312884D01*
X65831338Y-140265641D01*
X65838164Y-140248731D01*
X65858112Y-140246782D01*
X65910644Y-140245286D01*
X65991292Y-140244272D01*
X66095590Y-140243768D01*
X66219069Y-140243801D01*
G37*
G36*
X70029565Y-135998094D02*
G01*
X70330430Y-135998299D01*
X70597762Y-135998663D01*
X70833322Y-135999208D01*
X71038868Y-135999953D01*
X71216162Y-136000918D01*
X71366964Y-136002122D01*
X71493033Y-136003585D01*
X71596130Y-136005328D01*
X71678015Y-136007369D01*
X71740448Y-136009729D01*
X71785189Y-136012427D01*
X71813998Y-136015484D01*
X71828635Y-136018919D01*
X71831287Y-136022058D01*
X71823756Y-136045913D01*
X71807480Y-136100217D01*
X71783977Y-136179814D01*
X71754762Y-136279551D01*
X71721354Y-136394272D01*
X71694986Y-136485217D01*
X71567907Y-136924349D01*
X70905580Y-136924355D01*
X70726908Y-136924140D01*
X70582074Y-136923411D01*
X70467863Y-136922046D01*
X70381063Y-136919924D01*
X70318458Y-136916924D01*
X70276837Y-136912926D01*
X70252984Y-136907808D01*
X70243686Y-136901448D01*
X70243253Y-136899399D01*
X70248239Y-136873194D01*
X70261903Y-136818805D01*
X70282306Y-136743548D01*
X70307508Y-136654739D01*
X70314537Y-136630570D01*
X70385821Y-136386704D01*
X69579059Y-136391529D01*
X68772297Y-136396353D01*
X68618865Y-136924362D01*
X68580050Y-137058651D01*
X68544819Y-137181909D01*
X68514464Y-137289511D01*
X68490275Y-137376829D01*
X68473544Y-137439238D01*
X68465561Y-137472111D01*
X68465065Y-137475529D01*
X68471947Y-137479918D01*
X68494093Y-137483754D01*
X68533527Y-137487067D01*
X68592275Y-137489891D01*
X68672361Y-137492256D01*
X68775812Y-137494195D01*
X68904652Y-137495741D01*
X69060906Y-137496924D01*
X69246600Y-137497778D01*
X69463759Y-137498334D01*
X69714408Y-137498624D01*
X69928300Y-137498687D01*
X70219656Y-137498855D01*
X70475275Y-137499371D01*
X70696470Y-137500253D01*
X70884557Y-137501519D01*
X71040850Y-137503189D01*
X71166663Y-137505280D01*
X71263311Y-137507810D01*
X71332108Y-137510798D01*
X71374368Y-137514263D01*
X71391407Y-137518222D01*
X71391904Y-137519095D01*
X71386952Y-137539401D01*
X71372807Y-137591569D01*
X71350537Y-137671856D01*
X71321208Y-137776518D01*
X71285885Y-137901812D01*
X71245637Y-138043996D01*
X71201528Y-138199326D01*
X71154627Y-138364059D01*
X71106000Y-138534452D01*
X71056712Y-138706762D01*
X71007831Y-138877246D01*
X70960424Y-139042161D01*
X70915556Y-139197764D01*
X70874295Y-139340311D01*
X70837707Y-139466061D01*
X70815694Y-139541247D01*
X70778956Y-139666302D01*
X68629404Y-139666302D01*
X68301482Y-139666281D01*
X68008647Y-139666198D01*
X67748929Y-139666023D01*
X67520363Y-139665726D01*
X67320981Y-139665278D01*
X67148815Y-139664649D01*
X67001898Y-139663808D01*
X66878263Y-139662727D01*
X66775943Y-139661375D01*
X66692969Y-139659723D01*
X66627375Y-139657740D01*
X66577193Y-139655397D01*
X66540456Y-139652665D01*
X66515196Y-139649513D01*
X66499447Y-139645911D01*
X66491240Y-139641830D01*
X66488609Y-139637240D01*
X66488982Y-139633880D01*
X66498176Y-139602226D01*
X66514991Y-139545172D01*
X66536445Y-139472822D01*
X66546405Y-139439351D01*
X66594699Y-139277243D01*
X68074985Y-139277243D01*
X68344308Y-139277207D01*
X68578974Y-139277066D01*
X68781376Y-139276766D01*
X68953911Y-139276257D01*
X69098974Y-139275485D01*
X69218960Y-139274399D01*
X69316263Y-139272947D01*
X69393281Y-139271076D01*
X69452407Y-139268734D01*
X69496036Y-139265869D01*
X69526565Y-139262430D01*
X69546388Y-139258363D01*
X69557901Y-139253617D01*
X69563499Y-139248140D01*
X69564917Y-139244821D01*
X69578757Y-139197493D01*
X69600046Y-139123664D01*
X69627439Y-139028078D01*
X69659589Y-138915483D01*
X69695152Y-138790623D01*
X69732782Y-138658245D01*
X69771134Y-138523093D01*
X69808862Y-138389914D01*
X69844620Y-138263454D01*
X69877064Y-138148458D01*
X69904848Y-138049671D01*
X69926626Y-137971841D01*
X69941053Y-137919711D01*
X69946784Y-137898028D01*
X69946827Y-137897728D01*
X69928765Y-137896144D01*
X69876434Y-137894522D01*
X69792622Y-137892891D01*
X69680112Y-137891276D01*
X69541690Y-137889707D01*
X69380142Y-137888211D01*
X69198252Y-137886814D01*
X68998807Y-137885546D01*
X68784591Y-137884432D01*
X68558390Y-137883501D01*
X68477666Y-137883225D01*
X67008505Y-137878483D01*
X67277407Y-136938257D01*
X67546308Y-135998031D01*
X69693408Y-135998031D01*
X70029565Y-135998094D01*
G37*
G36*
X62145378Y-140328629D02*
G01*
X62161160Y-140391498D01*
X62174841Y-140450180D01*
X62175604Y-140453683D01*
X62182211Y-140488306D01*
X62188076Y-140515622D01*
X62197264Y-140536486D01*
X62213842Y-140551757D01*
X62241875Y-140562291D01*
X62285430Y-140568945D01*
X62348572Y-140572575D01*
X62435368Y-140574039D01*
X62549883Y-140574193D01*
X62696184Y-140573893D01*
X62745851Y-140573844D01*
X63286506Y-140573581D01*
X63388402Y-140416630D01*
X63490299Y-140259679D01*
X64144638Y-140259416D01*
X64798978Y-140259154D01*
X64695805Y-140405556D01*
X64651594Y-140469367D01*
X64616854Y-140521554D01*
X64596258Y-140554983D01*
X64592633Y-140563032D01*
X64609989Y-140567227D01*
X64657382Y-140570693D01*
X64727796Y-140573095D01*
X64814216Y-140574096D01*
X64824216Y-140574106D01*
X64911890Y-140574453D01*
X64984260Y-140575401D01*
X65034328Y-140576809D01*
X65055101Y-140578536D01*
X65055298Y-140578738D01*
X65050261Y-140597254D01*
X65036911Y-140644268D01*
X65017272Y-140712696D01*
X64993370Y-140795455D01*
X64993089Y-140796426D01*
X64931381Y-141009482D01*
X63812518Y-141015103D01*
X62693654Y-141020724D01*
X62624114Y-141107736D01*
X62554574Y-141194748D01*
X63626434Y-141199528D01*
X64698294Y-141204308D01*
X64363249Y-142371337D01*
X64028204Y-143538366D01*
X61919236Y-143538366D01*
X61594596Y-143538344D01*
X61305025Y-143538259D01*
X61048535Y-143538080D01*
X60823142Y-143537776D01*
X60626859Y-143537316D01*
X60457701Y-143536670D01*
X60313683Y-143535808D01*
X60192819Y-143534697D01*
X60093123Y-143533309D01*
X60012609Y-143531611D01*
X59949292Y-143529575D01*
X59901187Y-143527168D01*
X59866307Y-143524360D01*
X59842668Y-143521120D01*
X59828282Y-143517419D01*
X59821166Y-143513224D01*
X59819332Y-143508507D01*
X59819775Y-143505944D01*
X59826520Y-143482548D01*
X59842523Y-143426836D01*
X59866838Y-143342111D01*
X59898516Y-143231678D01*
X59932653Y-143112636D01*
X61224679Y-143112636D01*
X62041437Y-143107813D01*
X62858195Y-143102990D01*
X62889872Y-142996271D01*
X62921550Y-142889551D01*
X62106131Y-142894374D01*
X61290711Y-142899198D01*
X61257695Y-143005917D01*
X61224679Y-143112636D01*
X59932653Y-143112636D01*
X59936610Y-143098839D01*
X59980173Y-142946900D01*
X60028257Y-142779163D01*
X60079915Y-142598932D01*
X60118635Y-142463822D01*
X60125655Y-142439332D01*
X61424580Y-142439332D01*
X61430564Y-142445394D01*
X61450435Y-142450417D01*
X61487074Y-142454487D01*
X61543362Y-142457693D01*
X61622179Y-142460122D01*
X61726405Y-142461861D01*
X61858921Y-142462999D01*
X62022607Y-142463624D01*
X62220344Y-142463822D01*
X62229395Y-142463822D01*
X62398433Y-142463512D01*
X62555790Y-142462626D01*
X62697650Y-142461230D01*
X62820198Y-142459388D01*
X62919617Y-142457165D01*
X62992091Y-142454627D01*
X63033806Y-142451840D01*
X63042616Y-142449927D01*
X63052210Y-142425570D01*
X63067879Y-142377827D01*
X63079764Y-142338767D01*
X63108506Y-142241502D01*
X62296075Y-142241502D01*
X61483643Y-142241502D01*
X61454112Y-142328173D01*
X61436756Y-142383816D01*
X61426138Y-142426932D01*
X61424580Y-142439332D01*
X60125655Y-142439332D01*
X60173297Y-142273128D01*
X60225890Y-142089749D01*
X60275347Y-141917396D01*
X60310667Y-141794381D01*
X61609847Y-141794381D01*
X61621027Y-141799822D01*
X61655883Y-141804357D01*
X61716385Y-141808036D01*
X61804504Y-141810910D01*
X61922211Y-141813030D01*
X62071476Y-141814447D01*
X62254271Y-141815213D01*
X62422702Y-141815390D01*
X63235558Y-141815390D01*
X63246691Y-141764442D01*
X63259741Y-141709413D01*
X63269694Y-141671809D01*
X63281564Y-141630124D01*
X62467165Y-141630124D01*
X61652765Y-141630124D01*
X61631306Y-141701748D01*
X61617567Y-141752506D01*
X61610227Y-141789172D01*
X61609847Y-141794381D01*
X60310667Y-141794381D01*
X60320602Y-141759780D01*
X60360590Y-141620613D01*
X60394243Y-141503605D01*
X60420496Y-141412469D01*
X60438282Y-141350915D01*
X60444640Y-141329066D01*
X60481292Y-141204012D01*
X60802998Y-141204012D01*
X61124704Y-141204012D01*
X61202261Y-141111378D01*
X61279818Y-141018745D01*
X60768611Y-141018745D01*
X60635314Y-141018331D01*
X60514972Y-141017162D01*
X60412309Y-141015348D01*
X60332044Y-141013000D01*
X60278901Y-141010227D01*
X60257600Y-141007141D01*
X60257403Y-141006808D01*
X60262051Y-140985242D01*
X60274695Y-140935478D01*
X60293382Y-140865012D01*
X60315294Y-140784489D01*
X60373184Y-140574106D01*
X60639510Y-140574106D01*
X60733987Y-140573197D01*
X60813626Y-140570697D01*
X60871907Y-140566947D01*
X60902309Y-140562288D01*
X60905202Y-140560211D01*
X60900890Y-140536750D01*
X60890016Y-140486945D01*
X60874711Y-140420473D01*
X60870525Y-140402735D01*
X60836481Y-140259154D01*
X61481823Y-140259154D01*
X62127164Y-140259154D01*
X62145378Y-140328629D01*
G37*
%TD*%
D10*
%TO.C,H3*%
X70000000Y-113000000D03*
%TD*%
%TO.C,H1*%
X70000000Y-75000000D03*
%TD*%
%TO.C,H4*%
X165000000Y-73000000D03*
%TD*%
%TO.C,H2*%
X165000000Y-130000000D03*
%TD*%
%TO.C,H5*%
X117500000Y-127000000D03*
%TD*%
%TO.C,H6*%
X117500000Y-70000000D03*
%TD*%
M02*
