M48
; DRILL file {KiCad 7.0.6} date Sat Aug 12 15:46:35 2023
; FORMAT={-:-/ absolute / inch / decimal}
; #@! TF.CreationDate,2023-08-12T15:46:35+09:00
; #@! TF.GenerationSoftware,Kicad,Pcbnew,7.0.6
; #@! TF.FileFunction,NonPlated,1,2,NPTH
FMAT,2
INCH
; #@! TA.AperFunction,NonPlated,NPTH,ComponentDrill
T1C0.0256
; #@! TA.AperFunction,NonPlated,NPTH,ComponentDrill
T2C0.0689
; #@! TA.AperFunction,NonPlated,NPTH,ComponentDrill
T3C0.1378
%
G90
G05
T1
X5.9492Y-1.0671
X6.1768Y-1.0671
T2
X1.3748Y-1.5748
X1.3748Y-2.3228
X1.3748Y-3.0709
X1.3748Y-3.8189
X1.7748Y-1.5748
X1.7748Y-2.3228
X1.7748Y-3.0709
X1.7748Y-3.8189
X2.1228Y-1.5354
X2.1228Y-2.2835
X2.1228Y-3.0315
X2.1228Y-3.7795
X2.4969Y-4.5276
X2.5228Y-1.5354
X2.5228Y-2.2835
X2.5228Y-3.0315
X2.5228Y-3.7795
X2.8709Y-1.4173
X2.8709Y-2.1654
X2.8709Y-2.9134
X2.8709Y-3.6614
X2.8969Y-4.5276
X3.2449Y-4.4094
X3.2709Y-1.4173
X3.2709Y-2.1654
X3.2709Y-2.9134
X3.2709Y-3.6614
X3.6189Y-1.378
X3.6189Y-2.126
X3.6189Y-2.874
X3.6189Y-3.622
X3.6449Y-4.4094
X3.9929Y-4.4094
X4.0189Y-1.378
X4.0189Y-2.126
X4.0189Y-2.874
X4.0189Y-3.622
X4.3669Y-1.4173
X4.3669Y-2.1654
X4.3669Y-2.9134
X4.3669Y-3.6614
X4.3929Y-4.4094
X4.7409Y-4.4882
X4.7669Y-1.4173
X4.7669Y-2.1654
X4.7669Y-2.9134
X4.7669Y-3.6614
X5.115Y-1.4961
X5.115Y-2.2441
X5.115Y-2.9921
X5.115Y-3.7402
X5.1409Y-4.4882
X5.515Y-1.4961
X5.515Y-2.2441
X5.515Y-2.9921
X5.515Y-3.7402
X5.811Y-4.2701
X5.863Y-1.4961
X5.863Y-2.2441
X5.863Y-2.9921
X6.1575Y-4.4701
X6.263Y-1.4961
X6.263Y-2.2441
X6.263Y-2.9921
T3
X1.9488Y-1.9488
X1.9488Y-3.4449
X3.8189Y-1.752
X3.8189Y-3.9961
X5.689Y-1.8701
X5.689Y-4.1142
T0
M30
