%TF.GenerationSoftware,KiCad,Pcbnew,7.0.6*%
%TF.CreationDate,2023-09-02T14:36:04+09:00*%
%TF.ProjectId,ember,656d6265-722e-46b6-9963-61645f706362,rev?*%
%TF.SameCoordinates,Original*%
%TF.FileFunction,Soldermask,Bot*%
%TF.FilePolarity,Negative*%
%FSLAX46Y46*%
G04 Gerber Fmt 4.6, Leading zero omitted, Abs format (unit mm)*
G04 Created by KiCad (PCBNEW 7.0.6) date 2023-09-02 14:36:04*
%MOMM*%
%LPD*%
G01*
G04 APERTURE LIST*
G04 Aperture macros list*
%AMRoundRect*
0 Rectangle with rounded corners*
0 $1 Rounding radius*
0 $2 $3 $4 $5 $6 $7 $8 $9 X,Y pos of 4 corners*
0 Add a 4 corners polygon primitive as box body*
4,1,4,$2,$3,$4,$5,$6,$7,$8,$9,$2,$3,0*
0 Add four circle primitives for the rounded corners*
1,1,$1+$1,$2,$3*
1,1,$1+$1,$4,$5*
1,1,$1+$1,$6,$7*
1,1,$1+$1,$8,$9*
0 Add four rect primitives between the rounded corners*
20,1,$1+$1,$2,$3,$4,$5,0*
20,1,$1+$1,$4,$5,$6,$7,0*
20,1,$1+$1,$6,$7,$8,$9,0*
20,1,$1+$1,$8,$9,$2,$3,0*%
G04 Aperture macros list end*
%ADD10C,1.750000*%
%ADD11C,2.200000*%
%ADD12R,1.500000X2.000000*%
%ADD13R,3.800000X2.000000*%
%ADD14RoundRect,0.225000X-0.250000X0.225000X-0.250000X-0.225000X0.250000X-0.225000X0.250000X0.225000X0*%
%ADD15RoundRect,0.150000X0.150000X-0.587500X0.150000X0.587500X-0.150000X0.587500X-0.150000X-0.587500X0*%
%ADD16R,1.700000X1.700000*%
%ADD17O,1.700000X1.700000*%
%ADD18RoundRect,0.200000X-0.275000X0.200000X-0.275000X-0.200000X0.275000X-0.200000X0.275000X0.200000X0*%
%ADD19RoundRect,0.200000X0.200000X0.275000X-0.200000X0.275000X-0.200000X-0.275000X0.200000X-0.275000X0*%
%ADD20RoundRect,0.225000X-0.225000X-0.250000X0.225000X-0.250000X0.225000X0.250000X-0.225000X0.250000X0*%
%ADD21RoundRect,0.225000X0.250000X-0.225000X0.250000X0.225000X-0.250000X0.225000X-0.250000X-0.225000X0*%
%ADD22R,0.450000X1.475000*%
%ADD23RoundRect,0.150000X-0.163846X-0.583790X0.423654X0.433790X0.163846X0.583790X-0.423654X-0.433790X0*%
%ADD24R,1.000000X0.750000*%
%ADD25RoundRect,0.075000X0.075000X-0.662500X0.075000X0.662500X-0.075000X0.662500X-0.075000X-0.662500X0*%
%ADD26RoundRect,0.075000X0.662500X-0.075000X0.662500X0.075000X-0.662500X0.075000X-0.662500X-0.075000X0*%
%ADD27RoundRect,0.225000X0.225000X0.250000X-0.225000X0.250000X-0.225000X-0.250000X0.225000X-0.250000X0*%
%ADD28RoundRect,0.200000X0.275000X-0.200000X0.275000X0.200000X-0.275000X0.200000X-0.275000X-0.200000X0*%
%ADD29RoundRect,0.150000X-0.512500X-0.150000X0.512500X-0.150000X0.512500X0.150000X-0.512500X0.150000X0*%
%ADD30R,1.200000X1.400000*%
%ADD31RoundRect,0.200000X-0.200000X-0.275000X0.200000X-0.275000X0.200000X0.275000X-0.200000X0.275000X0*%
%ADD32R,0.650000X1.525000*%
%ADD33C,0.650000*%
%ADD34R,0.300000X1.150000*%
%ADD35O,1.000000X1.600000*%
%ADD36O,1.000000X2.100000*%
%ADD37RoundRect,0.218750X-0.218750X-0.256250X0.218750X-0.256250X0.218750X0.256250X-0.218750X0.256250X0*%
G04 APERTURE END LIST*
D10*
%TO.C,H35*%
X102920000Y-137500000D03*
X113080000Y-137500000D03*
%TD*%
%TO.C,H23*%
X93420000Y-99500000D03*
X103580000Y-99500000D03*
%TD*%
D11*
%TO.C,H3*%
X70000000Y-113000000D03*
%TD*%
D10*
%TO.C,H9*%
X93420000Y-61500000D03*
X103580000Y-61500000D03*
%TD*%
%TO.C,H26*%
X150420000Y-101500000D03*
X160580000Y-101500000D03*
%TD*%
%TO.C,H8*%
X74420000Y-64500000D03*
X84580000Y-64500000D03*
%TD*%
%TO.C,H37*%
X140920000Y-139500000D03*
X151080000Y-139500000D03*
%TD*%
%TO.C,H17*%
X112420000Y-79500000D03*
X122580000Y-79500000D03*
%TD*%
%TO.C,H25*%
X131420000Y-99500000D03*
X141580000Y-99500000D03*
%TD*%
%TO.C,H15*%
X74420000Y-83500000D03*
X84580000Y-83500000D03*
%TD*%
%TO.C,H30*%
X93420000Y-118500000D03*
X103580000Y-118500000D03*
%TD*%
%TO.C,H27*%
X169420000Y-101500000D03*
X179580000Y-101500000D03*
%TD*%
%TO.C,H7*%
X55420000Y-65500000D03*
X65580000Y-65500000D03*
%TD*%
%TO.C,H29*%
X74420000Y-121500000D03*
X84580000Y-121500000D03*
%TD*%
%TO.C,H16*%
X93420000Y-80500000D03*
X103580000Y-80500000D03*
%TD*%
D11*
%TO.C,H1*%
X70000000Y-75000000D03*
%TD*%
D10*
%TO.C,H20*%
X169420000Y-82500000D03*
X179580000Y-82500000D03*
%TD*%
D11*
%TO.C,H4*%
X165000000Y-73000000D03*
%TD*%
D10*
%TO.C,H38*%
X168100591Y-133960000D03*
X176899409Y-139040000D03*
%TD*%
%TO.C,H11*%
X131420000Y-61500000D03*
X141580000Y-61500000D03*
%TD*%
%TO.C,H22*%
X74420000Y-102500000D03*
X84580000Y-102500000D03*
%TD*%
%TO.C,H13*%
X169420000Y-63500000D03*
X179580000Y-63500000D03*
%TD*%
%TO.C,H19*%
X150420000Y-82500000D03*
X160580000Y-82500000D03*
%TD*%
D11*
%TO.C,H2*%
X165000000Y-130000000D03*
%TD*%
D10*
%TO.C,H36*%
X121920000Y-137500000D03*
X132080000Y-137500000D03*
%TD*%
%TO.C,H14*%
X55420000Y-84500000D03*
X65580000Y-84500000D03*
%TD*%
%TO.C,H21*%
X55420000Y-103500000D03*
X65580000Y-103500000D03*
%TD*%
%TO.C,H24*%
X112420000Y-98500000D03*
X122580000Y-98500000D03*
%TD*%
%TO.C,H31*%
X112420000Y-117500000D03*
X122580000Y-117500000D03*
%TD*%
D11*
%TO.C,H5*%
X117500000Y-127000000D03*
%TD*%
D10*
%TO.C,H32*%
X131420000Y-118500000D03*
X141580000Y-118500000D03*
%TD*%
%TO.C,H18*%
X131420000Y-80500000D03*
X141580000Y-80500000D03*
%TD*%
%TO.C,H12*%
X150420000Y-63500000D03*
X160580000Y-63500000D03*
%TD*%
%TO.C,H33*%
X150420000Y-120500000D03*
X160580000Y-120500000D03*
%TD*%
%TO.C,H34*%
X83920000Y-140500000D03*
X94080000Y-140500000D03*
%TD*%
D11*
%TO.C,H6*%
X117500000Y-70000000D03*
%TD*%
D10*
%TO.C,H10*%
X112420000Y-60500000D03*
X122580000Y-60500000D03*
%TD*%
%TO.C,H28*%
X55420000Y-122500000D03*
X65580000Y-122500000D03*
%TD*%
D12*
%TO.C,U2*%
X177700000Y-69850000D03*
X180000000Y-69850000D03*
D13*
X180000000Y-76150000D03*
D12*
X182300000Y-69850000D03*
%TD*%
D14*
%TO.C,C18*%
X123000000Y-125725000D03*
X123000000Y-127275000D03*
%TD*%
D15*
%TO.C,U18*%
X80450000Y-103437500D03*
X78550000Y-103437500D03*
X79500000Y-101562500D03*
%TD*%
%TO.C,U3*%
X61450000Y-66437500D03*
X59550000Y-66437500D03*
X60500000Y-64562500D03*
%TD*%
D16*
%TO.C,J2*%
X184000000Y-86920000D03*
D17*
X184000000Y-89460000D03*
X184000000Y-92000000D03*
X184000000Y-94540000D03*
X184000000Y-97080000D03*
%TD*%
D18*
%TO.C,R1*%
X170000000Y-49675000D03*
X170000000Y-51325000D03*
%TD*%
D19*
%TO.C,R4*%
X146825000Y-97500000D03*
X145175000Y-97500000D03*
%TD*%
D15*
%TO.C,U12*%
X99450000Y-81437500D03*
X97550000Y-81437500D03*
X98500000Y-79562500D03*
%TD*%
D20*
%TO.C,C2*%
X153725000Y-92500000D03*
X155275000Y-92500000D03*
%TD*%
D21*
%TO.C,C10*%
X175500000Y-73775000D03*
X175500000Y-72225000D03*
%TD*%
D15*
%TO.C,U8*%
X156450000Y-64437500D03*
X154550000Y-64437500D03*
X155500000Y-62562500D03*
%TD*%
%TO.C,U20*%
X118450000Y-99437500D03*
X116550000Y-99437500D03*
X117500000Y-97562500D03*
%TD*%
%TO.C,U14*%
X137450000Y-81437500D03*
X135550000Y-81437500D03*
X136500000Y-79562500D03*
%TD*%
D14*
%TO.C,C16*%
X131000000Y-103725000D03*
X131000000Y-105275000D03*
%TD*%
D22*
%TO.C,IC3*%
X129275000Y-91938000D03*
X128625000Y-91938000D03*
X127975000Y-91938000D03*
X127325000Y-91938000D03*
X126675000Y-91938000D03*
X126025000Y-91938000D03*
X125375000Y-91938000D03*
X124725000Y-91938000D03*
X124725000Y-86062000D03*
X125375000Y-86062000D03*
X126025000Y-86062000D03*
X126675000Y-86062000D03*
X127325000Y-86062000D03*
X127975000Y-86062000D03*
X128625000Y-86062000D03*
X129275000Y-86062000D03*
%TD*%
D18*
%TO.C,R3*%
X158500000Y-59175000D03*
X158500000Y-60825000D03*
%TD*%
D15*
%TO.C,U9*%
X175450000Y-64437500D03*
X173550000Y-64437500D03*
X174500000Y-62562500D03*
%TD*%
%TO.C,U24*%
X61450000Y-123437500D03*
X59550000Y-123437500D03*
X60500000Y-121562500D03*
%TD*%
D23*
%TO.C,U34*%
X172853974Y-137786899D03*
X171208526Y-136836899D03*
X172968750Y-135688101D03*
%TD*%
D21*
%TO.C,C15*%
X131000000Y-92775000D03*
X131000000Y-91225000D03*
%TD*%
D24*
%TO.C,SW2*%
X162000000Y-96875000D03*
X168000000Y-96875000D03*
X162000000Y-93125000D03*
X168000000Y-93125000D03*
%TD*%
D25*
%TO.C,MCU1*%
X148750000Y-94162500D03*
X148250000Y-94162500D03*
X147750000Y-94162500D03*
X147250000Y-94162500D03*
X146750000Y-94162500D03*
X146250000Y-94162500D03*
X145750000Y-94162500D03*
X145250000Y-94162500D03*
X144750000Y-94162500D03*
X144250000Y-94162500D03*
X143750000Y-94162500D03*
X143250000Y-94162500D03*
D26*
X141837500Y-92750000D03*
X141837500Y-92250000D03*
X141837500Y-91750000D03*
X141837500Y-91250000D03*
X141837500Y-90750000D03*
X141837500Y-90250000D03*
X141837500Y-89750000D03*
X141837500Y-89250000D03*
X141837500Y-88750000D03*
X141837500Y-88250000D03*
X141837500Y-87750000D03*
X141837500Y-87250000D03*
D25*
X143250000Y-85837500D03*
X143750000Y-85837500D03*
X144250000Y-85837500D03*
X144750000Y-85837500D03*
X145250000Y-85837500D03*
X145750000Y-85837500D03*
X146250000Y-85837500D03*
X146750000Y-85837500D03*
X147250000Y-85837500D03*
X147750000Y-85837500D03*
X148250000Y-85837500D03*
X148750000Y-85837500D03*
D26*
X150162500Y-87250000D03*
X150162500Y-87750000D03*
X150162500Y-88250000D03*
X150162500Y-88750000D03*
X150162500Y-89250000D03*
X150162500Y-89750000D03*
X150162500Y-90250000D03*
X150162500Y-90750000D03*
X150162500Y-91250000D03*
X150162500Y-91750000D03*
X150162500Y-92250000D03*
X150162500Y-92750000D03*
%TD*%
D22*
%TO.C,IC5*%
X129275000Y-129938000D03*
X128625000Y-129938000D03*
X127975000Y-129938000D03*
X127325000Y-129938000D03*
X126675000Y-129938000D03*
X126025000Y-129938000D03*
X125375000Y-129938000D03*
X124725000Y-129938000D03*
X124725000Y-124062000D03*
X125375000Y-124062000D03*
X126025000Y-124062000D03*
X126675000Y-124062000D03*
X127325000Y-124062000D03*
X127975000Y-124062000D03*
X128625000Y-124062000D03*
X129275000Y-124062000D03*
%TD*%
%TO.C,IC2*%
X129275000Y-72938000D03*
X128625000Y-72938000D03*
X127975000Y-72938000D03*
X127325000Y-72938000D03*
X126675000Y-72938000D03*
X126025000Y-72938000D03*
X125375000Y-72938000D03*
X124725000Y-72938000D03*
X124725000Y-67062000D03*
X125375000Y-67062000D03*
X126025000Y-67062000D03*
X126675000Y-67062000D03*
X127325000Y-67062000D03*
X127975000Y-67062000D03*
X128625000Y-67062000D03*
X129275000Y-67062000D03*
%TD*%
D27*
%TO.C,C8*%
X161275000Y-85000000D03*
X159725000Y-85000000D03*
%TD*%
D28*
%TO.C,R5*%
X169500000Y-87075000D03*
X169500000Y-85425000D03*
%TD*%
D21*
%TO.C,C19*%
X131000000Y-130275000D03*
X131000000Y-128725000D03*
%TD*%
D24*
%TO.C,SW1*%
X162000000Y-90875000D03*
X168000000Y-90875000D03*
X162000000Y-87125000D03*
X168000000Y-87125000D03*
%TD*%
D15*
%TO.C,U27*%
X118450000Y-118437500D03*
X116550000Y-118437500D03*
X117500000Y-116562500D03*
%TD*%
D14*
%TO.C,C6*%
X148500000Y-99450000D03*
X148500000Y-101000000D03*
%TD*%
D15*
%TO.C,U16*%
X175450000Y-83437500D03*
X173550000Y-83437500D03*
X174500000Y-81562500D03*
%TD*%
D20*
%TO.C,C14*%
X127725000Y-84000000D03*
X129275000Y-84000000D03*
%TD*%
D15*
%TO.C,U21*%
X137450000Y-100437500D03*
X135550000Y-100437500D03*
X136500000Y-98562500D03*
%TD*%
D29*
%TO.C,U1*%
X163862500Y-59450000D03*
X163862500Y-58500000D03*
X163862500Y-57550000D03*
X166137500Y-57550000D03*
X166137500Y-58500000D03*
X166137500Y-59450000D03*
%TD*%
D15*
%TO.C,U31*%
X108950000Y-138437500D03*
X107050000Y-138437500D03*
X108000000Y-136562500D03*
%TD*%
%TO.C,U32*%
X127950000Y-138437500D03*
X126050000Y-138437500D03*
X127000000Y-136562500D03*
%TD*%
D14*
%TO.C,C9*%
X184500000Y-72225000D03*
X184500000Y-73775000D03*
%TD*%
D15*
%TO.C,U26*%
X99450000Y-119437500D03*
X97550000Y-119437500D03*
X98500000Y-117562500D03*
%TD*%
D30*
%TO.C,Y1*%
X146850000Y-99400000D03*
X146850000Y-101600000D03*
X145150000Y-101600000D03*
X145150000Y-99400000D03*
%TD*%
D28*
%TO.C,R6*%
X171000000Y-87075000D03*
X171000000Y-85425000D03*
%TD*%
D15*
%TO.C,U15*%
X156450000Y-83437500D03*
X154550000Y-83437500D03*
X155500000Y-81562500D03*
%TD*%
D20*
%TO.C,C13*%
X127725000Y-76000000D03*
X129275000Y-76000000D03*
%TD*%
D15*
%TO.C,U23*%
X175450000Y-102437500D03*
X173550000Y-102437500D03*
X174500000Y-100562500D03*
%TD*%
%TO.C,U7*%
X137450000Y-62437500D03*
X135550000Y-62437500D03*
X136500000Y-60562500D03*
%TD*%
%TO.C,U25*%
X80450000Y-122437500D03*
X78550000Y-122437500D03*
X79500000Y-120562500D03*
%TD*%
D31*
%TO.C,R7*%
X163675000Y-52500000D03*
X165325000Y-52500000D03*
%TD*%
D15*
%TO.C,U17*%
X61450000Y-104437500D03*
X59550000Y-104437500D03*
X60500000Y-102562500D03*
%TD*%
%TO.C,U28*%
X137450000Y-119437500D03*
X135550000Y-119437500D03*
X136500000Y-117562500D03*
%TD*%
%TO.C,U22*%
X156450000Y-102437500D03*
X154550000Y-102437500D03*
X155500000Y-100562500D03*
%TD*%
%TO.C,U5*%
X99450000Y-62437500D03*
X97550000Y-62437500D03*
X98500000Y-60562500D03*
%TD*%
%TO.C,U13*%
X118450000Y-80437500D03*
X116550000Y-80437500D03*
X117500000Y-78562500D03*
%TD*%
D27*
%TO.C,C4*%
X138275000Y-87500000D03*
X136725000Y-87500000D03*
%TD*%
D15*
%TO.C,U11*%
X80450000Y-84437500D03*
X78550000Y-84437500D03*
X79500000Y-82562500D03*
%TD*%
%TO.C,U6*%
X118450000Y-61437500D03*
X116550000Y-61437500D03*
X117500000Y-59562500D03*
%TD*%
%TO.C,U19*%
X99450000Y-100437500D03*
X97550000Y-100437500D03*
X98500000Y-98562500D03*
%TD*%
D20*
%TO.C,C11*%
X164225000Y-99000000D03*
X165775000Y-99000000D03*
%TD*%
D27*
%TO.C,C5*%
X142775000Y-97500000D03*
X141225000Y-97500000D03*
%TD*%
D32*
%TO.C,IC1*%
X163095000Y-79038000D03*
X164365000Y-79038000D03*
X165635000Y-79038000D03*
X166905000Y-79038000D03*
X166905000Y-84462000D03*
X165635000Y-84462000D03*
X164365000Y-84462000D03*
X163095000Y-84462000D03*
%TD*%
D33*
%TO.C,J1*%
X171610000Y-46605000D03*
X177390000Y-46605000D03*
D34*
X171150000Y-47670000D03*
X171950000Y-47670000D03*
X173250000Y-47670000D03*
X174250000Y-47670000D03*
X174750000Y-47670000D03*
X175750000Y-47670000D03*
X177050000Y-47670000D03*
X177850000Y-47670000D03*
X177550000Y-47670000D03*
X176750000Y-47670000D03*
X176250000Y-47670000D03*
X175250000Y-47670000D03*
X173750000Y-47670000D03*
X172750000Y-47670000D03*
X172250000Y-47670000D03*
X171450000Y-47670000D03*
D35*
X170180000Y-42925000D03*
D36*
X170180000Y-47105000D03*
D35*
X178820000Y-42925000D03*
D36*
X178820000Y-47105000D03*
%TD*%
D14*
%TO.C,C17*%
X131000000Y-109950000D03*
X131000000Y-111500000D03*
%TD*%
D20*
%TO.C,C7*%
X145225000Y-103500000D03*
X146775000Y-103500000D03*
%TD*%
D14*
%TO.C,C12*%
X132500000Y-66725000D03*
X132500000Y-68275000D03*
%TD*%
D15*
%TO.C,U29*%
X156450000Y-121437500D03*
X154550000Y-121437500D03*
X155500000Y-119562500D03*
%TD*%
%TO.C,U10*%
X61450000Y-85437500D03*
X59550000Y-85437500D03*
X60500000Y-83562500D03*
%TD*%
D31*
%TO.C,R8*%
X153675000Y-91000000D03*
X155325000Y-91000000D03*
%TD*%
D18*
%TO.C,R2*%
X179000000Y-49675000D03*
X179000000Y-51325000D03*
%TD*%
D21*
%TO.C,C1*%
X148500000Y-82275000D03*
X148500000Y-80725000D03*
%TD*%
D15*
%TO.C,U4*%
X80450000Y-65437500D03*
X78550000Y-65437500D03*
X79500000Y-63562500D03*
%TD*%
D14*
%TO.C,C3*%
X150000000Y-97725000D03*
X150000000Y-99275000D03*
%TD*%
D37*
%TO.C,D1*%
X163712500Y-51000000D03*
X165287500Y-51000000D03*
%TD*%
D15*
%TO.C,U30*%
X89950000Y-141437500D03*
X88050000Y-141437500D03*
X89000000Y-139562500D03*
%TD*%
%TO.C,U33*%
X146950000Y-140437500D03*
X145050000Y-140437500D03*
X146000000Y-138562500D03*
%TD*%
D22*
%TO.C,IC4*%
X129275000Y-110938000D03*
X128625000Y-110938000D03*
X127975000Y-110938000D03*
X127325000Y-110938000D03*
X126675000Y-110938000D03*
X126025000Y-110938000D03*
X125375000Y-110938000D03*
X124725000Y-110938000D03*
X124725000Y-105062000D03*
X125375000Y-105062000D03*
X126025000Y-105062000D03*
X126675000Y-105062000D03*
X127325000Y-105062000D03*
X127975000Y-105062000D03*
X128625000Y-105062000D03*
X129275000Y-105062000D03*
%TD*%
M02*
