%TF.GenerationSoftware,KiCad,Pcbnew,7.0.6*%
%TF.CreationDate,2023-08-12T15:46:35+09:00*%
%TF.ProjectId,ember,656d6265-722e-46b6-9963-61645f706362,rev?*%
%TF.SameCoordinates,Original*%
%TF.FileFunction,Soldermask,Bot*%
%TF.FilePolarity,Negative*%
%FSLAX46Y46*%
G04 Gerber Fmt 4.6, Leading zero omitted, Abs format (unit mm)*
G04 Created by KiCad (PCBNEW 7.0.6) date 2023-08-12 15:46:35*
%MOMM*%
%LPD*%
G01*
G04 APERTURE LIST*
G04 Aperture macros list*
%AMRoundRect*
0 Rectangle with rounded corners*
0 $1 Rounding radius*
0 $2 $3 $4 $5 $6 $7 $8 $9 X,Y pos of 4 corners*
0 Add a 4 corners polygon primitive as box body*
4,1,4,$2,$3,$4,$5,$6,$7,$8,$9,$2,$3,0*
0 Add four circle primitives for the rounded corners*
1,1,$1+$1,$2,$3*
1,1,$1+$1,$4,$5*
1,1,$1+$1,$6,$7*
1,1,$1+$1,$8,$9*
0 Add four rect primitives between the rounded corners*
20,1,$1+$1,$2,$3,$4,$5,0*
20,1,$1+$1,$4,$5,$6,$7,0*
20,1,$1+$1,$6,$7,$8,$9,0*
20,1,$1+$1,$8,$9,$2,$3,0*%
G04 Aperture macros list end*
%ADD10C,1.750000*%
%ADD11C,3.500000*%
%ADD12R,1.500000X2.000000*%
%ADD13R,3.800000X2.000000*%
%ADD14RoundRect,0.150000X0.150000X-0.587500X0.150000X0.587500X-0.150000X0.587500X-0.150000X-0.587500X0*%
%ADD15RoundRect,0.200000X-0.275000X0.200000X-0.275000X-0.200000X0.275000X-0.200000X0.275000X0.200000X0*%
%ADD16C,1.000000*%
%ADD17RoundRect,0.200000X0.200000X0.275000X-0.200000X0.275000X-0.200000X-0.275000X0.200000X-0.275000X0*%
%ADD18RoundRect,0.225000X-0.225000X-0.250000X0.225000X-0.250000X0.225000X0.250000X-0.225000X0.250000X0*%
%ADD19RoundRect,0.225000X0.250000X-0.225000X0.250000X0.225000X-0.250000X0.225000X-0.250000X-0.225000X0*%
%ADD20R,0.650000X1.525000*%
%ADD21RoundRect,0.150000X-0.163846X-0.583790X0.423654X0.433790X0.163846X0.583790X-0.423654X-0.433790X0*%
%ADD22R,1.000000X0.750000*%
%ADD23RoundRect,0.075000X0.075000X-0.662500X0.075000X0.662500X-0.075000X0.662500X-0.075000X-0.662500X0*%
%ADD24RoundRect,0.075000X0.662500X-0.075000X0.662500X0.075000X-0.662500X0.075000X-0.662500X-0.075000X0*%
%ADD25RoundRect,0.225000X-0.250000X0.225000X-0.250000X-0.225000X0.250000X-0.225000X0.250000X0.225000X0*%
%ADD26R,1.200000X1.400000*%
%ADD27RoundRect,0.150000X-0.587500X-0.150000X0.587500X-0.150000X0.587500X0.150000X-0.587500X0.150000X0*%
%ADD28RoundRect,0.200000X-0.200000X-0.275000X0.200000X-0.275000X0.200000X0.275000X-0.200000X0.275000X0*%
%ADD29RoundRect,0.225000X0.225000X0.250000X-0.225000X0.250000X-0.225000X-0.250000X0.225000X-0.250000X0*%
%ADD30C,0.650000*%
%ADD31R,0.300000X1.150000*%
%ADD32O,1.000000X1.600000*%
%ADD33O,1.000000X2.100000*%
%ADD34RoundRect,0.218750X-0.218750X-0.256250X0.218750X-0.256250X0.218750X0.256250X-0.218750X0.256250X0*%
G04 APERTURE END LIST*
D10*
%TO.C,H29*%
X82420000Y-112000000D03*
X92580000Y-112000000D03*
%TD*%
%TO.C,H17*%
X72920000Y-74000000D03*
X83080000Y-74000000D03*
%TD*%
D11*
%TO.C,H34*%
X49500000Y-87500000D03*
%TD*%
D10*
%TO.C,H3*%
X72920000Y-36000000D03*
X83080000Y-36000000D03*
%TD*%
%TO.C,H20*%
X129920000Y-76000000D03*
X140080000Y-76000000D03*
%TD*%
%TO.C,H2*%
X53920000Y-39000000D03*
X64080000Y-39000000D03*
%TD*%
%TO.C,H31*%
X120420000Y-114000000D03*
X130580000Y-114000000D03*
%TD*%
%TO.C,H11*%
X91920000Y-54000000D03*
X102080000Y-54000000D03*
%TD*%
%TO.C,H19*%
X110920000Y-74000000D03*
X121080000Y-74000000D03*
%TD*%
%TO.C,H9*%
X53920000Y-58000000D03*
X64080000Y-58000000D03*
%TD*%
%TO.C,H24*%
X72920000Y-93000000D03*
X83080000Y-93000000D03*
%TD*%
%TO.C,H21*%
X148920000Y-76000000D03*
X159080000Y-76000000D03*
%TD*%
%TO.C,H1*%
X34920000Y-40000000D03*
X45080000Y-40000000D03*
%TD*%
%TO.C,H23*%
X53920000Y-96000000D03*
X64080000Y-96000000D03*
%TD*%
%TO.C,H10*%
X72920000Y-55000000D03*
X83080000Y-55000000D03*
%TD*%
D11*
%TO.C,H33*%
X49500000Y-49500000D03*
%TD*%
D10*
%TO.C,H14*%
X148920000Y-57000000D03*
X159080000Y-57000000D03*
%TD*%
D11*
%TO.C,H37*%
X144500000Y-47500000D03*
%TD*%
D10*
%TO.C,H32*%
X147600591Y-108460000D03*
X156399409Y-113540000D03*
%TD*%
%TO.C,H5*%
X110920000Y-36000000D03*
X121080000Y-36000000D03*
%TD*%
%TO.C,H16*%
X53920000Y-77000000D03*
X64080000Y-77000000D03*
%TD*%
%TO.C,H7*%
X148920000Y-38000000D03*
X159080000Y-38000000D03*
%TD*%
%TO.C,H13*%
X129920000Y-57000000D03*
X140080000Y-57000000D03*
%TD*%
D11*
%TO.C,H36*%
X144500000Y-104500000D03*
%TD*%
D10*
%TO.C,H30*%
X101420000Y-112000000D03*
X111580000Y-112000000D03*
%TD*%
%TO.C,H8*%
X34920000Y-59000000D03*
X45080000Y-59000000D03*
%TD*%
%TO.C,H15*%
X34920000Y-78000000D03*
X45080000Y-78000000D03*
%TD*%
%TO.C,H18*%
X91920000Y-73000000D03*
X102080000Y-73000000D03*
%TD*%
%TO.C,H25*%
X91920000Y-92000000D03*
X102080000Y-92000000D03*
%TD*%
D11*
%TO.C,H35*%
X97000000Y-101500000D03*
%TD*%
D10*
%TO.C,H26*%
X110920000Y-93000000D03*
X121080000Y-93000000D03*
%TD*%
%TO.C,H12*%
X110920000Y-55000000D03*
X121080000Y-55000000D03*
%TD*%
%TO.C,H6*%
X129920000Y-38000000D03*
X140080000Y-38000000D03*
%TD*%
%TO.C,H27*%
X129920000Y-95000000D03*
X140080000Y-95000000D03*
%TD*%
%TO.C,H28*%
X63420000Y-115000000D03*
X73580000Y-115000000D03*
%TD*%
D11*
%TO.C,H38*%
X97000000Y-44500000D03*
%TD*%
D10*
%TO.C,H4*%
X91920000Y-35000000D03*
X102080000Y-35000000D03*
%TD*%
%TO.C,H22*%
X34920000Y-97000000D03*
X45080000Y-97000000D03*
%TD*%
D12*
%TO.C,U33*%
X157200000Y-44350000D03*
X159500000Y-44350000D03*
D13*
X159500000Y-50650000D03*
D12*
X161800000Y-44350000D03*
%TD*%
D14*
%TO.C,U30*%
X59950000Y-77937500D03*
X58050000Y-77937500D03*
X59000000Y-76062500D03*
%TD*%
%TO.C,U1*%
X40950000Y-40937500D03*
X39050000Y-40937500D03*
X40000000Y-39062500D03*
%TD*%
D15*
%TO.C,R1*%
X147500000Y-27175000D03*
X147500000Y-28825000D03*
%TD*%
D16*
%TO.C,TP1*%
X142500000Y-59500000D03*
%TD*%
D17*
%TO.C,R3*%
X126325000Y-72000000D03*
X124675000Y-72000000D03*
%TD*%
D14*
%TO.C,U6*%
X78950000Y-55937500D03*
X77050000Y-55937500D03*
X78000000Y-54062500D03*
%TD*%
D18*
%TO.C,C4*%
X133225000Y-67000000D03*
X134775000Y-67000000D03*
%TD*%
D19*
%TO.C,C1*%
X155000000Y-48275000D03*
X155000000Y-46725000D03*
%TD*%
D14*
%TO.C,U21*%
X135950000Y-38937500D03*
X134050000Y-38937500D03*
X135000000Y-37062500D03*
%TD*%
%TO.C,U7*%
X97950000Y-73937500D03*
X96050000Y-73937500D03*
X97000000Y-72062500D03*
%TD*%
%TO.C,U14*%
X116950000Y-55937500D03*
X115050000Y-55937500D03*
X116000000Y-54062500D03*
%TD*%
%TO.C,U25*%
X154950000Y-38937500D03*
X153050000Y-38937500D03*
X154000000Y-37062500D03*
%TD*%
D20*
%TO.C,IC4*%
X102055000Y-98788000D03*
X103325000Y-98788000D03*
X104595000Y-98788000D03*
X105865000Y-98788000D03*
X107135000Y-98788000D03*
X108405000Y-98788000D03*
X109675000Y-98788000D03*
X110945000Y-98788000D03*
X110945000Y-104212000D03*
X109675000Y-104212000D03*
X108405000Y-104212000D03*
X107135000Y-104212000D03*
X105865000Y-104212000D03*
X104595000Y-104212000D03*
X103325000Y-104212000D03*
X102055000Y-104212000D03*
%TD*%
D14*
%TO.C,U23*%
X40950000Y-97937500D03*
X39050000Y-97937500D03*
X40000000Y-96062500D03*
%TD*%
D21*
%TO.C,U32*%
X152353974Y-112286899D03*
X150708526Y-111336899D03*
X152468750Y-110188101D03*
%TD*%
D22*
%TO.C,SW1*%
X141500000Y-71375000D03*
X147500000Y-71375000D03*
X141500000Y-67625000D03*
X147500000Y-67625000D03*
%TD*%
D23*
%TO.C,MCU1*%
X128250000Y-68662500D03*
X127750000Y-68662500D03*
X127250000Y-68662500D03*
X126750000Y-68662500D03*
X126250000Y-68662500D03*
X125750000Y-68662500D03*
X125250000Y-68662500D03*
X124750000Y-68662500D03*
X124250000Y-68662500D03*
X123750000Y-68662500D03*
X123250000Y-68662500D03*
X122750000Y-68662500D03*
D24*
X121337500Y-67250000D03*
X121337500Y-66750000D03*
X121337500Y-66250000D03*
X121337500Y-65750000D03*
X121337500Y-65250000D03*
X121337500Y-64750000D03*
X121337500Y-64250000D03*
X121337500Y-63750000D03*
X121337500Y-63250000D03*
X121337500Y-62750000D03*
X121337500Y-62250000D03*
X121337500Y-61750000D03*
D23*
X122750000Y-60337500D03*
X123250000Y-60337500D03*
X123750000Y-60337500D03*
X124250000Y-60337500D03*
X124750000Y-60337500D03*
X125250000Y-60337500D03*
X125750000Y-60337500D03*
X126250000Y-60337500D03*
X126750000Y-60337500D03*
X127250000Y-60337500D03*
X127750000Y-60337500D03*
X128250000Y-60337500D03*
D24*
X129662500Y-61750000D03*
X129662500Y-62250000D03*
X129662500Y-62750000D03*
X129662500Y-63250000D03*
X129662500Y-63750000D03*
X129662500Y-64250000D03*
X129662500Y-64750000D03*
X129662500Y-65250000D03*
X129662500Y-65750000D03*
X129662500Y-66250000D03*
X129662500Y-66750000D03*
X129662500Y-67250000D03*
%TD*%
D22*
%TO.C,SW2*%
X141500000Y-65375000D03*
X147500000Y-65375000D03*
X141500000Y-61625000D03*
X147500000Y-61625000D03*
%TD*%
D14*
%TO.C,U4*%
X97950000Y-92937500D03*
X96050000Y-92937500D03*
X97000000Y-91062500D03*
%TD*%
D25*
%TO.C,C9*%
X128000000Y-73950000D03*
X128000000Y-75500000D03*
%TD*%
D14*
%TO.C,U22*%
X154950000Y-57937500D03*
X153050000Y-57937500D03*
X154000000Y-56062500D03*
%TD*%
%TO.C,U11*%
X116950000Y-74937500D03*
X115050000Y-74937500D03*
X116000000Y-73062500D03*
%TD*%
D20*
%TO.C,IC1*%
X102055000Y-41788000D03*
X103325000Y-41788000D03*
X104595000Y-41788000D03*
X105865000Y-41788000D03*
X107135000Y-41788000D03*
X108405000Y-41788000D03*
X109675000Y-41788000D03*
X110945000Y-41788000D03*
X110945000Y-47212000D03*
X109675000Y-47212000D03*
X108405000Y-47212000D03*
X107135000Y-47212000D03*
X105865000Y-47212000D03*
X104595000Y-47212000D03*
X103325000Y-47212000D03*
X102055000Y-47212000D03*
%TD*%
D14*
%TO.C,U20*%
X88450000Y-112937500D03*
X86550000Y-112937500D03*
X87500000Y-111062500D03*
%TD*%
%TO.C,U24*%
X107450000Y-112937500D03*
X105550000Y-112937500D03*
X106500000Y-111062500D03*
%TD*%
D25*
%TO.C,C2*%
X164000000Y-46725000D03*
X164000000Y-48275000D03*
%TD*%
D14*
%TO.C,U31*%
X78950000Y-93937500D03*
X77050000Y-93937500D03*
X78000000Y-92062500D03*
%TD*%
D26*
%TO.C,Y1*%
X126350000Y-73900000D03*
X126350000Y-76100000D03*
X124650000Y-76100000D03*
X124650000Y-73900000D03*
%TD*%
D14*
%TO.C,U18*%
X135950000Y-57937500D03*
X134050000Y-57937500D03*
X135000000Y-56062500D03*
%TD*%
%TO.C,U19*%
X154950000Y-76937500D03*
X153050000Y-76937500D03*
X154000000Y-75062500D03*
%TD*%
%TO.C,U17*%
X116950000Y-36937500D03*
X115050000Y-36937500D03*
X116000000Y-35062500D03*
%TD*%
%TO.C,U27*%
X59950000Y-96937500D03*
X58050000Y-96937500D03*
X59000000Y-95062500D03*
%TD*%
D20*
%TO.C,IC3*%
X102055000Y-79788000D03*
X103325000Y-79788000D03*
X104595000Y-79788000D03*
X105865000Y-79788000D03*
X107135000Y-79788000D03*
X108405000Y-79788000D03*
X109675000Y-79788000D03*
X110945000Y-79788000D03*
X110945000Y-85212000D03*
X109675000Y-85212000D03*
X108405000Y-85212000D03*
X107135000Y-85212000D03*
X105865000Y-85212000D03*
X104595000Y-85212000D03*
X103325000Y-85212000D03*
X102055000Y-85212000D03*
%TD*%
D27*
%TO.C,D1*%
X143562500Y-33950000D03*
X143562500Y-32050000D03*
X145437500Y-33000000D03*
%TD*%
D28*
%TO.C,R5*%
X143175000Y-27000000D03*
X144825000Y-27000000D03*
%TD*%
D14*
%TO.C,U26*%
X40950000Y-78937500D03*
X39050000Y-78937500D03*
X40000000Y-77062500D03*
%TD*%
D20*
%TO.C,IC2*%
X102055000Y-60788000D03*
X103325000Y-60788000D03*
X104595000Y-60788000D03*
X105865000Y-60788000D03*
X107135000Y-60788000D03*
X108405000Y-60788000D03*
X109675000Y-60788000D03*
X110945000Y-60788000D03*
X110945000Y-66212000D03*
X109675000Y-66212000D03*
X108405000Y-66212000D03*
X107135000Y-66212000D03*
X105865000Y-66212000D03*
X104595000Y-66212000D03*
X103325000Y-66212000D03*
X102055000Y-66212000D03*
%TD*%
D14*
%TO.C,U8*%
X116950000Y-93937500D03*
X115050000Y-93937500D03*
X116000000Y-92062500D03*
%TD*%
%TO.C,U15*%
X135950000Y-76937500D03*
X134050000Y-76937500D03*
X135000000Y-75062500D03*
%TD*%
%TO.C,U9*%
X78950000Y-36937500D03*
X77050000Y-36937500D03*
X78000000Y-35062500D03*
%TD*%
D16*
%TO.C,TP3*%
X142500000Y-55500000D03*
%TD*%
D14*
%TO.C,U10*%
X97950000Y-54937500D03*
X96050000Y-54937500D03*
X97000000Y-53062500D03*
%TD*%
D29*
%TO.C,C6*%
X117775000Y-62000000D03*
X116225000Y-62000000D03*
%TD*%
D14*
%TO.C,U2*%
X59950000Y-58937500D03*
X58050000Y-58937500D03*
X59000000Y-57062500D03*
%TD*%
%TO.C,U13*%
X97950000Y-35937500D03*
X96050000Y-35937500D03*
X97000000Y-34062500D03*
%TD*%
%TO.C,U3*%
X78950000Y-74937500D03*
X77050000Y-74937500D03*
X78000000Y-73062500D03*
%TD*%
D16*
%TO.C,TP4*%
X142500000Y-53500000D03*
%TD*%
D18*
%TO.C,C11*%
X143725000Y-73500000D03*
X145275000Y-73500000D03*
%TD*%
D29*
%TO.C,C7*%
X122275000Y-72000000D03*
X120725000Y-72000000D03*
%TD*%
D30*
%TO.C,J2*%
X151110000Y-27105000D03*
X156890000Y-27105000D03*
D31*
X150650000Y-28170000D03*
X151450000Y-28170000D03*
X152750000Y-28170000D03*
X153750000Y-28170000D03*
X154250000Y-28170000D03*
X155250000Y-28170000D03*
X156550000Y-28170000D03*
X157350000Y-28170000D03*
X157050000Y-28170000D03*
X156250000Y-28170000D03*
X155750000Y-28170000D03*
X154750000Y-28170000D03*
X153250000Y-28170000D03*
X152250000Y-28170000D03*
X151750000Y-28170000D03*
X150950000Y-28170000D03*
D32*
X149680000Y-23425000D03*
D33*
X149680000Y-27605000D03*
D32*
X158320000Y-23425000D03*
D33*
X158320000Y-27605000D03*
%TD*%
D16*
%TO.C,TP2*%
X142500000Y-57500000D03*
%TD*%
D18*
%TO.C,C10*%
X124725000Y-78000000D03*
X126275000Y-78000000D03*
%TD*%
D14*
%TO.C,U12*%
X135950000Y-95937500D03*
X134050000Y-95937500D03*
X135000000Y-94062500D03*
%TD*%
%TO.C,U29*%
X40950000Y-59937500D03*
X39050000Y-59937500D03*
X40000000Y-58062500D03*
%TD*%
D28*
%TO.C,R4*%
X133175000Y-65500000D03*
X134825000Y-65500000D03*
%TD*%
D15*
%TO.C,R2*%
X160500000Y-27175000D03*
X160500000Y-28825000D03*
%TD*%
D19*
%TO.C,C3*%
X128000000Y-56775000D03*
X128000000Y-55225000D03*
%TD*%
D14*
%TO.C,U5*%
X59950000Y-39937500D03*
X58050000Y-39937500D03*
X59000000Y-38062500D03*
%TD*%
D25*
%TO.C,C5*%
X129500000Y-72225000D03*
X129500000Y-73775000D03*
%TD*%
D34*
%TO.C,D2*%
X143212500Y-25500000D03*
X144787500Y-25500000D03*
%TD*%
D14*
%TO.C,U16*%
X69450000Y-115937500D03*
X67550000Y-115937500D03*
X68500000Y-114062500D03*
%TD*%
%TO.C,U28*%
X126450000Y-114937500D03*
X124550000Y-114937500D03*
X125500000Y-113062500D03*
%TD*%
M02*
