%TF.GenerationSoftware,KiCad,Pcbnew,7.0.6*%
%TF.CreationDate,2023-08-12T15:46:35+09:00*%
%TF.ProjectId,ember,656d6265-722e-46b6-9963-61645f706362,rev?*%
%TF.SameCoordinates,Original*%
%TF.FileFunction,Copper,L1,Top*%
%TF.FilePolarity,Positive*%
%FSLAX46Y46*%
G04 Gerber Fmt 4.6, Leading zero omitted, Abs format (unit mm)*
G04 Created by KiCad (PCBNEW 7.0.6) date 2023-08-12 15:46:35*
%MOMM*%
%LPD*%
G01*
G04 APERTURE LIST*
%TA.AperFunction,ComponentPad*%
%ADD10C,1.000000*%
%TD*%
%TA.AperFunction,ComponentPad*%
%ADD11O,1.000000X1.600000*%
%TD*%
%TA.AperFunction,ComponentPad*%
%ADD12O,1.000000X2.100000*%
%TD*%
%TA.AperFunction,ViaPad*%
%ADD13C,0.800000*%
%TD*%
%TA.AperFunction,Conductor*%
%ADD14C,0.250000*%
%TD*%
%TA.AperFunction,Conductor*%
%ADD15C,0.200000*%
%TD*%
G04 APERTURE END LIST*
D10*
%TO.P,TP1,1,1*%
%TO.N,SWCLK*%
X142500000Y-59500000D03*
%TD*%
%TO.P,TP3,1,1*%
%TO.N,SWDIO*%
X142500000Y-55500000D03*
%TD*%
%TO.P,TP4,1,1*%
%TO.N,NRST*%
X142500000Y-53500000D03*
%TD*%
D11*
%TO.P,J2,S1,SHIELD*%
%TO.N,unconnected-(J2-SHIELD-PadS1)*%
X149680000Y-23425000D03*
D12*
X149680000Y-27605000D03*
D11*
X158320000Y-23425000D03*
D12*
X158320000Y-27605000D03*
%TD*%
D10*
%TO.P,TP2,1,1*%
%TO.N,GND*%
X142500000Y-57500000D03*
%TD*%
D13*
%TO.N,ADC0*%
X122500000Y-38500000D03*
X123250000Y-55000000D03*
%TO.N,GND*%
X147500000Y-25500000D03*
X152500000Y-107500000D03*
X116000000Y-35000000D03*
X152500000Y-81500000D03*
X154000000Y-75062500D03*
X113000000Y-77000000D03*
X44000000Y-99500000D03*
X118500000Y-67500000D03*
X30500000Y-68500000D03*
X113000000Y-50000000D03*
X116000000Y-73000000D03*
X107000000Y-58500000D03*
X167500000Y-47500000D03*
X132000000Y-59000000D03*
X131500000Y-66000000D03*
X113000000Y-82500000D03*
X107500000Y-89500000D03*
X125500000Y-108500000D03*
X135000000Y-67000000D03*
X160500000Y-25500000D03*
X154000000Y-37000000D03*
X97000000Y-128500000D03*
X30500000Y-87500000D03*
X122500000Y-75500000D03*
X131000000Y-68500000D03*
X56000000Y-97000000D03*
X40000000Y-58000000D03*
X106500000Y-82500000D03*
X30500000Y-49500000D03*
X106500000Y-111000000D03*
X78000000Y-128500000D03*
X89500000Y-109000000D03*
X40000000Y-96000000D03*
X116000000Y-92000000D03*
X115500000Y-98000000D03*
X97000000Y-53000000D03*
X43000000Y-96500000D03*
X103500000Y-106500000D03*
X167500000Y-103500000D03*
X113000000Y-55000000D03*
X59000000Y-95000000D03*
X125500000Y-25500000D03*
X59000000Y-76000000D03*
X107000000Y-52500000D03*
X106000000Y-116000000D03*
X119000000Y-61000000D03*
X106500000Y-63500000D03*
X106500000Y-44500000D03*
X30500000Y-128500000D03*
X126500000Y-65500000D03*
X153000000Y-128500000D03*
X100500000Y-97500000D03*
X135000000Y-37000000D03*
X68500000Y-114000000D03*
X116000000Y-68500000D03*
X111000000Y-49500000D03*
X107000000Y-71500000D03*
X135000000Y-94062500D03*
X113500000Y-66000000D03*
X87500000Y-111000000D03*
X68500000Y-25500000D03*
X167500000Y-85500000D03*
X116000000Y-71000000D03*
X144825000Y-27000000D03*
X87500000Y-25500000D03*
X135000000Y-128500000D03*
X151000000Y-38500000D03*
X143500000Y-33000000D03*
X126500000Y-63500000D03*
X87000000Y-116000000D03*
X78000000Y-35000000D03*
X61500000Y-93500000D03*
X100500000Y-105500000D03*
X97000000Y-72000000D03*
X106500000Y-25500000D03*
X30500000Y-106500000D03*
X135000000Y-75062500D03*
X30500000Y-25500000D03*
X78000000Y-54000000D03*
X147500000Y-82500000D03*
X59000000Y-38000000D03*
X106500000Y-101500000D03*
X138000000Y-38500000D03*
X97000000Y-34000000D03*
X167500000Y-128500000D03*
X49500000Y-25500000D03*
X62500000Y-88500000D03*
X167500000Y-25500000D03*
X154000000Y-25000000D03*
X40000000Y-77000000D03*
X116000000Y-54000000D03*
X103500000Y-115000000D03*
X30500000Y-30500000D03*
X78000000Y-92000000D03*
X124500000Y-54000000D03*
X147500000Y-29000000D03*
X127000000Y-70500000D03*
X124500000Y-65500000D03*
X124500000Y-63500000D03*
X129000000Y-116000000D03*
X154654075Y-30154075D03*
X122000000Y-115500000D03*
X113000000Y-92500000D03*
X149500000Y-113000000D03*
X113500000Y-60500000D03*
X107500000Y-108000000D03*
X59000000Y-57000000D03*
X125500000Y-64500000D03*
X133000000Y-63000000D03*
X135000000Y-56062500D03*
X97000000Y-91000000D03*
X83000000Y-116000000D03*
X135000000Y-65500000D03*
X113000000Y-74500000D03*
X81000000Y-89000000D03*
X65500000Y-116000000D03*
X59000000Y-128500000D03*
X40000000Y-39000000D03*
X116000000Y-128500000D03*
X152345925Y-29845925D03*
X74000000Y-97500000D03*
X167500000Y-66500000D03*
X125500000Y-113000000D03*
X116000000Y-64500000D03*
X116000000Y-79500000D03*
X128000000Y-55225000D03*
X154000000Y-56062500D03*
X78000000Y-73000000D03*
%TO.N,MUX_C*%
X110945000Y-47212000D03*
X110945000Y-85212000D03*
X110945000Y-104212000D03*
X110945000Y-66212000D03*
%TO.N,MUX_B*%
X109675000Y-85212000D03*
X109675000Y-104212000D03*
X109675000Y-66212000D03*
X109675000Y-47212000D03*
%TO.N,MUX_A*%
X108405000Y-85212000D03*
X108405000Y-104212000D03*
X108405000Y-66212000D03*
X108405000Y-47212000D03*
%TO.N,+3.3V*%
X98000000Y-66000000D03*
X98000000Y-55000000D03*
X135950000Y-95937500D03*
X40950000Y-59937500D03*
X79000000Y-94000000D03*
X98000000Y-74000000D03*
X59950000Y-40050000D03*
X40950000Y-97937500D03*
X98000000Y-36000000D03*
X59950000Y-58937500D03*
X136000000Y-77000000D03*
X155000000Y-39000000D03*
X98000000Y-85000000D03*
X117000000Y-63500000D03*
X136000000Y-68000000D03*
X135000000Y-116943750D03*
X117000000Y-56000000D03*
X98000000Y-47000000D03*
X117000000Y-37000000D03*
X79000000Y-37000000D03*
X155000000Y-58000000D03*
X98000000Y-93000000D03*
X155000000Y-77000000D03*
X117000000Y-94000000D03*
X40950000Y-78937500D03*
X79000000Y-56000000D03*
X40950000Y-40937500D03*
X117000000Y-75000000D03*
X136000000Y-39000000D03*
X79000000Y-75000000D03*
X59950000Y-96937500D03*
X136000000Y-58000000D03*
X136000000Y-72000000D03*
X59950000Y-77937500D03*
%TO.N,ADC2*%
X113000000Y-71000000D03*
X114500000Y-68500000D03*
%TO.N,ADC3*%
X119000000Y-68500000D03*
X118500000Y-83000000D03*
%TO.N,NRST*%
X147500000Y-71375000D03*
X147500000Y-59500000D03*
%TO.N,+5V*%
X161800000Y-44350000D03*
X151595883Y-30595967D03*
X156000000Y-32500000D03*
%TO.N,USB_D+*%
X129371232Y-34871232D03*
X127025000Y-54000000D03*
%TO.N,USB_D-*%
X128628768Y-34128768D03*
X125975000Y-54000000D03*
%TD*%
D14*
%TO.N,ADC0*%
X123250000Y-39250000D02*
X122500000Y-38500000D01*
X123250000Y-55000000D02*
X123250000Y-39250000D01*
%TO.N,GND*%
X114750000Y-33750000D02*
X116000000Y-35000000D01*
X135000000Y-75062500D02*
X135000000Y-94062500D01*
X78000000Y-54000000D02*
X78000000Y-73000000D01*
X154000000Y-67500000D02*
X154000000Y-75062500D01*
X135000000Y-56062500D02*
X135000000Y-65500000D01*
X78000000Y-35000000D02*
X78000000Y-54000000D01*
X59000000Y-76000000D02*
X59000000Y-57000000D01*
X116000000Y-68500000D02*
X116000000Y-64500000D01*
X116000000Y-73000000D02*
X116000000Y-71000000D01*
X59000000Y-38000000D02*
X62250000Y-34750000D01*
X116000000Y-64500000D02*
X116000000Y-54000000D01*
X62250000Y-34750000D02*
X77750000Y-34750000D01*
X59000000Y-57000000D02*
X59000000Y-38000000D01*
X145500000Y-27000000D02*
X144825000Y-27000000D01*
X97000000Y-34000000D02*
X97250000Y-33750000D01*
X117000000Y-31500000D02*
X114750000Y-33750000D01*
X77750000Y-34750000D02*
X78000000Y-35000000D01*
X96750000Y-33750000D02*
X97000000Y-34000000D01*
X135000000Y-67000000D02*
X135000000Y-75062500D01*
X135000000Y-65500000D02*
X135000000Y-67000000D01*
X58750000Y-37750000D02*
X59000000Y-38000000D01*
X87500000Y-111000000D02*
X87500000Y-100500000D01*
X115500000Y-98000000D02*
X116000000Y-97500000D01*
X125500000Y-103562500D02*
X135000000Y-94062500D01*
X41250000Y-37750000D02*
X58750000Y-37750000D01*
X116000000Y-97500000D02*
X116000000Y-92000000D01*
X144825000Y-27000000D02*
X144825000Y-29919302D01*
X40000000Y-39000000D02*
X41250000Y-37750000D01*
X153000000Y-55062500D02*
X154000000Y-56062500D01*
X87500000Y-100500000D02*
X97000000Y-91000000D01*
X116000000Y-92000000D02*
X116000000Y-79500000D01*
X152937500Y-55000000D02*
X154000000Y-56062500D01*
X94500000Y-36500000D02*
X94500000Y-50500000D01*
X97250000Y-33750000D02*
X114750000Y-33750000D01*
X59000000Y-95000000D02*
X59000000Y-76000000D01*
X144825000Y-31675000D02*
X144825000Y-29919302D01*
X135000000Y-37000000D02*
X135000000Y-56062500D01*
X142500000Y-57500000D02*
X145000000Y-55000000D01*
X79250000Y-33750000D02*
X96750000Y-33750000D01*
X97000000Y-53000000D02*
X97000000Y-72000000D01*
X68500000Y-114000000D02*
X68500000Y-101500000D01*
X154000000Y-37000000D02*
X153000000Y-38000000D01*
X78000000Y-73000000D02*
X78000000Y-92000000D01*
X116000000Y-71000000D02*
X116000000Y-68500000D01*
X125500000Y-108500000D02*
X125500000Y-103562500D01*
X134500000Y-66000000D02*
X131500000Y-66000000D01*
X125500000Y-113000000D02*
X125500000Y-110000000D01*
X78000000Y-35000000D02*
X79250000Y-33750000D01*
X94500000Y-50500000D02*
X97000000Y-53000000D01*
X143500000Y-33000000D02*
X144825000Y-31675000D01*
X40000000Y-58000000D02*
X40000000Y-77000000D01*
X125500000Y-110000000D02*
X125500000Y-108500000D01*
X145000000Y-55000000D02*
X152937500Y-55000000D01*
X151000000Y-67500000D02*
X154000000Y-67500000D01*
X129500000Y-31500000D02*
X143244302Y-31500000D01*
X135000000Y-65500000D02*
X134500000Y-66000000D01*
X135000000Y-56062500D02*
X134162500Y-55225000D01*
X154000000Y-56062500D02*
X154000000Y-67500000D01*
X97000000Y-72000000D02*
X97000000Y-91000000D01*
X147500000Y-29000000D02*
X145500000Y-27000000D01*
X68500000Y-101500000D02*
X78000000Y-92000000D01*
X40000000Y-77000000D02*
X40000000Y-96000000D01*
X106500000Y-111000000D02*
X106500000Y-101500000D01*
X153000000Y-38000000D02*
X153000000Y-55062500D01*
X134162500Y-55225000D02*
X128000000Y-55225000D01*
X116000000Y-79500000D02*
X116000000Y-73000000D01*
X143244302Y-31500000D02*
X144825000Y-29919302D01*
X129500000Y-31500000D02*
X117000000Y-31500000D01*
X97000000Y-34000000D02*
X94500000Y-36500000D01*
X116000000Y-54000000D02*
X116000000Y-35000000D01*
X135000000Y-37000000D02*
X129500000Y-31500000D01*
X40000000Y-39000000D02*
X40000000Y-58000000D01*
%TO.N,MUX_C*%
X110945000Y-66212000D02*
X112170000Y-64987000D01*
X112170000Y-102987000D02*
X110945000Y-104212000D01*
X112170000Y-67437000D02*
X110945000Y-66212000D01*
X112170000Y-48437000D02*
X110945000Y-47212000D01*
X110945000Y-85212000D02*
X112170000Y-83987000D01*
X112170000Y-83987000D02*
X112170000Y-67437000D01*
X110945000Y-85212000D02*
X112170000Y-86437000D01*
X112170000Y-86437000D02*
X112170000Y-102987000D01*
X112170000Y-64987000D02*
X112170000Y-48437000D01*
%TO.N,MUX_B*%
X109670000Y-85207000D02*
X109675000Y-85212000D01*
X109670000Y-66217000D02*
X109670000Y-85207000D01*
X109670000Y-104207000D02*
X109675000Y-104212000D01*
X109675000Y-66212000D02*
X109670000Y-66207000D01*
X109670000Y-47217000D02*
X109675000Y-47212000D01*
X109675000Y-85212000D02*
X109670000Y-85217000D01*
X109670000Y-85217000D02*
X109670000Y-104207000D01*
X109675000Y-66212000D02*
X109670000Y-66217000D01*
X109670000Y-66207000D02*
X109670000Y-47217000D01*
%TO.N,MUX_A*%
X108405000Y-85212000D02*
X108405000Y-66212000D01*
X108405000Y-66212000D02*
X108405000Y-47212000D01*
X108405000Y-85212000D02*
X108405000Y-104212000D01*
%TO.N,+3.3V*%
X59950000Y-58937500D02*
X59950000Y-77937500D01*
X136000000Y-68000000D02*
X136000000Y-72000000D01*
X155000000Y-39000000D02*
X153500000Y-40500000D01*
X79000000Y-56000000D02*
X79000000Y-37000000D01*
X153500000Y-40500000D02*
X153500000Y-54537195D01*
X79000000Y-94000000D02*
X79000000Y-75000000D01*
X136000000Y-58000000D02*
X136000000Y-68000000D01*
X136000000Y-77000000D02*
X136000000Y-95887500D01*
X155000000Y-77000000D02*
X155000000Y-58000000D01*
X136000000Y-95987500D02*
X136000000Y-116000000D01*
X59950000Y-77937500D02*
X59950000Y-96937500D01*
X98000000Y-55000000D02*
X98000000Y-66000000D01*
X136000000Y-39000000D02*
X136000000Y-58000000D01*
X136000000Y-72000000D02*
X136000000Y-77000000D01*
X117000000Y-37000000D02*
X117000000Y-56000000D01*
X136000000Y-95887500D02*
X135950000Y-95937500D01*
X98000000Y-93000000D02*
X98000000Y-85000000D01*
X135056250Y-116943750D02*
X135000000Y-116943750D01*
X40950000Y-40937500D02*
X40950000Y-59937500D01*
X155000000Y-56037195D02*
X155000000Y-58000000D01*
X40950000Y-59937500D02*
X40950000Y-78937500D01*
X98000000Y-47000000D02*
X99500000Y-45500000D01*
X98000000Y-74000000D02*
X98000000Y-66000000D01*
X40950000Y-78937500D02*
X40950000Y-97937500D01*
X117000000Y-75000000D02*
X117000000Y-94000000D01*
X98000000Y-85000000D02*
X98000000Y-74000000D01*
X99500000Y-45500000D02*
X99500000Y-37500000D01*
X117000000Y-56000000D02*
X117000000Y-63500000D01*
X117000000Y-63500000D02*
X117000000Y-75000000D01*
X136000000Y-116000000D02*
X135056250Y-116943750D01*
X98000000Y-55000000D02*
X98000000Y-47000000D01*
X79000000Y-75000000D02*
X79000000Y-56000000D01*
X59950000Y-40050000D02*
X59950000Y-58937500D01*
X153500000Y-54537195D02*
X155000000Y-56037195D01*
X99500000Y-37500000D02*
X98000000Y-36000000D01*
X135950000Y-95937500D02*
X136000000Y-95987500D01*
%TO.N,ADC2*%
X113000000Y-71000000D02*
X114500000Y-69500000D01*
X114500000Y-69500000D02*
X114500000Y-68500000D01*
%TO.N,ADC3*%
X118500000Y-83000000D02*
X118500000Y-69000000D01*
X118500000Y-69000000D02*
X119000000Y-68500000D01*
%TO.N,NRST*%
X147500000Y-59500000D02*
X147500000Y-71375000D01*
%TO.N,+5V*%
X153499916Y-32500000D02*
X156000000Y-32500000D01*
X151595883Y-30595967D02*
X153499916Y-32500000D01*
X161800000Y-38300000D02*
X161800000Y-44350000D01*
X156000000Y-32500000D02*
X161800000Y-38300000D01*
D15*
%TO.N,USB_D+*%
X126725001Y-37093198D02*
X128946967Y-34871232D01*
X126725001Y-53700001D02*
X126725001Y-37093198D01*
X127025000Y-54000000D02*
X126725001Y-53700001D01*
X128946967Y-34871232D02*
X129371232Y-34871232D01*
%TO.N,USB_D-*%
X125975000Y-54000000D02*
X126274999Y-53700001D01*
X126274999Y-53700001D02*
X126274999Y-36906802D01*
X126274999Y-36906802D02*
X128628768Y-34553033D01*
X128628768Y-34553033D02*
X128628768Y-34128768D01*
D14*
%TO.N,unconnected-(J2-SHIELD-PadS1)*%
X158320000Y-23425000D02*
X158320000Y-27605000D01*
X149680000Y-23425000D02*
X149680000Y-27605000D01*
X149680000Y-23425000D02*
X158320000Y-23425000D01*
%TD*%
%TA.AperFunction,Conductor*%
%TO.N,GND*%
G36*
X110386648Y-47474037D02*
G01*
X110417390Y-47509515D01*
X110420461Y-47514834D01*
X110420464Y-47514841D01*
X110516718Y-47640282D01*
X110642159Y-47736536D01*
X110788238Y-47797044D01*
X110816548Y-47800771D01*
X110944999Y-47817682D01*
X110945000Y-47817682D01*
X110945001Y-47817682D01*
X110982308Y-47812770D01*
X111012818Y-47808753D01*
X111081853Y-47819518D01*
X111116685Y-47844011D01*
X111808181Y-48535506D01*
X111841666Y-48596829D01*
X111844500Y-48623187D01*
X111844500Y-54036811D01*
X111824815Y-54103850D01*
X111772011Y-54149605D01*
X111702853Y-54159549D01*
X111639297Y-54130524D01*
X111634932Y-54126556D01*
X111618902Y-54111272D01*
X111438080Y-53995065D01*
X111238530Y-53915177D01*
X111027473Y-53874500D01*
X111027472Y-53874500D01*
X110866382Y-53874500D01*
X110706028Y-53889812D01*
X110706029Y-53889812D01*
X110706025Y-53889813D01*
X110499793Y-53950368D01*
X110308740Y-54048862D01*
X110196152Y-54137403D01*
X110131287Y-54163371D01*
X110062680Y-54150148D01*
X110012113Y-54101932D01*
X109995500Y-54039932D01*
X109995500Y-51015729D01*
X109995500Y-47784131D01*
X110015184Y-47717096D01*
X110044010Y-47685762D01*
X110103282Y-47640282D01*
X110199536Y-47514841D01*
X110199541Y-47514828D01*
X110202610Y-47509515D01*
X110253175Y-47461298D01*
X110321782Y-47448072D01*
X110386648Y-47474037D01*
G37*
%TD.AperFunction*%
%TA.AperFunction,Conductor*%
G36*
X158502695Y-21500735D02*
G01*
X158545519Y-21504482D01*
X158671771Y-21516918D01*
X158691685Y-21520541D01*
X158758349Y-21538403D01*
X158851570Y-21566682D01*
X158867971Y-21572958D01*
X158935411Y-21604406D01*
X158938375Y-21605888D01*
X158975969Y-21625982D01*
X159022327Y-21650762D01*
X159028667Y-21654657D01*
X159094828Y-21700983D01*
X159098600Y-21703844D01*
X159170808Y-21763103D01*
X159175309Y-21767182D01*
X159232815Y-21824688D01*
X159236895Y-21829190D01*
X159296154Y-21901398D01*
X159299015Y-21905170D01*
X159345341Y-21971331D01*
X159349236Y-21977671D01*
X159394101Y-22061605D01*
X159395614Y-22064631D01*
X159427040Y-22132027D01*
X159433319Y-22148435D01*
X159461601Y-22241669D01*
X159479454Y-22308299D01*
X159483082Y-22328238D01*
X159495523Y-22454554D01*
X159499264Y-22497302D01*
X159499500Y-22502710D01*
X159499500Y-23432902D01*
X159494926Y-23448479D01*
X159499201Y-23491888D01*
X159499500Y-23497968D01*
X159499500Y-23587536D01*
X159510628Y-23650646D01*
X159509311Y-23662448D01*
X159516343Y-23685629D01*
X159518072Y-23692866D01*
X159529899Y-23759940D01*
X159558162Y-23837592D01*
X159558991Y-23850639D01*
X159567128Y-23865862D01*
X159574289Y-23881900D01*
X159578648Y-23893874D01*
X159589776Y-23924448D01*
X159589777Y-23924449D01*
X159638578Y-24008974D01*
X159642055Y-24023309D01*
X159651792Y-24035173D01*
X159663326Y-24051838D01*
X159677307Y-24076053D01*
X159680414Y-24080491D01*
X159680038Y-24080754D01*
X159689371Y-24094560D01*
X159691254Y-24098082D01*
X159709702Y-24114661D01*
X159748914Y-24161393D01*
X159755484Y-24176406D01*
X159765928Y-24184977D01*
X159782254Y-24201126D01*
X159789837Y-24210163D01*
X159798872Y-24217744D01*
X159815020Y-24234070D01*
X159819146Y-24239098D01*
X159838606Y-24251085D01*
X159885337Y-24290297D01*
X159895234Y-24305172D01*
X159905438Y-24310627D01*
X159919245Y-24319961D01*
X159919509Y-24319586D01*
X159923945Y-24322692D01*
X159948163Y-24336675D01*
X159964824Y-24348206D01*
X159971770Y-24353906D01*
X159991025Y-24361421D01*
X160075547Y-24410221D01*
X160075551Y-24410222D01*
X160075555Y-24410225D01*
X160118103Y-24425711D01*
X160134143Y-24432874D01*
X160144334Y-24438321D01*
X160162407Y-24441836D01*
X160240062Y-24470101D01*
X160307145Y-24481929D01*
X160314379Y-24483657D01*
X160332543Y-24489167D01*
X160349350Y-24489370D01*
X160412468Y-24500500D01*
X160499901Y-24500500D01*
X160502041Y-24500500D01*
X160508121Y-24500799D01*
X160544302Y-24504362D01*
X160567096Y-24500500D01*
X167497293Y-24500500D01*
X167502695Y-24500735D01*
X167545519Y-24504482D01*
X167671771Y-24516918D01*
X167691685Y-24520541D01*
X167758349Y-24538403D01*
X167851570Y-24566682D01*
X167867971Y-24572958D01*
X167935411Y-24604406D01*
X167938375Y-24605888D01*
X167975969Y-24625982D01*
X168022327Y-24650762D01*
X168028667Y-24654657D01*
X168094828Y-24700983D01*
X168098600Y-24703844D01*
X168170808Y-24763103D01*
X168175309Y-24767182D01*
X168232815Y-24824688D01*
X168236895Y-24829190D01*
X168296154Y-24901398D01*
X168299015Y-24905170D01*
X168345341Y-24971331D01*
X168349236Y-24977671D01*
X168394101Y-25061605D01*
X168395614Y-25064631D01*
X168427040Y-25132027D01*
X168433319Y-25148435D01*
X168461601Y-25241669D01*
X168479454Y-25308299D01*
X168483082Y-25328238D01*
X168495523Y-25454554D01*
X168499264Y-25497302D01*
X168499500Y-25502710D01*
X168499500Y-128497289D01*
X168499264Y-128502697D01*
X168495523Y-128545445D01*
X168483082Y-128671760D01*
X168479454Y-128691699D01*
X168461601Y-128758330D01*
X168433318Y-128851563D01*
X168427040Y-128867971D01*
X168395614Y-128935367D01*
X168394101Y-128938393D01*
X168349236Y-129022327D01*
X168345341Y-129028667D01*
X168299015Y-129094828D01*
X168296154Y-129098600D01*
X168236895Y-129170808D01*
X168232806Y-129175320D01*
X168175320Y-129232806D01*
X168170808Y-129236895D01*
X168098600Y-129296154D01*
X168094828Y-129299015D01*
X168028667Y-129345341D01*
X168022327Y-129349236D01*
X167938393Y-129394101D01*
X167935367Y-129395614D01*
X167867971Y-129427040D01*
X167851563Y-129433318D01*
X167758330Y-129461601D01*
X167691699Y-129479454D01*
X167671760Y-129483082D01*
X167545445Y-129495523D01*
X167504789Y-129499080D01*
X167502696Y-129499264D01*
X167497290Y-129499500D01*
X30502710Y-129499500D01*
X30497303Y-129499264D01*
X30495015Y-129499063D01*
X30454554Y-129495523D01*
X30328238Y-129483082D01*
X30308299Y-129479454D01*
X30241669Y-129461601D01*
X30148435Y-129433319D01*
X30132027Y-129427040D01*
X30083433Y-129404381D01*
X30064618Y-129395607D01*
X30061605Y-129394101D01*
X29977671Y-129349236D01*
X29971331Y-129345341D01*
X29905170Y-129299015D01*
X29901398Y-129296154D01*
X29829190Y-129236895D01*
X29824688Y-129232815D01*
X29767182Y-129175309D01*
X29763103Y-129170808D01*
X29703844Y-129098600D01*
X29700983Y-129094828D01*
X29654657Y-129028667D01*
X29650762Y-129022327D01*
X29625982Y-128975969D01*
X29605888Y-128938375D01*
X29604406Y-128935411D01*
X29572958Y-128867971D01*
X29566682Y-128851570D01*
X29538398Y-128758330D01*
X29520541Y-128691685D01*
X29516918Y-128671771D01*
X29504482Y-128545519D01*
X29500735Y-128502695D01*
X29500500Y-128497293D01*
X29500500Y-114946202D01*
X62290660Y-114946202D01*
X62300887Y-115160901D01*
X62326519Y-115266557D01*
X62351563Y-115369790D01*
X62440854Y-115565310D01*
X62505309Y-115655824D01*
X62565535Y-115740400D01*
X62565540Y-115740406D01*
X62721094Y-115888725D01*
X62721096Y-115888726D01*
X62721097Y-115888727D01*
X62901920Y-116004935D01*
X63101468Y-116084822D01*
X63206998Y-116105161D01*
X63312527Y-116125500D01*
X63312528Y-116125500D01*
X63473612Y-116125500D01*
X63473618Y-116125500D01*
X63633971Y-116110188D01*
X63840209Y-116049631D01*
X64031259Y-115951138D01*
X64200217Y-115818268D01*
X64340976Y-115655824D01*
X64448448Y-115469677D01*
X64518750Y-115266554D01*
X64549339Y-115053797D01*
X64539112Y-114839096D01*
X64488437Y-114630210D01*
X64399146Y-114434690D01*
X64274466Y-114259601D01*
X64274464Y-114259599D01*
X64274459Y-114259593D01*
X64118905Y-114111274D01*
X63938080Y-113995065D01*
X63738530Y-113915177D01*
X63527473Y-113874500D01*
X63527472Y-113874500D01*
X63366382Y-113874500D01*
X63206029Y-113889812D01*
X63206025Y-113889813D01*
X62999793Y-113950368D01*
X62808736Y-114048864D01*
X62639785Y-114181729D01*
X62639782Y-114181733D01*
X62499021Y-114344178D01*
X62391553Y-114530319D01*
X62321251Y-114733442D01*
X62321250Y-114733444D01*
X62290661Y-114946200D01*
X62290660Y-114946202D01*
X29500500Y-114946202D01*
X29500500Y-113000000D01*
X66500000Y-113000000D01*
X66500000Y-117000000D01*
X70500000Y-117000000D01*
X70500000Y-114946202D01*
X72450660Y-114946202D01*
X72460887Y-115160901D01*
X72486519Y-115266557D01*
X72511563Y-115369790D01*
X72600854Y-115565310D01*
X72665309Y-115655824D01*
X72725535Y-115740400D01*
X72725540Y-115740406D01*
X72881094Y-115888725D01*
X72881096Y-115888726D01*
X72881097Y-115888727D01*
X73061920Y-116004935D01*
X73261468Y-116084822D01*
X73366997Y-116105161D01*
X73472527Y-116125500D01*
X73472528Y-116125500D01*
X73633612Y-116125500D01*
X73633618Y-116125500D01*
X73793971Y-116110188D01*
X74000209Y-116049631D01*
X74191259Y-115951138D01*
X74360217Y-115818268D01*
X74500976Y-115655824D01*
X74608448Y-115469677D01*
X74678750Y-115266554D01*
X74709339Y-115053797D01*
X74699112Y-114839096D01*
X74648437Y-114630210D01*
X74559146Y-114434690D01*
X74434466Y-114259601D01*
X74434464Y-114259599D01*
X74434459Y-114259593D01*
X74278905Y-114111274D01*
X74098080Y-113995065D01*
X73898530Y-113915177D01*
X73687473Y-113874500D01*
X73687472Y-113874500D01*
X73526382Y-113874500D01*
X73366029Y-113889812D01*
X73366025Y-113889813D01*
X73159793Y-113950368D01*
X72968736Y-114048864D01*
X72799785Y-114181729D01*
X72799782Y-114181733D01*
X72659021Y-114344178D01*
X72551553Y-114530319D01*
X72481251Y-114733442D01*
X72481250Y-114733444D01*
X72450661Y-114946200D01*
X72450660Y-114946202D01*
X70500000Y-114946202D01*
X70500000Y-113000000D01*
X66500000Y-113000000D01*
X29500500Y-113000000D01*
X29500500Y-111946202D01*
X81290660Y-111946202D01*
X81300887Y-112160901D01*
X81351563Y-112369791D01*
X81351565Y-112369795D01*
X81427041Y-112535065D01*
X81440854Y-112565310D01*
X81552242Y-112721733D01*
X81565535Y-112740400D01*
X81565540Y-112740406D01*
X81721094Y-112888725D01*
X81721096Y-112888726D01*
X81721097Y-112888727D01*
X81901920Y-113004935D01*
X82101468Y-113084822D01*
X82206998Y-113105161D01*
X82312527Y-113125500D01*
X82312528Y-113125500D01*
X82473612Y-113125500D01*
X82473618Y-113125500D01*
X82633971Y-113110188D01*
X82840209Y-113049631D01*
X83031259Y-112951138D01*
X83200217Y-112818268D01*
X83340976Y-112655824D01*
X83448448Y-112469677D01*
X83518750Y-112266554D01*
X83549339Y-112053797D01*
X83539112Y-111839096D01*
X83488437Y-111630210D01*
X83399146Y-111434690D01*
X83274466Y-111259601D01*
X83274464Y-111259599D01*
X83274459Y-111259593D01*
X83118905Y-111111274D01*
X82938080Y-110995065D01*
X82738530Y-110915177D01*
X82527473Y-110874500D01*
X82527472Y-110874500D01*
X82366382Y-110874500D01*
X82206029Y-110889812D01*
X82206025Y-110889813D01*
X81999793Y-110950368D01*
X81808736Y-111048864D01*
X81639785Y-111181729D01*
X81639782Y-111181733D01*
X81499021Y-111344178D01*
X81391553Y-111530319D01*
X81321251Y-111733442D01*
X81321250Y-111733444D01*
X81290661Y-111946200D01*
X81290660Y-111946202D01*
X29500500Y-111946202D01*
X29500500Y-110000000D01*
X85500000Y-110000000D01*
X85500000Y-114000000D01*
X89500000Y-114000000D01*
X89500000Y-111946202D01*
X91450660Y-111946202D01*
X91460887Y-112160901D01*
X91511563Y-112369791D01*
X91511565Y-112369795D01*
X91587041Y-112535065D01*
X91600854Y-112565310D01*
X91712242Y-112721733D01*
X91725535Y-112740400D01*
X91725540Y-112740406D01*
X91881094Y-112888725D01*
X91881096Y-112888726D01*
X91881097Y-112888727D01*
X92061920Y-113004935D01*
X92261468Y-113084822D01*
X92366998Y-113105161D01*
X92472527Y-113125500D01*
X92472528Y-113125500D01*
X92633612Y-113125500D01*
X92633618Y-113125500D01*
X92793971Y-113110188D01*
X93000209Y-113049631D01*
X93191259Y-112951138D01*
X93360217Y-112818268D01*
X93500976Y-112655824D01*
X93608448Y-112469677D01*
X93678750Y-112266554D01*
X93709339Y-112053797D01*
X93704214Y-111946202D01*
X100290660Y-111946202D01*
X100300887Y-112160901D01*
X100351563Y-112369791D01*
X100351565Y-112369795D01*
X100427041Y-112535065D01*
X100440854Y-112565310D01*
X100552242Y-112721733D01*
X100565535Y-112740400D01*
X100565540Y-112740406D01*
X100721094Y-112888725D01*
X100721096Y-112888726D01*
X100721097Y-112888727D01*
X100901920Y-113004935D01*
X101101468Y-113084822D01*
X101206997Y-113105161D01*
X101312527Y-113125500D01*
X101312528Y-113125500D01*
X101473612Y-113125500D01*
X101473618Y-113125500D01*
X101633971Y-113110188D01*
X101840209Y-113049631D01*
X102031259Y-112951138D01*
X102200217Y-112818268D01*
X102340976Y-112655824D01*
X102448448Y-112469677D01*
X102518750Y-112266554D01*
X102549339Y-112053797D01*
X102539112Y-111839096D01*
X102488437Y-111630210D01*
X102399146Y-111434690D01*
X102274466Y-111259601D01*
X102274464Y-111259599D01*
X102274459Y-111259593D01*
X102118905Y-111111274D01*
X101938080Y-110995065D01*
X101738530Y-110915177D01*
X101527473Y-110874500D01*
X101527472Y-110874500D01*
X101366382Y-110874500D01*
X101206029Y-110889812D01*
X101206025Y-110889813D01*
X100999793Y-110950368D01*
X100808736Y-111048864D01*
X100639785Y-111181729D01*
X100639782Y-111181733D01*
X100499021Y-111344178D01*
X100391553Y-111530319D01*
X100321251Y-111733442D01*
X100321250Y-111733444D01*
X100290661Y-111946200D01*
X100290660Y-111946202D01*
X93704214Y-111946202D01*
X93699112Y-111839096D01*
X93648437Y-111630210D01*
X93559146Y-111434690D01*
X93434466Y-111259601D01*
X93434464Y-111259599D01*
X93434459Y-111259593D01*
X93278905Y-111111274D01*
X93098080Y-110995065D01*
X92898530Y-110915177D01*
X92687473Y-110874500D01*
X92687472Y-110874500D01*
X92526382Y-110874500D01*
X92366029Y-110889812D01*
X92366025Y-110889813D01*
X92159793Y-110950368D01*
X91968736Y-111048864D01*
X91799785Y-111181729D01*
X91799782Y-111181733D01*
X91659021Y-111344178D01*
X91551553Y-111530319D01*
X91481251Y-111733442D01*
X91481250Y-111733444D01*
X91450661Y-111946200D01*
X91450660Y-111946202D01*
X89500000Y-111946202D01*
X89500000Y-110000000D01*
X104500000Y-110000000D01*
X104500000Y-114000000D01*
X108500000Y-114000000D01*
X108500000Y-113946202D01*
X119290660Y-113946202D01*
X119300887Y-114160901D01*
X119351563Y-114369791D01*
X119351565Y-114369795D01*
X119431548Y-114544934D01*
X119440854Y-114565310D01*
X119560583Y-114733446D01*
X119565535Y-114740400D01*
X119565540Y-114740406D01*
X119721094Y-114888725D01*
X119721096Y-114888726D01*
X119721097Y-114888727D01*
X119901920Y-115004935D01*
X120101468Y-115084822D01*
X120206998Y-115105161D01*
X120312527Y-115125500D01*
X120312528Y-115125500D01*
X120473612Y-115125500D01*
X120473618Y-115125500D01*
X120633971Y-115110188D01*
X120840209Y-115049631D01*
X121031259Y-114951138D01*
X121037535Y-114946203D01*
X121110621Y-114888727D01*
X121200217Y-114818268D01*
X121340976Y-114655824D01*
X121355766Y-114630208D01*
X121448446Y-114469680D01*
X121448448Y-114469677D01*
X121518750Y-114266554D01*
X121549339Y-114053797D01*
X121539112Y-113839096D01*
X121488437Y-113630210D01*
X121399146Y-113434690D01*
X121274466Y-113259601D01*
X121274464Y-113259599D01*
X121274459Y-113259593D01*
X121118905Y-113111274D01*
X120938080Y-112995065D01*
X120738530Y-112915177D01*
X120527473Y-112874500D01*
X120527472Y-112874500D01*
X120366382Y-112874500D01*
X120217392Y-112888727D01*
X120206029Y-112889812D01*
X120206025Y-112889813D01*
X119999793Y-112950368D01*
X119808736Y-113048864D01*
X119639785Y-113181729D01*
X119639782Y-113181733D01*
X119499021Y-113344178D01*
X119391553Y-113530319D01*
X119321251Y-113733442D01*
X119321250Y-113733444D01*
X119290661Y-113946200D01*
X119290660Y-113946202D01*
X108500000Y-113946202D01*
X108500000Y-111946202D01*
X110450660Y-111946202D01*
X110460887Y-112160901D01*
X110511563Y-112369791D01*
X110511565Y-112369795D01*
X110587041Y-112535065D01*
X110600854Y-112565310D01*
X110712242Y-112721733D01*
X110725535Y-112740400D01*
X110725540Y-112740406D01*
X110881094Y-112888725D01*
X110881096Y-112888726D01*
X110881097Y-112888727D01*
X111061920Y-113004935D01*
X111261468Y-113084822D01*
X111366997Y-113105161D01*
X111472527Y-113125500D01*
X111472528Y-113125500D01*
X111633612Y-113125500D01*
X111633618Y-113125500D01*
X111793971Y-113110188D01*
X112000209Y-113049631D01*
X112191259Y-112951138D01*
X112360217Y-112818268D01*
X112500976Y-112655824D01*
X112608448Y-112469677D01*
X112678750Y-112266554D01*
X112709339Y-112053797D01*
X112706776Y-112000000D01*
X123500000Y-112000000D01*
X123500000Y-116000000D01*
X127500000Y-116000000D01*
X127500000Y-113946202D01*
X129450660Y-113946202D01*
X129460887Y-114160901D01*
X129511563Y-114369791D01*
X129511565Y-114369795D01*
X129591548Y-114544934D01*
X129600854Y-114565310D01*
X129720583Y-114733446D01*
X129725535Y-114740400D01*
X129725540Y-114740406D01*
X129881094Y-114888725D01*
X129881096Y-114888726D01*
X129881097Y-114888727D01*
X130061920Y-115004935D01*
X130261468Y-115084822D01*
X130366998Y-115105161D01*
X130472527Y-115125500D01*
X130472528Y-115125500D01*
X130633612Y-115125500D01*
X130633618Y-115125500D01*
X130793971Y-115110188D01*
X131000209Y-115049631D01*
X131191259Y-114951138D01*
X131197535Y-114946203D01*
X131270621Y-114888727D01*
X131360217Y-114818268D01*
X131500976Y-114655824D01*
X131515766Y-114630208D01*
X131608446Y-114469680D01*
X131608448Y-114469677D01*
X131678750Y-114266554D01*
X131709339Y-114053797D01*
X131699112Y-113839096D01*
X131648437Y-113630210D01*
X131559146Y-113434690D01*
X131434466Y-113259601D01*
X131434464Y-113259599D01*
X131434459Y-113259593D01*
X131278905Y-113111274D01*
X131098080Y-112995065D01*
X130898530Y-112915177D01*
X130687473Y-112874500D01*
X130687472Y-112874500D01*
X130526382Y-112874500D01*
X130377392Y-112888727D01*
X130366029Y-112889812D01*
X130366025Y-112889813D01*
X130159793Y-112950368D01*
X129968736Y-113048864D01*
X129799785Y-113181729D01*
X129799782Y-113181733D01*
X129659021Y-113344178D01*
X129551553Y-113530319D01*
X129481251Y-113733442D01*
X129481250Y-113733444D01*
X129450661Y-113946200D01*
X129450660Y-113946202D01*
X127500000Y-113946202D01*
X127500000Y-112000000D01*
X123500000Y-112000000D01*
X112706776Y-112000000D01*
X112699112Y-111839096D01*
X112648437Y-111630210D01*
X112559146Y-111434690D01*
X112434466Y-111259601D01*
X112434464Y-111259599D01*
X112434459Y-111259593D01*
X112278905Y-111111274D01*
X112098080Y-110995065D01*
X111898530Y-110915177D01*
X111687473Y-110874500D01*
X111687472Y-110874500D01*
X111526382Y-110874500D01*
X111366029Y-110889812D01*
X111366025Y-110889813D01*
X111159793Y-110950368D01*
X110968736Y-111048864D01*
X110799785Y-111181729D01*
X110799782Y-111181733D01*
X110659021Y-111344178D01*
X110551553Y-111530319D01*
X110481251Y-111733442D01*
X110481250Y-111733444D01*
X110450661Y-111946200D01*
X110450660Y-111946202D01*
X108500000Y-111946202D01*
X108500000Y-110000000D01*
X104500000Y-110000000D01*
X89500000Y-110000000D01*
X85500000Y-110000000D01*
X29500500Y-110000000D01*
X29500500Y-104212001D01*
X107799318Y-104212001D01*
X107819955Y-104368760D01*
X107819956Y-104368762D01*
X107874316Y-104500000D01*
X107880464Y-104514841D01*
X107976718Y-104640282D01*
X108102159Y-104736536D01*
X108248238Y-104797044D01*
X108326618Y-104807363D01*
X108404999Y-104817682D01*
X108405000Y-104817682D01*
X108405001Y-104817682D01*
X108457253Y-104810802D01*
X108561762Y-104797044D01*
X108707841Y-104736536D01*
X108833282Y-104640282D01*
X108929536Y-104514841D01*
X108929541Y-104514828D01*
X108932610Y-104509515D01*
X108983175Y-104461298D01*
X109051782Y-104448072D01*
X109116648Y-104474037D01*
X109147390Y-104509515D01*
X109150461Y-104514834D01*
X109150464Y-104514841D01*
X109246718Y-104640282D01*
X109372159Y-104736536D01*
X109518238Y-104797044D01*
X109596618Y-104807363D01*
X109674999Y-104817682D01*
X109675000Y-104817682D01*
X109675001Y-104817682D01*
X109727254Y-104810802D01*
X109831762Y-104797044D01*
X109977841Y-104736536D01*
X110103282Y-104640282D01*
X110199536Y-104514841D01*
X110199541Y-104514828D01*
X110202610Y-104509515D01*
X110253175Y-104461298D01*
X110321782Y-104448072D01*
X110386648Y-104474037D01*
X110417390Y-104509515D01*
X110420461Y-104514834D01*
X110420464Y-104514841D01*
X110516718Y-104640282D01*
X110642159Y-104736536D01*
X110788238Y-104797044D01*
X110866618Y-104807363D01*
X110944999Y-104817682D01*
X110945000Y-104817682D01*
X110945001Y-104817682D01*
X110997253Y-104810802D01*
X111101762Y-104797044D01*
X111247841Y-104736536D01*
X111373282Y-104640282D01*
X111469536Y-104514841D01*
X111530044Y-104368762D01*
X111543802Y-104264253D01*
X111550682Y-104212001D01*
X111550682Y-104211999D01*
X111541753Y-104144180D01*
X111552518Y-104075145D01*
X111577008Y-104040316D01*
X112388204Y-103229120D01*
X112392166Y-103225489D01*
X112423194Y-103199455D01*
X112443438Y-103164390D01*
X112446335Y-103159841D01*
X112469554Y-103126684D01*
X112469554Y-103126681D01*
X112471819Y-103121824D01*
X112478747Y-103105099D01*
X112480584Y-103100050D01*
X112480588Y-103100045D01*
X112487619Y-103060162D01*
X112488777Y-103054940D01*
X112499264Y-103015807D01*
X112495735Y-102975478D01*
X112495500Y-102970075D01*
X112495500Y-86453920D01*
X112495736Y-86448513D01*
X112499264Y-86408193D01*
X112499264Y-86408192D01*
X112488782Y-86369076D01*
X112487616Y-86363818D01*
X112480588Y-86323955D01*
X112480586Y-86323952D01*
X112480586Y-86323950D01*
X112478760Y-86318933D01*
X112471820Y-86302176D01*
X112469554Y-86297319D01*
X112469554Y-86297316D01*
X112446339Y-86264162D01*
X112443433Y-86259599D01*
X112423196Y-86224548D01*
X112423195Y-86224547D01*
X112423194Y-86224545D01*
X112392177Y-86198518D01*
X112388193Y-86194867D01*
X111577011Y-85383685D01*
X111543526Y-85322362D01*
X111541753Y-85279818D01*
X111550682Y-85212000D01*
X111550682Y-85211999D01*
X111541753Y-85144180D01*
X111552518Y-85075145D01*
X111577008Y-85040316D01*
X112388204Y-84229120D01*
X112392166Y-84225489D01*
X112423194Y-84199455D01*
X112443438Y-84164390D01*
X112446335Y-84159841D01*
X112469554Y-84126684D01*
X112469554Y-84126681D01*
X112471819Y-84121824D01*
X112478747Y-84105099D01*
X112480584Y-84100050D01*
X112480588Y-84100045D01*
X112487619Y-84060162D01*
X112488777Y-84054940D01*
X112499264Y-84015807D01*
X112495735Y-83975478D01*
X112495500Y-83970075D01*
X112495500Y-77818266D01*
X112495500Y-71621240D01*
X112515184Y-71554205D01*
X112567988Y-71508450D01*
X112637146Y-71498506D01*
X112689957Y-71520751D01*
X112690119Y-71520472D01*
X112692341Y-71521755D01*
X112694986Y-71522869D01*
X112697157Y-71524535D01*
X112697158Y-71524535D01*
X112697159Y-71524536D01*
X112843238Y-71585044D01*
X112921619Y-71595363D01*
X112999999Y-71605682D01*
X113000000Y-71605682D01*
X113000001Y-71605682D01*
X113052253Y-71598802D01*
X113156762Y-71585044D01*
X113302841Y-71524536D01*
X113428282Y-71428282D01*
X113524536Y-71302841D01*
X113585044Y-71156762D01*
X113605682Y-71000000D01*
X113596752Y-70932180D01*
X113607518Y-70863145D01*
X113632008Y-70828316D01*
X114718210Y-69742115D01*
X114722172Y-69738484D01*
X114753194Y-69712455D01*
X114773444Y-69677379D01*
X114776328Y-69672852D01*
X114799554Y-69639684D01*
X114799554Y-69639681D01*
X114801819Y-69634824D01*
X114808747Y-69618099D01*
X114810587Y-69613046D01*
X114810588Y-69613045D01*
X114817621Y-69573150D01*
X114818777Y-69567937D01*
X114829263Y-69528807D01*
X114825735Y-69488489D01*
X114825500Y-69483086D01*
X114825500Y-69068298D01*
X114845185Y-69001259D01*
X114874010Y-68969925D01*
X114928282Y-68928282D01*
X115024536Y-68802841D01*
X115085044Y-68656762D01*
X115105682Y-68500000D01*
X115085044Y-68343238D01*
X115024536Y-68197159D01*
X114928282Y-68071718D01*
X114802841Y-67975464D01*
X114656762Y-67914956D01*
X114656760Y-67914955D01*
X114500001Y-67894318D01*
X114499999Y-67894318D01*
X114343239Y-67914955D01*
X114343237Y-67914956D01*
X114197160Y-67975463D01*
X114071718Y-68071718D01*
X113975463Y-68197160D01*
X113914956Y-68343237D01*
X113914955Y-68343239D01*
X113894318Y-68499998D01*
X113894318Y-68500001D01*
X113914955Y-68656760D01*
X113914956Y-68656762D01*
X113975464Y-68802841D01*
X114071718Y-68928282D01*
X114125987Y-68969924D01*
X114167189Y-69026349D01*
X114174500Y-69068298D01*
X114174500Y-69313811D01*
X114154815Y-69380850D01*
X114138181Y-69401492D01*
X113171684Y-70367988D01*
X113110361Y-70401473D01*
X113067818Y-70403246D01*
X113000001Y-70394318D01*
X112999999Y-70394318D01*
X112843239Y-70414955D01*
X112843237Y-70414956D01*
X112697157Y-70475464D01*
X112694979Y-70477136D01*
X112692810Y-70477974D01*
X112690119Y-70479528D01*
X112689876Y-70479108D01*
X112629808Y-70502326D01*
X112561364Y-70488283D01*
X112511378Y-70439466D01*
X112495500Y-70378758D01*
X112495500Y-67453920D01*
X112495736Y-67448513D01*
X112499264Y-67408193D01*
X112499264Y-67408192D01*
X112488782Y-67369076D01*
X112487616Y-67363818D01*
X112480588Y-67323955D01*
X112480586Y-67323952D01*
X112480586Y-67323950D01*
X112478760Y-67318933D01*
X112471820Y-67302176D01*
X112469554Y-67297319D01*
X112469554Y-67297316D01*
X112446339Y-67264162D01*
X112443433Y-67259599D01*
X112423196Y-67224548D01*
X112423195Y-67224547D01*
X112423194Y-67224545D01*
X112392177Y-67198518D01*
X112388193Y-67194867D01*
X111577011Y-66383685D01*
X111543526Y-66322362D01*
X111541753Y-66279818D01*
X111550682Y-66212000D01*
X111550682Y-66211999D01*
X111541753Y-66144180D01*
X111552518Y-66075145D01*
X111577008Y-66040316D01*
X112388204Y-65229120D01*
X112392166Y-65225489D01*
X112423194Y-65199455D01*
X112443438Y-65164390D01*
X112446335Y-65159841D01*
X112469554Y-65126684D01*
X112469554Y-65126681D01*
X112471819Y-65121824D01*
X112478747Y-65105099D01*
X112480584Y-65100050D01*
X112480588Y-65100045D01*
X112487619Y-65060162D01*
X112488777Y-65054940D01*
X112499264Y-65015807D01*
X112495735Y-64975478D01*
X112495500Y-64970075D01*
X112495500Y-48453920D01*
X112495736Y-48448513D01*
X112499264Y-48408193D01*
X112499264Y-48408192D01*
X112488782Y-48369076D01*
X112487616Y-48363818D01*
X112480588Y-48323955D01*
X112480586Y-48323952D01*
X112480586Y-48323950D01*
X112478760Y-48318933D01*
X112471820Y-48302176D01*
X112469554Y-48297319D01*
X112469554Y-48297316D01*
X112446339Y-48264162D01*
X112443433Y-48259599D01*
X112423196Y-48224548D01*
X112423195Y-48224547D01*
X112423194Y-48224545D01*
X112392177Y-48198518D01*
X112388193Y-48194867D01*
X111577011Y-47383685D01*
X111543526Y-47322362D01*
X111541753Y-47279818D01*
X111550682Y-47212000D01*
X111550682Y-47211998D01*
X111530044Y-47055239D01*
X111530044Y-47055238D01*
X111469536Y-46909159D01*
X111373282Y-46783718D01*
X111247841Y-46687464D01*
X111198033Y-46666833D01*
X111101762Y-46626956D01*
X111101760Y-46626955D01*
X110945001Y-46606318D01*
X110944999Y-46606318D01*
X110788239Y-46626955D01*
X110788237Y-46626956D01*
X110642160Y-46687463D01*
X110516718Y-46783718D01*
X110420458Y-46909166D01*
X110417387Y-46914487D01*
X110366821Y-46962703D01*
X110298214Y-46975927D01*
X110233349Y-46949959D01*
X110202613Y-46914487D01*
X110199541Y-46909166D01*
X110199536Y-46909159D01*
X110103282Y-46783718D01*
X109977841Y-46687464D01*
X109928033Y-46666833D01*
X109831762Y-46626956D01*
X109831760Y-46626955D01*
X109675001Y-46606318D01*
X109674999Y-46606318D01*
X109518239Y-46626955D01*
X109518237Y-46626956D01*
X109372160Y-46687463D01*
X109246718Y-46783718D01*
X109150458Y-46909166D01*
X109147387Y-46914487D01*
X109096821Y-46962703D01*
X109028214Y-46975927D01*
X108963349Y-46949959D01*
X108932613Y-46914487D01*
X108929541Y-46909166D01*
X108929536Y-46909159D01*
X108833282Y-46783718D01*
X108707841Y-46687464D01*
X108658033Y-46666833D01*
X108561762Y-46626956D01*
X108561760Y-46626955D01*
X108405001Y-46606318D01*
X108404999Y-46606318D01*
X108248239Y-46626955D01*
X108248237Y-46626956D01*
X108102160Y-46687463D01*
X107976718Y-46783718D01*
X107880463Y-46909160D01*
X107819956Y-47055237D01*
X107819955Y-47055239D01*
X107799318Y-47211998D01*
X107799318Y-47212001D01*
X107819955Y-47368760D01*
X107819956Y-47368762D01*
X107874316Y-47500000D01*
X107880464Y-47514841D01*
X107976718Y-47640282D01*
X108030987Y-47681924D01*
X108072189Y-47738349D01*
X108079500Y-47780298D01*
X108079500Y-65643699D01*
X108059815Y-65710738D01*
X108030988Y-65742074D01*
X107976720Y-65783715D01*
X107880463Y-65909160D01*
X107819956Y-66055237D01*
X107819955Y-66055239D01*
X107799318Y-66211998D01*
X107799318Y-66212001D01*
X107819955Y-66368760D01*
X107819956Y-66368762D01*
X107880464Y-66514841D01*
X107976718Y-66640282D01*
X108030987Y-66681924D01*
X108072189Y-66738349D01*
X108079500Y-66780298D01*
X108079500Y-84643699D01*
X108059815Y-84710738D01*
X108030988Y-84742074D01*
X107976720Y-84783715D01*
X107880463Y-84909160D01*
X107819956Y-85055237D01*
X107819955Y-85055239D01*
X107799318Y-85211998D01*
X107799318Y-85212001D01*
X107819955Y-85368760D01*
X107819956Y-85368762D01*
X107874109Y-85499500D01*
X107880464Y-85514841D01*
X107976718Y-85640282D01*
X108030987Y-85681924D01*
X108072189Y-85738349D01*
X108079500Y-85780298D01*
X108079500Y-103643699D01*
X108059815Y-103710738D01*
X108030988Y-103742074D01*
X107976720Y-103783715D01*
X107880463Y-103909160D01*
X107819956Y-104055237D01*
X107819955Y-104055239D01*
X107799318Y-104211998D01*
X107799318Y-104212001D01*
X29500500Y-104212001D01*
X29500500Y-101500001D01*
X94994390Y-101500001D01*
X95014804Y-101785433D01*
X95075628Y-102065037D01*
X95175635Y-102333166D01*
X95312770Y-102584309D01*
X95312775Y-102584317D01*
X95484254Y-102813387D01*
X95484270Y-102813405D01*
X95686594Y-103015729D01*
X95686612Y-103015745D01*
X95915682Y-103187224D01*
X95915690Y-103187229D01*
X96166833Y-103324364D01*
X96166832Y-103324364D01*
X96166836Y-103324365D01*
X96166839Y-103324367D01*
X96434954Y-103424369D01*
X96434960Y-103424370D01*
X96434962Y-103424371D01*
X96714566Y-103485195D01*
X96714568Y-103485195D01*
X96714572Y-103485196D01*
X96928552Y-103500500D01*
X97071448Y-103500500D01*
X97285428Y-103485196D01*
X97565046Y-103424369D01*
X97833161Y-103324367D01*
X98084315Y-103187226D01*
X98313395Y-103015739D01*
X98515739Y-102813395D01*
X98687226Y-102584315D01*
X98824367Y-102333161D01*
X98924369Y-102065046D01*
X98985196Y-101785428D01*
X99005610Y-101500000D01*
X98985196Y-101214572D01*
X98924369Y-100934954D01*
X98824367Y-100666839D01*
X98687226Y-100415685D01*
X98687224Y-100415682D01*
X98515745Y-100186612D01*
X98515729Y-100186594D01*
X98313405Y-99984270D01*
X98313387Y-99984254D01*
X98084317Y-99812775D01*
X98084309Y-99812770D01*
X97833166Y-99675635D01*
X97833167Y-99675635D01*
X97725915Y-99635632D01*
X97565046Y-99575631D01*
X97565043Y-99575630D01*
X97565037Y-99575628D01*
X97285433Y-99514804D01*
X97071448Y-99499500D01*
X96928552Y-99499500D01*
X96714566Y-99514804D01*
X96434962Y-99575628D01*
X96166833Y-99675635D01*
X95915690Y-99812770D01*
X95915682Y-99812775D01*
X95686612Y-99984254D01*
X95686594Y-99984270D01*
X95484270Y-100186594D01*
X95484254Y-100186612D01*
X95312775Y-100415682D01*
X95312770Y-100415690D01*
X95175635Y-100666833D01*
X95075628Y-100934962D01*
X95014804Y-101214566D01*
X94994390Y-101499998D01*
X94994390Y-101500001D01*
X29500500Y-101500001D01*
X29500500Y-96946202D01*
X33790660Y-96946202D01*
X33800887Y-97160901D01*
X33826519Y-97266557D01*
X33851563Y-97369790D01*
X33940854Y-97565310D01*
X34005309Y-97655824D01*
X34065535Y-97740400D01*
X34065540Y-97740406D01*
X34221094Y-97888725D01*
X34221096Y-97888726D01*
X34221097Y-97888727D01*
X34401920Y-98004935D01*
X34601468Y-98084822D01*
X34706997Y-98105161D01*
X34812527Y-98125500D01*
X34812528Y-98125500D01*
X34973612Y-98125500D01*
X34973618Y-98125500D01*
X35133971Y-98110188D01*
X35340209Y-98049631D01*
X35531259Y-97951138D01*
X35700217Y-97818268D01*
X35840976Y-97655824D01*
X35948448Y-97469677D01*
X36018750Y-97266554D01*
X36049339Y-97053797D01*
X36039112Y-96839096D01*
X35988437Y-96630210D01*
X35899146Y-96434690D01*
X35774466Y-96259601D01*
X35774464Y-96259599D01*
X35774459Y-96259593D01*
X35618905Y-96111274D01*
X35438080Y-95995065D01*
X35238530Y-95915177D01*
X35027473Y-95874500D01*
X35027472Y-95874500D01*
X34866382Y-95874500D01*
X34717392Y-95888727D01*
X34706029Y-95889812D01*
X34706025Y-95889813D01*
X34499793Y-95950368D01*
X34308736Y-96048864D01*
X34139785Y-96181729D01*
X34139782Y-96181733D01*
X33999021Y-96344178D01*
X33891553Y-96530319D01*
X33821251Y-96733442D01*
X33821250Y-96733444D01*
X33790661Y-96946200D01*
X33790660Y-96946202D01*
X29500500Y-96946202D01*
X29500500Y-77946202D01*
X33790660Y-77946202D01*
X33800887Y-78160901D01*
X33826519Y-78266557D01*
X33851563Y-78369790D01*
X33940854Y-78565310D01*
X34005309Y-78655824D01*
X34065535Y-78740400D01*
X34065540Y-78740406D01*
X34221094Y-78888725D01*
X34221096Y-78888726D01*
X34221097Y-78888727D01*
X34401920Y-79004935D01*
X34601468Y-79084822D01*
X34706997Y-79105161D01*
X34812527Y-79125500D01*
X34812528Y-79125500D01*
X34973612Y-79125500D01*
X34973618Y-79125500D01*
X35133971Y-79110188D01*
X35340209Y-79049631D01*
X35531259Y-78951138D01*
X35700217Y-78818268D01*
X35840976Y-78655824D01*
X35948448Y-78469677D01*
X36018750Y-78266554D01*
X36049339Y-78053797D01*
X36039112Y-77839096D01*
X35988437Y-77630210D01*
X35899146Y-77434690D01*
X35774466Y-77259601D01*
X35774464Y-77259599D01*
X35774459Y-77259593D01*
X35618905Y-77111274D01*
X35438080Y-76995065D01*
X35238530Y-76915177D01*
X35027473Y-76874500D01*
X35027472Y-76874500D01*
X34866382Y-76874500D01*
X34717392Y-76888727D01*
X34706029Y-76889812D01*
X34706025Y-76889813D01*
X34499793Y-76950368D01*
X34308736Y-77048864D01*
X34139785Y-77181729D01*
X34139782Y-77181733D01*
X33999021Y-77344178D01*
X33891553Y-77530319D01*
X33821251Y-77733442D01*
X33821250Y-77733444D01*
X33790661Y-77946200D01*
X33790660Y-77946202D01*
X29500500Y-77946202D01*
X29500500Y-58946202D01*
X33790660Y-58946202D01*
X33800887Y-59160901D01*
X33845122Y-59343239D01*
X33851563Y-59369790D01*
X33940854Y-59565310D01*
X34065534Y-59740399D01*
X34065535Y-59740400D01*
X34065540Y-59740406D01*
X34221094Y-59888725D01*
X34221096Y-59888726D01*
X34221097Y-59888727D01*
X34401920Y-60004935D01*
X34601468Y-60084822D01*
X34706997Y-60105161D01*
X34812527Y-60125500D01*
X34812528Y-60125500D01*
X34973612Y-60125500D01*
X34973618Y-60125500D01*
X35133971Y-60110188D01*
X35340209Y-60049631D01*
X35531259Y-59951138D01*
X35700217Y-59818268D01*
X35840976Y-59655824D01*
X35948448Y-59469677D01*
X36018750Y-59266554D01*
X36049339Y-59053797D01*
X36039112Y-58839096D01*
X35988437Y-58630210D01*
X35899146Y-58434690D01*
X35774466Y-58259601D01*
X35774464Y-58259599D01*
X35774459Y-58259593D01*
X35618905Y-58111274D01*
X35438080Y-57995065D01*
X35238530Y-57915177D01*
X35027473Y-57874500D01*
X35027472Y-57874500D01*
X34866382Y-57874500D01*
X34717392Y-57888727D01*
X34706029Y-57889812D01*
X34706025Y-57889813D01*
X34499793Y-57950368D01*
X34308736Y-58048864D01*
X34139785Y-58181729D01*
X34139782Y-58181733D01*
X33999021Y-58344178D01*
X33891553Y-58530319D01*
X33821251Y-58733442D01*
X33821250Y-58733444D01*
X33790661Y-58946200D01*
X33790660Y-58946202D01*
X29500500Y-58946202D01*
X29500500Y-39946202D01*
X33790660Y-39946202D01*
X33800887Y-40160901D01*
X33851563Y-40369791D01*
X33851565Y-40369795D01*
X33917518Y-40514213D01*
X33940854Y-40565310D01*
X34005309Y-40655824D01*
X34065535Y-40740400D01*
X34065540Y-40740406D01*
X34221094Y-40888725D01*
X34221096Y-40888726D01*
X34221097Y-40888727D01*
X34401920Y-41004935D01*
X34601468Y-41084822D01*
X34706997Y-41105161D01*
X34812527Y-41125500D01*
X34812528Y-41125500D01*
X34973612Y-41125500D01*
X34973618Y-41125500D01*
X35133971Y-41110188D01*
X35340209Y-41049631D01*
X35531259Y-40951138D01*
X35700217Y-40818268D01*
X35840976Y-40655824D01*
X35948448Y-40469677D01*
X36018750Y-40266554D01*
X36049339Y-40053797D01*
X36039112Y-39839096D01*
X35988437Y-39630210D01*
X35899146Y-39434690D01*
X35774466Y-39259601D01*
X35774464Y-39259599D01*
X35774459Y-39259593D01*
X35618905Y-39111274D01*
X35438080Y-38995065D01*
X35238530Y-38915177D01*
X35027473Y-38874500D01*
X35027472Y-38874500D01*
X34866382Y-38874500D01*
X34717392Y-38888727D01*
X34706029Y-38889812D01*
X34706025Y-38889813D01*
X34499793Y-38950368D01*
X34308736Y-39048864D01*
X34139785Y-39181729D01*
X34139782Y-39181733D01*
X33999021Y-39344178D01*
X33891553Y-39530319D01*
X33821251Y-39733442D01*
X33821250Y-39733444D01*
X33790661Y-39946200D01*
X33790660Y-39946202D01*
X29500500Y-39946202D01*
X29500500Y-38000000D01*
X38000000Y-38000000D01*
X38000000Y-42000000D01*
X40500500Y-42000000D01*
X40567539Y-42019685D01*
X40613294Y-42072489D01*
X40624500Y-42124000D01*
X40624500Y-56876000D01*
X40604815Y-56943039D01*
X40552011Y-56988794D01*
X40500500Y-57000000D01*
X38000000Y-57000000D01*
X38000000Y-61000000D01*
X40500500Y-61000000D01*
X40567539Y-61019685D01*
X40613294Y-61072489D01*
X40624500Y-61124000D01*
X40624500Y-75876000D01*
X40604815Y-75943039D01*
X40552011Y-75988794D01*
X40500500Y-76000000D01*
X38000000Y-76000000D01*
X38000000Y-80000000D01*
X40500500Y-80000000D01*
X40567539Y-80019685D01*
X40613294Y-80072489D01*
X40624500Y-80124000D01*
X40624500Y-94876000D01*
X40604815Y-94943039D01*
X40552011Y-94988794D01*
X40500500Y-95000000D01*
X38000000Y-95000000D01*
X38000000Y-99000000D01*
X42000000Y-99000000D01*
X42000000Y-96946202D01*
X43950660Y-96946202D01*
X43960887Y-97160901D01*
X43986519Y-97266557D01*
X44011563Y-97369790D01*
X44100854Y-97565310D01*
X44165309Y-97655824D01*
X44225535Y-97740400D01*
X44225540Y-97740406D01*
X44381094Y-97888725D01*
X44381096Y-97888726D01*
X44381097Y-97888727D01*
X44561920Y-98004935D01*
X44761468Y-98084822D01*
X44866997Y-98105161D01*
X44972527Y-98125500D01*
X44972528Y-98125500D01*
X45133612Y-98125500D01*
X45133618Y-98125500D01*
X45293971Y-98110188D01*
X45500209Y-98049631D01*
X45691259Y-97951138D01*
X45860217Y-97818268D01*
X46000976Y-97655824D01*
X46108448Y-97469677D01*
X46178750Y-97266554D01*
X46209339Y-97053797D01*
X46199112Y-96839096D01*
X46148437Y-96630210D01*
X46059146Y-96434690D01*
X45934466Y-96259601D01*
X45934464Y-96259599D01*
X45934459Y-96259593D01*
X45778905Y-96111274D01*
X45598080Y-95995065D01*
X45476026Y-95946202D01*
X52790660Y-95946202D01*
X52800887Y-96160901D01*
X52851563Y-96369790D01*
X52940854Y-96565310D01*
X53060583Y-96733446D01*
X53065535Y-96740400D01*
X53065540Y-96740406D01*
X53221094Y-96888725D01*
X53221096Y-96888726D01*
X53221097Y-96888727D01*
X53401920Y-97004935D01*
X53601468Y-97084822D01*
X53706997Y-97105161D01*
X53812527Y-97125500D01*
X53812528Y-97125500D01*
X53973612Y-97125500D01*
X53973618Y-97125500D01*
X54133971Y-97110188D01*
X54340209Y-97049631D01*
X54531259Y-96951138D01*
X54537535Y-96946203D01*
X54610621Y-96888727D01*
X54700217Y-96818268D01*
X54840976Y-96655824D01*
X54855766Y-96630208D01*
X54948446Y-96469680D01*
X54948448Y-96469677D01*
X55018750Y-96266554D01*
X55049339Y-96053797D01*
X55039112Y-95839096D01*
X54988437Y-95630210D01*
X54899146Y-95434690D01*
X54774466Y-95259601D01*
X54774464Y-95259599D01*
X54774459Y-95259593D01*
X54618905Y-95111274D01*
X54438080Y-94995065D01*
X54238530Y-94915177D01*
X54027473Y-94874500D01*
X54027472Y-94874500D01*
X53866382Y-94874500D01*
X53706029Y-94889812D01*
X53706025Y-94889813D01*
X53499793Y-94950368D01*
X53308736Y-95048864D01*
X53139785Y-95181729D01*
X53139782Y-95181733D01*
X52999021Y-95344178D01*
X52891553Y-95530319D01*
X52821251Y-95733442D01*
X52821250Y-95733444D01*
X52790661Y-95946200D01*
X52790660Y-95946202D01*
X45476026Y-95946202D01*
X45398530Y-95915177D01*
X45187473Y-95874500D01*
X45187472Y-95874500D01*
X45026382Y-95874500D01*
X44877392Y-95888727D01*
X44866029Y-95889812D01*
X44866025Y-95889813D01*
X44659793Y-95950368D01*
X44468736Y-96048864D01*
X44299785Y-96181729D01*
X44299782Y-96181733D01*
X44159021Y-96344178D01*
X44051553Y-96530319D01*
X43981251Y-96733442D01*
X43981250Y-96733444D01*
X43950661Y-96946200D01*
X43950660Y-96946202D01*
X42000000Y-96946202D01*
X42000000Y-95000000D01*
X41399500Y-95000000D01*
X41332461Y-94980315D01*
X41286706Y-94927511D01*
X41275500Y-94876000D01*
X41275500Y-87500001D01*
X47494390Y-87500001D01*
X47514804Y-87785433D01*
X47575628Y-88065037D01*
X47675635Y-88333166D01*
X47812770Y-88584309D01*
X47812775Y-88584317D01*
X47984254Y-88813387D01*
X47984270Y-88813405D01*
X48186594Y-89015729D01*
X48186612Y-89015745D01*
X48415682Y-89187224D01*
X48415690Y-89187229D01*
X48666833Y-89324364D01*
X48666832Y-89324364D01*
X48666836Y-89324365D01*
X48666839Y-89324367D01*
X48934954Y-89424369D01*
X48934960Y-89424370D01*
X48934962Y-89424371D01*
X49214566Y-89485195D01*
X49214568Y-89485195D01*
X49214572Y-89485196D01*
X49428552Y-89500500D01*
X49571448Y-89500500D01*
X49785428Y-89485196D01*
X50065046Y-89424369D01*
X50333161Y-89324367D01*
X50584315Y-89187226D01*
X50813395Y-89015739D01*
X51015739Y-88813395D01*
X51187226Y-88584315D01*
X51324367Y-88333161D01*
X51424369Y-88065046D01*
X51485196Y-87785428D01*
X51505610Y-87500000D01*
X51485196Y-87214572D01*
X51424369Y-86934954D01*
X51324367Y-86666839D01*
X51187226Y-86415685D01*
X51118558Y-86323955D01*
X51015745Y-86186612D01*
X51015729Y-86186594D01*
X50813405Y-85984270D01*
X50813387Y-85984254D01*
X50584317Y-85812775D01*
X50584309Y-85812770D01*
X50333166Y-85675635D01*
X50333167Y-85675635D01*
X50225915Y-85635632D01*
X50065046Y-85575631D01*
X50065043Y-85575630D01*
X50065037Y-85575628D01*
X49785433Y-85514804D01*
X49571448Y-85499500D01*
X49428552Y-85499500D01*
X49214566Y-85514804D01*
X48934962Y-85575628D01*
X48666833Y-85675635D01*
X48415690Y-85812770D01*
X48415682Y-85812775D01*
X48186612Y-85984254D01*
X48186594Y-85984270D01*
X47984270Y-86186594D01*
X47984254Y-86186612D01*
X47812775Y-86415682D01*
X47812770Y-86415690D01*
X47675635Y-86666833D01*
X47575628Y-86934962D01*
X47514804Y-87214566D01*
X47494390Y-87499998D01*
X47494390Y-87500001D01*
X41275500Y-87500001D01*
X41275500Y-80124000D01*
X41295185Y-80056961D01*
X41347989Y-80011206D01*
X41399500Y-80000000D01*
X42000000Y-80000000D01*
X42000000Y-77946202D01*
X43950660Y-77946202D01*
X43960887Y-78160901D01*
X43986519Y-78266557D01*
X44011563Y-78369790D01*
X44100854Y-78565310D01*
X44165309Y-78655824D01*
X44225535Y-78740400D01*
X44225540Y-78740406D01*
X44381094Y-78888725D01*
X44381096Y-78888726D01*
X44381097Y-78888727D01*
X44561920Y-79004935D01*
X44761468Y-79084822D01*
X44866997Y-79105161D01*
X44972527Y-79125500D01*
X44972528Y-79125500D01*
X45133612Y-79125500D01*
X45133618Y-79125500D01*
X45293971Y-79110188D01*
X45500209Y-79049631D01*
X45691259Y-78951138D01*
X45860217Y-78818268D01*
X46000976Y-78655824D01*
X46108448Y-78469677D01*
X46178750Y-78266554D01*
X46209339Y-78053797D01*
X46199112Y-77839096D01*
X46148437Y-77630210D01*
X46059146Y-77434690D01*
X45934466Y-77259601D01*
X45934464Y-77259599D01*
X45934459Y-77259593D01*
X45778905Y-77111274D01*
X45598080Y-76995065D01*
X45476026Y-76946202D01*
X52790660Y-76946202D01*
X52800887Y-77160901D01*
X52851563Y-77369790D01*
X52940854Y-77565310D01*
X53060583Y-77733446D01*
X53065535Y-77740400D01*
X53065540Y-77740406D01*
X53221094Y-77888725D01*
X53221096Y-77888726D01*
X53221097Y-77888727D01*
X53401920Y-78004935D01*
X53601468Y-78084822D01*
X53706997Y-78105161D01*
X53812527Y-78125500D01*
X53812528Y-78125500D01*
X53973612Y-78125500D01*
X53973618Y-78125500D01*
X54133971Y-78110188D01*
X54340209Y-78049631D01*
X54531259Y-77951138D01*
X54537535Y-77946203D01*
X54610621Y-77888727D01*
X54700217Y-77818268D01*
X54840976Y-77655824D01*
X54855766Y-77630208D01*
X54948446Y-77469680D01*
X54948448Y-77469677D01*
X55018750Y-77266554D01*
X55049339Y-77053797D01*
X55039112Y-76839096D01*
X54988437Y-76630210D01*
X54899146Y-76434690D01*
X54774466Y-76259601D01*
X54774464Y-76259599D01*
X54774459Y-76259593D01*
X54618905Y-76111274D01*
X54438080Y-75995065D01*
X54238530Y-75915177D01*
X54027473Y-75874500D01*
X54027472Y-75874500D01*
X53866382Y-75874500D01*
X53706028Y-75889812D01*
X53706029Y-75889812D01*
X53706025Y-75889813D01*
X53499793Y-75950368D01*
X53308736Y-76048864D01*
X53139785Y-76181729D01*
X53139782Y-76181733D01*
X52999021Y-76344178D01*
X52891553Y-76530319D01*
X52821251Y-76733442D01*
X52821250Y-76733444D01*
X52790661Y-76946200D01*
X52790660Y-76946202D01*
X45476026Y-76946202D01*
X45398530Y-76915177D01*
X45187473Y-76874500D01*
X45187472Y-76874500D01*
X45026382Y-76874500D01*
X44877392Y-76888727D01*
X44866029Y-76889812D01*
X44866025Y-76889813D01*
X44659793Y-76950368D01*
X44468736Y-77048864D01*
X44299785Y-77181729D01*
X44299782Y-77181733D01*
X44159021Y-77344178D01*
X44051553Y-77530319D01*
X43981251Y-77733442D01*
X43981250Y-77733444D01*
X43950661Y-77946200D01*
X43950660Y-77946202D01*
X42000000Y-77946202D01*
X42000000Y-76000000D01*
X41399500Y-76000000D01*
X41332461Y-75980315D01*
X41286706Y-75927511D01*
X41275500Y-75876000D01*
X41275500Y-61124000D01*
X41295185Y-61056961D01*
X41347989Y-61011206D01*
X41399500Y-61000000D01*
X42000000Y-61000000D01*
X42000000Y-58946202D01*
X43950660Y-58946202D01*
X43960887Y-59160901D01*
X44005122Y-59343239D01*
X44011563Y-59369790D01*
X44100854Y-59565310D01*
X44225534Y-59740399D01*
X44225535Y-59740400D01*
X44225540Y-59740406D01*
X44381094Y-59888725D01*
X44381096Y-59888726D01*
X44381097Y-59888727D01*
X44561920Y-60004935D01*
X44761468Y-60084822D01*
X44866997Y-60105161D01*
X44972527Y-60125500D01*
X44972528Y-60125500D01*
X45133612Y-60125500D01*
X45133618Y-60125500D01*
X45293971Y-60110188D01*
X45500209Y-60049631D01*
X45691259Y-59951138D01*
X45860217Y-59818268D01*
X46000976Y-59655824D01*
X46108448Y-59469677D01*
X46178750Y-59266554D01*
X46209339Y-59053797D01*
X46199112Y-58839096D01*
X46148437Y-58630210D01*
X46059146Y-58434690D01*
X45934466Y-58259601D01*
X45934464Y-58259599D01*
X45934459Y-58259593D01*
X45778905Y-58111274D01*
X45598080Y-57995065D01*
X45476026Y-57946202D01*
X52790660Y-57946202D01*
X52800887Y-58160901D01*
X52851563Y-58369791D01*
X52851565Y-58369795D01*
X52878305Y-58428348D01*
X52940854Y-58565310D01*
X53060583Y-58733446D01*
X53065535Y-58740400D01*
X53065540Y-58740406D01*
X53221094Y-58888725D01*
X53221096Y-58888726D01*
X53221097Y-58888727D01*
X53401920Y-59004935D01*
X53601468Y-59084822D01*
X53706997Y-59105161D01*
X53812527Y-59125500D01*
X53812528Y-59125500D01*
X53973612Y-59125500D01*
X53973618Y-59125500D01*
X54133971Y-59110188D01*
X54340209Y-59049631D01*
X54531259Y-58951138D01*
X54537535Y-58946203D01*
X54579999Y-58912808D01*
X54700217Y-58818268D01*
X54840976Y-58655824D01*
X54855766Y-58630208D01*
X54928148Y-58504838D01*
X54948448Y-58469677D01*
X55018750Y-58266554D01*
X55049339Y-58053797D01*
X55039112Y-57839096D01*
X54988437Y-57630210D01*
X54899146Y-57434690D01*
X54774466Y-57259601D01*
X54774464Y-57259599D01*
X54774459Y-57259593D01*
X54618905Y-57111274D01*
X54438080Y-56995065D01*
X54238530Y-56915177D01*
X54027473Y-56874500D01*
X54027472Y-56874500D01*
X53866382Y-56874500D01*
X53706029Y-56889812D01*
X53706025Y-56889813D01*
X53499793Y-56950368D01*
X53308736Y-57048864D01*
X53139785Y-57181729D01*
X53139782Y-57181733D01*
X52999021Y-57344178D01*
X52891553Y-57530319D01*
X52821251Y-57733442D01*
X52821250Y-57733444D01*
X52790661Y-57946200D01*
X52790660Y-57946202D01*
X45476026Y-57946202D01*
X45398530Y-57915177D01*
X45187473Y-57874500D01*
X45187472Y-57874500D01*
X45026382Y-57874500D01*
X44877392Y-57888727D01*
X44866029Y-57889812D01*
X44866025Y-57889813D01*
X44659793Y-57950368D01*
X44468736Y-58048864D01*
X44299785Y-58181729D01*
X44299782Y-58181733D01*
X44159021Y-58344178D01*
X44051553Y-58530319D01*
X43981251Y-58733442D01*
X43981250Y-58733444D01*
X43950661Y-58946200D01*
X43950660Y-58946202D01*
X42000000Y-58946202D01*
X42000000Y-57000000D01*
X41399500Y-57000000D01*
X41332461Y-56980315D01*
X41286706Y-56927511D01*
X41275500Y-56876000D01*
X41275500Y-49500001D01*
X47494390Y-49500001D01*
X47514804Y-49785433D01*
X47575628Y-50065037D01*
X47675635Y-50333166D01*
X47812770Y-50584309D01*
X47812775Y-50584317D01*
X47984254Y-50813387D01*
X47984270Y-50813405D01*
X48186594Y-51015729D01*
X48186612Y-51015745D01*
X48415682Y-51187224D01*
X48415690Y-51187229D01*
X48666833Y-51324364D01*
X48666832Y-51324364D01*
X48666836Y-51324365D01*
X48666839Y-51324367D01*
X48934954Y-51424369D01*
X48934960Y-51424370D01*
X48934962Y-51424371D01*
X49214566Y-51485195D01*
X49214568Y-51485195D01*
X49214572Y-51485196D01*
X49428552Y-51500500D01*
X49571448Y-51500500D01*
X49785428Y-51485196D01*
X50065046Y-51424369D01*
X50333161Y-51324367D01*
X50584315Y-51187226D01*
X50813395Y-51015739D01*
X51015739Y-50813395D01*
X51187226Y-50584315D01*
X51324367Y-50333161D01*
X51424369Y-50065046D01*
X51485196Y-49785428D01*
X51505610Y-49500000D01*
X51485196Y-49214572D01*
X51479247Y-49187226D01*
X51424371Y-48934962D01*
X51424370Y-48934960D01*
X51424369Y-48934954D01*
X51324367Y-48666839D01*
X51286138Y-48596829D01*
X51187229Y-48415690D01*
X51187224Y-48415682D01*
X51015745Y-48186612D01*
X51015729Y-48186594D01*
X50813405Y-47984270D01*
X50813387Y-47984254D01*
X50584317Y-47812775D01*
X50584309Y-47812770D01*
X50333166Y-47675635D01*
X50333167Y-47675635D01*
X50225914Y-47635632D01*
X50065046Y-47575631D01*
X50065043Y-47575630D01*
X50065037Y-47575628D01*
X49785433Y-47514804D01*
X49571448Y-47499500D01*
X49428552Y-47499500D01*
X49214566Y-47514804D01*
X48934962Y-47575628D01*
X48666833Y-47675635D01*
X48415690Y-47812770D01*
X48415682Y-47812775D01*
X48186612Y-47984254D01*
X48186594Y-47984270D01*
X47984270Y-48186594D01*
X47984254Y-48186612D01*
X47812775Y-48415682D01*
X47812770Y-48415690D01*
X47675635Y-48666833D01*
X47575628Y-48934962D01*
X47514804Y-49214566D01*
X47494390Y-49499998D01*
X47494390Y-49500001D01*
X41275500Y-49500001D01*
X41275500Y-42124000D01*
X41295185Y-42056961D01*
X41347989Y-42011206D01*
X41399500Y-42000000D01*
X42000000Y-42000000D01*
X42000000Y-39946202D01*
X43950660Y-39946202D01*
X43960887Y-40160901D01*
X44011563Y-40369791D01*
X44011565Y-40369795D01*
X44077518Y-40514213D01*
X44100854Y-40565310D01*
X44165309Y-40655824D01*
X44225535Y-40740400D01*
X44225540Y-40740406D01*
X44381094Y-40888725D01*
X44381096Y-40888726D01*
X44381097Y-40888727D01*
X44561920Y-41004935D01*
X44761468Y-41084822D01*
X44866997Y-41105160D01*
X44972527Y-41125500D01*
X44972528Y-41125500D01*
X45133612Y-41125500D01*
X45133618Y-41125500D01*
X45293971Y-41110188D01*
X45500209Y-41049631D01*
X45691259Y-40951138D01*
X45860217Y-40818268D01*
X46000976Y-40655824D01*
X46108448Y-40469677D01*
X46178750Y-40266554D01*
X46209339Y-40053797D01*
X46199112Y-39839096D01*
X46148437Y-39630210D01*
X46059146Y-39434690D01*
X45934466Y-39259601D01*
X45934464Y-39259599D01*
X45934459Y-39259593D01*
X45778905Y-39111274D01*
X45598080Y-38995065D01*
X45476026Y-38946202D01*
X52790660Y-38946202D01*
X52800887Y-39160901D01*
X52851563Y-39369791D01*
X52851565Y-39369795D01*
X52858429Y-39384826D01*
X52940854Y-39565310D01*
X53060583Y-39733446D01*
X53065535Y-39740400D01*
X53065540Y-39740406D01*
X53221094Y-39888725D01*
X53221096Y-39888726D01*
X53221097Y-39888727D01*
X53401920Y-40004935D01*
X53601468Y-40084822D01*
X53706997Y-40105160D01*
X53812527Y-40125500D01*
X53812528Y-40125500D01*
X53973612Y-40125500D01*
X53973618Y-40125500D01*
X54133971Y-40110188D01*
X54340209Y-40049631D01*
X54531259Y-39951138D01*
X54537535Y-39946203D01*
X54610621Y-39888727D01*
X54700217Y-39818268D01*
X54840976Y-39655824D01*
X54855766Y-39630208D01*
X54948446Y-39469680D01*
X54948448Y-39469677D01*
X55018750Y-39266554D01*
X55049339Y-39053797D01*
X55039112Y-38839096D01*
X54988437Y-38630210D01*
X54899146Y-38434690D01*
X54774466Y-38259601D01*
X54774464Y-38259599D01*
X54774459Y-38259593D01*
X54618905Y-38111274D01*
X54438080Y-37995065D01*
X54238530Y-37915177D01*
X54027473Y-37874500D01*
X54027472Y-37874500D01*
X53866382Y-37874500D01*
X53706029Y-37889812D01*
X53706025Y-37889813D01*
X53499793Y-37950368D01*
X53308736Y-38048864D01*
X53139785Y-38181729D01*
X53139782Y-38181733D01*
X52999021Y-38344178D01*
X52891553Y-38530319D01*
X52821251Y-38733442D01*
X52821250Y-38733444D01*
X52790661Y-38946200D01*
X52790660Y-38946202D01*
X45476026Y-38946202D01*
X45398530Y-38915177D01*
X45187473Y-38874500D01*
X45187472Y-38874500D01*
X45026382Y-38874500D01*
X44877392Y-38888727D01*
X44866029Y-38889812D01*
X44866025Y-38889813D01*
X44659793Y-38950368D01*
X44468736Y-39048864D01*
X44299785Y-39181729D01*
X44299782Y-39181733D01*
X44159021Y-39344178D01*
X44051553Y-39530319D01*
X43981251Y-39733442D01*
X43981250Y-39733444D01*
X43950661Y-39946200D01*
X43950660Y-39946202D01*
X42000000Y-39946202D01*
X42000000Y-38000000D01*
X38000000Y-38000000D01*
X29500500Y-38000000D01*
X29500500Y-37000000D01*
X57000000Y-37000000D01*
X57000000Y-41000000D01*
X59500500Y-41000000D01*
X59567539Y-41019685D01*
X59613294Y-41072489D01*
X59624500Y-41124000D01*
X59624500Y-55876000D01*
X59604815Y-55943039D01*
X59552011Y-55988794D01*
X59500500Y-56000000D01*
X57000000Y-56000000D01*
X57000000Y-60000000D01*
X59500500Y-60000000D01*
X59567539Y-60019685D01*
X59613294Y-60072489D01*
X59624500Y-60124000D01*
X59624500Y-74876000D01*
X59604815Y-74943039D01*
X59552011Y-74988794D01*
X59500500Y-75000000D01*
X57000000Y-75000000D01*
X57000000Y-79000000D01*
X59500500Y-79000000D01*
X59567539Y-79019685D01*
X59613294Y-79072489D01*
X59624500Y-79124000D01*
X59624500Y-93876000D01*
X59604815Y-93943039D01*
X59552011Y-93988794D01*
X59500500Y-94000000D01*
X57000000Y-94000000D01*
X57000000Y-98000000D01*
X61000000Y-98000000D01*
X61000000Y-95946202D01*
X62950660Y-95946202D01*
X62960887Y-96160901D01*
X63011563Y-96369790D01*
X63100854Y-96565310D01*
X63220583Y-96733446D01*
X63225535Y-96740400D01*
X63225540Y-96740406D01*
X63381094Y-96888725D01*
X63381096Y-96888726D01*
X63381097Y-96888727D01*
X63561920Y-97004935D01*
X63761468Y-97084822D01*
X63866997Y-97105161D01*
X63972527Y-97125500D01*
X63972528Y-97125500D01*
X64133612Y-97125500D01*
X64133618Y-97125500D01*
X64293971Y-97110188D01*
X64500209Y-97049631D01*
X64691259Y-96951138D01*
X64697535Y-96946203D01*
X64770621Y-96888727D01*
X64860217Y-96818268D01*
X65000976Y-96655824D01*
X65015766Y-96630208D01*
X65108446Y-96469680D01*
X65108448Y-96469677D01*
X65178750Y-96266554D01*
X65209339Y-96053797D01*
X65199112Y-95839096D01*
X65148437Y-95630210D01*
X65059146Y-95434690D01*
X64934466Y-95259601D01*
X64934464Y-95259599D01*
X64934459Y-95259593D01*
X64778905Y-95111274D01*
X64598080Y-94995065D01*
X64398530Y-94915177D01*
X64187473Y-94874500D01*
X64187472Y-94874500D01*
X64026382Y-94874500D01*
X63866029Y-94889812D01*
X63866025Y-94889813D01*
X63659793Y-94950368D01*
X63468736Y-95048864D01*
X63299785Y-95181729D01*
X63299782Y-95181733D01*
X63159021Y-95344178D01*
X63051553Y-95530319D01*
X62981251Y-95733442D01*
X62981250Y-95733444D01*
X62950661Y-95946200D01*
X62950660Y-95946202D01*
X61000000Y-95946202D01*
X61000000Y-94000000D01*
X60399500Y-94000000D01*
X60332461Y-93980315D01*
X60286706Y-93927511D01*
X60275500Y-93876000D01*
X60275500Y-92946202D01*
X71790660Y-92946202D01*
X71800887Y-93160901D01*
X71826519Y-93266557D01*
X71851563Y-93369790D01*
X71940854Y-93565310D01*
X72005309Y-93655824D01*
X72065535Y-93740400D01*
X72065540Y-93740406D01*
X72221094Y-93888725D01*
X72221096Y-93888726D01*
X72221097Y-93888727D01*
X72401920Y-94004935D01*
X72601468Y-94084822D01*
X72706997Y-94105161D01*
X72812527Y-94125500D01*
X72812528Y-94125500D01*
X72973612Y-94125500D01*
X72973618Y-94125500D01*
X73133971Y-94110188D01*
X73340209Y-94049631D01*
X73531259Y-93951138D01*
X73700217Y-93818268D01*
X73840976Y-93655824D01*
X73948448Y-93469677D01*
X74018750Y-93266554D01*
X74049339Y-93053797D01*
X74039112Y-92839096D01*
X73988437Y-92630210D01*
X73899146Y-92434690D01*
X73774466Y-92259601D01*
X73774464Y-92259599D01*
X73774459Y-92259593D01*
X73618905Y-92111274D01*
X73438080Y-91995065D01*
X73238530Y-91915177D01*
X73027473Y-91874500D01*
X73027472Y-91874500D01*
X72866382Y-91874500D01*
X72706028Y-91889812D01*
X72706029Y-91889812D01*
X72706025Y-91889813D01*
X72499793Y-91950368D01*
X72308736Y-92048864D01*
X72139785Y-92181729D01*
X72139782Y-92181733D01*
X71999021Y-92344178D01*
X71891553Y-92530319D01*
X71821251Y-92733442D01*
X71821250Y-92733444D01*
X71790661Y-92946200D01*
X71790660Y-92946202D01*
X60275500Y-92946202D01*
X60275500Y-79124000D01*
X60295185Y-79056961D01*
X60347989Y-79011206D01*
X60399500Y-79000000D01*
X61000000Y-79000000D01*
X61000000Y-76946202D01*
X62950660Y-76946202D01*
X62960887Y-77160901D01*
X63011563Y-77369790D01*
X63100854Y-77565310D01*
X63220583Y-77733446D01*
X63225535Y-77740400D01*
X63225540Y-77740406D01*
X63381094Y-77888725D01*
X63381096Y-77888726D01*
X63381097Y-77888727D01*
X63561920Y-78004935D01*
X63761468Y-78084822D01*
X63866997Y-78105161D01*
X63972527Y-78125500D01*
X63972528Y-78125500D01*
X64133612Y-78125500D01*
X64133618Y-78125500D01*
X64293971Y-78110188D01*
X64500209Y-78049631D01*
X64691259Y-77951138D01*
X64697535Y-77946203D01*
X64770621Y-77888727D01*
X64860217Y-77818268D01*
X65000976Y-77655824D01*
X65015766Y-77630208D01*
X65108446Y-77469680D01*
X65108448Y-77469677D01*
X65178750Y-77266554D01*
X65209339Y-77053797D01*
X65199112Y-76839096D01*
X65148437Y-76630210D01*
X65059146Y-76434690D01*
X64934466Y-76259601D01*
X64934464Y-76259599D01*
X64934459Y-76259593D01*
X64778905Y-76111274D01*
X64598080Y-75995065D01*
X64398530Y-75915177D01*
X64187473Y-75874500D01*
X64187472Y-75874500D01*
X64026382Y-75874500D01*
X63866028Y-75889812D01*
X63866029Y-75889812D01*
X63866025Y-75889813D01*
X63659793Y-75950368D01*
X63468736Y-76048864D01*
X63299785Y-76181729D01*
X63299782Y-76181733D01*
X63159021Y-76344178D01*
X63051553Y-76530319D01*
X62981251Y-76733442D01*
X62981250Y-76733444D01*
X62950661Y-76946200D01*
X62950660Y-76946202D01*
X61000000Y-76946202D01*
X61000000Y-75000000D01*
X60399500Y-75000000D01*
X60332461Y-74980315D01*
X60286706Y-74927511D01*
X60275500Y-74876000D01*
X60275500Y-73946202D01*
X71790660Y-73946202D01*
X71800887Y-74160901D01*
X71826519Y-74266557D01*
X71851563Y-74369790D01*
X71940854Y-74565310D01*
X72005309Y-74655824D01*
X72065535Y-74740400D01*
X72065540Y-74740406D01*
X72221094Y-74888725D01*
X72221096Y-74888726D01*
X72221097Y-74888727D01*
X72401920Y-75004935D01*
X72601468Y-75084822D01*
X72706997Y-75105161D01*
X72812527Y-75125500D01*
X72812528Y-75125500D01*
X72973612Y-75125500D01*
X72973618Y-75125500D01*
X73133971Y-75110188D01*
X73340209Y-75049631D01*
X73531259Y-74951138D01*
X73700217Y-74818268D01*
X73840976Y-74655824D01*
X73948448Y-74469677D01*
X74018750Y-74266554D01*
X74049339Y-74053797D01*
X74039112Y-73839096D01*
X73988437Y-73630210D01*
X73899146Y-73434690D01*
X73774466Y-73259601D01*
X73774464Y-73259599D01*
X73774459Y-73259593D01*
X73618905Y-73111274D01*
X73438080Y-72995065D01*
X73238530Y-72915177D01*
X73027473Y-72874500D01*
X73027472Y-72874500D01*
X72866382Y-72874500D01*
X72706029Y-72889812D01*
X72706025Y-72889813D01*
X72499793Y-72950368D01*
X72308736Y-73048864D01*
X72139785Y-73181729D01*
X72139782Y-73181733D01*
X71999021Y-73344178D01*
X71891553Y-73530319D01*
X71821251Y-73733442D01*
X71821250Y-73733444D01*
X71790661Y-73946200D01*
X71790660Y-73946202D01*
X60275500Y-73946202D01*
X60275500Y-60124000D01*
X60295185Y-60056961D01*
X60347989Y-60011206D01*
X60399500Y-60000000D01*
X61000000Y-60000000D01*
X61000000Y-57946202D01*
X62950660Y-57946202D01*
X62960887Y-58160901D01*
X63011563Y-58369791D01*
X63011565Y-58369795D01*
X63038305Y-58428348D01*
X63100854Y-58565310D01*
X63220583Y-58733446D01*
X63225535Y-58740400D01*
X63225540Y-58740406D01*
X63381094Y-58888725D01*
X63381096Y-58888726D01*
X63381097Y-58888727D01*
X63561920Y-59004935D01*
X63761468Y-59084822D01*
X63866997Y-59105161D01*
X63972527Y-59125500D01*
X63972528Y-59125500D01*
X64133612Y-59125500D01*
X64133618Y-59125500D01*
X64293971Y-59110188D01*
X64500209Y-59049631D01*
X64691259Y-58951138D01*
X64697535Y-58946203D01*
X64739999Y-58912808D01*
X64860217Y-58818268D01*
X65000976Y-58655824D01*
X65015766Y-58630208D01*
X65088148Y-58504838D01*
X65108448Y-58469677D01*
X65178750Y-58266554D01*
X65209339Y-58053797D01*
X65199112Y-57839096D01*
X65148437Y-57630210D01*
X65059146Y-57434690D01*
X64934466Y-57259601D01*
X64934464Y-57259599D01*
X64934459Y-57259593D01*
X64778905Y-57111274D01*
X64598080Y-56995065D01*
X64398530Y-56915177D01*
X64187473Y-56874500D01*
X64187472Y-56874500D01*
X64026382Y-56874500D01*
X63866029Y-56889812D01*
X63866025Y-56889813D01*
X63659793Y-56950368D01*
X63468736Y-57048864D01*
X63299785Y-57181729D01*
X63299782Y-57181733D01*
X63159021Y-57344178D01*
X63051553Y-57530319D01*
X62981251Y-57733442D01*
X62981250Y-57733444D01*
X62950661Y-57946200D01*
X62950660Y-57946202D01*
X61000000Y-57946202D01*
X61000000Y-56000000D01*
X60399500Y-56000000D01*
X60332461Y-55980315D01*
X60286706Y-55927511D01*
X60275500Y-55876000D01*
X60275500Y-54946202D01*
X71790660Y-54946202D01*
X71800887Y-55160901D01*
X71842184Y-55331130D01*
X71851563Y-55369790D01*
X71940854Y-55565310D01*
X72065534Y-55740399D01*
X72065535Y-55740400D01*
X72065540Y-55740406D01*
X72221094Y-55888725D01*
X72221096Y-55888726D01*
X72221097Y-55888727D01*
X72401920Y-56004935D01*
X72601468Y-56084822D01*
X72706997Y-56105161D01*
X72812527Y-56125500D01*
X72812528Y-56125500D01*
X72973612Y-56125500D01*
X72973618Y-56125500D01*
X73133971Y-56110188D01*
X73340209Y-56049631D01*
X73531259Y-55951138D01*
X73700217Y-55818268D01*
X73840976Y-55655824D01*
X73869926Y-55605682D01*
X73930941Y-55500000D01*
X73948448Y-55469677D01*
X74018750Y-55266554D01*
X74049339Y-55053797D01*
X74039112Y-54839096D01*
X73988437Y-54630210D01*
X73899146Y-54434690D01*
X73774466Y-54259601D01*
X73774464Y-54259599D01*
X73774459Y-54259593D01*
X73618905Y-54111274D01*
X73438080Y-53995065D01*
X73238530Y-53915177D01*
X73027473Y-53874500D01*
X73027472Y-53874500D01*
X72866382Y-53874500D01*
X72706028Y-53889812D01*
X72706029Y-53889812D01*
X72706025Y-53889813D01*
X72499793Y-53950368D01*
X72308736Y-54048864D01*
X72139785Y-54181729D01*
X72139782Y-54181733D01*
X71999021Y-54344178D01*
X71891553Y-54530319D01*
X71821251Y-54733442D01*
X71821250Y-54733444D01*
X71790661Y-54946200D01*
X71790660Y-54946202D01*
X60275500Y-54946202D01*
X60275500Y-41124000D01*
X60295185Y-41056961D01*
X60347989Y-41011206D01*
X60399500Y-41000000D01*
X61000000Y-41000000D01*
X61000000Y-38946202D01*
X62950660Y-38946202D01*
X62960887Y-39160901D01*
X63011563Y-39369791D01*
X63011565Y-39369795D01*
X63018429Y-39384826D01*
X63100854Y-39565310D01*
X63220583Y-39733446D01*
X63225535Y-39740400D01*
X63225540Y-39740406D01*
X63381094Y-39888725D01*
X63381096Y-39888726D01*
X63381097Y-39888727D01*
X63561920Y-40004935D01*
X63761468Y-40084822D01*
X63866997Y-40105160D01*
X63972527Y-40125500D01*
X63972528Y-40125500D01*
X64133612Y-40125500D01*
X64133618Y-40125500D01*
X64293971Y-40110188D01*
X64500209Y-40049631D01*
X64691259Y-39951138D01*
X64697535Y-39946203D01*
X64770621Y-39888727D01*
X64860217Y-39818268D01*
X65000976Y-39655824D01*
X65015766Y-39630208D01*
X65108446Y-39469680D01*
X65108448Y-39469677D01*
X65178750Y-39266554D01*
X65209339Y-39053797D01*
X65199112Y-38839096D01*
X65148437Y-38630210D01*
X65059146Y-38434690D01*
X64934466Y-38259601D01*
X64934464Y-38259599D01*
X64934459Y-38259593D01*
X64778905Y-38111274D01*
X64598080Y-37995065D01*
X64398530Y-37915177D01*
X64187473Y-37874500D01*
X64187472Y-37874500D01*
X64026382Y-37874500D01*
X63866029Y-37889812D01*
X63866025Y-37889813D01*
X63659793Y-37950368D01*
X63468736Y-38048864D01*
X63299785Y-38181729D01*
X63299782Y-38181733D01*
X63159021Y-38344178D01*
X63051553Y-38530319D01*
X62981251Y-38733442D01*
X62981250Y-38733444D01*
X62950661Y-38946200D01*
X62950660Y-38946202D01*
X61000000Y-38946202D01*
X61000000Y-37000000D01*
X57000000Y-37000000D01*
X29500500Y-37000000D01*
X29500500Y-35946202D01*
X71790660Y-35946202D01*
X71800887Y-36160901D01*
X71851563Y-36369791D01*
X71851565Y-36369795D01*
X71905689Y-36488311D01*
X71940854Y-36565310D01*
X72036940Y-36700244D01*
X72065535Y-36740400D01*
X72065540Y-36740406D01*
X72221094Y-36888725D01*
X72221096Y-36888726D01*
X72221097Y-36888727D01*
X72401920Y-37004935D01*
X72601468Y-37084822D01*
X72706997Y-37105160D01*
X72812527Y-37125500D01*
X72812528Y-37125500D01*
X72973612Y-37125500D01*
X72973618Y-37125500D01*
X73133971Y-37110188D01*
X73340209Y-37049631D01*
X73531259Y-36951138D01*
X73700217Y-36818268D01*
X73840976Y-36655824D01*
X73948448Y-36469677D01*
X74018750Y-36266554D01*
X74049339Y-36053797D01*
X74039112Y-35839096D01*
X73988437Y-35630210D01*
X73899146Y-35434690D01*
X73774466Y-35259601D01*
X73774464Y-35259599D01*
X73774459Y-35259593D01*
X73618905Y-35111274D01*
X73438080Y-34995065D01*
X73238530Y-34915177D01*
X73027473Y-34874500D01*
X73027472Y-34874500D01*
X72866382Y-34874500D01*
X72706028Y-34889812D01*
X72706029Y-34889812D01*
X72706025Y-34889813D01*
X72499793Y-34950368D01*
X72308736Y-35048864D01*
X72139785Y-35181729D01*
X72139782Y-35181733D01*
X71999021Y-35344178D01*
X71891553Y-35530319D01*
X71821251Y-35733442D01*
X71821250Y-35733444D01*
X71790661Y-35946200D01*
X71790660Y-35946202D01*
X29500500Y-35946202D01*
X29500500Y-34000000D01*
X76000000Y-34000000D01*
X76000000Y-38000000D01*
X78550500Y-38000000D01*
X78617539Y-38019685D01*
X78663294Y-38072489D01*
X78674500Y-38124000D01*
X78674500Y-52876000D01*
X78654815Y-52943039D01*
X78602011Y-52988794D01*
X78550500Y-53000000D01*
X76000000Y-53000000D01*
X76000000Y-57000000D01*
X78550500Y-57000000D01*
X78617539Y-57019685D01*
X78663294Y-57072489D01*
X78674500Y-57124000D01*
X78674500Y-71876000D01*
X78654815Y-71943039D01*
X78602011Y-71988794D01*
X78550500Y-72000000D01*
X76000000Y-72000000D01*
X76000000Y-76000000D01*
X78550500Y-76000000D01*
X78617539Y-76019685D01*
X78663294Y-76072489D01*
X78674500Y-76124000D01*
X78674500Y-90876000D01*
X78654815Y-90943039D01*
X78602011Y-90988794D01*
X78550500Y-91000000D01*
X76000000Y-91000000D01*
X76000000Y-95000000D01*
X80000000Y-95000000D01*
X80000000Y-92946202D01*
X81950660Y-92946202D01*
X81960887Y-93160901D01*
X81986519Y-93266557D01*
X82011563Y-93369790D01*
X82100854Y-93565310D01*
X82165309Y-93655824D01*
X82225535Y-93740400D01*
X82225540Y-93740406D01*
X82381094Y-93888725D01*
X82381096Y-93888726D01*
X82381097Y-93888727D01*
X82561920Y-94004935D01*
X82761468Y-94084822D01*
X82866997Y-94105161D01*
X82972527Y-94125500D01*
X82972528Y-94125500D01*
X83133612Y-94125500D01*
X83133618Y-94125500D01*
X83293971Y-94110188D01*
X83500209Y-94049631D01*
X83691259Y-93951138D01*
X83860217Y-93818268D01*
X84000976Y-93655824D01*
X84108448Y-93469677D01*
X84178750Y-93266554D01*
X84209339Y-93053797D01*
X84199112Y-92839096D01*
X84148437Y-92630210D01*
X84059146Y-92434690D01*
X83934466Y-92259601D01*
X83934464Y-92259599D01*
X83934459Y-92259593D01*
X83778905Y-92111274D01*
X83598080Y-91995065D01*
X83476026Y-91946202D01*
X90790660Y-91946202D01*
X90800887Y-92160901D01*
X90851563Y-92369790D01*
X90940854Y-92565310D01*
X91060583Y-92733446D01*
X91065535Y-92740400D01*
X91065540Y-92740406D01*
X91221094Y-92888725D01*
X91221096Y-92888726D01*
X91221097Y-92888727D01*
X91401920Y-93004935D01*
X91601468Y-93084822D01*
X91706997Y-93105161D01*
X91812527Y-93125500D01*
X91812528Y-93125500D01*
X91973612Y-93125500D01*
X91973618Y-93125500D01*
X92133971Y-93110188D01*
X92340209Y-93049631D01*
X92531259Y-92951138D01*
X92537535Y-92946203D01*
X92610621Y-92888727D01*
X92700217Y-92818268D01*
X92840976Y-92655824D01*
X92855766Y-92630208D01*
X92948446Y-92469680D01*
X92948448Y-92469677D01*
X93018750Y-92266554D01*
X93049339Y-92053797D01*
X93039112Y-91839096D01*
X92988437Y-91630210D01*
X92899146Y-91434690D01*
X92774466Y-91259601D01*
X92774464Y-91259599D01*
X92774459Y-91259593D01*
X92618905Y-91111274D01*
X92438080Y-90995065D01*
X92238530Y-90915177D01*
X92027473Y-90874500D01*
X92027472Y-90874500D01*
X91866382Y-90874500D01*
X91706029Y-90889812D01*
X91706025Y-90889813D01*
X91499793Y-90950368D01*
X91308736Y-91048864D01*
X91139785Y-91181729D01*
X91139782Y-91181733D01*
X90999021Y-91344178D01*
X90891553Y-91530319D01*
X90821251Y-91733442D01*
X90821250Y-91733444D01*
X90790661Y-91946200D01*
X90790660Y-91946202D01*
X83476026Y-91946202D01*
X83398530Y-91915177D01*
X83187473Y-91874500D01*
X83187472Y-91874500D01*
X83026382Y-91874500D01*
X82866028Y-91889812D01*
X82866029Y-91889812D01*
X82866025Y-91889813D01*
X82659793Y-91950368D01*
X82468736Y-92048864D01*
X82299785Y-92181729D01*
X82299782Y-92181733D01*
X82159021Y-92344178D01*
X82051553Y-92530319D01*
X81981251Y-92733442D01*
X81981250Y-92733444D01*
X81950661Y-92946200D01*
X81950660Y-92946202D01*
X80000000Y-92946202D01*
X80000000Y-91000000D01*
X79449500Y-91000000D01*
X79382461Y-90980315D01*
X79336706Y-90927511D01*
X79325500Y-90876000D01*
X79325500Y-76124000D01*
X79345185Y-76056961D01*
X79397989Y-76011206D01*
X79449500Y-76000000D01*
X80000000Y-76000000D01*
X80000000Y-73946202D01*
X81950660Y-73946202D01*
X81960887Y-74160901D01*
X81986519Y-74266557D01*
X82011563Y-74369790D01*
X82100854Y-74565310D01*
X82165309Y-74655824D01*
X82225535Y-74740400D01*
X82225540Y-74740406D01*
X82381094Y-74888725D01*
X82381096Y-74888726D01*
X82381097Y-74888727D01*
X82561920Y-75004935D01*
X82761468Y-75084822D01*
X82866997Y-75105161D01*
X82972527Y-75125500D01*
X82972528Y-75125500D01*
X83133612Y-75125500D01*
X83133618Y-75125500D01*
X83293971Y-75110188D01*
X83500209Y-75049631D01*
X83691259Y-74951138D01*
X83860217Y-74818268D01*
X84000976Y-74655824D01*
X84108448Y-74469677D01*
X84178750Y-74266554D01*
X84209339Y-74053797D01*
X84199112Y-73839096D01*
X84148437Y-73630210D01*
X84059146Y-73434690D01*
X83934466Y-73259601D01*
X83934464Y-73259599D01*
X83934459Y-73259593D01*
X83778905Y-73111274D01*
X83598080Y-72995065D01*
X83476026Y-72946202D01*
X90790660Y-72946202D01*
X90800887Y-73160901D01*
X90851563Y-73369790D01*
X90940854Y-73565310D01*
X91060583Y-73733446D01*
X91065535Y-73740400D01*
X91065540Y-73740406D01*
X91221094Y-73888725D01*
X91221096Y-73888726D01*
X91221097Y-73888727D01*
X91401920Y-74004935D01*
X91601468Y-74084822D01*
X91706997Y-74105161D01*
X91812527Y-74125500D01*
X91812528Y-74125500D01*
X91973612Y-74125500D01*
X91973618Y-74125500D01*
X92133971Y-74110188D01*
X92340209Y-74049631D01*
X92531259Y-73951138D01*
X92537535Y-73946203D01*
X92610621Y-73888727D01*
X92700217Y-73818268D01*
X92840976Y-73655824D01*
X92855766Y-73630208D01*
X92948446Y-73469680D01*
X92948448Y-73469677D01*
X93018750Y-73266554D01*
X93049339Y-73053797D01*
X93039112Y-72839096D01*
X92988437Y-72630210D01*
X92899146Y-72434690D01*
X92774466Y-72259601D01*
X92774464Y-72259599D01*
X92774459Y-72259593D01*
X92618905Y-72111274D01*
X92438080Y-71995065D01*
X92238530Y-71915177D01*
X92027473Y-71874500D01*
X92027472Y-71874500D01*
X91866382Y-71874500D01*
X91706028Y-71889812D01*
X91706029Y-71889812D01*
X91706025Y-71889813D01*
X91499793Y-71950368D01*
X91308736Y-72048864D01*
X91139785Y-72181729D01*
X91139782Y-72181733D01*
X90999021Y-72344178D01*
X90891553Y-72530319D01*
X90821251Y-72733442D01*
X90821250Y-72733444D01*
X90790661Y-72946200D01*
X90790660Y-72946202D01*
X83476026Y-72946202D01*
X83398530Y-72915177D01*
X83187473Y-72874500D01*
X83187472Y-72874500D01*
X83026382Y-72874500D01*
X82866029Y-72889812D01*
X82866025Y-72889813D01*
X82659793Y-72950368D01*
X82468736Y-73048864D01*
X82299785Y-73181729D01*
X82299782Y-73181733D01*
X82159021Y-73344178D01*
X82051553Y-73530319D01*
X81981251Y-73733442D01*
X81981250Y-73733444D01*
X81950661Y-73946200D01*
X81950660Y-73946202D01*
X80000000Y-73946202D01*
X80000000Y-72000000D01*
X79449500Y-72000000D01*
X79382461Y-71980315D01*
X79336706Y-71927511D01*
X79325500Y-71876000D01*
X79325500Y-57124000D01*
X79345185Y-57056961D01*
X79397989Y-57011206D01*
X79449500Y-57000000D01*
X80000000Y-57000000D01*
X80000000Y-54946202D01*
X81950660Y-54946202D01*
X81960887Y-55160901D01*
X82002184Y-55331130D01*
X82011563Y-55369790D01*
X82100854Y-55565310D01*
X82225534Y-55740399D01*
X82225535Y-55740400D01*
X82225540Y-55740406D01*
X82381094Y-55888725D01*
X82381096Y-55888726D01*
X82381097Y-55888727D01*
X82561920Y-56004935D01*
X82761468Y-56084822D01*
X82866997Y-56105161D01*
X82972527Y-56125500D01*
X82972528Y-56125500D01*
X83133612Y-56125500D01*
X83133618Y-56125500D01*
X83293971Y-56110188D01*
X83456381Y-56062500D01*
X94970000Y-56062500D01*
X97550500Y-56062500D01*
X97617539Y-56082185D01*
X97663294Y-56134989D01*
X97674500Y-56186500D01*
X97674500Y-65431699D01*
X97654815Y-65498738D01*
X97625988Y-65530074D01*
X97571720Y-65571715D01*
X97475463Y-65697160D01*
X97414956Y-65843237D01*
X97414955Y-65843239D01*
X97394318Y-65999998D01*
X97394318Y-66000001D01*
X97414955Y-66156760D01*
X97414956Y-66156762D01*
X97465927Y-66279818D01*
X97475464Y-66302841D01*
X97571718Y-66428282D01*
X97625987Y-66469924D01*
X97667189Y-66526349D01*
X97674500Y-66568298D01*
X97674500Y-70876000D01*
X97654815Y-70943039D01*
X97602011Y-70988794D01*
X97550500Y-71000000D01*
X95000000Y-71000000D01*
X95000000Y-75000000D01*
X97550500Y-75000000D01*
X97617539Y-75019685D01*
X97663294Y-75072489D01*
X97674500Y-75124000D01*
X97674500Y-84431699D01*
X97654815Y-84498738D01*
X97625988Y-84530074D01*
X97571720Y-84571715D01*
X97475463Y-84697160D01*
X97414956Y-84843237D01*
X97414955Y-84843239D01*
X97394318Y-84999998D01*
X97394318Y-85000001D01*
X97414955Y-85156760D01*
X97414956Y-85156762D01*
X97465927Y-85279818D01*
X97475464Y-85302841D01*
X97571718Y-85428282D01*
X97625987Y-85469924D01*
X97667189Y-85526349D01*
X97674500Y-85568298D01*
X97674500Y-89876000D01*
X97654815Y-89943039D01*
X97602011Y-89988794D01*
X97550500Y-90000000D01*
X95000000Y-90000000D01*
X95000000Y-94000000D01*
X99000000Y-94000000D01*
X99000000Y-91946202D01*
X100950660Y-91946202D01*
X100960887Y-92160901D01*
X101011563Y-92369790D01*
X101100854Y-92565310D01*
X101220583Y-92733446D01*
X101225535Y-92740400D01*
X101225540Y-92740406D01*
X101381094Y-92888725D01*
X101381096Y-92888726D01*
X101381097Y-92888727D01*
X101561920Y-93004935D01*
X101761468Y-93084822D01*
X101866997Y-93105161D01*
X101972527Y-93125500D01*
X101972528Y-93125500D01*
X102133612Y-93125500D01*
X102133618Y-93125500D01*
X102293971Y-93110188D01*
X102500209Y-93049631D01*
X102691259Y-92951138D01*
X102697535Y-92946203D01*
X102770621Y-92888727D01*
X102860217Y-92818268D01*
X103000976Y-92655824D01*
X103015766Y-92630208D01*
X103108446Y-92469680D01*
X103108448Y-92469677D01*
X103178750Y-92266554D01*
X103209339Y-92053797D01*
X103199112Y-91839096D01*
X103148437Y-91630210D01*
X103059146Y-91434690D01*
X102934466Y-91259601D01*
X102934464Y-91259599D01*
X102934459Y-91259593D01*
X102778905Y-91111274D01*
X102598080Y-90995065D01*
X102398530Y-90915177D01*
X102187473Y-90874500D01*
X102187472Y-90874500D01*
X102026382Y-90874500D01*
X101866029Y-90889812D01*
X101866025Y-90889813D01*
X101659793Y-90950368D01*
X101468736Y-91048864D01*
X101299785Y-91181729D01*
X101299782Y-91181733D01*
X101159021Y-91344178D01*
X101051553Y-91530319D01*
X100981251Y-91733442D01*
X100981250Y-91733444D01*
X100950661Y-91946200D01*
X100950660Y-91946202D01*
X99000000Y-91946202D01*
X99000000Y-90000000D01*
X98449500Y-90000000D01*
X98382461Y-89980315D01*
X98336706Y-89927511D01*
X98325500Y-89876000D01*
X98325500Y-85568298D01*
X98345185Y-85501259D01*
X98374010Y-85469925D01*
X98428282Y-85428282D01*
X98524536Y-85302841D01*
X98585044Y-85156762D01*
X98605682Y-85000000D01*
X98585044Y-84843238D01*
X98524536Y-84697159D01*
X98428282Y-84571718D01*
X98428280Y-84571716D01*
X98428279Y-84571715D01*
X98374012Y-84530074D01*
X98332810Y-84473646D01*
X98325500Y-84431699D01*
X98325500Y-75124000D01*
X98345185Y-75056961D01*
X98397989Y-75011206D01*
X98449500Y-75000000D01*
X99000000Y-75000000D01*
X99000000Y-72946202D01*
X100950660Y-72946202D01*
X100960887Y-73160901D01*
X101011563Y-73369790D01*
X101100854Y-73565310D01*
X101220583Y-73733446D01*
X101225535Y-73740400D01*
X101225540Y-73740406D01*
X101381094Y-73888725D01*
X101381096Y-73888726D01*
X101381097Y-73888727D01*
X101561920Y-74004935D01*
X101761468Y-74084822D01*
X101866997Y-74105161D01*
X101972527Y-74125500D01*
X101972528Y-74125500D01*
X102133612Y-74125500D01*
X102133618Y-74125500D01*
X102293971Y-74110188D01*
X102500209Y-74049631D01*
X102691259Y-73951138D01*
X102697535Y-73946203D01*
X102770621Y-73888727D01*
X102860217Y-73818268D01*
X103000976Y-73655824D01*
X103015766Y-73630208D01*
X103108446Y-73469680D01*
X103108448Y-73469677D01*
X103178750Y-73266554D01*
X103209339Y-73053797D01*
X103199112Y-72839096D01*
X103148437Y-72630210D01*
X103059146Y-72434690D01*
X102934466Y-72259601D01*
X102934464Y-72259599D01*
X102934459Y-72259593D01*
X102778905Y-72111274D01*
X102598080Y-71995065D01*
X102398530Y-71915177D01*
X102187473Y-71874500D01*
X102187472Y-71874500D01*
X102026382Y-71874500D01*
X101866028Y-71889812D01*
X101866029Y-71889812D01*
X101866025Y-71889813D01*
X101659793Y-71950368D01*
X101468736Y-72048864D01*
X101299785Y-72181729D01*
X101299782Y-72181733D01*
X101159021Y-72344178D01*
X101051553Y-72530319D01*
X100981251Y-72733442D01*
X100981250Y-72733444D01*
X100950661Y-72946200D01*
X100950660Y-72946202D01*
X99000000Y-72946202D01*
X99000000Y-71000000D01*
X98449500Y-71000000D01*
X98382461Y-70980315D01*
X98336706Y-70927511D01*
X98325500Y-70876000D01*
X98325500Y-66568298D01*
X98345185Y-66501259D01*
X98374010Y-66469925D01*
X98428282Y-66428282D01*
X98524536Y-66302841D01*
X98585044Y-66156762D01*
X98605682Y-66000000D01*
X98585044Y-65843238D01*
X98524536Y-65697159D01*
X98428282Y-65571718D01*
X98428280Y-65571716D01*
X98428279Y-65571715D01*
X98374012Y-65530074D01*
X98332810Y-65473646D01*
X98325500Y-65431699D01*
X98325500Y-56186500D01*
X98345185Y-56119461D01*
X98397989Y-56073706D01*
X98449500Y-56062500D01*
X98970000Y-56062500D01*
X98970000Y-53946202D01*
X100950660Y-53946202D01*
X100960887Y-54160901D01*
X101011563Y-54369791D01*
X101011565Y-54369795D01*
X101082755Y-54525680D01*
X101100854Y-54565310D01*
X101220583Y-54733446D01*
X101225535Y-54740400D01*
X101225540Y-54740406D01*
X101381094Y-54888725D01*
X101381096Y-54888726D01*
X101381097Y-54888727D01*
X101561920Y-55004935D01*
X101761468Y-55084822D01*
X101866997Y-55105161D01*
X101972527Y-55125500D01*
X101972528Y-55125500D01*
X102133612Y-55125500D01*
X102133618Y-55125500D01*
X102293971Y-55110188D01*
X102500209Y-55049631D01*
X102691259Y-54951138D01*
X102697535Y-54946203D01*
X102770621Y-54888727D01*
X102860217Y-54818268D01*
X103000976Y-54655824D01*
X103001308Y-54655250D01*
X103079236Y-54520273D01*
X103108448Y-54469677D01*
X103178750Y-54266554D01*
X103209339Y-54053797D01*
X103199112Y-53839096D01*
X103148437Y-53630210D01*
X103059146Y-53434690D01*
X102934466Y-53259601D01*
X102934464Y-53259599D01*
X102934459Y-53259593D01*
X102778905Y-53111274D01*
X102598080Y-52995065D01*
X102398530Y-52915177D01*
X102187473Y-52874500D01*
X102187472Y-52874500D01*
X102026382Y-52874500D01*
X101866029Y-52889812D01*
X101866025Y-52889813D01*
X101659793Y-52950368D01*
X101468736Y-53048864D01*
X101299785Y-53181729D01*
X101299782Y-53181733D01*
X101159021Y-53344178D01*
X101051553Y-53530319D01*
X100981251Y-53733442D01*
X100981250Y-53733444D01*
X100950661Y-53946200D01*
X100950660Y-53946202D01*
X98970000Y-53946202D01*
X98970000Y-52062500D01*
X98449500Y-52062500D01*
X98382461Y-52042815D01*
X98336706Y-51990011D01*
X98325500Y-51938500D01*
X98325500Y-47568298D01*
X98345185Y-47501259D01*
X98374010Y-47469925D01*
X98428282Y-47428282D01*
X98524536Y-47302841D01*
X98585044Y-47156762D01*
X98605682Y-47000000D01*
X98596752Y-46932180D01*
X98607518Y-46863145D01*
X98632008Y-46828316D01*
X99718210Y-45742115D01*
X99722172Y-45738484D01*
X99753194Y-45712455D01*
X99773444Y-45677379D01*
X99776328Y-45672852D01*
X99799554Y-45639684D01*
X99799554Y-45639681D01*
X99801819Y-45634824D01*
X99808747Y-45618099D01*
X99810587Y-45613046D01*
X99810588Y-45613045D01*
X99817621Y-45573150D01*
X99818777Y-45567937D01*
X99829263Y-45528807D01*
X99825735Y-45488489D01*
X99825500Y-45483086D01*
X99825500Y-37516909D01*
X99825736Y-37511502D01*
X99829263Y-37471191D01*
X99818785Y-37432090D01*
X99817618Y-37426830D01*
X99810588Y-37386955D01*
X99810587Y-37386953D01*
X99808760Y-37381933D01*
X99801820Y-37365176D01*
X99799554Y-37360319D01*
X99799554Y-37360316D01*
X99776337Y-37327159D01*
X99773435Y-37322605D01*
X99753194Y-37287545D01*
X99722182Y-37261522D01*
X99718210Y-37257883D01*
X99036319Y-36575992D01*
X99002834Y-36514669D01*
X99000000Y-36488311D01*
X99000000Y-34946202D01*
X100950660Y-34946202D01*
X100960887Y-35160901D01*
X101011563Y-35369791D01*
X101011565Y-35369795D01*
X101051059Y-35456276D01*
X101100854Y-35565310D01*
X101220583Y-35733446D01*
X101225535Y-35740400D01*
X101225540Y-35740406D01*
X101381094Y-35888725D01*
X101381096Y-35888726D01*
X101381097Y-35888727D01*
X101561920Y-36004935D01*
X101761468Y-36084822D01*
X101866997Y-36105161D01*
X101972527Y-36125500D01*
X101972528Y-36125500D01*
X102133612Y-36125500D01*
X102133618Y-36125500D01*
X102293971Y-36110188D01*
X102500209Y-36049631D01*
X102691259Y-35951138D01*
X102697535Y-35946203D01*
X102697536Y-35946202D01*
X109790660Y-35946202D01*
X109800887Y-36160901D01*
X109851563Y-36369791D01*
X109851565Y-36369795D01*
X109905689Y-36488311D01*
X109940854Y-36565310D01*
X110036940Y-36700244D01*
X110065535Y-36740400D01*
X110065540Y-36740406D01*
X110221094Y-36888725D01*
X110221096Y-36888726D01*
X110221097Y-36888727D01*
X110401920Y-37004935D01*
X110601468Y-37084822D01*
X110706997Y-37105161D01*
X110812527Y-37125500D01*
X110812528Y-37125500D01*
X110973612Y-37125500D01*
X110973618Y-37125500D01*
X111133971Y-37110188D01*
X111340209Y-37049631D01*
X111531259Y-36951138D01*
X111700217Y-36818268D01*
X111840976Y-36655824D01*
X111948448Y-36469677D01*
X112018750Y-36266554D01*
X112049339Y-36053797D01*
X112039112Y-35839096D01*
X111988437Y-35630210D01*
X111899146Y-35434690D01*
X111774466Y-35259601D01*
X111774464Y-35259599D01*
X111774459Y-35259593D01*
X111618905Y-35111274D01*
X111438080Y-34995065D01*
X111238530Y-34915177D01*
X111027473Y-34874500D01*
X111027472Y-34874500D01*
X110866382Y-34874500D01*
X110706028Y-34889812D01*
X110706029Y-34889812D01*
X110706025Y-34889813D01*
X110499793Y-34950368D01*
X110308736Y-35048864D01*
X110139785Y-35181729D01*
X110139782Y-35181733D01*
X109999021Y-35344178D01*
X109891553Y-35530319D01*
X109821251Y-35733442D01*
X109821250Y-35733444D01*
X109790661Y-35946200D01*
X109790660Y-35946202D01*
X102697536Y-35946202D01*
X102770621Y-35888727D01*
X102860217Y-35818268D01*
X103000976Y-35655824D01*
X103015766Y-35630208D01*
X103073436Y-35530319D01*
X103108448Y-35469677D01*
X103178750Y-35266554D01*
X103209339Y-35053797D01*
X103199112Y-34839096D01*
X103148437Y-34630210D01*
X103059146Y-34434690D01*
X102934466Y-34259601D01*
X102934464Y-34259599D01*
X102934459Y-34259593D01*
X102778905Y-34111274D01*
X102605759Y-34000000D01*
X114000000Y-34000000D01*
X114000000Y-38000000D01*
X116550500Y-38000000D01*
X116617539Y-38019685D01*
X116663294Y-38072489D01*
X116674500Y-38124000D01*
X116674500Y-52876000D01*
X116654815Y-52943039D01*
X116602011Y-52988794D01*
X116550500Y-53000000D01*
X114000000Y-53000000D01*
X114000000Y-57000000D01*
X116550500Y-57000000D01*
X116617539Y-57019685D01*
X116663294Y-57072489D01*
X116674500Y-57124000D01*
X116674499Y-62931699D01*
X116654814Y-62998738D01*
X116625987Y-63030073D01*
X116571722Y-63071713D01*
X116475463Y-63197160D01*
X116414956Y-63343237D01*
X116414955Y-63343239D01*
X116394318Y-63499998D01*
X116394318Y-63500001D01*
X116414955Y-63656760D01*
X116414956Y-63656762D01*
X116475464Y-63802841D01*
X116571718Y-63928282D01*
X116625987Y-63969924D01*
X116667189Y-64026349D01*
X116674500Y-64068298D01*
X116674500Y-71876000D01*
X116654815Y-71943039D01*
X116602011Y-71988794D01*
X116550500Y-72000000D01*
X114000000Y-72000000D01*
X114000000Y-76000000D01*
X116550500Y-76000000D01*
X116617539Y-76019685D01*
X116663294Y-76072489D01*
X116674500Y-76124000D01*
X116674500Y-90876000D01*
X116654815Y-90943039D01*
X116602011Y-90988794D01*
X116550500Y-91000000D01*
X114000000Y-91000000D01*
X114000000Y-95000000D01*
X118000000Y-95000000D01*
X118000000Y-94946202D01*
X128790660Y-94946202D01*
X128800887Y-95160901D01*
X128851563Y-95369790D01*
X128940854Y-95565310D01*
X129060583Y-95733446D01*
X129065535Y-95740400D01*
X129065540Y-95740406D01*
X129221094Y-95888725D01*
X129221096Y-95888726D01*
X129221097Y-95888727D01*
X129401920Y-96004935D01*
X129601468Y-96084822D01*
X129706997Y-96105161D01*
X129812527Y-96125500D01*
X129812528Y-96125500D01*
X129973612Y-96125500D01*
X129973618Y-96125500D01*
X130133971Y-96110188D01*
X130340209Y-96049631D01*
X130531259Y-95951138D01*
X130537535Y-95946203D01*
X130610621Y-95888727D01*
X130700217Y-95818268D01*
X130840976Y-95655824D01*
X130855766Y-95630208D01*
X130948446Y-95469680D01*
X130948448Y-95469677D01*
X131018750Y-95266554D01*
X131049339Y-95053797D01*
X131039112Y-94839096D01*
X130988437Y-94630210D01*
X130899146Y-94434690D01*
X130774466Y-94259601D01*
X130774464Y-94259599D01*
X130774459Y-94259593D01*
X130618905Y-94111274D01*
X130438080Y-93995065D01*
X130238530Y-93915177D01*
X130027473Y-93874500D01*
X130027472Y-93874500D01*
X129866382Y-93874500D01*
X129717392Y-93888727D01*
X129706029Y-93889812D01*
X129706025Y-93889813D01*
X129499793Y-93950368D01*
X129308736Y-94048864D01*
X129139785Y-94181729D01*
X129139782Y-94181733D01*
X128999021Y-94344178D01*
X128891553Y-94530319D01*
X128821251Y-94733442D01*
X128821250Y-94733444D01*
X128790661Y-94946200D01*
X128790660Y-94946202D01*
X118000000Y-94946202D01*
X118000000Y-92946202D01*
X119950660Y-92946202D01*
X119960887Y-93160901D01*
X119986519Y-93266557D01*
X120011563Y-93369790D01*
X120100854Y-93565310D01*
X120165309Y-93655824D01*
X120225535Y-93740400D01*
X120225540Y-93740406D01*
X120381094Y-93888725D01*
X120381096Y-93888726D01*
X120381097Y-93888727D01*
X120561920Y-94004935D01*
X120761468Y-94084822D01*
X120866997Y-94105161D01*
X120972527Y-94125500D01*
X120972528Y-94125500D01*
X121133612Y-94125500D01*
X121133618Y-94125500D01*
X121293971Y-94110188D01*
X121500209Y-94049631D01*
X121691259Y-93951138D01*
X121860217Y-93818268D01*
X122000976Y-93655824D01*
X122108448Y-93469677D01*
X122178750Y-93266554D01*
X122209339Y-93053797D01*
X122199112Y-92839096D01*
X122148437Y-92630210D01*
X122059146Y-92434690D01*
X121934466Y-92259601D01*
X121934464Y-92259599D01*
X121934459Y-92259593D01*
X121778905Y-92111274D01*
X121598080Y-91995065D01*
X121398530Y-91915177D01*
X121187473Y-91874500D01*
X121187472Y-91874500D01*
X121026382Y-91874500D01*
X120866028Y-91889812D01*
X120866029Y-91889812D01*
X120866025Y-91889813D01*
X120659793Y-91950368D01*
X120468736Y-92048864D01*
X120299785Y-92181729D01*
X120299782Y-92181733D01*
X120159021Y-92344178D01*
X120051553Y-92530319D01*
X119981251Y-92733442D01*
X119981250Y-92733444D01*
X119950661Y-92946200D01*
X119950660Y-92946202D01*
X118000000Y-92946202D01*
X118000000Y-91000000D01*
X117449500Y-91000000D01*
X117382461Y-90980315D01*
X117336706Y-90927511D01*
X117325500Y-90876000D01*
X117325500Y-76124000D01*
X117345185Y-76056961D01*
X117397989Y-76011206D01*
X117449500Y-76000000D01*
X118050500Y-76000000D01*
X118117539Y-76019685D01*
X118163294Y-76072489D01*
X118174500Y-76124000D01*
X118174500Y-82431699D01*
X118154815Y-82498738D01*
X118125988Y-82530074D01*
X118071720Y-82571715D01*
X117975463Y-82697160D01*
X117914956Y-82843237D01*
X117914955Y-82843239D01*
X117894318Y-82999998D01*
X117894318Y-83000001D01*
X117914955Y-83156760D01*
X117914956Y-83156762D01*
X117975464Y-83302841D01*
X118071718Y-83428282D01*
X118197159Y-83524536D01*
X118343238Y-83585044D01*
X118421619Y-83595363D01*
X118499999Y-83605682D01*
X118500000Y-83605682D01*
X118500001Y-83605682D01*
X118552254Y-83598802D01*
X118656762Y-83585044D01*
X118802841Y-83524536D01*
X118928282Y-83428282D01*
X119024536Y-83302841D01*
X119085044Y-83156762D01*
X119105682Y-83000000D01*
X119085044Y-82843238D01*
X119024536Y-82697159D01*
X118928282Y-82571718D01*
X118928280Y-82571716D01*
X118928279Y-82571715D01*
X118874012Y-82530074D01*
X118832810Y-82473646D01*
X118825500Y-82431699D01*
X118825500Y-75946202D01*
X128790660Y-75946202D01*
X128800887Y-76160901D01*
X128851563Y-76369790D01*
X128940854Y-76565310D01*
X129060583Y-76733446D01*
X129065535Y-76740400D01*
X129065540Y-76740406D01*
X129221094Y-76888725D01*
X129221096Y-76888726D01*
X129221097Y-76888727D01*
X129401920Y-77004935D01*
X129601468Y-77084822D01*
X129706997Y-77105161D01*
X129812527Y-77125500D01*
X129812528Y-77125500D01*
X129973612Y-77125500D01*
X129973618Y-77125500D01*
X130133971Y-77110188D01*
X130340209Y-77049631D01*
X130531259Y-76951138D01*
X130537535Y-76946203D01*
X130610621Y-76888727D01*
X130700217Y-76818268D01*
X130840976Y-76655824D01*
X130855766Y-76630208D01*
X130948446Y-76469680D01*
X130948448Y-76469677D01*
X131018750Y-76266554D01*
X131049339Y-76053797D01*
X131039112Y-75839096D01*
X130988437Y-75630210D01*
X130899146Y-75434690D01*
X130774466Y-75259601D01*
X130774464Y-75259599D01*
X130774459Y-75259593D01*
X130618905Y-75111274D01*
X130438080Y-74995065D01*
X130238530Y-74915177D01*
X130027473Y-74874500D01*
X130027472Y-74874500D01*
X129866382Y-74874500D01*
X129717392Y-74888727D01*
X129706029Y-74889812D01*
X129706025Y-74889813D01*
X129499793Y-74950368D01*
X129308736Y-75048864D01*
X129139785Y-75181729D01*
X129139782Y-75181733D01*
X128999021Y-75344178D01*
X128891553Y-75530319D01*
X128821251Y-75733442D01*
X128821250Y-75733444D01*
X128790661Y-75946200D01*
X128790660Y-75946202D01*
X118825500Y-75946202D01*
X118825500Y-73946202D01*
X119950660Y-73946202D01*
X119960887Y-74160901D01*
X119986519Y-74266557D01*
X120011563Y-74369790D01*
X120100854Y-74565310D01*
X120165309Y-74655824D01*
X120225535Y-74740400D01*
X120225540Y-74740406D01*
X120381094Y-74888725D01*
X120381096Y-74888726D01*
X120381097Y-74888727D01*
X120561920Y-75004935D01*
X120761468Y-75084822D01*
X120866997Y-75105161D01*
X120972527Y-75125500D01*
X120972528Y-75125500D01*
X121133612Y-75125500D01*
X121133618Y-75125500D01*
X121293971Y-75110188D01*
X121500209Y-75049631D01*
X121691259Y-74951138D01*
X121860217Y-74818268D01*
X122000976Y-74655824D01*
X122108448Y-74469677D01*
X122178750Y-74266554D01*
X122209339Y-74053797D01*
X122199112Y-73839096D01*
X122148437Y-73630210D01*
X122059146Y-73434690D01*
X121934466Y-73259601D01*
X121934464Y-73259599D01*
X121934459Y-73259593D01*
X121778905Y-73111274D01*
X121598080Y-72995065D01*
X121398530Y-72915177D01*
X121187473Y-72874500D01*
X121187472Y-72874500D01*
X121026382Y-72874500D01*
X120866029Y-72889812D01*
X120866025Y-72889813D01*
X120659793Y-72950368D01*
X120468736Y-73048864D01*
X120299785Y-73181729D01*
X120299782Y-73181733D01*
X120159021Y-73344178D01*
X120051553Y-73530319D01*
X119981251Y-73733442D01*
X119981250Y-73733444D01*
X119950661Y-73946200D01*
X119950660Y-73946202D01*
X118825500Y-73946202D01*
X118825500Y-69224103D01*
X118845185Y-69157064D01*
X118897989Y-69111309D01*
X118965685Y-69101164D01*
X119000000Y-69105682D01*
X119156762Y-69085044D01*
X119302841Y-69024536D01*
X119428282Y-68928282D01*
X119524536Y-68802841D01*
X119585044Y-68656762D01*
X119605682Y-68500000D01*
X119585044Y-68343238D01*
X119524536Y-68197159D01*
X119428282Y-68071718D01*
X119302841Y-67975464D01*
X119156762Y-67914956D01*
X119156760Y-67914955D01*
X119000001Y-67894318D01*
X118999999Y-67894318D01*
X118843239Y-67914955D01*
X118843237Y-67914956D01*
X118697160Y-67975463D01*
X118571718Y-68071718D01*
X118475463Y-68197160D01*
X118414956Y-68343237D01*
X118414955Y-68343239D01*
X118394318Y-68499998D01*
X118394318Y-68500001D01*
X118403246Y-68567818D01*
X118392480Y-68636853D01*
X118367988Y-68671684D01*
X118281803Y-68757870D01*
X118277814Y-68761525D01*
X118246805Y-68787545D01*
X118226562Y-68822606D01*
X118223656Y-68827166D01*
X118200446Y-68860313D01*
X118198206Y-68865117D01*
X118191229Y-68881961D01*
X118189410Y-68886959D01*
X118182383Y-68926811D01*
X118181212Y-68932091D01*
X118170735Y-68971191D01*
X118174264Y-69011513D01*
X118174500Y-69016920D01*
X118174500Y-71876000D01*
X118154815Y-71943039D01*
X118102011Y-71988794D01*
X118050500Y-72000000D01*
X117449500Y-72000000D01*
X117382461Y-71980315D01*
X117336706Y-71927511D01*
X117325500Y-71876000D01*
X117325500Y-67975463D01*
X117325499Y-64068294D01*
X117345184Y-64001259D01*
X117374007Y-63969928D01*
X117428282Y-63928282D01*
X117524536Y-63802841D01*
X117585044Y-63656762D01*
X117605682Y-63500000D01*
X117585044Y-63343238D01*
X117524536Y-63197159D01*
X117428282Y-63071718D01*
X117428280Y-63071716D01*
X117428279Y-63071715D01*
X117374012Y-63030074D01*
X117332810Y-62973646D01*
X117325500Y-62931699D01*
X117325500Y-57124000D01*
X117345185Y-57056961D01*
X117397989Y-57011206D01*
X117449500Y-57000000D01*
X118000000Y-57000000D01*
X118000000Y-56946202D01*
X128790660Y-56946202D01*
X128800887Y-57160901D01*
X128851563Y-57369791D01*
X128851565Y-57369795D01*
X128866480Y-57402455D01*
X128940854Y-57565310D01*
X129060583Y-57733446D01*
X129065535Y-57740400D01*
X129065540Y-57740406D01*
X129221094Y-57888725D01*
X129221096Y-57888726D01*
X129221097Y-57888727D01*
X129401920Y-58004935D01*
X129601468Y-58084822D01*
X129706997Y-58105160D01*
X129812527Y-58125500D01*
X129812528Y-58125500D01*
X129973612Y-58125500D01*
X129973618Y-58125500D01*
X130133971Y-58110188D01*
X130340209Y-58049631D01*
X130531259Y-57951138D01*
X130537535Y-57946203D01*
X130610621Y-57888727D01*
X130700217Y-57818268D01*
X130840976Y-57655824D01*
X130855766Y-57630208D01*
X130930941Y-57500000D01*
X130948448Y-57469677D01*
X131018750Y-57266554D01*
X131049339Y-57053797D01*
X131039112Y-56839096D01*
X130988437Y-56630210D01*
X130899146Y-56434690D01*
X130774466Y-56259601D01*
X130774464Y-56259599D01*
X130774459Y-56259593D01*
X130618905Y-56111274D01*
X130438080Y-55995065D01*
X130238530Y-55915177D01*
X130027473Y-55874500D01*
X130027472Y-55874500D01*
X129866382Y-55874500D01*
X129717392Y-55888727D01*
X129706029Y-55889812D01*
X129706025Y-55889813D01*
X129499793Y-55950368D01*
X129308736Y-56048864D01*
X129139785Y-56181729D01*
X129139782Y-56181733D01*
X128999021Y-56344178D01*
X128891553Y-56530319D01*
X128821251Y-56733442D01*
X128821250Y-56733444D01*
X128790661Y-56946200D01*
X128790660Y-56946202D01*
X118000000Y-56946202D01*
X118000000Y-54946202D01*
X119950660Y-54946202D01*
X119960887Y-55160901D01*
X120002184Y-55331130D01*
X120011563Y-55369790D01*
X120100854Y-55565310D01*
X120225534Y-55740399D01*
X120225535Y-55740400D01*
X120225540Y-55740406D01*
X120381094Y-55888725D01*
X120381096Y-55888726D01*
X120381097Y-55888727D01*
X120561920Y-56004935D01*
X120761468Y-56084822D01*
X120866997Y-56105160D01*
X120972527Y-56125500D01*
X120972528Y-56125500D01*
X121133612Y-56125500D01*
X121133618Y-56125500D01*
X121293971Y-56110188D01*
X121500209Y-56049631D01*
X121691259Y-55951138D01*
X121860217Y-55818268D01*
X122000976Y-55655824D01*
X122029926Y-55605682D01*
X122090941Y-55500000D01*
X122108448Y-55469677D01*
X122178750Y-55266554D01*
X122209339Y-55053797D01*
X122199112Y-54839096D01*
X122148437Y-54630210D01*
X122059146Y-54434690D01*
X121934466Y-54259601D01*
X121934464Y-54259599D01*
X121934459Y-54259593D01*
X121778905Y-54111274D01*
X121598080Y-53995065D01*
X121398530Y-53915177D01*
X121187473Y-53874500D01*
X121187472Y-53874500D01*
X121026382Y-53874500D01*
X120866028Y-53889812D01*
X120866029Y-53889812D01*
X120866025Y-53889813D01*
X120659793Y-53950368D01*
X120468736Y-54048864D01*
X120299785Y-54181729D01*
X120299782Y-54181733D01*
X120159021Y-54344178D01*
X120051553Y-54530319D01*
X119981251Y-54733442D01*
X119981250Y-54733444D01*
X119950661Y-54946200D01*
X119950660Y-54946202D01*
X118000000Y-54946202D01*
X118000000Y-53000000D01*
X117449500Y-53000000D01*
X117382461Y-52980315D01*
X117336706Y-52927511D01*
X117325500Y-52876000D01*
X117325500Y-38500001D01*
X121894318Y-38500001D01*
X121914955Y-38656760D01*
X121914956Y-38656762D01*
X121949602Y-38740406D01*
X121975464Y-38802841D01*
X122071718Y-38928282D01*
X122197159Y-39024536D01*
X122343238Y-39085044D01*
X122371548Y-39088771D01*
X122499999Y-39105682D01*
X122500000Y-39105682D01*
X122500001Y-39105682D01*
X122535708Y-39100980D01*
X122567818Y-39096753D01*
X122636853Y-39107518D01*
X122671685Y-39132010D01*
X122888182Y-39348508D01*
X122921666Y-39409829D01*
X122924500Y-39436187D01*
X122924500Y-54431699D01*
X122904815Y-54498738D01*
X122875988Y-54530074D01*
X122821720Y-54571715D01*
X122725463Y-54697160D01*
X122664956Y-54843237D01*
X122664955Y-54843239D01*
X122644318Y-54999998D01*
X122644318Y-55000000D01*
X122664955Y-55156760D01*
X122664956Y-55156762D01*
X122725464Y-55302841D01*
X122821718Y-55428282D01*
X122947159Y-55524536D01*
X123093238Y-55585044D01*
X123171619Y-55595363D01*
X123249999Y-55605682D01*
X123250000Y-55605682D01*
X123250001Y-55605682D01*
X123302254Y-55598802D01*
X123406762Y-55585044D01*
X123552841Y-55524536D01*
X123678282Y-55428282D01*
X123774536Y-55302841D01*
X123835044Y-55156762D01*
X123855682Y-55000000D01*
X123855640Y-54999684D01*
X123835044Y-54843239D01*
X123835044Y-54843238D01*
X123774536Y-54697159D01*
X123678282Y-54571718D01*
X123624010Y-54530074D01*
X123582810Y-54473648D01*
X123575499Y-54431700D01*
X123575499Y-54000001D01*
X125369318Y-54000001D01*
X125389955Y-54156760D01*
X125389956Y-54156762D01*
X125449999Y-54301720D01*
X125450464Y-54302841D01*
X125546718Y-54428282D01*
X125672159Y-54524536D01*
X125818238Y-54585044D01*
X125896618Y-54595363D01*
X125974999Y-54605682D01*
X125975000Y-54605682D01*
X125975001Y-54605682D01*
X126027253Y-54598802D01*
X126131762Y-54585044D01*
X126277841Y-54524536D01*
X126403282Y-54428282D01*
X126403285Y-54428277D01*
X126409029Y-54422535D01*
X126410474Y-54423980D01*
X126458047Y-54389241D01*
X126527793Y-54385083D01*
X126588715Y-54419292D01*
X126595116Y-54426680D01*
X126596713Y-54428277D01*
X126596715Y-54428279D01*
X126596718Y-54428282D01*
X126722159Y-54524536D01*
X126868238Y-54585044D01*
X126946619Y-54595363D01*
X127024999Y-54605682D01*
X127025000Y-54605682D01*
X127025001Y-54605682D01*
X127077253Y-54598802D01*
X127181762Y-54585044D01*
X127327841Y-54524536D01*
X127453282Y-54428282D01*
X127549536Y-54302841D01*
X127610044Y-54156762D01*
X127630682Y-54000000D01*
X127630032Y-53995065D01*
X127610044Y-53843239D01*
X127610044Y-53843238D01*
X127549536Y-53697159D01*
X127453282Y-53571718D01*
X127327841Y-53475464D01*
X127181762Y-53414956D01*
X127170535Y-53413477D01*
X127133314Y-53408577D01*
X127069418Y-53380309D01*
X127030947Y-53321984D01*
X127025501Y-53285638D01*
X127025501Y-37946202D01*
X128790660Y-37946202D01*
X128800887Y-38160901D01*
X128851563Y-38369791D01*
X128851565Y-38369795D01*
X128904719Y-38486187D01*
X128940854Y-38565310D01*
X129060583Y-38733446D01*
X129065535Y-38740400D01*
X129065540Y-38740406D01*
X129221094Y-38888725D01*
X129221096Y-38888726D01*
X129221097Y-38888727D01*
X129401920Y-39004935D01*
X129601468Y-39084822D01*
X129621958Y-39088771D01*
X129812527Y-39125500D01*
X129812528Y-39125500D01*
X129973612Y-39125500D01*
X129973618Y-39125500D01*
X130133971Y-39110188D01*
X130340209Y-39049631D01*
X130531259Y-38951138D01*
X130537535Y-38946203D01*
X130610621Y-38888727D01*
X130700217Y-38818268D01*
X130840976Y-38655824D01*
X130855766Y-38630208D01*
X130948446Y-38469680D01*
X130948448Y-38469677D01*
X131018750Y-38266554D01*
X131049339Y-38053797D01*
X131039112Y-37839096D01*
X130988437Y-37630210D01*
X130899146Y-37434690D01*
X130774466Y-37259601D01*
X130774464Y-37259599D01*
X130774459Y-37259593D01*
X130618905Y-37111274D01*
X130438080Y-36995065D01*
X130238530Y-36915177D01*
X130027473Y-36874500D01*
X130027472Y-36874500D01*
X129866382Y-36874500D01*
X129717392Y-36888727D01*
X129706029Y-36889812D01*
X129706025Y-36889813D01*
X129499793Y-36950368D01*
X129308736Y-37048864D01*
X129139785Y-37181729D01*
X129139782Y-37181733D01*
X128999021Y-37344178D01*
X128891553Y-37530319D01*
X128821251Y-37733442D01*
X128821250Y-37733444D01*
X128790661Y-37946200D01*
X128790660Y-37946202D01*
X127025501Y-37946202D01*
X127025501Y-37269030D01*
X127045186Y-37201991D01*
X127061815Y-37181354D01*
X128243168Y-36000000D01*
X133000000Y-36000000D01*
X133000000Y-40000000D01*
X135550500Y-40000000D01*
X135617539Y-40019685D01*
X135663294Y-40072489D01*
X135674500Y-40124000D01*
X135674500Y-54876000D01*
X135654815Y-54943039D01*
X135602011Y-54988794D01*
X135550500Y-55000000D01*
X133000000Y-55000000D01*
X133000000Y-59000000D01*
X135550500Y-59000000D01*
X135617539Y-59019685D01*
X135663294Y-59072489D01*
X135674500Y-59124000D01*
X135674500Y-67431699D01*
X135654815Y-67498738D01*
X135625988Y-67530074D01*
X135571720Y-67571715D01*
X135475463Y-67697160D01*
X135414956Y-67843237D01*
X135414955Y-67843239D01*
X135394318Y-67999998D01*
X135394318Y-68000001D01*
X135414955Y-68156760D01*
X135414956Y-68156762D01*
X135475464Y-68302841D01*
X135571718Y-68428282D01*
X135625987Y-68469924D01*
X135667189Y-68526349D01*
X135674500Y-68568298D01*
X135674500Y-71431699D01*
X135654815Y-71498738D01*
X135625988Y-71530074D01*
X135571720Y-71571715D01*
X135475463Y-71697160D01*
X135414956Y-71843237D01*
X135414955Y-71843239D01*
X135394318Y-71999998D01*
X135394318Y-72000000D01*
X135414955Y-72156760D01*
X135414956Y-72156762D01*
X135457552Y-72259599D01*
X135475464Y-72302841D01*
X135571718Y-72428282D01*
X135625987Y-72469924D01*
X135667189Y-72526349D01*
X135674500Y-72568298D01*
X135674500Y-73876000D01*
X135654815Y-73943039D01*
X135602011Y-73988794D01*
X135550500Y-74000000D01*
X133000000Y-74000000D01*
X133000000Y-78000000D01*
X135550500Y-78000000D01*
X135617539Y-78019685D01*
X135663294Y-78072489D01*
X135674500Y-78124000D01*
X135674500Y-92876000D01*
X135654815Y-92943039D01*
X135602011Y-92988794D01*
X135550500Y-93000000D01*
X133000000Y-93000000D01*
X133000000Y-97000000D01*
X135550500Y-97000000D01*
X135617539Y-97019685D01*
X135663294Y-97072489D01*
X135674500Y-97124000D01*
X135674500Y-115813811D01*
X135654815Y-115880850D01*
X135638181Y-115901492D01*
X135221390Y-116318282D01*
X135160067Y-116351767D01*
X135117524Y-116353540D01*
X135000001Y-116338068D01*
X134999999Y-116338068D01*
X134843239Y-116358705D01*
X134843237Y-116358706D01*
X134697160Y-116419213D01*
X134571718Y-116515468D01*
X134475463Y-116640910D01*
X134414956Y-116786987D01*
X134414955Y-116786989D01*
X134394318Y-116943748D01*
X134394318Y-116943751D01*
X134414955Y-117100510D01*
X134414956Y-117100512D01*
X134475464Y-117246591D01*
X134571718Y-117372032D01*
X134697159Y-117468286D01*
X134843238Y-117528794D01*
X134921618Y-117539112D01*
X134999999Y-117549432D01*
X135000000Y-117549432D01*
X135000001Y-117549432D01*
X135052253Y-117542552D01*
X135156762Y-117528794D01*
X135302841Y-117468286D01*
X135428282Y-117372032D01*
X135524536Y-117246591D01*
X135585044Y-117100512D01*
X135605682Y-116943750D01*
X135603297Y-116925636D01*
X135614062Y-116856602D01*
X135638552Y-116821772D01*
X136218204Y-116242120D01*
X136222166Y-116238489D01*
X136253194Y-116212455D01*
X136273438Y-116177390D01*
X136276335Y-116172841D01*
X136299554Y-116139684D01*
X136299554Y-116139681D01*
X136301819Y-116134824D01*
X136308747Y-116118099D01*
X136310584Y-116113050D01*
X136310588Y-116113045D01*
X136317619Y-116073162D01*
X136318777Y-116067940D01*
X136329264Y-116028807D01*
X136325735Y-115988481D01*
X136325500Y-115983078D01*
X136325500Y-111732051D01*
X149267949Y-111732051D01*
X152732051Y-113732051D01*
X152873992Y-113486202D01*
X155270069Y-113486202D01*
X155280296Y-113700901D01*
X155330972Y-113909791D01*
X155330974Y-113909795D01*
X155396737Y-114053797D01*
X155420263Y-114105310D01*
X155530133Y-114259601D01*
X155544944Y-114280400D01*
X155544949Y-114280406D01*
X155700503Y-114428725D01*
X155700505Y-114428726D01*
X155700506Y-114428727D01*
X155881329Y-114544935D01*
X156080877Y-114624822D01*
X156186406Y-114645160D01*
X156291936Y-114665500D01*
X156291937Y-114665500D01*
X156453021Y-114665500D01*
X156453027Y-114665500D01*
X156613380Y-114650188D01*
X156819618Y-114589631D01*
X157010668Y-114491138D01*
X157179626Y-114358268D01*
X157320385Y-114195824D01*
X157328521Y-114181733D01*
X157405232Y-114048864D01*
X157427857Y-114009677D01*
X157498159Y-113806554D01*
X157528748Y-113593797D01*
X157518521Y-113379096D01*
X157467846Y-113170210D01*
X157378555Y-112974690D01*
X157253875Y-112799601D01*
X157253873Y-112799599D01*
X157253868Y-112799593D01*
X157098314Y-112651274D01*
X156917489Y-112535065D01*
X156717939Y-112455177D01*
X156506882Y-112414500D01*
X156506881Y-112414500D01*
X156345791Y-112414500D01*
X156185437Y-112429812D01*
X156185438Y-112429812D01*
X156185434Y-112429813D01*
X155979202Y-112490368D01*
X155788145Y-112588864D01*
X155619194Y-112721729D01*
X155619191Y-112721733D01*
X155478430Y-112884178D01*
X155370962Y-113070319D01*
X155300660Y-113273442D01*
X155300659Y-113273444D01*
X155270070Y-113486200D01*
X155270069Y-113486202D01*
X152873992Y-113486202D01*
X154732051Y-110267949D01*
X154732050Y-110267948D01*
X151267949Y-108267949D01*
X151267948Y-108267949D01*
X149267949Y-111732050D01*
X149267949Y-111732051D01*
X136325500Y-111732051D01*
X136325500Y-108406202D01*
X146471251Y-108406202D01*
X146481478Y-108620901D01*
X146507110Y-108726557D01*
X146532154Y-108829790D01*
X146621445Y-109025310D01*
X146685900Y-109115824D01*
X146746126Y-109200400D01*
X146746131Y-109200406D01*
X146901685Y-109348725D01*
X146901687Y-109348726D01*
X146901688Y-109348727D01*
X147082511Y-109464935D01*
X147282059Y-109544822D01*
X147387589Y-109565161D01*
X147493118Y-109585500D01*
X147493119Y-109585500D01*
X147654203Y-109585500D01*
X147654209Y-109585500D01*
X147814562Y-109570188D01*
X148020800Y-109509631D01*
X148211850Y-109411138D01*
X148380808Y-109278268D01*
X148521567Y-109115824D01*
X148629039Y-108929677D01*
X148699341Y-108726554D01*
X148729930Y-108513797D01*
X148719703Y-108299096D01*
X148669028Y-108090210D01*
X148579737Y-107894690D01*
X148455057Y-107719601D01*
X148455055Y-107719599D01*
X148455050Y-107719593D01*
X148299496Y-107571274D01*
X148118671Y-107455065D01*
X147919121Y-107375177D01*
X147708064Y-107334500D01*
X147708063Y-107334500D01*
X147546973Y-107334500D01*
X147386619Y-107349812D01*
X147386620Y-107349812D01*
X147386616Y-107349813D01*
X147180384Y-107410368D01*
X146989327Y-107508864D01*
X146820376Y-107641729D01*
X146820373Y-107641733D01*
X146679612Y-107804178D01*
X146572144Y-107990319D01*
X146501842Y-108193442D01*
X146501841Y-108193444D01*
X146471252Y-108406200D01*
X146471251Y-108406202D01*
X136325500Y-108406202D01*
X136325500Y-104500001D01*
X142494390Y-104500001D01*
X142514804Y-104785433D01*
X142575628Y-105065037D01*
X142675635Y-105333166D01*
X142812770Y-105584309D01*
X142812775Y-105584317D01*
X142984254Y-105813387D01*
X142984270Y-105813405D01*
X143186594Y-106015729D01*
X143186612Y-106015745D01*
X143415682Y-106187224D01*
X143415690Y-106187229D01*
X143666833Y-106324364D01*
X143666832Y-106324364D01*
X143666836Y-106324365D01*
X143666839Y-106324367D01*
X143934954Y-106424369D01*
X143934960Y-106424370D01*
X143934962Y-106424371D01*
X144214566Y-106485195D01*
X144214568Y-106485195D01*
X144214572Y-106485196D01*
X144428552Y-106500500D01*
X144571448Y-106500500D01*
X144785428Y-106485196D01*
X145065046Y-106424369D01*
X145333161Y-106324367D01*
X145584315Y-106187226D01*
X145813395Y-106015739D01*
X146015739Y-105813395D01*
X146187226Y-105584315D01*
X146324367Y-105333161D01*
X146424369Y-105065046D01*
X146485196Y-104785428D01*
X146504549Y-104514839D01*
X146505610Y-104500001D01*
X146505610Y-104499998D01*
X146496224Y-104368762D01*
X146485196Y-104214572D01*
X146484636Y-104212000D01*
X146424371Y-103934962D01*
X146424370Y-103934960D01*
X146424369Y-103934954D01*
X146324367Y-103666839D01*
X146309637Y-103639864D01*
X146187229Y-103415690D01*
X146187224Y-103415682D01*
X146015745Y-103186612D01*
X146015729Y-103186594D01*
X145813405Y-102984270D01*
X145813387Y-102984254D01*
X145584317Y-102812775D01*
X145584309Y-102812770D01*
X145333166Y-102675635D01*
X145333167Y-102675635D01*
X145225915Y-102635632D01*
X145065046Y-102575631D01*
X145065043Y-102575630D01*
X145065037Y-102575628D01*
X144785433Y-102514804D01*
X144571448Y-102499500D01*
X144428552Y-102499500D01*
X144214566Y-102514804D01*
X143934962Y-102575628D01*
X143666833Y-102675635D01*
X143415690Y-102812770D01*
X143415682Y-102812775D01*
X143186612Y-102984254D01*
X143186594Y-102984270D01*
X142984270Y-103186594D01*
X142984254Y-103186612D01*
X142812775Y-103415682D01*
X142812770Y-103415690D01*
X142675635Y-103666833D01*
X142575628Y-103934962D01*
X142514804Y-104214566D01*
X142494390Y-104499998D01*
X142494390Y-104500001D01*
X136325500Y-104500001D01*
X136325500Y-97124000D01*
X136345185Y-97056961D01*
X136397989Y-97011206D01*
X136449500Y-97000000D01*
X137000000Y-97000000D01*
X137000000Y-94946202D01*
X138950660Y-94946202D01*
X138960887Y-95160901D01*
X139011563Y-95369790D01*
X139100854Y-95565310D01*
X139220583Y-95733446D01*
X139225535Y-95740400D01*
X139225540Y-95740406D01*
X139381094Y-95888725D01*
X139381096Y-95888726D01*
X139381097Y-95888727D01*
X139561920Y-96004935D01*
X139761468Y-96084822D01*
X139866997Y-96105161D01*
X139972527Y-96125500D01*
X139972528Y-96125500D01*
X140133612Y-96125500D01*
X140133618Y-96125500D01*
X140293971Y-96110188D01*
X140500209Y-96049631D01*
X140691259Y-95951138D01*
X140697535Y-95946203D01*
X140770621Y-95888727D01*
X140860217Y-95818268D01*
X141000976Y-95655824D01*
X141015766Y-95630208D01*
X141108446Y-95469680D01*
X141108448Y-95469677D01*
X141178750Y-95266554D01*
X141209339Y-95053797D01*
X141199112Y-94839096D01*
X141148437Y-94630210D01*
X141059146Y-94434690D01*
X140934466Y-94259601D01*
X140934464Y-94259599D01*
X140934459Y-94259593D01*
X140778905Y-94111274D01*
X140598080Y-93995065D01*
X140398530Y-93915177D01*
X140187473Y-93874500D01*
X140187472Y-93874500D01*
X140026382Y-93874500D01*
X139877392Y-93888727D01*
X139866029Y-93889812D01*
X139866025Y-93889813D01*
X139659793Y-93950368D01*
X139468736Y-94048864D01*
X139299785Y-94181729D01*
X139299782Y-94181733D01*
X139159021Y-94344178D01*
X139051553Y-94530319D01*
X138981251Y-94733442D01*
X138981250Y-94733444D01*
X138950661Y-94946200D01*
X138950660Y-94946202D01*
X137000000Y-94946202D01*
X137000000Y-93000000D01*
X136449500Y-93000000D01*
X136382461Y-92980315D01*
X136336706Y-92927511D01*
X136325500Y-92876000D01*
X136325500Y-78124000D01*
X136345185Y-78056961D01*
X136397989Y-78011206D01*
X136449500Y-78000000D01*
X137000000Y-78000000D01*
X137000000Y-75946202D01*
X138950660Y-75946202D01*
X138960887Y-76160901D01*
X139011563Y-76369790D01*
X139100854Y-76565310D01*
X139220583Y-76733446D01*
X139225535Y-76740400D01*
X139225540Y-76740406D01*
X139381094Y-76888725D01*
X139381096Y-76888726D01*
X139381097Y-76888727D01*
X139561920Y-77004935D01*
X139761468Y-77084822D01*
X139866997Y-77105161D01*
X139972527Y-77125500D01*
X139972528Y-77125500D01*
X140133612Y-77125500D01*
X140133618Y-77125500D01*
X140293971Y-77110188D01*
X140500209Y-77049631D01*
X140691259Y-76951138D01*
X140697535Y-76946203D01*
X140770621Y-76888727D01*
X140860217Y-76818268D01*
X141000976Y-76655824D01*
X141015766Y-76630208D01*
X141108446Y-76469680D01*
X141108448Y-76469677D01*
X141178750Y-76266554D01*
X141209339Y-76053797D01*
X141204214Y-75946202D01*
X147790660Y-75946202D01*
X147800887Y-76160901D01*
X147851563Y-76369790D01*
X147940854Y-76565310D01*
X148060583Y-76733446D01*
X148065535Y-76740400D01*
X148065540Y-76740406D01*
X148221094Y-76888725D01*
X148221096Y-76888726D01*
X148221097Y-76888727D01*
X148401920Y-77004935D01*
X148601468Y-77084822D01*
X148706997Y-77105161D01*
X148812527Y-77125500D01*
X148812528Y-77125500D01*
X148973612Y-77125500D01*
X148973618Y-77125500D01*
X149133971Y-77110188D01*
X149340209Y-77049631D01*
X149531259Y-76951138D01*
X149537535Y-76946203D01*
X149610621Y-76888727D01*
X149700217Y-76818268D01*
X149840976Y-76655824D01*
X149855766Y-76630208D01*
X149948446Y-76469680D01*
X149948448Y-76469677D01*
X150018750Y-76266554D01*
X150049339Y-76053797D01*
X150039112Y-75839096D01*
X149988437Y-75630210D01*
X149899146Y-75434690D01*
X149774466Y-75259601D01*
X149774464Y-75259599D01*
X149774459Y-75259593D01*
X149618905Y-75111274D01*
X149438080Y-74995065D01*
X149238530Y-74915177D01*
X149027473Y-74874500D01*
X149027472Y-74874500D01*
X148866382Y-74874500D01*
X148717392Y-74888727D01*
X148706029Y-74889812D01*
X148706025Y-74889813D01*
X148499793Y-74950368D01*
X148308736Y-75048864D01*
X148139785Y-75181729D01*
X148139782Y-75181733D01*
X147999021Y-75344178D01*
X147891553Y-75530319D01*
X147821251Y-75733442D01*
X147821250Y-75733444D01*
X147790661Y-75946200D01*
X147790660Y-75946202D01*
X141204214Y-75946202D01*
X141199112Y-75839096D01*
X141148437Y-75630210D01*
X141059146Y-75434690D01*
X140934466Y-75259601D01*
X140934464Y-75259599D01*
X140934459Y-75259593D01*
X140778905Y-75111274D01*
X140598080Y-74995065D01*
X140398530Y-74915177D01*
X140187473Y-74874500D01*
X140187472Y-74874500D01*
X140026382Y-74874500D01*
X139877392Y-74888727D01*
X139866029Y-74889812D01*
X139866025Y-74889813D01*
X139659793Y-74950368D01*
X139468736Y-75048864D01*
X139299785Y-75181729D01*
X139299782Y-75181733D01*
X139159021Y-75344178D01*
X139051553Y-75530319D01*
X138981251Y-75733442D01*
X138981250Y-75733444D01*
X138950661Y-75946200D01*
X138950660Y-75946202D01*
X137000000Y-75946202D01*
X137000000Y-74000000D01*
X136449500Y-74000000D01*
X136382461Y-73980315D01*
X136336706Y-73927511D01*
X136325500Y-73876000D01*
X136325500Y-72568298D01*
X136345185Y-72501259D01*
X136374010Y-72469925D01*
X136428282Y-72428282D01*
X136524536Y-72302841D01*
X136585044Y-72156762D01*
X136605682Y-72000000D01*
X136605032Y-71995065D01*
X136585044Y-71843239D01*
X136585044Y-71843238D01*
X136524536Y-71697159D01*
X136428282Y-71571718D01*
X136428280Y-71571716D01*
X136428279Y-71571715D01*
X136374012Y-71530074D01*
X136332810Y-71473646D01*
X136325500Y-71431699D01*
X136325500Y-71375001D01*
X146894318Y-71375001D01*
X146914955Y-71531760D01*
X146914956Y-71531762D01*
X146975464Y-71677841D01*
X147071718Y-71803282D01*
X147197159Y-71899536D01*
X147343238Y-71960044D01*
X147421619Y-71970363D01*
X147499999Y-71980682D01*
X147500000Y-71980682D01*
X147500001Y-71980682D01*
X147552253Y-71973802D01*
X147656762Y-71960044D01*
X147802841Y-71899536D01*
X147928282Y-71803282D01*
X148024536Y-71677841D01*
X148085044Y-71531762D01*
X148105682Y-71375000D01*
X148085044Y-71218238D01*
X148024536Y-71072159D01*
X147928282Y-70946718D01*
X147928280Y-70946716D01*
X147928279Y-70946715D01*
X147874012Y-70905074D01*
X147832810Y-70848646D01*
X147825500Y-70806699D01*
X147825500Y-60068298D01*
X147845185Y-60001259D01*
X147874010Y-59969925D01*
X147928282Y-59928282D01*
X148024536Y-59802841D01*
X148085044Y-59656762D01*
X148105682Y-59500000D01*
X148101690Y-59469680D01*
X148085044Y-59343239D01*
X148085044Y-59343238D01*
X148024536Y-59197159D01*
X147928282Y-59071718D01*
X147802841Y-58975464D01*
X147732196Y-58946202D01*
X147656762Y-58914956D01*
X147656760Y-58914955D01*
X147500001Y-58894318D01*
X147499999Y-58894318D01*
X147343239Y-58914955D01*
X147343237Y-58914956D01*
X147197160Y-58975463D01*
X147071718Y-59071718D01*
X146975463Y-59197160D01*
X146914956Y-59343237D01*
X146914955Y-59343239D01*
X146894318Y-59499998D01*
X146894318Y-59500001D01*
X146914955Y-59656760D01*
X146914956Y-59656762D01*
X146949602Y-59740406D01*
X146975464Y-59802841D01*
X147071718Y-59928282D01*
X147125987Y-59969924D01*
X147167189Y-60026349D01*
X147174500Y-60068298D01*
X147174500Y-70806699D01*
X147154815Y-70873738D01*
X147125988Y-70905074D01*
X147071720Y-70946715D01*
X146975463Y-71072160D01*
X146914956Y-71218237D01*
X146914955Y-71218239D01*
X146894318Y-71374998D01*
X146894318Y-71375001D01*
X136325500Y-71375001D01*
X136325500Y-68568298D01*
X136345185Y-68501259D01*
X136374010Y-68469925D01*
X136428282Y-68428282D01*
X136524536Y-68302841D01*
X136585044Y-68156762D01*
X136605682Y-68000000D01*
X136585044Y-67843238D01*
X136524536Y-67697159D01*
X136428282Y-67571718D01*
X136428280Y-67571716D01*
X136428279Y-67571715D01*
X136374012Y-67530074D01*
X136332810Y-67473646D01*
X136325500Y-67431699D01*
X136325500Y-59500000D01*
X141794355Y-59500000D01*
X141814859Y-59668869D01*
X141814860Y-59668874D01*
X141875182Y-59827931D01*
X141917146Y-59888725D01*
X141971817Y-59967929D01*
X142020667Y-60011206D01*
X142099150Y-60080736D01*
X142249773Y-60159789D01*
X142249775Y-60159790D01*
X142414944Y-60200500D01*
X142585056Y-60200500D01*
X142750225Y-60159790D01*
X142844737Y-60110186D01*
X142900849Y-60080736D01*
X142900850Y-60080734D01*
X142900852Y-60080734D01*
X143028183Y-59967929D01*
X143124818Y-59827930D01*
X143185140Y-59668872D01*
X143205645Y-59500000D01*
X143185140Y-59331128D01*
X143124818Y-59172070D01*
X143028183Y-59032071D01*
X142900852Y-58919266D01*
X142900849Y-58919263D01*
X142750226Y-58840210D01*
X142585056Y-58799500D01*
X142414944Y-58799500D01*
X142249773Y-58840210D01*
X142099150Y-58919263D01*
X141971816Y-59032072D01*
X141875182Y-59172068D01*
X141814860Y-59331125D01*
X141814859Y-59331130D01*
X141794355Y-59500000D01*
X136325500Y-59500000D01*
X136325500Y-59124000D01*
X136345185Y-59056961D01*
X136397989Y-59011206D01*
X136449500Y-59000000D01*
X137000000Y-59000000D01*
X137000000Y-58362076D01*
X141991476Y-58362076D01*
X142115466Y-58428350D01*
X142303969Y-58485531D01*
X142303965Y-58485531D01*
X142499999Y-58504838D01*
X142696032Y-58485531D01*
X142884537Y-58428348D01*
X143008522Y-58362076D01*
X142500001Y-57853553D01*
X142500000Y-57853553D01*
X141991476Y-58362076D01*
X137000000Y-58362076D01*
X137000000Y-56946202D01*
X138950660Y-56946202D01*
X138960887Y-57160901D01*
X139011563Y-57369791D01*
X139011565Y-57369795D01*
X139026480Y-57402455D01*
X139100854Y-57565310D01*
X139220583Y-57733446D01*
X139225535Y-57740400D01*
X139225540Y-57740406D01*
X139381094Y-57888725D01*
X139381096Y-57888726D01*
X139381097Y-57888727D01*
X139561920Y-58004935D01*
X139761468Y-58084822D01*
X139866997Y-58105160D01*
X139972527Y-58125500D01*
X139972528Y-58125500D01*
X140133612Y-58125500D01*
X140133618Y-58125500D01*
X140293971Y-58110188D01*
X140500209Y-58049631D01*
X140691259Y-57951138D01*
X140697535Y-57946203D01*
X140770621Y-57888727D01*
X140860217Y-57818268D01*
X141000976Y-57655824D01*
X141015766Y-57630208D01*
X141090941Y-57500000D01*
X141495161Y-57500000D01*
X141514468Y-57696030D01*
X141571652Y-57884538D01*
X141637922Y-58008522D01*
X142146446Y-57500000D01*
X142245102Y-57500000D01*
X142264505Y-57597545D01*
X142319760Y-57680240D01*
X142402455Y-57735495D01*
X142475376Y-57750000D01*
X142524624Y-57750000D01*
X142597545Y-57735495D01*
X142680240Y-57680240D01*
X142735495Y-57597545D01*
X142754898Y-57500000D01*
X142853553Y-57500000D01*
X143362076Y-58008522D01*
X143428348Y-57884537D01*
X143485531Y-57696032D01*
X143504838Y-57500000D01*
X143485531Y-57303967D01*
X143428350Y-57115466D01*
X143362076Y-56991476D01*
X142853553Y-57499999D01*
X142853553Y-57500000D01*
X142754898Y-57500000D01*
X142735495Y-57402455D01*
X142680240Y-57319760D01*
X142597545Y-57264505D01*
X142524624Y-57250000D01*
X142475376Y-57250000D01*
X142402455Y-57264505D01*
X142319760Y-57319760D01*
X142264505Y-57402455D01*
X142245102Y-57500000D01*
X142146446Y-57500000D01*
X142146446Y-57499999D01*
X141637923Y-56991476D01*
X141637922Y-56991476D01*
X141571652Y-57115461D01*
X141514468Y-57303969D01*
X141495161Y-57500000D01*
X141090941Y-57500000D01*
X141108448Y-57469677D01*
X141178750Y-57266554D01*
X141209339Y-57053797D01*
X141199112Y-56839096D01*
X141150308Y-56637922D01*
X141991476Y-56637922D01*
X142500000Y-57146446D01*
X142500001Y-57146446D01*
X142700244Y-56946202D01*
X147790660Y-56946202D01*
X147800887Y-57160901D01*
X147851563Y-57369791D01*
X147851565Y-57369795D01*
X147866480Y-57402455D01*
X147940854Y-57565310D01*
X148060583Y-57733446D01*
X148065535Y-57740400D01*
X148065540Y-57740406D01*
X148221094Y-57888725D01*
X148221096Y-57888726D01*
X148221097Y-57888727D01*
X148401920Y-58004935D01*
X148601468Y-58084822D01*
X148706997Y-58105160D01*
X148812527Y-58125500D01*
X148812528Y-58125500D01*
X148973612Y-58125500D01*
X148973618Y-58125500D01*
X149133971Y-58110188D01*
X149340209Y-58049631D01*
X149531259Y-57951138D01*
X149537535Y-57946203D01*
X149610621Y-57888727D01*
X149700217Y-57818268D01*
X149840976Y-57655824D01*
X149855766Y-57630208D01*
X149930941Y-57500000D01*
X149948448Y-57469677D01*
X150018750Y-57266554D01*
X150049339Y-57053797D01*
X150039112Y-56839096D01*
X149988437Y-56630210D01*
X149899146Y-56434690D01*
X149774466Y-56259601D01*
X149774464Y-56259599D01*
X149774459Y-56259593D01*
X149618905Y-56111274D01*
X149438080Y-55995065D01*
X149238530Y-55915177D01*
X149027473Y-55874500D01*
X149027472Y-55874500D01*
X148866382Y-55874500D01*
X148717392Y-55888727D01*
X148706029Y-55889812D01*
X148706025Y-55889813D01*
X148499793Y-55950368D01*
X148308736Y-56048864D01*
X148139785Y-56181729D01*
X148139782Y-56181733D01*
X147999021Y-56344178D01*
X147891553Y-56530319D01*
X147821251Y-56733442D01*
X147821250Y-56733444D01*
X147790661Y-56946200D01*
X147790660Y-56946202D01*
X142700244Y-56946202D01*
X143008522Y-56637922D01*
X143008522Y-56637921D01*
X142884538Y-56571652D01*
X142696030Y-56514468D01*
X142499999Y-56495161D01*
X142303969Y-56514468D01*
X142115461Y-56571652D01*
X141991476Y-56637922D01*
X141150308Y-56637922D01*
X141148437Y-56630210D01*
X141059146Y-56434690D01*
X140934466Y-56259601D01*
X140934464Y-56259599D01*
X140934459Y-56259593D01*
X140778905Y-56111274D01*
X140598080Y-55995065D01*
X140398530Y-55915177D01*
X140187473Y-55874500D01*
X140187472Y-55874500D01*
X140026382Y-55874500D01*
X139877392Y-55888727D01*
X139866029Y-55889812D01*
X139866025Y-55889813D01*
X139659793Y-55950368D01*
X139468736Y-56048864D01*
X139299785Y-56181729D01*
X139299782Y-56181733D01*
X139159021Y-56344178D01*
X139051553Y-56530319D01*
X138981251Y-56733442D01*
X138981250Y-56733444D01*
X138950661Y-56946200D01*
X138950660Y-56946202D01*
X137000000Y-56946202D01*
X137000000Y-55499999D01*
X141794355Y-55499999D01*
X141814859Y-55668869D01*
X141814860Y-55668874D01*
X141875182Y-55827931D01*
X141923594Y-55898067D01*
X141971817Y-55967929D01*
X142063172Y-56048862D01*
X142099150Y-56080736D01*
X142202521Y-56134989D01*
X142249775Y-56159790D01*
X142414944Y-56200500D01*
X142585056Y-56200500D01*
X142750225Y-56159790D01*
X142842664Y-56111274D01*
X142900849Y-56080736D01*
X142900850Y-56080734D01*
X142900852Y-56080734D01*
X143028183Y-55967929D01*
X143124818Y-55827930D01*
X143185140Y-55668872D01*
X143205645Y-55500000D01*
X143185140Y-55331128D01*
X143124818Y-55172070D01*
X143028183Y-55032071D01*
X142900852Y-54919266D01*
X142900849Y-54919263D01*
X142750226Y-54840210D01*
X142585056Y-54799500D01*
X142414944Y-54799500D01*
X142249773Y-54840210D01*
X142099150Y-54919263D01*
X141971816Y-55032072D01*
X141875182Y-55172068D01*
X141814860Y-55331125D01*
X141814859Y-55331130D01*
X141794355Y-55499999D01*
X137000000Y-55499999D01*
X137000000Y-55000000D01*
X136449500Y-55000000D01*
X136382461Y-54980315D01*
X136336706Y-54927511D01*
X136325500Y-54876000D01*
X136325500Y-53500000D01*
X141794355Y-53500000D01*
X141814859Y-53668869D01*
X141814860Y-53668874D01*
X141875182Y-53827931D01*
X141885748Y-53843238D01*
X141971817Y-53967929D01*
X142049569Y-54036811D01*
X142099150Y-54080736D01*
X142230369Y-54149605D01*
X142249775Y-54159790D01*
X142414944Y-54200500D01*
X142585056Y-54200500D01*
X142750225Y-54159790D01*
X142842664Y-54111274D01*
X142900849Y-54080736D01*
X142900850Y-54080734D01*
X142900852Y-54080734D01*
X143028183Y-53967929D01*
X143124818Y-53827930D01*
X143185140Y-53668872D01*
X143205645Y-53500000D01*
X143185140Y-53331128D01*
X143124818Y-53172070D01*
X143028183Y-53032071D01*
X142900852Y-52919266D01*
X142900849Y-52919263D01*
X142750226Y-52840210D01*
X142585056Y-52799500D01*
X142414944Y-52799500D01*
X142249773Y-52840210D01*
X142099150Y-52919263D01*
X141971816Y-53032072D01*
X141875182Y-53172068D01*
X141814860Y-53331125D01*
X141814859Y-53331130D01*
X141794355Y-53500000D01*
X136325500Y-53500000D01*
X136325500Y-47500001D01*
X142494390Y-47500001D01*
X142514804Y-47785433D01*
X142575628Y-48065037D01*
X142575630Y-48065043D01*
X142575631Y-48065046D01*
X142672199Y-48323955D01*
X142675635Y-48333166D01*
X142812770Y-48584309D01*
X142812775Y-48584317D01*
X142984254Y-48813387D01*
X142984270Y-48813405D01*
X143186594Y-49015729D01*
X143186612Y-49015745D01*
X143415682Y-49187224D01*
X143415690Y-49187229D01*
X143666833Y-49324364D01*
X143666832Y-49324364D01*
X143666836Y-49324365D01*
X143666839Y-49324367D01*
X143934954Y-49424369D01*
X143934960Y-49424370D01*
X143934962Y-49424371D01*
X144214566Y-49485195D01*
X144214568Y-49485195D01*
X144214572Y-49485196D01*
X144428552Y-49500500D01*
X144571448Y-49500500D01*
X144785428Y-49485196D01*
X145065046Y-49424369D01*
X145333161Y-49324367D01*
X145584315Y-49187226D01*
X145813395Y-49015739D01*
X146015739Y-48813395D01*
X146187226Y-48584315D01*
X146324367Y-48333161D01*
X146424369Y-48065046D01*
X146485196Y-47785428D01*
X146504551Y-47514804D01*
X146505610Y-47500001D01*
X146505610Y-47499998D01*
X146496224Y-47368762D01*
X146485196Y-47214572D01*
X146484636Y-47212000D01*
X146424371Y-46934962D01*
X146424370Y-46934960D01*
X146424369Y-46934954D01*
X146324367Y-46666839D01*
X146225181Y-46485195D01*
X146187229Y-46415690D01*
X146187224Y-46415682D01*
X146015745Y-46186612D01*
X146015729Y-46186594D01*
X145813405Y-45984270D01*
X145813387Y-45984254D01*
X145584317Y-45812775D01*
X145584309Y-45812770D01*
X145333166Y-45675635D01*
X145333167Y-45675635D01*
X145165359Y-45613046D01*
X145065046Y-45575631D01*
X145065043Y-45575630D01*
X145065037Y-45575628D01*
X144785433Y-45514804D01*
X144571448Y-45499500D01*
X144428552Y-45499500D01*
X144214566Y-45514804D01*
X143934962Y-45575628D01*
X143666833Y-45675635D01*
X143415690Y-45812770D01*
X143415682Y-45812775D01*
X143186612Y-45984254D01*
X143186594Y-45984270D01*
X142984270Y-46186594D01*
X142984254Y-46186612D01*
X142812775Y-46415682D01*
X142812770Y-46415690D01*
X142675635Y-46666833D01*
X142575628Y-46934962D01*
X142514804Y-47214566D01*
X142494390Y-47499998D01*
X142494390Y-47500001D01*
X136325500Y-47500001D01*
X136325500Y-40124000D01*
X136345185Y-40056961D01*
X136397989Y-40011206D01*
X136449500Y-40000000D01*
X137000000Y-40000000D01*
X137000000Y-37946202D01*
X138950660Y-37946202D01*
X138960887Y-38160901D01*
X139011563Y-38369791D01*
X139011565Y-38369795D01*
X139064719Y-38486187D01*
X139100854Y-38565310D01*
X139220583Y-38733446D01*
X139225535Y-38740400D01*
X139225540Y-38740406D01*
X139381094Y-38888725D01*
X139381096Y-38888726D01*
X139381097Y-38888727D01*
X139561920Y-39004935D01*
X139761468Y-39084822D01*
X139781958Y-39088771D01*
X139972527Y-39125500D01*
X139972528Y-39125500D01*
X140133612Y-39125500D01*
X140133618Y-39125500D01*
X140293971Y-39110188D01*
X140500209Y-39049631D01*
X140691259Y-38951138D01*
X140697535Y-38946203D01*
X140770621Y-38888727D01*
X140860217Y-38818268D01*
X141000976Y-38655824D01*
X141015766Y-38630208D01*
X141108446Y-38469680D01*
X141108448Y-38469677D01*
X141178750Y-38266554D01*
X141209339Y-38053797D01*
X141204214Y-37946202D01*
X147790660Y-37946202D01*
X147800887Y-38160901D01*
X147851563Y-38369791D01*
X147851565Y-38369795D01*
X147904719Y-38486187D01*
X147940854Y-38565310D01*
X148060583Y-38733446D01*
X148065535Y-38740400D01*
X148065540Y-38740406D01*
X148221094Y-38888725D01*
X148221096Y-38888726D01*
X148221097Y-38888727D01*
X148401920Y-39004935D01*
X148601468Y-39084822D01*
X148621958Y-39088771D01*
X148812527Y-39125500D01*
X148812528Y-39125500D01*
X148973612Y-39125500D01*
X148973618Y-39125500D01*
X149133971Y-39110188D01*
X149340209Y-39049631D01*
X149531259Y-38951138D01*
X149537535Y-38946203D01*
X149610621Y-38888727D01*
X149700217Y-38818268D01*
X149840976Y-38655824D01*
X149855766Y-38630208D01*
X149948446Y-38469680D01*
X149948448Y-38469677D01*
X150018750Y-38266554D01*
X150049339Y-38053797D01*
X150039112Y-37839096D01*
X149988437Y-37630210D01*
X149899146Y-37434690D01*
X149774466Y-37259601D01*
X149774464Y-37259599D01*
X149774459Y-37259593D01*
X149618905Y-37111274D01*
X149438080Y-36995065D01*
X149238530Y-36915177D01*
X149027473Y-36874500D01*
X149027472Y-36874500D01*
X148866382Y-36874500D01*
X148717392Y-36888727D01*
X148706029Y-36889812D01*
X148706025Y-36889813D01*
X148499793Y-36950368D01*
X148308736Y-37048864D01*
X148139785Y-37181729D01*
X148139782Y-37181733D01*
X147999021Y-37344178D01*
X147891553Y-37530319D01*
X147821251Y-37733442D01*
X147821250Y-37733444D01*
X147790661Y-37946200D01*
X147790660Y-37946202D01*
X141204214Y-37946202D01*
X141199112Y-37839096D01*
X141148437Y-37630210D01*
X141059146Y-37434690D01*
X140934466Y-37259601D01*
X140934464Y-37259599D01*
X140934459Y-37259593D01*
X140778905Y-37111274D01*
X140598080Y-36995065D01*
X140398530Y-36915177D01*
X140187473Y-36874500D01*
X140187472Y-36874500D01*
X140026382Y-36874500D01*
X139877392Y-36888727D01*
X139866029Y-36889812D01*
X139866025Y-36889813D01*
X139659793Y-36950368D01*
X139468736Y-37048864D01*
X139299785Y-37181729D01*
X139299782Y-37181733D01*
X139159021Y-37344178D01*
X139051553Y-37530319D01*
X138981251Y-37733442D01*
X138981250Y-37733444D01*
X138950661Y-37946200D01*
X138950660Y-37946202D01*
X137000000Y-37946202D01*
X137000000Y-36000000D01*
X152000000Y-36000000D01*
X152000000Y-40000000D01*
X153240311Y-40000000D01*
X153307350Y-40019685D01*
X153353105Y-40072489D01*
X153363049Y-40141647D01*
X153334024Y-40205203D01*
X153327991Y-40211682D01*
X153281802Y-40257871D01*
X153277814Y-40261525D01*
X153246805Y-40287545D01*
X153226562Y-40322606D01*
X153223656Y-40327166D01*
X153200446Y-40360313D01*
X153198206Y-40365117D01*
X153191229Y-40381961D01*
X153189410Y-40386959D01*
X153182383Y-40426811D01*
X153181212Y-40432091D01*
X153170735Y-40471191D01*
X153174264Y-40511513D01*
X153174500Y-40516920D01*
X153174500Y-54520273D01*
X153174264Y-54525680D01*
X153170735Y-54566003D01*
X153181212Y-54605105D01*
X153182383Y-54610385D01*
X153189411Y-54650238D01*
X153191235Y-54655250D01*
X153198197Y-54672056D01*
X153200445Y-54676876D01*
X153200446Y-54676879D01*
X153214452Y-54696882D01*
X153223655Y-54710026D01*
X153226561Y-54714587D01*
X153246806Y-54749650D01*
X153277815Y-54775670D01*
X153281805Y-54779326D01*
X153290798Y-54788319D01*
X153324283Y-54849642D01*
X153319299Y-54919334D01*
X153277427Y-54975267D01*
X153211963Y-54999684D01*
X153203117Y-55000000D01*
X152000000Y-55000000D01*
X152000000Y-59000000D01*
X154550500Y-59000000D01*
X154617539Y-59019685D01*
X154663294Y-59072489D01*
X154674500Y-59124000D01*
X154674500Y-73876000D01*
X154654815Y-73943039D01*
X154602011Y-73988794D01*
X154550500Y-74000000D01*
X152000000Y-74000000D01*
X152000000Y-78000000D01*
X156000000Y-78000000D01*
X156000000Y-75946202D01*
X157950660Y-75946202D01*
X157960887Y-76160901D01*
X158011563Y-76369790D01*
X158100854Y-76565310D01*
X158220583Y-76733446D01*
X158225535Y-76740400D01*
X158225540Y-76740406D01*
X158381094Y-76888725D01*
X158381096Y-76888726D01*
X158381097Y-76888727D01*
X158561920Y-77004935D01*
X158761468Y-77084822D01*
X158866997Y-77105161D01*
X158972527Y-77125500D01*
X158972528Y-77125500D01*
X159133612Y-77125500D01*
X159133618Y-77125500D01*
X159293971Y-77110188D01*
X159500209Y-77049631D01*
X159691259Y-76951138D01*
X159697535Y-76946203D01*
X159770621Y-76888727D01*
X159860217Y-76818268D01*
X160000976Y-76655824D01*
X160015766Y-76630208D01*
X160108446Y-76469680D01*
X160108448Y-76469677D01*
X160178750Y-76266554D01*
X160209339Y-76053797D01*
X160199112Y-75839096D01*
X160148437Y-75630210D01*
X160059146Y-75434690D01*
X159934466Y-75259601D01*
X159934464Y-75259599D01*
X159934459Y-75259593D01*
X159778905Y-75111274D01*
X159598080Y-74995065D01*
X159398530Y-74915177D01*
X159187473Y-74874500D01*
X159187472Y-74874500D01*
X159026382Y-74874500D01*
X158877392Y-74888727D01*
X158866029Y-74889812D01*
X158866025Y-74889813D01*
X158659793Y-74950368D01*
X158468736Y-75048864D01*
X158299785Y-75181729D01*
X158299782Y-75181733D01*
X158159021Y-75344178D01*
X158051553Y-75530319D01*
X157981251Y-75733442D01*
X157981250Y-75733444D01*
X157950661Y-75946200D01*
X157950660Y-75946202D01*
X156000000Y-75946202D01*
X156000000Y-74000000D01*
X155449500Y-74000000D01*
X155382461Y-73980315D01*
X155336706Y-73927511D01*
X155325500Y-73876000D01*
X155325500Y-59124000D01*
X155345185Y-59056961D01*
X155397989Y-59011206D01*
X155449500Y-59000000D01*
X156000000Y-59000000D01*
X156000000Y-56946202D01*
X157950660Y-56946202D01*
X157960887Y-57160901D01*
X158011563Y-57369791D01*
X158011565Y-57369795D01*
X158026480Y-57402455D01*
X158100854Y-57565310D01*
X158220583Y-57733446D01*
X158225535Y-57740400D01*
X158225540Y-57740406D01*
X158381094Y-57888725D01*
X158381096Y-57888726D01*
X158381097Y-57888727D01*
X158561920Y-58004935D01*
X158761468Y-58084822D01*
X158866997Y-58105160D01*
X158972527Y-58125500D01*
X158972528Y-58125500D01*
X159133612Y-58125500D01*
X159133618Y-58125500D01*
X159293971Y-58110188D01*
X159500209Y-58049631D01*
X159691259Y-57951138D01*
X159697535Y-57946203D01*
X159770621Y-57888727D01*
X159860217Y-57818268D01*
X160000976Y-57655824D01*
X160015766Y-57630208D01*
X160090941Y-57500000D01*
X160108448Y-57469677D01*
X160178750Y-57266554D01*
X160209339Y-57053797D01*
X160199112Y-56839096D01*
X160148437Y-56630210D01*
X160059146Y-56434690D01*
X159934466Y-56259601D01*
X159934464Y-56259599D01*
X159934459Y-56259593D01*
X159778905Y-56111274D01*
X159598080Y-55995065D01*
X159398530Y-55915177D01*
X159187473Y-55874500D01*
X159187472Y-55874500D01*
X159026382Y-55874500D01*
X158877392Y-55888727D01*
X158866029Y-55889812D01*
X158866025Y-55889813D01*
X158659793Y-55950368D01*
X158468736Y-56048864D01*
X158299785Y-56181729D01*
X158299782Y-56181733D01*
X158159021Y-56344178D01*
X158051553Y-56530319D01*
X157981251Y-56733442D01*
X157981250Y-56733444D01*
X157950661Y-56946200D01*
X157950660Y-56946202D01*
X156000000Y-56946202D01*
X156000000Y-55000000D01*
X154474493Y-55000000D01*
X154407454Y-54980315D01*
X154386812Y-54963681D01*
X153861819Y-54438687D01*
X153828334Y-54377364D01*
X153825500Y-54351006D01*
X153825500Y-40686188D01*
X153845185Y-40619149D01*
X153861819Y-40598507D01*
X154424007Y-40036319D01*
X154485330Y-40002834D01*
X154511688Y-40000000D01*
X156000000Y-40000000D01*
X156000000Y-37946202D01*
X157950660Y-37946202D01*
X157960887Y-38160901D01*
X158011563Y-38369791D01*
X158011565Y-38369795D01*
X158064719Y-38486187D01*
X158100854Y-38565310D01*
X158220583Y-38733446D01*
X158225535Y-38740400D01*
X158225540Y-38740406D01*
X158381094Y-38888725D01*
X158381096Y-38888726D01*
X158381097Y-38888727D01*
X158561920Y-39004935D01*
X158761468Y-39084822D01*
X158781958Y-39088771D01*
X158972527Y-39125500D01*
X158972528Y-39125500D01*
X159133612Y-39125500D01*
X159133618Y-39125500D01*
X159293971Y-39110188D01*
X159500209Y-39049631D01*
X159691259Y-38951138D01*
X159697535Y-38946203D01*
X159770621Y-38888727D01*
X159860217Y-38818268D01*
X160000976Y-38655824D01*
X160015766Y-38630208D01*
X160108446Y-38469680D01*
X160108448Y-38469677D01*
X160178750Y-38266554D01*
X160209339Y-38053797D01*
X160199112Y-37839096D01*
X160148437Y-37630210D01*
X160059146Y-37434690D01*
X159934466Y-37259601D01*
X159934464Y-37259599D01*
X159934459Y-37259593D01*
X159778905Y-37111274D01*
X159598080Y-36995065D01*
X159398530Y-36915177D01*
X159187473Y-36874500D01*
X159187472Y-36874500D01*
X159026382Y-36874500D01*
X158877392Y-36888727D01*
X158866029Y-36889812D01*
X158866025Y-36889813D01*
X158659793Y-36950368D01*
X158468736Y-37048864D01*
X158299785Y-37181729D01*
X158299782Y-37181733D01*
X158159021Y-37344178D01*
X158051553Y-37530319D01*
X157981251Y-37733442D01*
X157981250Y-37733444D01*
X157950661Y-37946200D01*
X157950660Y-37946202D01*
X156000000Y-37946202D01*
X156000000Y-36000000D01*
X152000000Y-36000000D01*
X137000000Y-36000000D01*
X133000000Y-36000000D01*
X128243168Y-36000000D01*
X128866456Y-35376712D01*
X128927777Y-35343229D01*
X128997469Y-35348213D01*
X129029620Y-35366018D01*
X129068391Y-35395768D01*
X129068394Y-35395769D01*
X129068395Y-35395770D01*
X129141430Y-35426021D01*
X129214470Y-35456276D01*
X129292851Y-35466595D01*
X129371231Y-35476914D01*
X129371232Y-35476914D01*
X129371233Y-35476914D01*
X129426203Y-35469677D01*
X129527994Y-35456276D01*
X129674073Y-35395768D01*
X129799514Y-35299514D01*
X129895768Y-35174073D01*
X129956276Y-35027994D01*
X129976914Y-34871232D01*
X129956276Y-34714470D01*
X129895768Y-34568391D01*
X129799514Y-34442950D01*
X129674073Y-34346696D01*
X129667989Y-34344176D01*
X129527994Y-34286188D01*
X129527992Y-34286187D01*
X129371233Y-34265550D01*
X129363105Y-34265550D01*
X129363105Y-34263510D01*
X129304878Y-34254421D01*
X129252629Y-34208033D01*
X129233753Y-34140761D01*
X129234450Y-34131031D01*
X129234450Y-34128766D01*
X129213812Y-33972007D01*
X129213812Y-33972006D01*
X129153304Y-33825927D01*
X129057050Y-33700486D01*
X128931609Y-33604232D01*
X128785530Y-33543724D01*
X128785528Y-33543723D01*
X128628769Y-33523086D01*
X128628767Y-33523086D01*
X128472007Y-33543723D01*
X128472005Y-33543724D01*
X128325928Y-33604231D01*
X128200486Y-33700486D01*
X128104231Y-33825928D01*
X128043724Y-33972005D01*
X128043723Y-33972007D01*
X128023086Y-34128766D01*
X128023086Y-34128769D01*
X128043723Y-34285528D01*
X128043724Y-34285530D01*
X128104232Y-34431610D01*
X128133979Y-34470377D01*
X128159173Y-34535547D01*
X128145134Y-34603991D01*
X128123284Y-34633544D01*
X126106947Y-36649882D01*
X126100463Y-36655524D01*
X126090767Y-36662846D01*
X126058558Y-36698176D01*
X126056584Y-36700244D01*
X126042826Y-36714002D01*
X126042821Y-36714008D01*
X126041305Y-36716222D01*
X126035975Y-36722950D01*
X126015082Y-36745868D01*
X126015082Y-36745869D01*
X126012577Y-36752335D01*
X125999258Y-36777604D01*
X125995344Y-36783317D01*
X125995342Y-36783323D01*
X125988243Y-36813501D01*
X125985701Y-36821709D01*
X125974499Y-36850628D01*
X125974499Y-36857553D01*
X125971205Y-36885943D01*
X125969620Y-36892679D01*
X125969620Y-36892683D01*
X125973904Y-36923392D01*
X125974499Y-36931968D01*
X125974499Y-53285638D01*
X125954814Y-53352677D01*
X125902010Y-53398432D01*
X125866686Y-53408577D01*
X125818238Y-53414956D01*
X125672160Y-53475463D01*
X125546718Y-53571718D01*
X125450463Y-53697160D01*
X125389956Y-53843237D01*
X125389955Y-53843239D01*
X125369318Y-53999998D01*
X125369318Y-54000001D01*
X123575499Y-54000001D01*
X123575499Y-46909159D01*
X123575499Y-39266889D01*
X123575733Y-39261535D01*
X123579263Y-39221193D01*
X123568784Y-39182087D01*
X123567618Y-39176830D01*
X123560588Y-39136955D01*
X123560587Y-39136953D01*
X123558760Y-39131933D01*
X123551820Y-39115176D01*
X123549554Y-39110319D01*
X123549554Y-39110316D01*
X123526337Y-39077159D01*
X123523435Y-39072605D01*
X123503194Y-39037545D01*
X123472182Y-39011522D01*
X123468210Y-39007883D01*
X123132010Y-38671684D01*
X123098526Y-38610362D01*
X123096753Y-38567818D01*
X123097084Y-38565308D01*
X123105682Y-38500000D01*
X123103863Y-38486187D01*
X123085044Y-38343239D01*
X123085044Y-38343238D01*
X123024536Y-38197159D01*
X122928282Y-38071718D01*
X122802841Y-37975464D01*
X122742256Y-37950369D01*
X122656762Y-37914956D01*
X122656760Y-37914955D01*
X122500001Y-37894318D01*
X122499999Y-37894318D01*
X122343239Y-37914955D01*
X122343237Y-37914956D01*
X122197160Y-37975463D01*
X122071718Y-38071718D01*
X121975463Y-38197160D01*
X121914956Y-38343237D01*
X121914955Y-38343239D01*
X121894318Y-38499998D01*
X121894318Y-38500001D01*
X117325500Y-38500001D01*
X117325500Y-38124000D01*
X117345185Y-38056961D01*
X117397989Y-38011206D01*
X117449500Y-38000000D01*
X118000000Y-38000000D01*
X118000000Y-35946202D01*
X119950660Y-35946202D01*
X119960887Y-36160901D01*
X120011563Y-36369791D01*
X120011565Y-36369795D01*
X120065689Y-36488311D01*
X120100854Y-36565310D01*
X120196940Y-36700244D01*
X120225535Y-36740400D01*
X120225540Y-36740406D01*
X120381094Y-36888725D01*
X120381096Y-36888726D01*
X120381097Y-36888727D01*
X120561920Y-37004935D01*
X120761468Y-37084822D01*
X120866997Y-37105161D01*
X120972527Y-37125500D01*
X120972528Y-37125500D01*
X121133612Y-37125500D01*
X121133618Y-37125500D01*
X121293971Y-37110188D01*
X121500209Y-37049631D01*
X121691259Y-36951138D01*
X121860217Y-36818268D01*
X122000976Y-36655824D01*
X122108448Y-36469677D01*
X122178750Y-36266554D01*
X122209339Y-36053797D01*
X122199112Y-35839096D01*
X122148437Y-35630210D01*
X122059146Y-35434690D01*
X121934466Y-35259601D01*
X121934464Y-35259599D01*
X121934459Y-35259593D01*
X121778905Y-35111274D01*
X121598080Y-34995065D01*
X121398530Y-34915177D01*
X121187473Y-34874500D01*
X121187472Y-34874500D01*
X121026382Y-34874500D01*
X120866028Y-34889812D01*
X120866029Y-34889812D01*
X120866025Y-34889813D01*
X120659793Y-34950368D01*
X120468736Y-35048864D01*
X120299785Y-35181729D01*
X120299782Y-35181733D01*
X120159021Y-35344178D01*
X120051553Y-35530319D01*
X119981251Y-35733442D01*
X119981250Y-35733444D01*
X119950661Y-35946200D01*
X119950660Y-35946202D01*
X118000000Y-35946202D01*
X118000000Y-34000000D01*
X114000000Y-34000000D01*
X102605759Y-34000000D01*
X102598080Y-33995065D01*
X102398530Y-33915177D01*
X102187473Y-33874500D01*
X102187472Y-33874500D01*
X102026382Y-33874500D01*
X101866029Y-33889812D01*
X101866025Y-33889813D01*
X101659793Y-33950368D01*
X101468736Y-34048864D01*
X101299785Y-34181729D01*
X101299782Y-34181733D01*
X101159021Y-34344178D01*
X101051553Y-34530319D01*
X100981251Y-34733442D01*
X100981250Y-34733444D01*
X100950661Y-34946200D01*
X100950660Y-34946202D01*
X99000000Y-34946202D01*
X99000000Y-33000000D01*
X95000000Y-33000000D01*
X95000000Y-37000000D01*
X98488311Y-37000000D01*
X98555350Y-37019685D01*
X98575992Y-37036319D01*
X99138181Y-37598507D01*
X99171666Y-37659830D01*
X99174500Y-37686188D01*
X99174500Y-43931417D01*
X99154815Y-43998456D01*
X99102011Y-44044211D01*
X99032853Y-44054155D01*
X98969297Y-44025130D01*
X98931523Y-43966352D01*
X98929334Y-43957776D01*
X98927207Y-43948000D01*
X98924369Y-43934954D01*
X98824367Y-43666839D01*
X98687226Y-43415685D01*
X98687224Y-43415682D01*
X98515745Y-43186612D01*
X98515729Y-43186594D01*
X98313405Y-42984270D01*
X98313387Y-42984254D01*
X98084317Y-42812775D01*
X98084309Y-42812770D01*
X97833166Y-42675635D01*
X97833167Y-42675635D01*
X97725914Y-42635632D01*
X97565046Y-42575631D01*
X97565043Y-42575630D01*
X97565037Y-42575628D01*
X97285433Y-42514804D01*
X97071448Y-42499500D01*
X96928552Y-42499500D01*
X96714566Y-42514804D01*
X96434962Y-42575628D01*
X96166833Y-42675635D01*
X95915690Y-42812770D01*
X95915682Y-42812775D01*
X95686612Y-42984254D01*
X95686594Y-42984270D01*
X95484270Y-43186594D01*
X95484254Y-43186612D01*
X95312775Y-43415682D01*
X95312770Y-43415690D01*
X95175635Y-43666833D01*
X95075628Y-43934962D01*
X95014804Y-44214566D01*
X94994390Y-44499998D01*
X94994390Y-44500001D01*
X95014804Y-44785433D01*
X95075628Y-45065037D01*
X95175635Y-45333166D01*
X95312770Y-45584309D01*
X95312775Y-45584317D01*
X95484254Y-45813387D01*
X95484270Y-45813405D01*
X95686594Y-46015729D01*
X95686612Y-46015745D01*
X95915682Y-46187224D01*
X95915690Y-46187229D01*
X96166833Y-46324364D01*
X96166832Y-46324364D01*
X96166836Y-46324365D01*
X96166839Y-46324367D01*
X96434954Y-46424369D01*
X96434960Y-46424370D01*
X96434962Y-46424371D01*
X96714566Y-46485195D01*
X96714568Y-46485195D01*
X96714572Y-46485196D01*
X96928552Y-46500500D01*
X97071448Y-46500500D01*
X97285428Y-46485196D01*
X97285433Y-46485195D01*
X97377916Y-46465077D01*
X97447607Y-46470061D01*
X97503541Y-46511932D01*
X97527958Y-46577397D01*
X97513106Y-46645670D01*
X97502650Y-46661729D01*
X97475464Y-46697157D01*
X97414956Y-46843237D01*
X97414955Y-46843239D01*
X97394318Y-46999998D01*
X97394318Y-47000001D01*
X97414955Y-47156760D01*
X97414956Y-47156762D01*
X97465927Y-47279818D01*
X97475464Y-47302841D01*
X97571718Y-47428282D01*
X97625987Y-47469924D01*
X97667189Y-47526349D01*
X97674500Y-47568298D01*
X97674500Y-51938500D01*
X97654815Y-52005539D01*
X97602011Y-52051294D01*
X97550500Y-52062500D01*
X94970000Y-52062500D01*
X94970000Y-56062500D01*
X83456381Y-56062500D01*
X83500209Y-56049631D01*
X83691259Y-55951138D01*
X83860217Y-55818268D01*
X84000976Y-55655824D01*
X84029926Y-55605682D01*
X84090941Y-55500000D01*
X84108448Y-55469677D01*
X84178750Y-55266554D01*
X84209339Y-55053797D01*
X84199112Y-54839096D01*
X84148437Y-54630210D01*
X84059146Y-54434690D01*
X83934466Y-54259601D01*
X83934464Y-54259599D01*
X83934459Y-54259593D01*
X83778905Y-54111274D01*
X83598080Y-53995065D01*
X83476026Y-53946202D01*
X90790660Y-53946202D01*
X90800887Y-54160901D01*
X90851563Y-54369791D01*
X90851565Y-54369795D01*
X90922755Y-54525680D01*
X90940854Y-54565310D01*
X91060583Y-54733446D01*
X91065535Y-54740400D01*
X91065540Y-54740406D01*
X91221094Y-54888725D01*
X91221096Y-54888726D01*
X91221097Y-54888727D01*
X91401920Y-55004935D01*
X91601468Y-55084822D01*
X91706997Y-55105161D01*
X91812527Y-55125500D01*
X91812528Y-55125500D01*
X91973612Y-55125500D01*
X91973618Y-55125500D01*
X92133971Y-55110188D01*
X92340209Y-55049631D01*
X92531259Y-54951138D01*
X92537535Y-54946203D01*
X92610621Y-54888727D01*
X92700217Y-54818268D01*
X92840976Y-54655824D01*
X92841308Y-54655250D01*
X92919236Y-54520273D01*
X92948448Y-54469677D01*
X93018750Y-54266554D01*
X93049339Y-54053797D01*
X93039112Y-53839096D01*
X92988437Y-53630210D01*
X92899146Y-53434690D01*
X92774466Y-53259601D01*
X92774464Y-53259599D01*
X92774459Y-53259593D01*
X92618905Y-53111274D01*
X92438080Y-52995065D01*
X92238530Y-52915177D01*
X92027473Y-52874500D01*
X92027472Y-52874500D01*
X91866382Y-52874500D01*
X91706029Y-52889812D01*
X91706025Y-52889813D01*
X91499793Y-52950368D01*
X91308736Y-53048864D01*
X91139785Y-53181729D01*
X91139782Y-53181733D01*
X90999021Y-53344178D01*
X90891553Y-53530319D01*
X90821251Y-53733442D01*
X90821250Y-53733444D01*
X90790661Y-53946200D01*
X90790660Y-53946202D01*
X83476026Y-53946202D01*
X83398530Y-53915177D01*
X83187473Y-53874500D01*
X83187472Y-53874500D01*
X83026382Y-53874500D01*
X82866028Y-53889812D01*
X82866029Y-53889812D01*
X82866025Y-53889813D01*
X82659793Y-53950368D01*
X82468736Y-54048864D01*
X82299785Y-54181729D01*
X82299782Y-54181733D01*
X82159021Y-54344178D01*
X82051553Y-54530319D01*
X81981251Y-54733442D01*
X81981250Y-54733444D01*
X81950661Y-54946200D01*
X81950660Y-54946202D01*
X80000000Y-54946202D01*
X80000000Y-53000000D01*
X79449500Y-53000000D01*
X79382461Y-52980315D01*
X79336706Y-52927511D01*
X79325500Y-52876000D01*
X79325500Y-38124000D01*
X79345185Y-38056961D01*
X79397989Y-38011206D01*
X79449500Y-38000000D01*
X80000000Y-38000000D01*
X80000000Y-35946202D01*
X81950660Y-35946202D01*
X81960887Y-36160901D01*
X82011563Y-36369791D01*
X82011565Y-36369795D01*
X82065689Y-36488311D01*
X82100854Y-36565310D01*
X82196940Y-36700244D01*
X82225535Y-36740400D01*
X82225540Y-36740406D01*
X82381094Y-36888725D01*
X82381096Y-36888726D01*
X82381097Y-36888727D01*
X82561920Y-37004935D01*
X82761468Y-37084822D01*
X82866997Y-37105160D01*
X82972527Y-37125500D01*
X82972528Y-37125500D01*
X83133612Y-37125500D01*
X83133618Y-37125500D01*
X83293971Y-37110188D01*
X83500209Y-37049631D01*
X83691259Y-36951138D01*
X83860217Y-36818268D01*
X84000976Y-36655824D01*
X84108448Y-36469677D01*
X84178750Y-36266554D01*
X84209339Y-36053797D01*
X84199112Y-35839096D01*
X84148437Y-35630210D01*
X84059146Y-35434690D01*
X83934466Y-35259601D01*
X83934464Y-35259599D01*
X83934459Y-35259593D01*
X83778905Y-35111274D01*
X83598080Y-34995065D01*
X83476026Y-34946202D01*
X90790660Y-34946202D01*
X90800887Y-35160901D01*
X90851563Y-35369791D01*
X90851565Y-35369795D01*
X90891059Y-35456276D01*
X90940854Y-35565310D01*
X91060583Y-35733446D01*
X91065535Y-35740400D01*
X91065540Y-35740406D01*
X91221094Y-35888725D01*
X91221096Y-35888726D01*
X91221097Y-35888727D01*
X91401920Y-36004935D01*
X91601468Y-36084822D01*
X91706997Y-36105160D01*
X91812527Y-36125500D01*
X91812528Y-36125500D01*
X91973612Y-36125500D01*
X91973618Y-36125500D01*
X92133971Y-36110188D01*
X92340209Y-36049631D01*
X92531259Y-35951138D01*
X92537535Y-35946203D01*
X92610621Y-35888727D01*
X92700217Y-35818268D01*
X92840976Y-35655824D01*
X92855766Y-35630208D01*
X92913436Y-35530319D01*
X92948448Y-35469677D01*
X93018750Y-35266554D01*
X93049339Y-35053797D01*
X93039112Y-34839096D01*
X92988437Y-34630210D01*
X92899146Y-34434690D01*
X92774466Y-34259601D01*
X92774464Y-34259599D01*
X92774459Y-34259593D01*
X92618905Y-34111274D01*
X92438080Y-33995065D01*
X92238530Y-33915177D01*
X92027473Y-33874500D01*
X92027472Y-33874500D01*
X91866382Y-33874500D01*
X91706029Y-33889812D01*
X91706025Y-33889813D01*
X91499793Y-33950368D01*
X91308736Y-34048864D01*
X91139785Y-34181729D01*
X91139782Y-34181733D01*
X90999021Y-34344178D01*
X90891553Y-34530319D01*
X90821251Y-34733442D01*
X90821250Y-34733444D01*
X90790661Y-34946200D01*
X90790660Y-34946202D01*
X83476026Y-34946202D01*
X83398530Y-34915177D01*
X83187473Y-34874500D01*
X83187472Y-34874500D01*
X83026382Y-34874500D01*
X82866028Y-34889812D01*
X82866029Y-34889812D01*
X82866025Y-34889813D01*
X82659793Y-34950368D01*
X82468736Y-35048864D01*
X82299785Y-35181729D01*
X82299782Y-35181733D01*
X82159021Y-35344178D01*
X82051553Y-35530319D01*
X81981251Y-35733442D01*
X81981250Y-35733444D01*
X81950661Y-35946200D01*
X81950660Y-35946202D01*
X80000000Y-35946202D01*
X80000000Y-34000000D01*
X76000000Y-34000000D01*
X29500500Y-34000000D01*
X29500500Y-30595968D01*
X150990201Y-30595968D01*
X151010838Y-30752727D01*
X151010839Y-30752729D01*
X151071347Y-30898808D01*
X151167601Y-31024249D01*
X151293042Y-31120503D01*
X151439121Y-31181011D01*
X151467431Y-31184738D01*
X151595882Y-31201649D01*
X151595883Y-31201649D01*
X151595884Y-31201649D01*
X151631591Y-31196947D01*
X151663701Y-31192720D01*
X151732736Y-31203485D01*
X151767568Y-31227978D01*
X153257784Y-32718195D01*
X153261439Y-32722184D01*
X153287457Y-32753190D01*
X153287459Y-32753191D01*
X153287461Y-32753194D01*
X153322521Y-32773435D01*
X153327075Y-32776337D01*
X153360232Y-32799554D01*
X153360235Y-32799554D01*
X153365092Y-32801820D01*
X153381849Y-32808760D01*
X153386869Y-32810587D01*
X153386871Y-32810588D01*
X153426746Y-32817618D01*
X153432003Y-32818784D01*
X153471109Y-32829263D01*
X153511426Y-32825735D01*
X153516828Y-32825500D01*
X155431701Y-32825500D01*
X155498740Y-32845185D01*
X155530076Y-32874013D01*
X155571718Y-32928282D01*
X155697159Y-33024536D01*
X155843238Y-33085044D01*
X155871548Y-33088771D01*
X155999999Y-33105682D01*
X156000000Y-33105682D01*
X156000001Y-33105682D01*
X156035708Y-33100980D01*
X156067818Y-33096753D01*
X156136853Y-33107518D01*
X156171685Y-33132011D01*
X161438181Y-38398506D01*
X161471666Y-38459829D01*
X161474500Y-38486187D01*
X161474500Y-43781699D01*
X161454815Y-43848738D01*
X161425988Y-43880074D01*
X161371720Y-43921715D01*
X161275463Y-44047160D01*
X161214956Y-44193237D01*
X161214955Y-44193239D01*
X161194318Y-44349998D01*
X161194318Y-44350001D01*
X161214955Y-44506760D01*
X161214956Y-44506762D01*
X161275464Y-44652841D01*
X161371718Y-44778282D01*
X161497159Y-44874536D01*
X161643238Y-44935044D01*
X161721619Y-44945363D01*
X161799999Y-44955682D01*
X161800000Y-44955682D01*
X161800001Y-44955682D01*
X161862787Y-44947416D01*
X161956762Y-44935044D01*
X162102841Y-44874536D01*
X162228282Y-44778282D01*
X162324536Y-44652841D01*
X162385044Y-44506762D01*
X162405682Y-44350000D01*
X162385044Y-44193238D01*
X162324536Y-44047159D01*
X162228282Y-43921718D01*
X162228280Y-43921716D01*
X162228279Y-43921715D01*
X162174012Y-43880074D01*
X162132810Y-43823646D01*
X162125500Y-43781699D01*
X162125500Y-38316920D01*
X162125736Y-38311513D01*
X162129264Y-38271193D01*
X162126157Y-38259599D01*
X162118782Y-38232076D01*
X162117616Y-38226818D01*
X162110588Y-38186955D01*
X162110586Y-38186952D01*
X162110586Y-38186950D01*
X162108760Y-38181933D01*
X162101820Y-38165176D01*
X162099554Y-38160319D01*
X162099554Y-38160316D01*
X162076339Y-38127162D01*
X162073433Y-38122599D01*
X162053196Y-38087548D01*
X162053195Y-38087547D01*
X162053194Y-38087545D01*
X162022177Y-38061518D01*
X162018193Y-38057867D01*
X156632011Y-32671685D01*
X156598526Y-32610362D01*
X156596753Y-32567818D01*
X156605682Y-32500000D01*
X156605682Y-32499998D01*
X156585044Y-32343239D01*
X156585044Y-32343238D01*
X156524536Y-32197159D01*
X156428282Y-32071718D01*
X156302841Y-31975464D01*
X156156762Y-31914956D01*
X156156760Y-31914955D01*
X156000001Y-31894318D01*
X155999999Y-31894318D01*
X155843239Y-31914955D01*
X155843237Y-31914956D01*
X155697160Y-31975463D01*
X155571716Y-32071719D01*
X155530077Y-32125986D01*
X155473649Y-32167189D01*
X155431701Y-32174500D01*
X153686105Y-32174500D01*
X153619066Y-32154815D01*
X153598424Y-32138181D01*
X152227894Y-30767652D01*
X152194409Y-30706329D01*
X152192636Y-30663785D01*
X152201565Y-30595967D01*
X152201565Y-30595965D01*
X152180927Y-30439206D01*
X152180927Y-30439205D01*
X152120419Y-30293126D01*
X152024165Y-30167685D01*
X151898724Y-30071431D01*
X151752645Y-30010923D01*
X151752643Y-30010922D01*
X151595884Y-29990285D01*
X151595882Y-29990285D01*
X151439122Y-30010922D01*
X151439120Y-30010923D01*
X151293043Y-30071430D01*
X151167601Y-30167685D01*
X151071346Y-30293127D01*
X151010839Y-30439204D01*
X151010838Y-30439206D01*
X150990201Y-30595965D01*
X150990201Y-30595968D01*
X29500500Y-30595968D01*
X29500500Y-28197374D01*
X148979500Y-28197374D01*
X148994859Y-28323868D01*
X148994860Y-28323874D01*
X149055182Y-28482931D01*
X149117475Y-28573177D01*
X149151817Y-28622929D01*
X149257505Y-28716560D01*
X149279150Y-28735736D01*
X149429773Y-28814789D01*
X149429775Y-28814790D01*
X149594944Y-28855500D01*
X149765056Y-28855500D01*
X149930225Y-28814790D01*
X150009692Y-28773081D01*
X150080849Y-28735736D01*
X150080850Y-28735734D01*
X150080852Y-28735734D01*
X150208183Y-28622929D01*
X150304818Y-28482930D01*
X150365140Y-28323872D01*
X150380500Y-28197372D01*
X150380500Y-27464950D01*
X150400185Y-27397911D01*
X150452989Y-27352156D01*
X150522147Y-27342212D01*
X150585703Y-27371237D01*
X150602876Y-27389464D01*
X150607300Y-27395229D01*
X150607302Y-27395233D01*
X150699549Y-27515451D01*
X150819767Y-27607698D01*
X150959764Y-27665687D01*
X151072280Y-27680500D01*
X151072287Y-27680500D01*
X151147713Y-27680500D01*
X151147720Y-27680500D01*
X151260236Y-27665687D01*
X151400233Y-27607698D01*
X151520451Y-27515451D01*
X151612698Y-27395233D01*
X151670687Y-27255236D01*
X151690466Y-27105000D01*
X151670687Y-26954764D01*
X151612698Y-26814767D01*
X151520451Y-26694549D01*
X151400233Y-26602302D01*
X151400229Y-26602300D01*
X151336801Y-26576027D01*
X151260236Y-26544313D01*
X151246171Y-26542461D01*
X151147727Y-26529500D01*
X151147720Y-26529500D01*
X151072280Y-26529500D01*
X151072272Y-26529500D01*
X150959764Y-26544313D01*
X150959763Y-26544313D01*
X150819770Y-26602300D01*
X150699549Y-26694549D01*
X150607300Y-26814770D01*
X150586398Y-26865233D01*
X150542557Y-26919636D01*
X150476263Y-26941701D01*
X150408564Y-26924422D01*
X150360953Y-26873285D01*
X150355895Y-26861751D01*
X150304817Y-26727068D01*
X150218696Y-26602302D01*
X150208183Y-26587071D01*
X150080852Y-26474266D01*
X150071869Y-26469551D01*
X150021659Y-26420964D01*
X150005500Y-26359757D01*
X150005500Y-24420242D01*
X150025185Y-24353203D01*
X150071875Y-24310445D01*
X150080852Y-24305734D01*
X150208183Y-24192929D01*
X150304818Y-24052930D01*
X150365140Y-23893872D01*
X150369306Y-23859554D01*
X150396929Y-23795376D01*
X150454863Y-23756319D01*
X150492403Y-23750500D01*
X157507597Y-23750500D01*
X157574636Y-23770185D01*
X157620391Y-23822989D01*
X157630693Y-23859554D01*
X157634859Y-23893868D01*
X157634860Y-23893874D01*
X157695182Y-24052931D01*
X157714388Y-24080755D01*
X157791817Y-24192929D01*
X157919148Y-24305734D01*
X157928124Y-24310445D01*
X157978337Y-24359027D01*
X157994500Y-24420242D01*
X157994500Y-26359757D01*
X157974815Y-26426796D01*
X157928131Y-26469551D01*
X157919149Y-26474265D01*
X157919148Y-26474266D01*
X157856802Y-26529500D01*
X157791816Y-26587072D01*
X157695182Y-26727068D01*
X157695182Y-26727069D01*
X157644104Y-26861751D01*
X157601926Y-26917454D01*
X157536328Y-26941511D01*
X157468138Y-26926284D01*
X157419005Y-26876608D01*
X157413607Y-26865247D01*
X157392698Y-26814767D01*
X157300451Y-26694549D01*
X157180233Y-26602302D01*
X157180229Y-26602300D01*
X157116801Y-26576027D01*
X157040236Y-26544313D01*
X157026171Y-26542461D01*
X156927727Y-26529500D01*
X156927720Y-26529500D01*
X156852280Y-26529500D01*
X156852272Y-26529500D01*
X156739764Y-26544313D01*
X156739763Y-26544313D01*
X156599770Y-26602300D01*
X156479549Y-26694549D01*
X156387300Y-26814770D01*
X156329313Y-26954763D01*
X156329312Y-26954765D01*
X156309534Y-27104999D01*
X156309534Y-27105000D01*
X156329312Y-27255234D01*
X156329313Y-27255236D01*
X156380295Y-27378318D01*
X156387302Y-27395233D01*
X156479549Y-27515451D01*
X156599767Y-27607698D01*
X156739764Y-27665687D01*
X156852280Y-27680500D01*
X156852287Y-27680500D01*
X156927713Y-27680500D01*
X156927720Y-27680500D01*
X157040236Y-27665687D01*
X157180233Y-27607698D01*
X157300451Y-27515451D01*
X157392698Y-27395233D01*
X157392700Y-27395229D01*
X157397124Y-27389464D01*
X157453552Y-27348261D01*
X157523298Y-27344106D01*
X157584218Y-27378318D01*
X157616971Y-27440036D01*
X157619500Y-27464950D01*
X157619500Y-28197374D01*
X157634859Y-28323868D01*
X157634860Y-28323874D01*
X157695182Y-28482931D01*
X157757475Y-28573177D01*
X157791817Y-28622929D01*
X157897505Y-28716560D01*
X157919150Y-28735736D01*
X158069773Y-28814789D01*
X158069775Y-28814790D01*
X158234944Y-28855500D01*
X158405056Y-28855500D01*
X158570225Y-28814790D01*
X158649692Y-28773081D01*
X158720849Y-28735736D01*
X158720850Y-28735734D01*
X158720852Y-28735734D01*
X158848183Y-28622929D01*
X158944818Y-28482930D01*
X159005140Y-28323872D01*
X159020500Y-28197372D01*
X159020500Y-27012628D01*
X159005140Y-26886128D01*
X158944818Y-26727070D01*
X158848183Y-26587071D01*
X158720852Y-26474266D01*
X158711869Y-26469551D01*
X158661659Y-26420964D01*
X158645500Y-26359757D01*
X158645500Y-24420242D01*
X158665185Y-24353203D01*
X158711875Y-24310445D01*
X158720852Y-24305734D01*
X158848183Y-24192929D01*
X158944818Y-24052930D01*
X159005140Y-23893872D01*
X159017100Y-23795376D01*
X159020500Y-23767374D01*
X159020500Y-23082625D01*
X159005140Y-22956131D01*
X159005139Y-22956125D01*
X158944817Y-22797068D01*
X158910476Y-22747318D01*
X158848183Y-22657071D01*
X158720852Y-22544266D01*
X158720849Y-22544263D01*
X158570226Y-22465210D01*
X158405056Y-22424500D01*
X158234944Y-22424500D01*
X158069773Y-22465210D01*
X157919150Y-22544263D01*
X157791816Y-22657072D01*
X157695182Y-22797068D01*
X157634860Y-22956125D01*
X157634859Y-22956131D01*
X157630693Y-22990446D01*
X157603071Y-23054624D01*
X157545137Y-23093681D01*
X157507597Y-23099500D01*
X150492403Y-23099500D01*
X150425364Y-23079815D01*
X150379609Y-23027011D01*
X150369307Y-22990446D01*
X150365140Y-22956131D01*
X150365139Y-22956125D01*
X150304817Y-22797068D01*
X150270476Y-22747318D01*
X150208183Y-22657071D01*
X150080852Y-22544266D01*
X150080849Y-22544263D01*
X149930226Y-22465210D01*
X149765056Y-22424500D01*
X149594944Y-22424500D01*
X149429773Y-22465210D01*
X149279150Y-22544263D01*
X149151816Y-22657072D01*
X149055182Y-22797068D01*
X148994860Y-22956125D01*
X148994859Y-22956131D01*
X148979500Y-23082625D01*
X148979500Y-23767374D01*
X148994859Y-23893868D01*
X148994860Y-23893874D01*
X149055182Y-24052931D01*
X149074388Y-24080755D01*
X149151817Y-24192929D01*
X149279148Y-24305734D01*
X149288124Y-24310445D01*
X149338337Y-24359027D01*
X149354500Y-24420242D01*
X149354500Y-26359757D01*
X149334815Y-26426796D01*
X149288131Y-26469551D01*
X149279149Y-26474265D01*
X149279148Y-26474266D01*
X149216802Y-26529500D01*
X149151816Y-26587072D01*
X149055182Y-26727068D01*
X148994860Y-26886125D01*
X148994859Y-26886131D01*
X148979500Y-27012625D01*
X148979500Y-28197374D01*
X29500500Y-28197374D01*
X29500500Y-25502704D01*
X29500736Y-25497298D01*
X29504482Y-25454479D01*
X29516918Y-25328221D01*
X29520542Y-25308309D01*
X29538402Y-25241653D01*
X29566683Y-25148424D01*
X29572953Y-25132037D01*
X29604420Y-25064558D01*
X29605872Y-25061653D01*
X29650764Y-24977666D01*
X29654657Y-24971331D01*
X29687837Y-24923945D01*
X29700994Y-24905155D01*
X29703827Y-24901420D01*
X29763122Y-24829168D01*
X29767162Y-24824710D01*
X29824710Y-24767162D01*
X29829168Y-24763122D01*
X29901420Y-24703827D01*
X29905155Y-24700994D01*
X29971334Y-24654654D01*
X29977666Y-24650764D01*
X30061653Y-24605872D01*
X30064558Y-24604420D01*
X30132037Y-24572953D01*
X30148424Y-24566683D01*
X30241653Y-24538402D01*
X30308309Y-24520542D01*
X30328223Y-24516918D01*
X30454542Y-24504477D01*
X30497305Y-24500735D01*
X30502706Y-24500500D01*
X147432903Y-24500500D01*
X147448477Y-24505073D01*
X147491878Y-24500799D01*
X147497958Y-24500500D01*
X147587528Y-24500500D01*
X147587532Y-24500500D01*
X147650646Y-24489371D01*
X147662445Y-24490687D01*
X147685617Y-24483658D01*
X147692843Y-24481931D01*
X147759938Y-24470101D01*
X147759943Y-24470099D01*
X147759944Y-24470099D01*
X147798880Y-24455927D01*
X147837589Y-24441837D01*
X147850637Y-24441008D01*
X147865852Y-24432876D01*
X147881893Y-24425712D01*
X147924445Y-24410225D01*
X148008973Y-24361421D01*
X148023309Y-24357943D01*
X148035172Y-24348208D01*
X148051825Y-24336681D01*
X148076055Y-24322692D01*
X148076060Y-24322687D01*
X148080491Y-24319586D01*
X148080755Y-24319964D01*
X148094566Y-24310623D01*
X148098087Y-24308740D01*
X148114657Y-24290300D01*
X148161395Y-24251083D01*
X148176406Y-24244514D01*
X148184975Y-24234073D01*
X148201128Y-24217744D01*
X148210163Y-24210163D01*
X148217745Y-24201126D01*
X148234073Y-24184975D01*
X148239100Y-24180849D01*
X148251081Y-24161398D01*
X148290298Y-24114660D01*
X148305171Y-24104765D01*
X148310623Y-24094566D01*
X148319964Y-24080755D01*
X148319586Y-24080491D01*
X148322687Y-24076061D01*
X148322687Y-24076060D01*
X148322692Y-24076055D01*
X148336681Y-24051825D01*
X148348208Y-24035172D01*
X148353904Y-24028230D01*
X148361422Y-24008973D01*
X148410221Y-23924452D01*
X148410221Y-23924451D01*
X148410225Y-23924445D01*
X148425712Y-23881893D01*
X148432876Y-23865852D01*
X148438319Y-23855668D01*
X148441838Y-23837589D01*
X148470099Y-23759944D01*
X148470100Y-23759940D01*
X148470101Y-23759938D01*
X148481931Y-23692843D01*
X148483658Y-23685617D01*
X148489166Y-23667459D01*
X148489370Y-23650649D01*
X148500500Y-23587532D01*
X148500500Y-23500000D01*
X148500500Y-23499500D01*
X148500500Y-23497957D01*
X148500799Y-23491878D01*
X148504362Y-23455696D01*
X148500500Y-23432903D01*
X148500500Y-22502704D01*
X148500736Y-22497298D01*
X148504482Y-22454479D01*
X148516918Y-22328221D01*
X148520542Y-22308309D01*
X148538402Y-22241653D01*
X148566683Y-22148424D01*
X148572953Y-22132037D01*
X148604420Y-22064558D01*
X148605872Y-22061653D01*
X148650764Y-21977666D01*
X148654657Y-21971331D01*
X148687837Y-21923945D01*
X148700994Y-21905155D01*
X148703827Y-21901420D01*
X148763122Y-21829168D01*
X148767162Y-21824710D01*
X148824710Y-21767162D01*
X148829168Y-21763122D01*
X148901420Y-21703827D01*
X148905155Y-21700994D01*
X148971334Y-21654654D01*
X148977666Y-21650764D01*
X149061653Y-21605872D01*
X149064558Y-21604420D01*
X149132037Y-21572953D01*
X149148424Y-21566683D01*
X149241653Y-21538402D01*
X149308309Y-21520542D01*
X149328223Y-21516918D01*
X149454542Y-21504477D01*
X149497305Y-21500735D01*
X149502706Y-21500500D01*
X158497293Y-21500500D01*
X158502695Y-21500735D01*
G37*
%TD.AperFunction*%
%TD*%
M02*
