M48
; DRILL file {KiCad 7.0.6} date Sat Aug 12 15:46:35 2023
; FORMAT={-:-/ absolute / inch / decimal}
; #@! TF.CreationDate,2023-08-12T15:46:35+09:00
; #@! TF.GenerationSoftware,Kicad,Pcbnew,7.0.6
; #@! TF.FileFunction,Plated,1,2,PTH
FMAT,2
INCH
; #@! TA.AperFunction,Plated,PTH,ViaDrill
T1C0.0157
; #@! TA.AperFunction,Plated,PTH,ComponentDrill
T2C0.0197
; #@! TA.AperFunction,Plated,PTH,ComponentDrill
T3C0.0236
%
G90
G05
T1
X1.2008Y-1.0039
X1.2008Y-1.2008
X1.2008Y-1.9488
X1.2008Y-2.6969
X1.2008Y-3.4449
X1.2008Y-4.1929
X1.2008Y-5.0591
X1.5748Y-1.5354
X1.5748Y-2.2835
X1.5748Y-3.0315
X1.5748Y-3.7795
X1.6122Y-1.6117
X1.6122Y-2.3597
X1.6122Y-3.1078
X1.6122Y-3.8558
X1.6929Y-3.7992
X1.7323Y-3.9173
X1.9488Y-1.0039
X2.2047Y-3.8189
X2.3228Y-1.4961
X2.3228Y-2.2441
X2.3228Y-2.9921
X2.3228Y-3.7402
X2.3228Y-5.0591
X2.3602Y-1.5768
X2.3602Y-2.3204
X2.3602Y-3.0684
X2.3602Y-3.8164
X2.4213Y-3.6811
X2.4606Y-3.4843
X2.5787Y-4.5669
X2.6969Y-1.0039
X2.6969Y-4.4882
X2.9134Y-3.8386
X3.0709Y-1.378
X3.0709Y-2.126
X3.0709Y-2.874
X3.0709Y-3.622
X3.0709Y-5.0591
X3.1102Y-1.4567
X3.1102Y-2.2047
X3.1102Y-2.9528
X3.1102Y-3.7008
X3.189Y-3.5039
X3.2677Y-4.5669
X3.4252Y-4.5669
X3.4449Y-1.0039
X3.4449Y-4.3701
X3.5236Y-4.2913
X3.8189Y-1.3386
X3.8189Y-2.0866
X3.8189Y-2.8346
X3.8189Y-3.5827
X3.8189Y-5.0591
X3.8583Y-1.4173
X3.8583Y-1.8504
X3.8583Y-2.1654
X3.8583Y-2.5984
X3.8583Y-2.9134
X3.8583Y-3.3465
X3.8583Y-3.6614
X3.9567Y-3.8386
X3.9567Y-4.1535
X4.0748Y-4.1929
X4.0748Y-4.5276
X4.1732Y-4.5669
X4.1929Y-1.0039
X4.1929Y-1.752
X4.1929Y-2.5
X4.1929Y-3.248
X4.1929Y-3.9961
X4.1929Y-4.3701
X4.2126Y-2.0669
X4.2126Y-2.3031
X4.2126Y-2.815
X4.2323Y-3.5236
X4.2323Y-4.252
X4.2679Y-1.8587
X4.2679Y-2.6068
X4.2679Y-3.3548
X4.2679Y-4.1028
X4.3179Y-1.8587
X4.3179Y-2.6068
X4.3179Y-3.3548
X4.3179Y-4.1028
X4.3679Y-1.8587
X4.3679Y-2.6068
X4.3679Y-3.3548
X4.3679Y-4.1028
X4.3701Y-1.9488
X4.4488Y-1.9685
X4.4488Y-2.1654
X4.4488Y-2.7953
X4.4488Y-2.9331
X4.4488Y-3.0315
X4.4488Y-3.248
X4.4488Y-3.6417
X4.4685Y-2.3819
X4.4685Y-2.5984
X4.5079Y-2.6969
X4.5472Y-3.8583
X4.5669Y-1.378
X4.5669Y-2.126
X4.5669Y-2.5394
X4.5669Y-2.6969
X4.5669Y-2.7953
X4.5669Y-2.874
X4.5669Y-3.1299
X4.5669Y-3.622
X4.5669Y-5.0591
X4.6063Y-1.4567
X4.6063Y-2.2047
X4.6063Y-2.5
X4.6063Y-2.9528
X4.6063Y-3.7008
X4.6654Y-2.6575
X4.6654Y-3.2677
X4.685Y-2.4016
X4.685Y-2.6969
X4.8031Y-4.5472
X4.8228Y-1.5157
X4.8228Y-2.9724
X4.8524Y-2.1654
X4.9016Y-2.126
X4.9016Y-2.5
X4.9016Y-2.5787
X4.9409Y-1.0039
X4.9409Y-2.5394
X4.9409Y-4.2717
X4.9409Y-4.4488
X4.9596Y-2.126
X4.9803Y-2.5
X4.9803Y-2.5787
X5.0Y-2.7756
X5.001Y-2.126
X5.0394Y-2.1742
X5.0641Y-1.3437
X5.0787Y-4.5669
X5.0934Y-1.3729
X5.1575Y-2.6969
X5.1772Y-2.5984
X5.1969Y-2.3228
X5.2362Y-2.4803
X5.315Y-1.4567
X5.315Y-2.2072
X5.315Y-2.5787
X5.315Y-2.6378
X5.315Y-2.9552
X5.315Y-3.7032
X5.315Y-4.6041
X5.315Y-5.0591
X5.3524Y-3.7771
X5.3543Y-1.5354
X5.3543Y-2.2835
X5.3543Y-2.6772
X5.3543Y-2.8346
X5.3543Y-3.0315
X5.4331Y-1.5157
X5.6496Y-1.2992
X5.7018Y-1.063
X5.8071Y-1.0039
X5.8071Y-1.1417
X5.8071Y-2.3425
X5.8071Y-2.81
X5.8071Y-3.248
X5.8858Y-4.4488
X5.9449Y-1.5157
X5.9683Y-1.2046
X5.9979Y-1.175
X6.0039Y-3.2087
X6.0039Y-4.2323
X6.0236Y-5.0591
X6.063Y-0.9843
X6.063Y-1.4567
X6.063Y-2.2072
X6.063Y-2.9552
X6.0887Y-1.1872
X6.1024Y-1.5354
X6.1024Y-2.2835
X6.1024Y-3.0315
X6.1417Y-1.2795
X6.3189Y-1.0039
X6.3701Y-1.7461
X6.5945Y-1.0039
X6.5945Y-1.8701
X6.5945Y-2.6181
X6.5945Y-3.3661
X6.5945Y-4.0748
X6.5945Y-5.0591
T2
X5.6102Y-2.1063
X5.6102Y-2.185
X5.6102Y-2.2638
X5.6102Y-2.3425
T3
G00X5.8929Y-0.9104
M15
G01X5.8929Y-0.9341
M16
G05
G00X5.8929Y-1.0652
M15
G01X5.8929Y-1.1085
M16
G05
G00X6.2331Y-0.9104
M15
G01X6.2331Y-0.9341
M16
G05
G00X6.2331Y-1.0652
M15
G01X6.2331Y-1.1085
M16
G05
T0
M30
