%TF.GenerationSoftware,KiCad,Pcbnew,7.0.6*%
%TF.CreationDate,2023-08-12T15:46:35+09:00*%
%TF.ProjectId,ember,656d6265-722e-46b6-9963-61645f706362,rev?*%
%TF.SameCoordinates,Original*%
%TF.FileFunction,Legend,Bot*%
%TF.FilePolarity,Positive*%
%FSLAX46Y46*%
G04 Gerber Fmt 4.6, Leading zero omitted, Abs format (unit mm)*
G04 Created by KiCad (PCBNEW 7.0.6) date 2023-08-12 15:46:35*
%MOMM*%
%LPD*%
G01*
G04 APERTURE LIST*
G04 Aperture macros list*
%AMRoundRect*
0 Rectangle with rounded corners*
0 $1 Rounding radius*
0 $2 $3 $4 $5 $6 $7 $8 $9 X,Y pos of 4 corners*
0 Add a 4 corners polygon primitive as box body*
4,1,4,$2,$3,$4,$5,$6,$7,$8,$9,$2,$3,0*
0 Add four circle primitives for the rounded corners*
1,1,$1+$1,$2,$3*
1,1,$1+$1,$4,$5*
1,1,$1+$1,$6,$7*
1,1,$1+$1,$8,$9*
0 Add four rect primitives between the rounded corners*
20,1,$1+$1,$2,$3,$4,$5,0*
20,1,$1+$1,$4,$5,$6,$7,0*
20,1,$1+$1,$6,$7,$8,$9,0*
20,1,$1+$1,$8,$9,$2,$3,0*%
G04 Aperture macros list end*
%ADD10C,0.300000*%
%ADD11C,0.150000*%
%ADD12C,0.254000*%
%ADD13C,0.120000*%
%ADD14C,0.200000*%
%ADD15C,1.750000*%
%ADD16C,3.500000*%
%ADD17R,1.500000X2.000000*%
%ADD18R,3.800000X2.000000*%
%ADD19RoundRect,0.150000X0.150000X-0.587500X0.150000X0.587500X-0.150000X0.587500X-0.150000X-0.587500X0*%
%ADD20RoundRect,0.200000X-0.275000X0.200000X-0.275000X-0.200000X0.275000X-0.200000X0.275000X0.200000X0*%
%ADD21C,1.000000*%
%ADD22RoundRect,0.200000X0.200000X0.275000X-0.200000X0.275000X-0.200000X-0.275000X0.200000X-0.275000X0*%
%ADD23RoundRect,0.225000X-0.225000X-0.250000X0.225000X-0.250000X0.225000X0.250000X-0.225000X0.250000X0*%
%ADD24RoundRect,0.225000X0.250000X-0.225000X0.250000X0.225000X-0.250000X0.225000X-0.250000X-0.225000X0*%
%ADD25R,0.650000X1.525000*%
%ADD26RoundRect,0.150000X-0.163846X-0.583790X0.423654X0.433790X0.163846X0.583790X-0.423654X-0.433790X0*%
%ADD27R,1.000000X0.750000*%
%ADD28RoundRect,0.075000X0.075000X-0.662500X0.075000X0.662500X-0.075000X0.662500X-0.075000X-0.662500X0*%
%ADD29RoundRect,0.075000X0.662500X-0.075000X0.662500X0.075000X-0.662500X0.075000X-0.662500X-0.075000X0*%
%ADD30RoundRect,0.225000X-0.250000X0.225000X-0.250000X-0.225000X0.250000X-0.225000X0.250000X0.225000X0*%
%ADD31R,1.200000X1.400000*%
%ADD32RoundRect,0.150000X-0.587500X-0.150000X0.587500X-0.150000X0.587500X0.150000X-0.587500X0.150000X0*%
%ADD33RoundRect,0.200000X-0.200000X-0.275000X0.200000X-0.275000X0.200000X0.275000X-0.200000X0.275000X0*%
%ADD34RoundRect,0.225000X0.225000X0.250000X-0.225000X0.250000X-0.225000X-0.250000X0.225000X-0.250000X0*%
%ADD35C,0.650000*%
%ADD36R,0.300000X1.150000*%
%ADD37O,1.000000X1.600000*%
%ADD38O,1.000000X2.100000*%
%ADD39RoundRect,0.218750X-0.218750X-0.256250X0.218750X-0.256250X0.218750X0.256250X-0.218750X0.256250X0*%
G04 APERTURE END LIST*
D10*
X46016917Y-125800828D02*
X46016917Y-126872257D01*
X46016917Y-126872257D02*
X46088346Y-127086542D01*
X46088346Y-127086542D02*
X46231203Y-127229400D01*
X46231203Y-127229400D02*
X46445489Y-127300828D01*
X46445489Y-127300828D02*
X46588346Y-127300828D01*
X44588346Y-127300828D02*
X45302632Y-127300828D01*
X45302632Y-127300828D02*
X45302632Y-125800828D01*
X43231203Y-127157971D02*
X43302631Y-127229400D01*
X43302631Y-127229400D02*
X43516917Y-127300828D01*
X43516917Y-127300828D02*
X43659774Y-127300828D01*
X43659774Y-127300828D02*
X43874060Y-127229400D01*
X43874060Y-127229400D02*
X44016917Y-127086542D01*
X44016917Y-127086542D02*
X44088346Y-126943685D01*
X44088346Y-126943685D02*
X44159774Y-126657971D01*
X44159774Y-126657971D02*
X44159774Y-126443685D01*
X44159774Y-126443685D02*
X44088346Y-126157971D01*
X44088346Y-126157971D02*
X44016917Y-126015114D01*
X44016917Y-126015114D02*
X43874060Y-125872257D01*
X43874060Y-125872257D02*
X43659774Y-125800828D01*
X43659774Y-125800828D02*
X43516917Y-125800828D01*
X43516917Y-125800828D02*
X43302631Y-125872257D01*
X43302631Y-125872257D02*
X43231203Y-125943685D01*
X42159774Y-125800828D02*
X42159774Y-126872257D01*
X42159774Y-126872257D02*
X42231203Y-127086542D01*
X42231203Y-127086542D02*
X42374060Y-127229400D01*
X42374060Y-127229400D02*
X42588346Y-127300828D01*
X42588346Y-127300828D02*
X42731203Y-127300828D01*
X40731203Y-127300828D02*
X41445489Y-127300828D01*
X41445489Y-127300828D02*
X41445489Y-125800828D01*
X39374060Y-127157971D02*
X39445488Y-127229400D01*
X39445488Y-127229400D02*
X39659774Y-127300828D01*
X39659774Y-127300828D02*
X39802631Y-127300828D01*
X39802631Y-127300828D02*
X40016917Y-127229400D01*
X40016917Y-127229400D02*
X40159774Y-127086542D01*
X40159774Y-127086542D02*
X40231203Y-126943685D01*
X40231203Y-126943685D02*
X40302631Y-126657971D01*
X40302631Y-126657971D02*
X40302631Y-126443685D01*
X40302631Y-126443685D02*
X40231203Y-126157971D01*
X40231203Y-126157971D02*
X40159774Y-126015114D01*
X40159774Y-126015114D02*
X40016917Y-125872257D01*
X40016917Y-125872257D02*
X39802631Y-125800828D01*
X39802631Y-125800828D02*
X39659774Y-125800828D01*
X39659774Y-125800828D02*
X39445488Y-125872257D01*
X39445488Y-125872257D02*
X39374060Y-125943685D01*
X38302631Y-125800828D02*
X38302631Y-126872257D01*
X38302631Y-126872257D02*
X38374060Y-127086542D01*
X38374060Y-127086542D02*
X38516917Y-127229400D01*
X38516917Y-127229400D02*
X38731203Y-127300828D01*
X38731203Y-127300828D02*
X38874060Y-127300828D01*
X36874060Y-127300828D02*
X37588346Y-127300828D01*
X37588346Y-127300828D02*
X37588346Y-125800828D01*
X35516917Y-127157971D02*
X35588345Y-127229400D01*
X35588345Y-127229400D02*
X35802631Y-127300828D01*
X35802631Y-127300828D02*
X35945488Y-127300828D01*
X35945488Y-127300828D02*
X36159774Y-127229400D01*
X36159774Y-127229400D02*
X36302631Y-127086542D01*
X36302631Y-127086542D02*
X36374060Y-126943685D01*
X36374060Y-126943685D02*
X36445488Y-126657971D01*
X36445488Y-126657971D02*
X36445488Y-126443685D01*
X36445488Y-126443685D02*
X36374060Y-126157971D01*
X36374060Y-126157971D02*
X36302631Y-126015114D01*
X36302631Y-126015114D02*
X36159774Y-125872257D01*
X36159774Y-125872257D02*
X35945488Y-125800828D01*
X35945488Y-125800828D02*
X35802631Y-125800828D01*
X35802631Y-125800828D02*
X35588345Y-125872257D01*
X35588345Y-125872257D02*
X35516917Y-125943685D01*
X34445488Y-125800828D02*
X34445488Y-126872257D01*
X34445488Y-126872257D02*
X34516917Y-127086542D01*
X34516917Y-127086542D02*
X34659774Y-127229400D01*
X34659774Y-127229400D02*
X34874060Y-127300828D01*
X34874060Y-127300828D02*
X35016917Y-127300828D01*
X33016917Y-127300828D02*
X33731203Y-127300828D01*
X33731203Y-127300828D02*
X33731203Y-125800828D01*
X31659774Y-127157971D02*
X31731202Y-127229400D01*
X31731202Y-127229400D02*
X31945488Y-127300828D01*
X31945488Y-127300828D02*
X32088345Y-127300828D01*
X32088345Y-127300828D02*
X32302631Y-127229400D01*
X32302631Y-127229400D02*
X32445488Y-127086542D01*
X32445488Y-127086542D02*
X32516917Y-126943685D01*
X32516917Y-126943685D02*
X32588345Y-126657971D01*
X32588345Y-126657971D02*
X32588345Y-126443685D01*
X32588345Y-126443685D02*
X32516917Y-126157971D01*
X32516917Y-126157971D02*
X32445488Y-126015114D01*
X32445488Y-126015114D02*
X32302631Y-125872257D01*
X32302631Y-125872257D02*
X32088345Y-125800828D01*
X32088345Y-125800828D02*
X31945488Y-125800828D01*
X31945488Y-125800828D02*
X31731202Y-125872257D01*
X31731202Y-125872257D02*
X31659774Y-125943685D01*
D11*
X160738094Y-46954819D02*
X160738094Y-47764342D01*
X160738094Y-47764342D02*
X160690475Y-47859580D01*
X160690475Y-47859580D02*
X160642856Y-47907200D01*
X160642856Y-47907200D02*
X160547618Y-47954819D01*
X160547618Y-47954819D02*
X160357142Y-47954819D01*
X160357142Y-47954819D02*
X160261904Y-47907200D01*
X160261904Y-47907200D02*
X160214285Y-47859580D01*
X160214285Y-47859580D02*
X160166666Y-47764342D01*
X160166666Y-47764342D02*
X160166666Y-46954819D01*
X159785713Y-46954819D02*
X159166666Y-46954819D01*
X159166666Y-46954819D02*
X159499999Y-47335771D01*
X159499999Y-47335771D02*
X159357142Y-47335771D01*
X159357142Y-47335771D02*
X159261904Y-47383390D01*
X159261904Y-47383390D02*
X159214285Y-47431009D01*
X159214285Y-47431009D02*
X159166666Y-47526247D01*
X159166666Y-47526247D02*
X159166666Y-47764342D01*
X159166666Y-47764342D02*
X159214285Y-47859580D01*
X159214285Y-47859580D02*
X159261904Y-47907200D01*
X159261904Y-47907200D02*
X159357142Y-47954819D01*
X159357142Y-47954819D02*
X159642856Y-47954819D01*
X159642856Y-47954819D02*
X159738094Y-47907200D01*
X159738094Y-47907200D02*
X159785713Y-47859580D01*
X158833332Y-46954819D02*
X158214285Y-46954819D01*
X158214285Y-46954819D02*
X158547618Y-47335771D01*
X158547618Y-47335771D02*
X158404761Y-47335771D01*
X158404761Y-47335771D02*
X158309523Y-47383390D01*
X158309523Y-47383390D02*
X158261904Y-47431009D01*
X158261904Y-47431009D02*
X158214285Y-47526247D01*
X158214285Y-47526247D02*
X158214285Y-47764342D01*
X158214285Y-47764342D02*
X158261904Y-47859580D01*
X158261904Y-47859580D02*
X158309523Y-47907200D01*
X158309523Y-47907200D02*
X158404761Y-47954819D01*
X158404761Y-47954819D02*
X158690475Y-47954819D01*
X158690475Y-47954819D02*
X158785713Y-47907200D01*
X158785713Y-47907200D02*
X158833332Y-47859580D01*
X60854819Y-75761905D02*
X61664342Y-75761905D01*
X61664342Y-75761905D02*
X61759580Y-75809524D01*
X61759580Y-75809524D02*
X61807200Y-75857143D01*
X61807200Y-75857143D02*
X61854819Y-75952381D01*
X61854819Y-75952381D02*
X61854819Y-76142857D01*
X61854819Y-76142857D02*
X61807200Y-76238095D01*
X61807200Y-76238095D02*
X61759580Y-76285714D01*
X61759580Y-76285714D02*
X61664342Y-76333333D01*
X61664342Y-76333333D02*
X60854819Y-76333333D01*
X60854819Y-76714286D02*
X60854819Y-77333333D01*
X60854819Y-77333333D02*
X61235771Y-77000000D01*
X61235771Y-77000000D02*
X61235771Y-77142857D01*
X61235771Y-77142857D02*
X61283390Y-77238095D01*
X61283390Y-77238095D02*
X61331009Y-77285714D01*
X61331009Y-77285714D02*
X61426247Y-77333333D01*
X61426247Y-77333333D02*
X61664342Y-77333333D01*
X61664342Y-77333333D02*
X61759580Y-77285714D01*
X61759580Y-77285714D02*
X61807200Y-77238095D01*
X61807200Y-77238095D02*
X61854819Y-77142857D01*
X61854819Y-77142857D02*
X61854819Y-76857143D01*
X61854819Y-76857143D02*
X61807200Y-76761905D01*
X61807200Y-76761905D02*
X61759580Y-76714286D01*
X60854819Y-77952381D02*
X60854819Y-78047619D01*
X60854819Y-78047619D02*
X60902438Y-78142857D01*
X60902438Y-78142857D02*
X60950057Y-78190476D01*
X60950057Y-78190476D02*
X61045295Y-78238095D01*
X61045295Y-78238095D02*
X61235771Y-78285714D01*
X61235771Y-78285714D02*
X61473866Y-78285714D01*
X61473866Y-78285714D02*
X61664342Y-78238095D01*
X61664342Y-78238095D02*
X61759580Y-78190476D01*
X61759580Y-78190476D02*
X61807200Y-78142857D01*
X61807200Y-78142857D02*
X61854819Y-78047619D01*
X61854819Y-78047619D02*
X61854819Y-77952381D01*
X61854819Y-77952381D02*
X61807200Y-77857143D01*
X61807200Y-77857143D02*
X61759580Y-77809524D01*
X61759580Y-77809524D02*
X61664342Y-77761905D01*
X61664342Y-77761905D02*
X61473866Y-77714286D01*
X61473866Y-77714286D02*
X61235771Y-77714286D01*
X61235771Y-77714286D02*
X61045295Y-77761905D01*
X61045295Y-77761905D02*
X60950057Y-77809524D01*
X60950057Y-77809524D02*
X60902438Y-77857143D01*
X60902438Y-77857143D02*
X60854819Y-77952381D01*
X41854819Y-39238095D02*
X42664342Y-39238095D01*
X42664342Y-39238095D02*
X42759580Y-39285714D01*
X42759580Y-39285714D02*
X42807200Y-39333333D01*
X42807200Y-39333333D02*
X42854819Y-39428571D01*
X42854819Y-39428571D02*
X42854819Y-39619047D01*
X42854819Y-39619047D02*
X42807200Y-39714285D01*
X42807200Y-39714285D02*
X42759580Y-39761904D01*
X42759580Y-39761904D02*
X42664342Y-39809523D01*
X42664342Y-39809523D02*
X41854819Y-39809523D01*
X42854819Y-40809523D02*
X42854819Y-40238095D01*
X42854819Y-40523809D02*
X41854819Y-40523809D01*
X41854819Y-40523809D02*
X41997676Y-40428571D01*
X41997676Y-40428571D02*
X42092914Y-40333333D01*
X42092914Y-40333333D02*
X42140533Y-40238095D01*
X147954819Y-25333333D02*
X147478628Y-25000000D01*
X147954819Y-24761905D02*
X146954819Y-24761905D01*
X146954819Y-24761905D02*
X146954819Y-25142857D01*
X146954819Y-25142857D02*
X147002438Y-25238095D01*
X147002438Y-25238095D02*
X147050057Y-25285714D01*
X147050057Y-25285714D02*
X147145295Y-25333333D01*
X147145295Y-25333333D02*
X147288152Y-25333333D01*
X147288152Y-25333333D02*
X147383390Y-25285714D01*
X147383390Y-25285714D02*
X147431009Y-25238095D01*
X147431009Y-25238095D02*
X147478628Y-25142857D01*
X147478628Y-25142857D02*
X147478628Y-24761905D01*
X147954819Y-26285714D02*
X147954819Y-25714286D01*
X147954819Y-26000000D02*
X146954819Y-26000000D01*
X146954819Y-26000000D02*
X147097676Y-25904762D01*
X147097676Y-25904762D02*
X147192914Y-25809524D01*
X147192914Y-25809524D02*
X147240533Y-25714286D01*
X148312969Y-59907200D02*
X148170112Y-59954819D01*
X148170112Y-59954819D02*
X147932017Y-59954819D01*
X147932017Y-59954819D02*
X147836779Y-59907200D01*
X147836779Y-59907200D02*
X147789160Y-59859580D01*
X147789160Y-59859580D02*
X147741541Y-59764342D01*
X147741541Y-59764342D02*
X147741541Y-59669104D01*
X147741541Y-59669104D02*
X147789160Y-59573866D01*
X147789160Y-59573866D02*
X147836779Y-59526247D01*
X147836779Y-59526247D02*
X147932017Y-59478628D01*
X147932017Y-59478628D02*
X148122493Y-59431009D01*
X148122493Y-59431009D02*
X148217731Y-59383390D01*
X148217731Y-59383390D02*
X148265350Y-59335771D01*
X148265350Y-59335771D02*
X148312969Y-59240533D01*
X148312969Y-59240533D02*
X148312969Y-59145295D01*
X148312969Y-59145295D02*
X148265350Y-59050057D01*
X148265350Y-59050057D02*
X148217731Y-59002438D01*
X148217731Y-59002438D02*
X148122493Y-58954819D01*
X148122493Y-58954819D02*
X147884398Y-58954819D01*
X147884398Y-58954819D02*
X147741541Y-59002438D01*
X147408207Y-58954819D02*
X147170112Y-59954819D01*
X147170112Y-59954819D02*
X146979636Y-59240533D01*
X146979636Y-59240533D02*
X146789160Y-59954819D01*
X146789160Y-59954819D02*
X146551065Y-58954819D01*
X145598684Y-59859580D02*
X145646303Y-59907200D01*
X145646303Y-59907200D02*
X145789160Y-59954819D01*
X145789160Y-59954819D02*
X145884398Y-59954819D01*
X145884398Y-59954819D02*
X146027255Y-59907200D01*
X146027255Y-59907200D02*
X146122493Y-59811961D01*
X146122493Y-59811961D02*
X146170112Y-59716723D01*
X146170112Y-59716723D02*
X146217731Y-59526247D01*
X146217731Y-59526247D02*
X146217731Y-59383390D01*
X146217731Y-59383390D02*
X146170112Y-59192914D01*
X146170112Y-59192914D02*
X146122493Y-59097676D01*
X146122493Y-59097676D02*
X146027255Y-59002438D01*
X146027255Y-59002438D02*
X145884398Y-58954819D01*
X145884398Y-58954819D02*
X145789160Y-58954819D01*
X145789160Y-58954819D02*
X145646303Y-59002438D01*
X145646303Y-59002438D02*
X145598684Y-59050057D01*
X144693922Y-59954819D02*
X145170112Y-59954819D01*
X145170112Y-59954819D02*
X145170112Y-58954819D01*
X144360588Y-59954819D02*
X144360588Y-58954819D01*
X143789160Y-59954819D02*
X144217731Y-59383390D01*
X143789160Y-58954819D02*
X144360588Y-59526247D01*
X125666666Y-71024819D02*
X125999999Y-70548628D01*
X126238094Y-71024819D02*
X126238094Y-70024819D01*
X126238094Y-70024819D02*
X125857142Y-70024819D01*
X125857142Y-70024819D02*
X125761904Y-70072438D01*
X125761904Y-70072438D02*
X125714285Y-70120057D01*
X125714285Y-70120057D02*
X125666666Y-70215295D01*
X125666666Y-70215295D02*
X125666666Y-70358152D01*
X125666666Y-70358152D02*
X125714285Y-70453390D01*
X125714285Y-70453390D02*
X125761904Y-70501009D01*
X125761904Y-70501009D02*
X125857142Y-70548628D01*
X125857142Y-70548628D02*
X126238094Y-70548628D01*
X125333332Y-70024819D02*
X124714285Y-70024819D01*
X124714285Y-70024819D02*
X125047618Y-70405771D01*
X125047618Y-70405771D02*
X124904761Y-70405771D01*
X124904761Y-70405771D02*
X124809523Y-70453390D01*
X124809523Y-70453390D02*
X124761904Y-70501009D01*
X124761904Y-70501009D02*
X124714285Y-70596247D01*
X124714285Y-70596247D02*
X124714285Y-70834342D01*
X124714285Y-70834342D02*
X124761904Y-70929580D01*
X124761904Y-70929580D02*
X124809523Y-70977200D01*
X124809523Y-70977200D02*
X124904761Y-71024819D01*
X124904761Y-71024819D02*
X125190475Y-71024819D01*
X125190475Y-71024819D02*
X125285713Y-70977200D01*
X125285713Y-70977200D02*
X125333332Y-70929580D01*
X79854819Y-54238095D02*
X80664342Y-54238095D01*
X80664342Y-54238095D02*
X80759580Y-54285714D01*
X80759580Y-54285714D02*
X80807200Y-54333333D01*
X80807200Y-54333333D02*
X80854819Y-54428571D01*
X80854819Y-54428571D02*
X80854819Y-54619047D01*
X80854819Y-54619047D02*
X80807200Y-54714285D01*
X80807200Y-54714285D02*
X80759580Y-54761904D01*
X80759580Y-54761904D02*
X80664342Y-54809523D01*
X80664342Y-54809523D02*
X79854819Y-54809523D01*
X79854819Y-55714285D02*
X79854819Y-55523809D01*
X79854819Y-55523809D02*
X79902438Y-55428571D01*
X79902438Y-55428571D02*
X79950057Y-55380952D01*
X79950057Y-55380952D02*
X80092914Y-55285714D01*
X80092914Y-55285714D02*
X80283390Y-55238095D01*
X80283390Y-55238095D02*
X80664342Y-55238095D01*
X80664342Y-55238095D02*
X80759580Y-55285714D01*
X80759580Y-55285714D02*
X80807200Y-55333333D01*
X80807200Y-55333333D02*
X80854819Y-55428571D01*
X80854819Y-55428571D02*
X80854819Y-55619047D01*
X80854819Y-55619047D02*
X80807200Y-55714285D01*
X80807200Y-55714285D02*
X80759580Y-55761904D01*
X80759580Y-55761904D02*
X80664342Y-55809523D01*
X80664342Y-55809523D02*
X80426247Y-55809523D01*
X80426247Y-55809523D02*
X80331009Y-55761904D01*
X80331009Y-55761904D02*
X80283390Y-55714285D01*
X80283390Y-55714285D02*
X80235771Y-55619047D01*
X80235771Y-55619047D02*
X80235771Y-55428571D01*
X80235771Y-55428571D02*
X80283390Y-55333333D01*
X80283390Y-55333333D02*
X80331009Y-55285714D01*
X80331009Y-55285714D02*
X80426247Y-55238095D01*
X134166666Y-68859580D02*
X134214285Y-68907200D01*
X134214285Y-68907200D02*
X134357142Y-68954819D01*
X134357142Y-68954819D02*
X134452380Y-68954819D01*
X134452380Y-68954819D02*
X134595237Y-68907200D01*
X134595237Y-68907200D02*
X134690475Y-68811961D01*
X134690475Y-68811961D02*
X134738094Y-68716723D01*
X134738094Y-68716723D02*
X134785713Y-68526247D01*
X134785713Y-68526247D02*
X134785713Y-68383390D01*
X134785713Y-68383390D02*
X134738094Y-68192914D01*
X134738094Y-68192914D02*
X134690475Y-68097676D01*
X134690475Y-68097676D02*
X134595237Y-68002438D01*
X134595237Y-68002438D02*
X134452380Y-67954819D01*
X134452380Y-67954819D02*
X134357142Y-67954819D01*
X134357142Y-67954819D02*
X134214285Y-68002438D01*
X134214285Y-68002438D02*
X134166666Y-68050057D01*
X133309523Y-68288152D02*
X133309523Y-68954819D01*
X133547618Y-67907200D02*
X133785713Y-68621485D01*
X133785713Y-68621485D02*
X133166666Y-68621485D01*
X155359580Y-44833333D02*
X155407200Y-44785714D01*
X155407200Y-44785714D02*
X155454819Y-44642857D01*
X155454819Y-44642857D02*
X155454819Y-44547619D01*
X155454819Y-44547619D02*
X155407200Y-44404762D01*
X155407200Y-44404762D02*
X155311961Y-44309524D01*
X155311961Y-44309524D02*
X155216723Y-44261905D01*
X155216723Y-44261905D02*
X155026247Y-44214286D01*
X155026247Y-44214286D02*
X154883390Y-44214286D01*
X154883390Y-44214286D02*
X154692914Y-44261905D01*
X154692914Y-44261905D02*
X154597676Y-44309524D01*
X154597676Y-44309524D02*
X154502438Y-44404762D01*
X154502438Y-44404762D02*
X154454819Y-44547619D01*
X154454819Y-44547619D02*
X154454819Y-44642857D01*
X154454819Y-44642857D02*
X154502438Y-44785714D01*
X154502438Y-44785714D02*
X154550057Y-44833333D01*
X155454819Y-45785714D02*
X155454819Y-45214286D01*
X155454819Y-45500000D02*
X154454819Y-45500000D01*
X154454819Y-45500000D02*
X154597676Y-45404762D01*
X154597676Y-45404762D02*
X154692914Y-45309524D01*
X154692914Y-45309524D02*
X154740533Y-45214286D01*
X136854819Y-36761905D02*
X137664342Y-36761905D01*
X137664342Y-36761905D02*
X137759580Y-36809524D01*
X137759580Y-36809524D02*
X137807200Y-36857143D01*
X137807200Y-36857143D02*
X137854819Y-36952381D01*
X137854819Y-36952381D02*
X137854819Y-37142857D01*
X137854819Y-37142857D02*
X137807200Y-37238095D01*
X137807200Y-37238095D02*
X137759580Y-37285714D01*
X137759580Y-37285714D02*
X137664342Y-37333333D01*
X137664342Y-37333333D02*
X136854819Y-37333333D01*
X136950057Y-37761905D02*
X136902438Y-37809524D01*
X136902438Y-37809524D02*
X136854819Y-37904762D01*
X136854819Y-37904762D02*
X136854819Y-38142857D01*
X136854819Y-38142857D02*
X136902438Y-38238095D01*
X136902438Y-38238095D02*
X136950057Y-38285714D01*
X136950057Y-38285714D02*
X137045295Y-38333333D01*
X137045295Y-38333333D02*
X137140533Y-38333333D01*
X137140533Y-38333333D02*
X137283390Y-38285714D01*
X137283390Y-38285714D02*
X137854819Y-37714286D01*
X137854819Y-37714286D02*
X137854819Y-38333333D01*
X137854819Y-39285714D02*
X137854819Y-38714286D01*
X137854819Y-39000000D02*
X136854819Y-39000000D01*
X136854819Y-39000000D02*
X136997676Y-38904762D01*
X136997676Y-38904762D02*
X137092914Y-38809524D01*
X137092914Y-38809524D02*
X137140533Y-38714286D01*
X98854819Y-72238095D02*
X99664342Y-72238095D01*
X99664342Y-72238095D02*
X99759580Y-72285714D01*
X99759580Y-72285714D02*
X99807200Y-72333333D01*
X99807200Y-72333333D02*
X99854819Y-72428571D01*
X99854819Y-72428571D02*
X99854819Y-72619047D01*
X99854819Y-72619047D02*
X99807200Y-72714285D01*
X99807200Y-72714285D02*
X99759580Y-72761904D01*
X99759580Y-72761904D02*
X99664342Y-72809523D01*
X99664342Y-72809523D02*
X98854819Y-72809523D01*
X98854819Y-73190476D02*
X98854819Y-73857142D01*
X98854819Y-73857142D02*
X99854819Y-73428571D01*
X117854819Y-53761905D02*
X118664342Y-53761905D01*
X118664342Y-53761905D02*
X118759580Y-53809524D01*
X118759580Y-53809524D02*
X118807200Y-53857143D01*
X118807200Y-53857143D02*
X118854819Y-53952381D01*
X118854819Y-53952381D02*
X118854819Y-54142857D01*
X118854819Y-54142857D02*
X118807200Y-54238095D01*
X118807200Y-54238095D02*
X118759580Y-54285714D01*
X118759580Y-54285714D02*
X118664342Y-54333333D01*
X118664342Y-54333333D02*
X117854819Y-54333333D01*
X118854819Y-55333333D02*
X118854819Y-54761905D01*
X118854819Y-55047619D02*
X117854819Y-55047619D01*
X117854819Y-55047619D02*
X117997676Y-54952381D01*
X117997676Y-54952381D02*
X118092914Y-54857143D01*
X118092914Y-54857143D02*
X118140533Y-54761905D01*
X118188152Y-56190476D02*
X118854819Y-56190476D01*
X117807200Y-55952381D02*
X118521485Y-55714286D01*
X118521485Y-55714286D02*
X118521485Y-56333333D01*
X155854819Y-36761905D02*
X156664342Y-36761905D01*
X156664342Y-36761905D02*
X156759580Y-36809524D01*
X156759580Y-36809524D02*
X156807200Y-36857143D01*
X156807200Y-36857143D02*
X156854819Y-36952381D01*
X156854819Y-36952381D02*
X156854819Y-37142857D01*
X156854819Y-37142857D02*
X156807200Y-37238095D01*
X156807200Y-37238095D02*
X156759580Y-37285714D01*
X156759580Y-37285714D02*
X156664342Y-37333333D01*
X156664342Y-37333333D02*
X155854819Y-37333333D01*
X155950057Y-37761905D02*
X155902438Y-37809524D01*
X155902438Y-37809524D02*
X155854819Y-37904762D01*
X155854819Y-37904762D02*
X155854819Y-38142857D01*
X155854819Y-38142857D02*
X155902438Y-38238095D01*
X155902438Y-38238095D02*
X155950057Y-38285714D01*
X155950057Y-38285714D02*
X156045295Y-38333333D01*
X156045295Y-38333333D02*
X156140533Y-38333333D01*
X156140533Y-38333333D02*
X156283390Y-38285714D01*
X156283390Y-38285714D02*
X156854819Y-37714286D01*
X156854819Y-37714286D02*
X156854819Y-38333333D01*
X155854819Y-39238095D02*
X155854819Y-38761905D01*
X155854819Y-38761905D02*
X156331009Y-38714286D01*
X156331009Y-38714286D02*
X156283390Y-38761905D01*
X156283390Y-38761905D02*
X156235771Y-38857143D01*
X156235771Y-38857143D02*
X156235771Y-39095238D01*
X156235771Y-39095238D02*
X156283390Y-39190476D01*
X156283390Y-39190476D02*
X156331009Y-39238095D01*
X156331009Y-39238095D02*
X156426247Y-39285714D01*
X156426247Y-39285714D02*
X156664342Y-39285714D01*
X156664342Y-39285714D02*
X156759580Y-39238095D01*
X156759580Y-39238095D02*
X156807200Y-39190476D01*
X156807200Y-39190476D02*
X156854819Y-39095238D01*
X156854819Y-39095238D02*
X156854819Y-38857143D01*
X156854819Y-38857143D02*
X156807200Y-38761905D01*
X156807200Y-38761905D02*
X156759580Y-38714286D01*
D12*
X107074318Y-100260237D02*
X105804318Y-100260237D01*
X106953365Y-101590714D02*
X107013842Y-101530238D01*
X107013842Y-101530238D02*
X107074318Y-101348809D01*
X107074318Y-101348809D02*
X107074318Y-101227857D01*
X107074318Y-101227857D02*
X107013842Y-101046428D01*
X107013842Y-101046428D02*
X106892889Y-100925476D01*
X106892889Y-100925476D02*
X106771937Y-100864999D01*
X106771937Y-100864999D02*
X106530032Y-100804523D01*
X106530032Y-100804523D02*
X106348603Y-100804523D01*
X106348603Y-100804523D02*
X106106699Y-100864999D01*
X106106699Y-100864999D02*
X105985746Y-100925476D01*
X105985746Y-100925476D02*
X105864794Y-101046428D01*
X105864794Y-101046428D02*
X105804318Y-101227857D01*
X105804318Y-101227857D02*
X105804318Y-101348809D01*
X105804318Y-101348809D02*
X105864794Y-101530238D01*
X105864794Y-101530238D02*
X105925270Y-101590714D01*
X106227651Y-102679285D02*
X107074318Y-102679285D01*
X105743842Y-102376904D02*
X106650984Y-102074523D01*
X106650984Y-102074523D02*
X106650984Y-102860714D01*
D11*
X41854819Y-95761905D02*
X42664342Y-95761905D01*
X42664342Y-95761905D02*
X42759580Y-95809524D01*
X42759580Y-95809524D02*
X42807200Y-95857143D01*
X42807200Y-95857143D02*
X42854819Y-95952381D01*
X42854819Y-95952381D02*
X42854819Y-96142857D01*
X42854819Y-96142857D02*
X42807200Y-96238095D01*
X42807200Y-96238095D02*
X42759580Y-96285714D01*
X42759580Y-96285714D02*
X42664342Y-96333333D01*
X42664342Y-96333333D02*
X41854819Y-96333333D01*
X41950057Y-96761905D02*
X41902438Y-96809524D01*
X41902438Y-96809524D02*
X41854819Y-96904762D01*
X41854819Y-96904762D02*
X41854819Y-97142857D01*
X41854819Y-97142857D02*
X41902438Y-97238095D01*
X41902438Y-97238095D02*
X41950057Y-97285714D01*
X41950057Y-97285714D02*
X42045295Y-97333333D01*
X42045295Y-97333333D02*
X42140533Y-97333333D01*
X42140533Y-97333333D02*
X42283390Y-97285714D01*
X42283390Y-97285714D02*
X42854819Y-96714286D01*
X42854819Y-96714286D02*
X42854819Y-97333333D01*
X41854819Y-97666667D02*
X41854819Y-98285714D01*
X41854819Y-98285714D02*
X42235771Y-97952381D01*
X42235771Y-97952381D02*
X42235771Y-98095238D01*
X42235771Y-98095238D02*
X42283390Y-98190476D01*
X42283390Y-98190476D02*
X42331009Y-98238095D01*
X42331009Y-98238095D02*
X42426247Y-98285714D01*
X42426247Y-98285714D02*
X42664342Y-98285714D01*
X42664342Y-98285714D02*
X42759580Y-98238095D01*
X42759580Y-98238095D02*
X42807200Y-98190476D01*
X42807200Y-98190476D02*
X42854819Y-98095238D01*
X42854819Y-98095238D02*
X42854819Y-97809524D01*
X42854819Y-97809524D02*
X42807200Y-97714286D01*
X42807200Y-97714286D02*
X42759580Y-97666667D01*
X154225367Y-110855188D02*
X154926436Y-111259949D01*
X154926436Y-111259949D02*
X154985105Y-111348808D01*
X154985105Y-111348808D02*
X155002534Y-111413857D01*
X155002534Y-111413857D02*
X154996155Y-111520145D01*
X154996155Y-111520145D02*
X154900917Y-111685102D01*
X154900917Y-111685102D02*
X154812058Y-111743771D01*
X154812058Y-111743771D02*
X154747009Y-111761201D01*
X154747009Y-111761201D02*
X154640721Y-111754821D01*
X154640721Y-111754821D02*
X153939653Y-111350059D01*
X153749177Y-111679974D02*
X153439653Y-112216085D01*
X153439653Y-112216085D02*
X153936234Y-112117886D01*
X153936234Y-112117886D02*
X153864806Y-112241604D01*
X153864806Y-112241604D02*
X153858426Y-112347892D01*
X153858426Y-112347892D02*
X153875856Y-112412940D01*
X153875856Y-112412940D02*
X153934525Y-112501799D01*
X153934525Y-112501799D02*
X154140721Y-112620846D01*
X154140721Y-112620846D02*
X154247009Y-112627226D01*
X154247009Y-112627226D02*
X154312058Y-112609796D01*
X154312058Y-112609796D02*
X154400917Y-112551127D01*
X154400917Y-112551127D02*
X154543774Y-112303691D01*
X154543774Y-112303691D02*
X154550153Y-112197403D01*
X154550153Y-112197403D02*
X154532724Y-112132355D01*
X153331655Y-112593618D02*
X153266607Y-112611048D01*
X153266607Y-112611048D02*
X153177748Y-112669717D01*
X153177748Y-112669717D02*
X153058701Y-112875913D01*
X153058701Y-112875913D02*
X153052321Y-112982202D01*
X153052321Y-112982202D02*
X153069751Y-113047250D01*
X153069751Y-113047250D02*
X153128420Y-113136109D01*
X153128420Y-113136109D02*
X153210898Y-113183728D01*
X153210898Y-113183728D02*
X153358426Y-113213917D01*
X153358426Y-113213917D02*
X154139012Y-113004760D01*
X154139012Y-113004760D02*
X153829488Y-113540871D01*
X139591792Y-69454819D02*
X139925125Y-68978628D01*
X140163220Y-69454819D02*
X140163220Y-68454819D01*
X140163220Y-68454819D02*
X139782268Y-68454819D01*
X139782268Y-68454819D02*
X139687030Y-68502438D01*
X139687030Y-68502438D02*
X139639411Y-68550057D01*
X139639411Y-68550057D02*
X139591792Y-68645295D01*
X139591792Y-68645295D02*
X139591792Y-68788152D01*
X139591792Y-68788152D02*
X139639411Y-68883390D01*
X139639411Y-68883390D02*
X139687030Y-68931009D01*
X139687030Y-68931009D02*
X139782268Y-68978628D01*
X139782268Y-68978628D02*
X140163220Y-68978628D01*
X139163220Y-68931009D02*
X138829887Y-68931009D01*
X138687030Y-69454819D02*
X139163220Y-69454819D01*
X139163220Y-69454819D02*
X139163220Y-68454819D01*
X139163220Y-68454819D02*
X138687030Y-68454819D01*
X138306077Y-69407200D02*
X138163220Y-69454819D01*
X138163220Y-69454819D02*
X137925125Y-69454819D01*
X137925125Y-69454819D02*
X137829887Y-69407200D01*
X137829887Y-69407200D02*
X137782268Y-69359580D01*
X137782268Y-69359580D02*
X137734649Y-69264342D01*
X137734649Y-69264342D02*
X137734649Y-69169104D01*
X137734649Y-69169104D02*
X137782268Y-69073866D01*
X137782268Y-69073866D02*
X137829887Y-69026247D01*
X137829887Y-69026247D02*
X137925125Y-68978628D01*
X137925125Y-68978628D02*
X138115601Y-68931009D01*
X138115601Y-68931009D02*
X138210839Y-68883390D01*
X138210839Y-68883390D02*
X138258458Y-68835771D01*
X138258458Y-68835771D02*
X138306077Y-68740533D01*
X138306077Y-68740533D02*
X138306077Y-68645295D01*
X138306077Y-68645295D02*
X138258458Y-68550057D01*
X138258458Y-68550057D02*
X138210839Y-68502438D01*
X138210839Y-68502438D02*
X138115601Y-68454819D01*
X138115601Y-68454819D02*
X137877506Y-68454819D01*
X137877506Y-68454819D02*
X137734649Y-68502438D01*
X137306077Y-68931009D02*
X136972744Y-68931009D01*
X136829887Y-69454819D02*
X137306077Y-69454819D01*
X137306077Y-69454819D02*
X137306077Y-68454819D01*
X137306077Y-68454819D02*
X136829887Y-68454819D01*
X136544172Y-68454819D02*
X135972744Y-68454819D01*
X136258458Y-69454819D02*
X136258458Y-68454819D01*
X125954819Y-62666667D02*
X124954819Y-62666667D01*
X124954819Y-62666667D02*
X125669104Y-63000000D01*
X125669104Y-63000000D02*
X124954819Y-63333333D01*
X124954819Y-63333333D02*
X125954819Y-63333333D01*
X125859580Y-64380952D02*
X125907200Y-64333333D01*
X125907200Y-64333333D02*
X125954819Y-64190476D01*
X125954819Y-64190476D02*
X125954819Y-64095238D01*
X125954819Y-64095238D02*
X125907200Y-63952381D01*
X125907200Y-63952381D02*
X125811961Y-63857143D01*
X125811961Y-63857143D02*
X125716723Y-63809524D01*
X125716723Y-63809524D02*
X125526247Y-63761905D01*
X125526247Y-63761905D02*
X125383390Y-63761905D01*
X125383390Y-63761905D02*
X125192914Y-63809524D01*
X125192914Y-63809524D02*
X125097676Y-63857143D01*
X125097676Y-63857143D02*
X125002438Y-63952381D01*
X125002438Y-63952381D02*
X124954819Y-64095238D01*
X124954819Y-64095238D02*
X124954819Y-64190476D01*
X124954819Y-64190476D02*
X125002438Y-64333333D01*
X125002438Y-64333333D02*
X125050057Y-64380952D01*
X124954819Y-64809524D02*
X125764342Y-64809524D01*
X125764342Y-64809524D02*
X125859580Y-64857143D01*
X125859580Y-64857143D02*
X125907200Y-64904762D01*
X125907200Y-64904762D02*
X125954819Y-65000000D01*
X125954819Y-65000000D02*
X125954819Y-65190476D01*
X125954819Y-65190476D02*
X125907200Y-65285714D01*
X125907200Y-65285714D02*
X125859580Y-65333333D01*
X125859580Y-65333333D02*
X125764342Y-65380952D01*
X125764342Y-65380952D02*
X124954819Y-65380952D01*
X125954819Y-66380952D02*
X125954819Y-65809524D01*
X125954819Y-66095238D02*
X124954819Y-66095238D01*
X124954819Y-66095238D02*
X125097676Y-66000000D01*
X125097676Y-66000000D02*
X125192914Y-65904762D01*
X125192914Y-65904762D02*
X125240533Y-65809524D01*
X139829887Y-63431009D02*
X139687030Y-63478628D01*
X139687030Y-63478628D02*
X139639411Y-63526247D01*
X139639411Y-63526247D02*
X139591792Y-63621485D01*
X139591792Y-63621485D02*
X139591792Y-63764342D01*
X139591792Y-63764342D02*
X139639411Y-63859580D01*
X139639411Y-63859580D02*
X139687030Y-63907200D01*
X139687030Y-63907200D02*
X139782268Y-63954819D01*
X139782268Y-63954819D02*
X140163220Y-63954819D01*
X140163220Y-63954819D02*
X140163220Y-62954819D01*
X140163220Y-62954819D02*
X139829887Y-62954819D01*
X139829887Y-62954819D02*
X139734649Y-63002438D01*
X139734649Y-63002438D02*
X139687030Y-63050057D01*
X139687030Y-63050057D02*
X139639411Y-63145295D01*
X139639411Y-63145295D02*
X139639411Y-63240533D01*
X139639411Y-63240533D02*
X139687030Y-63335771D01*
X139687030Y-63335771D02*
X139734649Y-63383390D01*
X139734649Y-63383390D02*
X139829887Y-63431009D01*
X139829887Y-63431009D02*
X140163220Y-63431009D01*
X138972744Y-62954819D02*
X138782268Y-62954819D01*
X138782268Y-62954819D02*
X138687030Y-63002438D01*
X138687030Y-63002438D02*
X138591792Y-63097676D01*
X138591792Y-63097676D02*
X138544173Y-63288152D01*
X138544173Y-63288152D02*
X138544173Y-63621485D01*
X138544173Y-63621485D02*
X138591792Y-63811961D01*
X138591792Y-63811961D02*
X138687030Y-63907200D01*
X138687030Y-63907200D02*
X138782268Y-63954819D01*
X138782268Y-63954819D02*
X138972744Y-63954819D01*
X138972744Y-63954819D02*
X139067982Y-63907200D01*
X139067982Y-63907200D02*
X139163220Y-63811961D01*
X139163220Y-63811961D02*
X139210839Y-63621485D01*
X139210839Y-63621485D02*
X139210839Y-63288152D01*
X139210839Y-63288152D02*
X139163220Y-63097676D01*
X139163220Y-63097676D02*
X139067982Y-63002438D01*
X139067982Y-63002438D02*
X138972744Y-62954819D01*
X137925125Y-62954819D02*
X137734649Y-62954819D01*
X137734649Y-62954819D02*
X137639411Y-63002438D01*
X137639411Y-63002438D02*
X137544173Y-63097676D01*
X137544173Y-63097676D02*
X137496554Y-63288152D01*
X137496554Y-63288152D02*
X137496554Y-63621485D01*
X137496554Y-63621485D02*
X137544173Y-63811961D01*
X137544173Y-63811961D02*
X137639411Y-63907200D01*
X137639411Y-63907200D02*
X137734649Y-63954819D01*
X137734649Y-63954819D02*
X137925125Y-63954819D01*
X137925125Y-63954819D02*
X138020363Y-63907200D01*
X138020363Y-63907200D02*
X138115601Y-63811961D01*
X138115601Y-63811961D02*
X138163220Y-63621485D01*
X138163220Y-63621485D02*
X138163220Y-63288152D01*
X138163220Y-63288152D02*
X138115601Y-63097676D01*
X138115601Y-63097676D02*
X138020363Y-63002438D01*
X138020363Y-63002438D02*
X137925125Y-62954819D01*
X137210839Y-62954819D02*
X136639411Y-62954819D01*
X136925125Y-63954819D02*
X136925125Y-62954819D01*
X98854819Y-91238095D02*
X99664342Y-91238095D01*
X99664342Y-91238095D02*
X99759580Y-91285714D01*
X99759580Y-91285714D02*
X99807200Y-91333333D01*
X99807200Y-91333333D02*
X99854819Y-91428571D01*
X99854819Y-91428571D02*
X99854819Y-91619047D01*
X99854819Y-91619047D02*
X99807200Y-91714285D01*
X99807200Y-91714285D02*
X99759580Y-91761904D01*
X99759580Y-91761904D02*
X99664342Y-91809523D01*
X99664342Y-91809523D02*
X98854819Y-91809523D01*
X99188152Y-92714285D02*
X99854819Y-92714285D01*
X98807200Y-92476190D02*
X99521485Y-92238095D01*
X99521485Y-92238095D02*
X99521485Y-92857142D01*
X128359580Y-77333333D02*
X128407200Y-77285714D01*
X128407200Y-77285714D02*
X128454819Y-77142857D01*
X128454819Y-77142857D02*
X128454819Y-77047619D01*
X128454819Y-77047619D02*
X128407200Y-76904762D01*
X128407200Y-76904762D02*
X128311961Y-76809524D01*
X128311961Y-76809524D02*
X128216723Y-76761905D01*
X128216723Y-76761905D02*
X128026247Y-76714286D01*
X128026247Y-76714286D02*
X127883390Y-76714286D01*
X127883390Y-76714286D02*
X127692914Y-76761905D01*
X127692914Y-76761905D02*
X127597676Y-76809524D01*
X127597676Y-76809524D02*
X127502438Y-76904762D01*
X127502438Y-76904762D02*
X127454819Y-77047619D01*
X127454819Y-77047619D02*
X127454819Y-77142857D01*
X127454819Y-77142857D02*
X127502438Y-77285714D01*
X127502438Y-77285714D02*
X127550057Y-77333333D01*
X128454819Y-77809524D02*
X128454819Y-78000000D01*
X128454819Y-78000000D02*
X128407200Y-78095238D01*
X128407200Y-78095238D02*
X128359580Y-78142857D01*
X128359580Y-78142857D02*
X128216723Y-78238095D01*
X128216723Y-78238095D02*
X128026247Y-78285714D01*
X128026247Y-78285714D02*
X127645295Y-78285714D01*
X127645295Y-78285714D02*
X127550057Y-78238095D01*
X127550057Y-78238095D02*
X127502438Y-78190476D01*
X127502438Y-78190476D02*
X127454819Y-78095238D01*
X127454819Y-78095238D02*
X127454819Y-77904762D01*
X127454819Y-77904762D02*
X127502438Y-77809524D01*
X127502438Y-77809524D02*
X127550057Y-77761905D01*
X127550057Y-77761905D02*
X127645295Y-77714286D01*
X127645295Y-77714286D02*
X127883390Y-77714286D01*
X127883390Y-77714286D02*
X127978628Y-77761905D01*
X127978628Y-77761905D02*
X128026247Y-77809524D01*
X128026247Y-77809524D02*
X128073866Y-77904762D01*
X128073866Y-77904762D02*
X128073866Y-78095238D01*
X128073866Y-78095238D02*
X128026247Y-78190476D01*
X128026247Y-78190476D02*
X127978628Y-78238095D01*
X127978628Y-78238095D02*
X127883390Y-78285714D01*
X155854819Y-55761905D02*
X156664342Y-55761905D01*
X156664342Y-55761905D02*
X156759580Y-55809524D01*
X156759580Y-55809524D02*
X156807200Y-55857143D01*
X156807200Y-55857143D02*
X156854819Y-55952381D01*
X156854819Y-55952381D02*
X156854819Y-56142857D01*
X156854819Y-56142857D02*
X156807200Y-56238095D01*
X156807200Y-56238095D02*
X156759580Y-56285714D01*
X156759580Y-56285714D02*
X156664342Y-56333333D01*
X156664342Y-56333333D02*
X155854819Y-56333333D01*
X155950057Y-56761905D02*
X155902438Y-56809524D01*
X155902438Y-56809524D02*
X155854819Y-56904762D01*
X155854819Y-56904762D02*
X155854819Y-57142857D01*
X155854819Y-57142857D02*
X155902438Y-57238095D01*
X155902438Y-57238095D02*
X155950057Y-57285714D01*
X155950057Y-57285714D02*
X156045295Y-57333333D01*
X156045295Y-57333333D02*
X156140533Y-57333333D01*
X156140533Y-57333333D02*
X156283390Y-57285714D01*
X156283390Y-57285714D02*
X156854819Y-56714286D01*
X156854819Y-56714286D02*
X156854819Y-57333333D01*
X155950057Y-57714286D02*
X155902438Y-57761905D01*
X155902438Y-57761905D02*
X155854819Y-57857143D01*
X155854819Y-57857143D02*
X155854819Y-58095238D01*
X155854819Y-58095238D02*
X155902438Y-58190476D01*
X155902438Y-58190476D02*
X155950057Y-58238095D01*
X155950057Y-58238095D02*
X156045295Y-58285714D01*
X156045295Y-58285714D02*
X156140533Y-58285714D01*
X156140533Y-58285714D02*
X156283390Y-58238095D01*
X156283390Y-58238095D02*
X156854819Y-57666667D01*
X156854819Y-57666667D02*
X156854819Y-58285714D01*
X117854819Y-72761905D02*
X118664342Y-72761905D01*
X118664342Y-72761905D02*
X118759580Y-72809524D01*
X118759580Y-72809524D02*
X118807200Y-72857143D01*
X118807200Y-72857143D02*
X118854819Y-72952381D01*
X118854819Y-72952381D02*
X118854819Y-73142857D01*
X118854819Y-73142857D02*
X118807200Y-73238095D01*
X118807200Y-73238095D02*
X118759580Y-73285714D01*
X118759580Y-73285714D02*
X118664342Y-73333333D01*
X118664342Y-73333333D02*
X117854819Y-73333333D01*
X118854819Y-74333333D02*
X118854819Y-73761905D01*
X118854819Y-74047619D02*
X117854819Y-74047619D01*
X117854819Y-74047619D02*
X117997676Y-73952381D01*
X117997676Y-73952381D02*
X118092914Y-73857143D01*
X118092914Y-73857143D02*
X118140533Y-73761905D01*
X118854819Y-75285714D02*
X118854819Y-74714286D01*
X118854819Y-75000000D02*
X117854819Y-75000000D01*
X117854819Y-75000000D02*
X117997676Y-74904762D01*
X117997676Y-74904762D02*
X118092914Y-74809524D01*
X118092914Y-74809524D02*
X118140533Y-74714286D01*
D12*
X107074318Y-43260237D02*
X105804318Y-43260237D01*
X106953365Y-44590714D02*
X107013842Y-44530238D01*
X107013842Y-44530238D02*
X107074318Y-44348809D01*
X107074318Y-44348809D02*
X107074318Y-44227857D01*
X107074318Y-44227857D02*
X107013842Y-44046428D01*
X107013842Y-44046428D02*
X106892889Y-43925476D01*
X106892889Y-43925476D02*
X106771937Y-43864999D01*
X106771937Y-43864999D02*
X106530032Y-43804523D01*
X106530032Y-43804523D02*
X106348603Y-43804523D01*
X106348603Y-43804523D02*
X106106699Y-43864999D01*
X106106699Y-43864999D02*
X105985746Y-43925476D01*
X105985746Y-43925476D02*
X105864794Y-44046428D01*
X105864794Y-44046428D02*
X105804318Y-44227857D01*
X105804318Y-44227857D02*
X105804318Y-44348809D01*
X105804318Y-44348809D02*
X105864794Y-44530238D01*
X105864794Y-44530238D02*
X105925270Y-44590714D01*
X107074318Y-45800238D02*
X107074318Y-45074523D01*
X107074318Y-45437380D02*
X105804318Y-45437380D01*
X105804318Y-45437380D02*
X105985746Y-45316428D01*
X105985746Y-45316428D02*
X106106699Y-45195476D01*
X106106699Y-45195476D02*
X106167175Y-45074523D01*
D11*
X89354819Y-110761905D02*
X90164342Y-110761905D01*
X90164342Y-110761905D02*
X90259580Y-110809524D01*
X90259580Y-110809524D02*
X90307200Y-110857143D01*
X90307200Y-110857143D02*
X90354819Y-110952381D01*
X90354819Y-110952381D02*
X90354819Y-111142857D01*
X90354819Y-111142857D02*
X90307200Y-111238095D01*
X90307200Y-111238095D02*
X90259580Y-111285714D01*
X90259580Y-111285714D02*
X90164342Y-111333333D01*
X90164342Y-111333333D02*
X89354819Y-111333333D01*
X89450057Y-111761905D02*
X89402438Y-111809524D01*
X89402438Y-111809524D02*
X89354819Y-111904762D01*
X89354819Y-111904762D02*
X89354819Y-112142857D01*
X89354819Y-112142857D02*
X89402438Y-112238095D01*
X89402438Y-112238095D02*
X89450057Y-112285714D01*
X89450057Y-112285714D02*
X89545295Y-112333333D01*
X89545295Y-112333333D02*
X89640533Y-112333333D01*
X89640533Y-112333333D02*
X89783390Y-112285714D01*
X89783390Y-112285714D02*
X90354819Y-111714286D01*
X90354819Y-111714286D02*
X90354819Y-112333333D01*
X89354819Y-112952381D02*
X89354819Y-113047619D01*
X89354819Y-113047619D02*
X89402438Y-113142857D01*
X89402438Y-113142857D02*
X89450057Y-113190476D01*
X89450057Y-113190476D02*
X89545295Y-113238095D01*
X89545295Y-113238095D02*
X89735771Y-113285714D01*
X89735771Y-113285714D02*
X89973866Y-113285714D01*
X89973866Y-113285714D02*
X90164342Y-113238095D01*
X90164342Y-113238095D02*
X90259580Y-113190476D01*
X90259580Y-113190476D02*
X90307200Y-113142857D01*
X90307200Y-113142857D02*
X90354819Y-113047619D01*
X90354819Y-113047619D02*
X90354819Y-112952381D01*
X90354819Y-112952381D02*
X90307200Y-112857143D01*
X90307200Y-112857143D02*
X90259580Y-112809524D01*
X90259580Y-112809524D02*
X90164342Y-112761905D01*
X90164342Y-112761905D02*
X89973866Y-112714286D01*
X89973866Y-112714286D02*
X89735771Y-112714286D01*
X89735771Y-112714286D02*
X89545295Y-112761905D01*
X89545295Y-112761905D02*
X89450057Y-112809524D01*
X89450057Y-112809524D02*
X89402438Y-112857143D01*
X89402438Y-112857143D02*
X89354819Y-112952381D01*
X108354819Y-110761905D02*
X109164342Y-110761905D01*
X109164342Y-110761905D02*
X109259580Y-110809524D01*
X109259580Y-110809524D02*
X109307200Y-110857143D01*
X109307200Y-110857143D02*
X109354819Y-110952381D01*
X109354819Y-110952381D02*
X109354819Y-111142857D01*
X109354819Y-111142857D02*
X109307200Y-111238095D01*
X109307200Y-111238095D02*
X109259580Y-111285714D01*
X109259580Y-111285714D02*
X109164342Y-111333333D01*
X109164342Y-111333333D02*
X108354819Y-111333333D01*
X108450057Y-111761905D02*
X108402438Y-111809524D01*
X108402438Y-111809524D02*
X108354819Y-111904762D01*
X108354819Y-111904762D02*
X108354819Y-112142857D01*
X108354819Y-112142857D02*
X108402438Y-112238095D01*
X108402438Y-112238095D02*
X108450057Y-112285714D01*
X108450057Y-112285714D02*
X108545295Y-112333333D01*
X108545295Y-112333333D02*
X108640533Y-112333333D01*
X108640533Y-112333333D02*
X108783390Y-112285714D01*
X108783390Y-112285714D02*
X109354819Y-111714286D01*
X109354819Y-111714286D02*
X109354819Y-112333333D01*
X108688152Y-113190476D02*
X109354819Y-113190476D01*
X108307200Y-112952381D02*
X109021485Y-112714286D01*
X109021485Y-112714286D02*
X109021485Y-113333333D01*
X164359580Y-44833333D02*
X164407200Y-44785714D01*
X164407200Y-44785714D02*
X164454819Y-44642857D01*
X164454819Y-44642857D02*
X164454819Y-44547619D01*
X164454819Y-44547619D02*
X164407200Y-44404762D01*
X164407200Y-44404762D02*
X164311961Y-44309524D01*
X164311961Y-44309524D02*
X164216723Y-44261905D01*
X164216723Y-44261905D02*
X164026247Y-44214286D01*
X164026247Y-44214286D02*
X163883390Y-44214286D01*
X163883390Y-44214286D02*
X163692914Y-44261905D01*
X163692914Y-44261905D02*
X163597676Y-44309524D01*
X163597676Y-44309524D02*
X163502438Y-44404762D01*
X163502438Y-44404762D02*
X163454819Y-44547619D01*
X163454819Y-44547619D02*
X163454819Y-44642857D01*
X163454819Y-44642857D02*
X163502438Y-44785714D01*
X163502438Y-44785714D02*
X163550057Y-44833333D01*
X163550057Y-45214286D02*
X163502438Y-45261905D01*
X163502438Y-45261905D02*
X163454819Y-45357143D01*
X163454819Y-45357143D02*
X163454819Y-45595238D01*
X163454819Y-45595238D02*
X163502438Y-45690476D01*
X163502438Y-45690476D02*
X163550057Y-45738095D01*
X163550057Y-45738095D02*
X163645295Y-45785714D01*
X163645295Y-45785714D02*
X163740533Y-45785714D01*
X163740533Y-45785714D02*
X163883390Y-45738095D01*
X163883390Y-45738095D02*
X164454819Y-45166667D01*
X164454819Y-45166667D02*
X164454819Y-45785714D01*
X79854819Y-91761905D02*
X80664342Y-91761905D01*
X80664342Y-91761905D02*
X80759580Y-91809524D01*
X80759580Y-91809524D02*
X80807200Y-91857143D01*
X80807200Y-91857143D02*
X80854819Y-91952381D01*
X80854819Y-91952381D02*
X80854819Y-92142857D01*
X80854819Y-92142857D02*
X80807200Y-92238095D01*
X80807200Y-92238095D02*
X80759580Y-92285714D01*
X80759580Y-92285714D02*
X80664342Y-92333333D01*
X80664342Y-92333333D02*
X79854819Y-92333333D01*
X79854819Y-92714286D02*
X79854819Y-93333333D01*
X79854819Y-93333333D02*
X80235771Y-93000000D01*
X80235771Y-93000000D02*
X80235771Y-93142857D01*
X80235771Y-93142857D02*
X80283390Y-93238095D01*
X80283390Y-93238095D02*
X80331009Y-93285714D01*
X80331009Y-93285714D02*
X80426247Y-93333333D01*
X80426247Y-93333333D02*
X80664342Y-93333333D01*
X80664342Y-93333333D02*
X80759580Y-93285714D01*
X80759580Y-93285714D02*
X80807200Y-93238095D01*
X80807200Y-93238095D02*
X80854819Y-93142857D01*
X80854819Y-93142857D02*
X80854819Y-92857143D01*
X80854819Y-92857143D02*
X80807200Y-92761905D01*
X80807200Y-92761905D02*
X80759580Y-92714286D01*
X80854819Y-94285714D02*
X80854819Y-93714286D01*
X80854819Y-94000000D02*
X79854819Y-94000000D01*
X79854819Y-94000000D02*
X79997676Y-93904762D01*
X79997676Y-93904762D02*
X80092914Y-93809524D01*
X80092914Y-93809524D02*
X80140533Y-93714286D01*
X123028628Y-74523809D02*
X123504819Y-74523809D01*
X122504819Y-74190476D02*
X123028628Y-74523809D01*
X123028628Y-74523809D02*
X122504819Y-74857142D01*
X123504819Y-75714285D02*
X123504819Y-75142857D01*
X123504819Y-75428571D02*
X122504819Y-75428571D01*
X122504819Y-75428571D02*
X122647676Y-75333333D01*
X122647676Y-75333333D02*
X122742914Y-75238095D01*
X122742914Y-75238095D02*
X122790533Y-75142857D01*
X136854819Y-55761905D02*
X137664342Y-55761905D01*
X137664342Y-55761905D02*
X137759580Y-55809524D01*
X137759580Y-55809524D02*
X137807200Y-55857143D01*
X137807200Y-55857143D02*
X137854819Y-55952381D01*
X137854819Y-55952381D02*
X137854819Y-56142857D01*
X137854819Y-56142857D02*
X137807200Y-56238095D01*
X137807200Y-56238095D02*
X137759580Y-56285714D01*
X137759580Y-56285714D02*
X137664342Y-56333333D01*
X137664342Y-56333333D02*
X136854819Y-56333333D01*
X137854819Y-57333333D02*
X137854819Y-56761905D01*
X137854819Y-57047619D02*
X136854819Y-57047619D01*
X136854819Y-57047619D02*
X136997676Y-56952381D01*
X136997676Y-56952381D02*
X137092914Y-56857143D01*
X137092914Y-56857143D02*
X137140533Y-56761905D01*
X137283390Y-57904762D02*
X137235771Y-57809524D01*
X137235771Y-57809524D02*
X137188152Y-57761905D01*
X137188152Y-57761905D02*
X137092914Y-57714286D01*
X137092914Y-57714286D02*
X137045295Y-57714286D01*
X137045295Y-57714286D02*
X136950057Y-57761905D01*
X136950057Y-57761905D02*
X136902438Y-57809524D01*
X136902438Y-57809524D02*
X136854819Y-57904762D01*
X136854819Y-57904762D02*
X136854819Y-58095238D01*
X136854819Y-58095238D02*
X136902438Y-58190476D01*
X136902438Y-58190476D02*
X136950057Y-58238095D01*
X136950057Y-58238095D02*
X137045295Y-58285714D01*
X137045295Y-58285714D02*
X137092914Y-58285714D01*
X137092914Y-58285714D02*
X137188152Y-58238095D01*
X137188152Y-58238095D02*
X137235771Y-58190476D01*
X137235771Y-58190476D02*
X137283390Y-58095238D01*
X137283390Y-58095238D02*
X137283390Y-57904762D01*
X137283390Y-57904762D02*
X137331009Y-57809524D01*
X137331009Y-57809524D02*
X137378628Y-57761905D01*
X137378628Y-57761905D02*
X137473866Y-57714286D01*
X137473866Y-57714286D02*
X137664342Y-57714286D01*
X137664342Y-57714286D02*
X137759580Y-57761905D01*
X137759580Y-57761905D02*
X137807200Y-57809524D01*
X137807200Y-57809524D02*
X137854819Y-57904762D01*
X137854819Y-57904762D02*
X137854819Y-58095238D01*
X137854819Y-58095238D02*
X137807200Y-58190476D01*
X137807200Y-58190476D02*
X137759580Y-58238095D01*
X137759580Y-58238095D02*
X137664342Y-58285714D01*
X137664342Y-58285714D02*
X137473866Y-58285714D01*
X137473866Y-58285714D02*
X137378628Y-58238095D01*
X137378628Y-58238095D02*
X137331009Y-58190476D01*
X137331009Y-58190476D02*
X137283390Y-58095238D01*
X155854819Y-74761905D02*
X156664342Y-74761905D01*
X156664342Y-74761905D02*
X156759580Y-74809524D01*
X156759580Y-74809524D02*
X156807200Y-74857143D01*
X156807200Y-74857143D02*
X156854819Y-74952381D01*
X156854819Y-74952381D02*
X156854819Y-75142857D01*
X156854819Y-75142857D02*
X156807200Y-75238095D01*
X156807200Y-75238095D02*
X156759580Y-75285714D01*
X156759580Y-75285714D02*
X156664342Y-75333333D01*
X156664342Y-75333333D02*
X155854819Y-75333333D01*
X156854819Y-76333333D02*
X156854819Y-75761905D01*
X156854819Y-76047619D02*
X155854819Y-76047619D01*
X155854819Y-76047619D02*
X155997676Y-75952381D01*
X155997676Y-75952381D02*
X156092914Y-75857143D01*
X156092914Y-75857143D02*
X156140533Y-75761905D01*
X156854819Y-76809524D02*
X156854819Y-77000000D01*
X156854819Y-77000000D02*
X156807200Y-77095238D01*
X156807200Y-77095238D02*
X156759580Y-77142857D01*
X156759580Y-77142857D02*
X156616723Y-77238095D01*
X156616723Y-77238095D02*
X156426247Y-77285714D01*
X156426247Y-77285714D02*
X156045295Y-77285714D01*
X156045295Y-77285714D02*
X155950057Y-77238095D01*
X155950057Y-77238095D02*
X155902438Y-77190476D01*
X155902438Y-77190476D02*
X155854819Y-77095238D01*
X155854819Y-77095238D02*
X155854819Y-76904762D01*
X155854819Y-76904762D02*
X155902438Y-76809524D01*
X155902438Y-76809524D02*
X155950057Y-76761905D01*
X155950057Y-76761905D02*
X156045295Y-76714286D01*
X156045295Y-76714286D02*
X156283390Y-76714286D01*
X156283390Y-76714286D02*
X156378628Y-76761905D01*
X156378628Y-76761905D02*
X156426247Y-76809524D01*
X156426247Y-76809524D02*
X156473866Y-76904762D01*
X156473866Y-76904762D02*
X156473866Y-77095238D01*
X156473866Y-77095238D02*
X156426247Y-77190476D01*
X156426247Y-77190476D02*
X156378628Y-77238095D01*
X156378628Y-77238095D02*
X156283390Y-77285714D01*
X117854819Y-34761905D02*
X118664342Y-34761905D01*
X118664342Y-34761905D02*
X118759580Y-34809524D01*
X118759580Y-34809524D02*
X118807200Y-34857143D01*
X118807200Y-34857143D02*
X118854819Y-34952381D01*
X118854819Y-34952381D02*
X118854819Y-35142857D01*
X118854819Y-35142857D02*
X118807200Y-35238095D01*
X118807200Y-35238095D02*
X118759580Y-35285714D01*
X118759580Y-35285714D02*
X118664342Y-35333333D01*
X118664342Y-35333333D02*
X117854819Y-35333333D01*
X118854819Y-36333333D02*
X118854819Y-35761905D01*
X118854819Y-36047619D02*
X117854819Y-36047619D01*
X117854819Y-36047619D02*
X117997676Y-35952381D01*
X117997676Y-35952381D02*
X118092914Y-35857143D01*
X118092914Y-35857143D02*
X118140533Y-35761905D01*
X117854819Y-36666667D02*
X117854819Y-37333333D01*
X117854819Y-37333333D02*
X118854819Y-36904762D01*
X60854819Y-94761905D02*
X61664342Y-94761905D01*
X61664342Y-94761905D02*
X61759580Y-94809524D01*
X61759580Y-94809524D02*
X61807200Y-94857143D01*
X61807200Y-94857143D02*
X61854819Y-94952381D01*
X61854819Y-94952381D02*
X61854819Y-95142857D01*
X61854819Y-95142857D02*
X61807200Y-95238095D01*
X61807200Y-95238095D02*
X61759580Y-95285714D01*
X61759580Y-95285714D02*
X61664342Y-95333333D01*
X61664342Y-95333333D02*
X60854819Y-95333333D01*
X60950057Y-95761905D02*
X60902438Y-95809524D01*
X60902438Y-95809524D02*
X60854819Y-95904762D01*
X60854819Y-95904762D02*
X60854819Y-96142857D01*
X60854819Y-96142857D02*
X60902438Y-96238095D01*
X60902438Y-96238095D02*
X60950057Y-96285714D01*
X60950057Y-96285714D02*
X61045295Y-96333333D01*
X61045295Y-96333333D02*
X61140533Y-96333333D01*
X61140533Y-96333333D02*
X61283390Y-96285714D01*
X61283390Y-96285714D02*
X61854819Y-95714286D01*
X61854819Y-95714286D02*
X61854819Y-96333333D01*
X60854819Y-96666667D02*
X60854819Y-97333333D01*
X60854819Y-97333333D02*
X61854819Y-96904762D01*
D12*
X107074318Y-81260237D02*
X105804318Y-81260237D01*
X106953365Y-82590714D02*
X107013842Y-82530238D01*
X107013842Y-82530238D02*
X107074318Y-82348809D01*
X107074318Y-82348809D02*
X107074318Y-82227857D01*
X107074318Y-82227857D02*
X107013842Y-82046428D01*
X107013842Y-82046428D02*
X106892889Y-81925476D01*
X106892889Y-81925476D02*
X106771937Y-81864999D01*
X106771937Y-81864999D02*
X106530032Y-81804523D01*
X106530032Y-81804523D02*
X106348603Y-81804523D01*
X106348603Y-81804523D02*
X106106699Y-81864999D01*
X106106699Y-81864999D02*
X105985746Y-81925476D01*
X105985746Y-81925476D02*
X105864794Y-82046428D01*
X105864794Y-82046428D02*
X105804318Y-82227857D01*
X105804318Y-82227857D02*
X105804318Y-82348809D01*
X105804318Y-82348809D02*
X105864794Y-82530238D01*
X105864794Y-82530238D02*
X105925270Y-82590714D01*
X105804318Y-83014047D02*
X105804318Y-83800238D01*
X105804318Y-83800238D02*
X106288127Y-83376904D01*
X106288127Y-83376904D02*
X106288127Y-83558333D01*
X106288127Y-83558333D02*
X106348603Y-83679285D01*
X106348603Y-83679285D02*
X106409080Y-83739761D01*
X106409080Y-83739761D02*
X106530032Y-83800238D01*
X106530032Y-83800238D02*
X106832413Y-83800238D01*
X106832413Y-83800238D02*
X106953365Y-83739761D01*
X106953365Y-83739761D02*
X107013842Y-83679285D01*
X107013842Y-83679285D02*
X107074318Y-83558333D01*
X107074318Y-83558333D02*
X107074318Y-83195476D01*
X107074318Y-83195476D02*
X107013842Y-83074523D01*
X107013842Y-83074523D02*
X106953365Y-83014047D01*
D11*
X145238094Y-35854819D02*
X145238094Y-34854819D01*
X145238094Y-34854819D02*
X144999999Y-34854819D01*
X144999999Y-34854819D02*
X144857142Y-34902438D01*
X144857142Y-34902438D02*
X144761904Y-34997676D01*
X144761904Y-34997676D02*
X144714285Y-35092914D01*
X144714285Y-35092914D02*
X144666666Y-35283390D01*
X144666666Y-35283390D02*
X144666666Y-35426247D01*
X144666666Y-35426247D02*
X144714285Y-35616723D01*
X144714285Y-35616723D02*
X144761904Y-35711961D01*
X144761904Y-35711961D02*
X144857142Y-35807200D01*
X144857142Y-35807200D02*
X144999999Y-35854819D01*
X144999999Y-35854819D02*
X145238094Y-35854819D01*
X143714285Y-35854819D02*
X144285713Y-35854819D01*
X143999999Y-35854819D02*
X143999999Y-34854819D01*
X143999999Y-34854819D02*
X144095237Y-34997676D01*
X144095237Y-34997676D02*
X144190475Y-35092914D01*
X144190475Y-35092914D02*
X144285713Y-35140533D01*
X141666666Y-27454819D02*
X141999999Y-26978628D01*
X142238094Y-27454819D02*
X142238094Y-26454819D01*
X142238094Y-26454819D02*
X141857142Y-26454819D01*
X141857142Y-26454819D02*
X141761904Y-26502438D01*
X141761904Y-26502438D02*
X141714285Y-26550057D01*
X141714285Y-26550057D02*
X141666666Y-26645295D01*
X141666666Y-26645295D02*
X141666666Y-26788152D01*
X141666666Y-26788152D02*
X141714285Y-26883390D01*
X141714285Y-26883390D02*
X141761904Y-26931009D01*
X141761904Y-26931009D02*
X141857142Y-26978628D01*
X141857142Y-26978628D02*
X142238094Y-26978628D01*
X140761904Y-26454819D02*
X141238094Y-26454819D01*
X141238094Y-26454819D02*
X141285713Y-26931009D01*
X141285713Y-26931009D02*
X141238094Y-26883390D01*
X141238094Y-26883390D02*
X141142856Y-26835771D01*
X141142856Y-26835771D02*
X140904761Y-26835771D01*
X140904761Y-26835771D02*
X140809523Y-26883390D01*
X140809523Y-26883390D02*
X140761904Y-26931009D01*
X140761904Y-26931009D02*
X140714285Y-27026247D01*
X140714285Y-27026247D02*
X140714285Y-27264342D01*
X140714285Y-27264342D02*
X140761904Y-27359580D01*
X140761904Y-27359580D02*
X140809523Y-27407200D01*
X140809523Y-27407200D02*
X140904761Y-27454819D01*
X140904761Y-27454819D02*
X141142856Y-27454819D01*
X141142856Y-27454819D02*
X141238094Y-27407200D01*
X141238094Y-27407200D02*
X141285713Y-27359580D01*
X41854819Y-76761905D02*
X42664342Y-76761905D01*
X42664342Y-76761905D02*
X42759580Y-76809524D01*
X42759580Y-76809524D02*
X42807200Y-76857143D01*
X42807200Y-76857143D02*
X42854819Y-76952381D01*
X42854819Y-76952381D02*
X42854819Y-77142857D01*
X42854819Y-77142857D02*
X42807200Y-77238095D01*
X42807200Y-77238095D02*
X42759580Y-77285714D01*
X42759580Y-77285714D02*
X42664342Y-77333333D01*
X42664342Y-77333333D02*
X41854819Y-77333333D01*
X41950057Y-77761905D02*
X41902438Y-77809524D01*
X41902438Y-77809524D02*
X41854819Y-77904762D01*
X41854819Y-77904762D02*
X41854819Y-78142857D01*
X41854819Y-78142857D02*
X41902438Y-78238095D01*
X41902438Y-78238095D02*
X41950057Y-78285714D01*
X41950057Y-78285714D02*
X42045295Y-78333333D01*
X42045295Y-78333333D02*
X42140533Y-78333333D01*
X42140533Y-78333333D02*
X42283390Y-78285714D01*
X42283390Y-78285714D02*
X42854819Y-77714286D01*
X42854819Y-77714286D02*
X42854819Y-78333333D01*
X41854819Y-79190476D02*
X41854819Y-79000000D01*
X41854819Y-79000000D02*
X41902438Y-78904762D01*
X41902438Y-78904762D02*
X41950057Y-78857143D01*
X41950057Y-78857143D02*
X42092914Y-78761905D01*
X42092914Y-78761905D02*
X42283390Y-78714286D01*
X42283390Y-78714286D02*
X42664342Y-78714286D01*
X42664342Y-78714286D02*
X42759580Y-78761905D01*
X42759580Y-78761905D02*
X42807200Y-78809524D01*
X42807200Y-78809524D02*
X42854819Y-78904762D01*
X42854819Y-78904762D02*
X42854819Y-79095238D01*
X42854819Y-79095238D02*
X42807200Y-79190476D01*
X42807200Y-79190476D02*
X42759580Y-79238095D01*
X42759580Y-79238095D02*
X42664342Y-79285714D01*
X42664342Y-79285714D02*
X42426247Y-79285714D01*
X42426247Y-79285714D02*
X42331009Y-79238095D01*
X42331009Y-79238095D02*
X42283390Y-79190476D01*
X42283390Y-79190476D02*
X42235771Y-79095238D01*
X42235771Y-79095238D02*
X42235771Y-78904762D01*
X42235771Y-78904762D02*
X42283390Y-78809524D01*
X42283390Y-78809524D02*
X42331009Y-78761905D01*
X42331009Y-78761905D02*
X42426247Y-78714286D01*
D12*
X107074318Y-62260237D02*
X105804318Y-62260237D01*
X106953365Y-63590714D02*
X107013842Y-63530238D01*
X107013842Y-63530238D02*
X107074318Y-63348809D01*
X107074318Y-63348809D02*
X107074318Y-63227857D01*
X107074318Y-63227857D02*
X107013842Y-63046428D01*
X107013842Y-63046428D02*
X106892889Y-62925476D01*
X106892889Y-62925476D02*
X106771937Y-62864999D01*
X106771937Y-62864999D02*
X106530032Y-62804523D01*
X106530032Y-62804523D02*
X106348603Y-62804523D01*
X106348603Y-62804523D02*
X106106699Y-62864999D01*
X106106699Y-62864999D02*
X105985746Y-62925476D01*
X105985746Y-62925476D02*
X105864794Y-63046428D01*
X105864794Y-63046428D02*
X105804318Y-63227857D01*
X105804318Y-63227857D02*
X105804318Y-63348809D01*
X105804318Y-63348809D02*
X105864794Y-63530238D01*
X105864794Y-63530238D02*
X105925270Y-63590714D01*
X105925270Y-64074523D02*
X105864794Y-64134999D01*
X105864794Y-64134999D02*
X105804318Y-64255952D01*
X105804318Y-64255952D02*
X105804318Y-64558333D01*
X105804318Y-64558333D02*
X105864794Y-64679285D01*
X105864794Y-64679285D02*
X105925270Y-64739761D01*
X105925270Y-64739761D02*
X106046222Y-64800238D01*
X106046222Y-64800238D02*
X106167175Y-64800238D01*
X106167175Y-64800238D02*
X106348603Y-64739761D01*
X106348603Y-64739761D02*
X107074318Y-64014047D01*
X107074318Y-64014047D02*
X107074318Y-64800238D01*
D11*
X117854819Y-92238095D02*
X118664342Y-92238095D01*
X118664342Y-92238095D02*
X118759580Y-92285714D01*
X118759580Y-92285714D02*
X118807200Y-92333333D01*
X118807200Y-92333333D02*
X118854819Y-92428571D01*
X118854819Y-92428571D02*
X118854819Y-92619047D01*
X118854819Y-92619047D02*
X118807200Y-92714285D01*
X118807200Y-92714285D02*
X118759580Y-92761904D01*
X118759580Y-92761904D02*
X118664342Y-92809523D01*
X118664342Y-92809523D02*
X117854819Y-92809523D01*
X118283390Y-93428571D02*
X118235771Y-93333333D01*
X118235771Y-93333333D02*
X118188152Y-93285714D01*
X118188152Y-93285714D02*
X118092914Y-93238095D01*
X118092914Y-93238095D02*
X118045295Y-93238095D01*
X118045295Y-93238095D02*
X117950057Y-93285714D01*
X117950057Y-93285714D02*
X117902438Y-93333333D01*
X117902438Y-93333333D02*
X117854819Y-93428571D01*
X117854819Y-93428571D02*
X117854819Y-93619047D01*
X117854819Y-93619047D02*
X117902438Y-93714285D01*
X117902438Y-93714285D02*
X117950057Y-93761904D01*
X117950057Y-93761904D02*
X118045295Y-93809523D01*
X118045295Y-93809523D02*
X118092914Y-93809523D01*
X118092914Y-93809523D02*
X118188152Y-93761904D01*
X118188152Y-93761904D02*
X118235771Y-93714285D01*
X118235771Y-93714285D02*
X118283390Y-93619047D01*
X118283390Y-93619047D02*
X118283390Y-93428571D01*
X118283390Y-93428571D02*
X118331009Y-93333333D01*
X118331009Y-93333333D02*
X118378628Y-93285714D01*
X118378628Y-93285714D02*
X118473866Y-93238095D01*
X118473866Y-93238095D02*
X118664342Y-93238095D01*
X118664342Y-93238095D02*
X118759580Y-93285714D01*
X118759580Y-93285714D02*
X118807200Y-93333333D01*
X118807200Y-93333333D02*
X118854819Y-93428571D01*
X118854819Y-93428571D02*
X118854819Y-93619047D01*
X118854819Y-93619047D02*
X118807200Y-93714285D01*
X118807200Y-93714285D02*
X118759580Y-93761904D01*
X118759580Y-93761904D02*
X118664342Y-93809523D01*
X118664342Y-93809523D02*
X118473866Y-93809523D01*
X118473866Y-93809523D02*
X118378628Y-93761904D01*
X118378628Y-93761904D02*
X118331009Y-93714285D01*
X118331009Y-93714285D02*
X118283390Y-93619047D01*
X136854819Y-74761905D02*
X137664342Y-74761905D01*
X137664342Y-74761905D02*
X137759580Y-74809524D01*
X137759580Y-74809524D02*
X137807200Y-74857143D01*
X137807200Y-74857143D02*
X137854819Y-74952381D01*
X137854819Y-74952381D02*
X137854819Y-75142857D01*
X137854819Y-75142857D02*
X137807200Y-75238095D01*
X137807200Y-75238095D02*
X137759580Y-75285714D01*
X137759580Y-75285714D02*
X137664342Y-75333333D01*
X137664342Y-75333333D02*
X136854819Y-75333333D01*
X137854819Y-76333333D02*
X137854819Y-75761905D01*
X137854819Y-76047619D02*
X136854819Y-76047619D01*
X136854819Y-76047619D02*
X136997676Y-75952381D01*
X136997676Y-75952381D02*
X137092914Y-75857143D01*
X137092914Y-75857143D02*
X137140533Y-75761905D01*
X136854819Y-77238095D02*
X136854819Y-76761905D01*
X136854819Y-76761905D02*
X137331009Y-76714286D01*
X137331009Y-76714286D02*
X137283390Y-76761905D01*
X137283390Y-76761905D02*
X137235771Y-76857143D01*
X137235771Y-76857143D02*
X137235771Y-77095238D01*
X137235771Y-77095238D02*
X137283390Y-77190476D01*
X137283390Y-77190476D02*
X137331009Y-77238095D01*
X137331009Y-77238095D02*
X137426247Y-77285714D01*
X137426247Y-77285714D02*
X137664342Y-77285714D01*
X137664342Y-77285714D02*
X137759580Y-77238095D01*
X137759580Y-77238095D02*
X137807200Y-77190476D01*
X137807200Y-77190476D02*
X137854819Y-77095238D01*
X137854819Y-77095238D02*
X137854819Y-76857143D01*
X137854819Y-76857143D02*
X137807200Y-76761905D01*
X137807200Y-76761905D02*
X137759580Y-76714286D01*
X79854819Y-35238095D02*
X80664342Y-35238095D01*
X80664342Y-35238095D02*
X80759580Y-35285714D01*
X80759580Y-35285714D02*
X80807200Y-35333333D01*
X80807200Y-35333333D02*
X80854819Y-35428571D01*
X80854819Y-35428571D02*
X80854819Y-35619047D01*
X80854819Y-35619047D02*
X80807200Y-35714285D01*
X80807200Y-35714285D02*
X80759580Y-35761904D01*
X80759580Y-35761904D02*
X80664342Y-35809523D01*
X80664342Y-35809523D02*
X79854819Y-35809523D01*
X80854819Y-36333333D02*
X80854819Y-36523809D01*
X80854819Y-36523809D02*
X80807200Y-36619047D01*
X80807200Y-36619047D02*
X80759580Y-36666666D01*
X80759580Y-36666666D02*
X80616723Y-36761904D01*
X80616723Y-36761904D02*
X80426247Y-36809523D01*
X80426247Y-36809523D02*
X80045295Y-36809523D01*
X80045295Y-36809523D02*
X79950057Y-36761904D01*
X79950057Y-36761904D02*
X79902438Y-36714285D01*
X79902438Y-36714285D02*
X79854819Y-36619047D01*
X79854819Y-36619047D02*
X79854819Y-36428571D01*
X79854819Y-36428571D02*
X79902438Y-36333333D01*
X79902438Y-36333333D02*
X79950057Y-36285714D01*
X79950057Y-36285714D02*
X80045295Y-36238095D01*
X80045295Y-36238095D02*
X80283390Y-36238095D01*
X80283390Y-36238095D02*
X80378628Y-36285714D01*
X80378628Y-36285714D02*
X80426247Y-36333333D01*
X80426247Y-36333333D02*
X80473866Y-36428571D01*
X80473866Y-36428571D02*
X80473866Y-36619047D01*
X80473866Y-36619047D02*
X80426247Y-36714285D01*
X80426247Y-36714285D02*
X80378628Y-36761904D01*
X80378628Y-36761904D02*
X80283390Y-36809523D01*
X148027254Y-55907200D02*
X147884397Y-55954819D01*
X147884397Y-55954819D02*
X147646302Y-55954819D01*
X147646302Y-55954819D02*
X147551064Y-55907200D01*
X147551064Y-55907200D02*
X147503445Y-55859580D01*
X147503445Y-55859580D02*
X147455826Y-55764342D01*
X147455826Y-55764342D02*
X147455826Y-55669104D01*
X147455826Y-55669104D02*
X147503445Y-55573866D01*
X147503445Y-55573866D02*
X147551064Y-55526247D01*
X147551064Y-55526247D02*
X147646302Y-55478628D01*
X147646302Y-55478628D02*
X147836778Y-55431009D01*
X147836778Y-55431009D02*
X147932016Y-55383390D01*
X147932016Y-55383390D02*
X147979635Y-55335771D01*
X147979635Y-55335771D02*
X148027254Y-55240533D01*
X148027254Y-55240533D02*
X148027254Y-55145295D01*
X148027254Y-55145295D02*
X147979635Y-55050057D01*
X147979635Y-55050057D02*
X147932016Y-55002438D01*
X147932016Y-55002438D02*
X147836778Y-54954819D01*
X147836778Y-54954819D02*
X147598683Y-54954819D01*
X147598683Y-54954819D02*
X147455826Y-55002438D01*
X147122492Y-54954819D02*
X146884397Y-55954819D01*
X146884397Y-55954819D02*
X146693921Y-55240533D01*
X146693921Y-55240533D02*
X146503445Y-55954819D01*
X146503445Y-55954819D02*
X146265350Y-54954819D01*
X145884397Y-55954819D02*
X145884397Y-54954819D01*
X145884397Y-54954819D02*
X145646302Y-54954819D01*
X145646302Y-54954819D02*
X145503445Y-55002438D01*
X145503445Y-55002438D02*
X145408207Y-55097676D01*
X145408207Y-55097676D02*
X145360588Y-55192914D01*
X145360588Y-55192914D02*
X145312969Y-55383390D01*
X145312969Y-55383390D02*
X145312969Y-55526247D01*
X145312969Y-55526247D02*
X145360588Y-55716723D01*
X145360588Y-55716723D02*
X145408207Y-55811961D01*
X145408207Y-55811961D02*
X145503445Y-55907200D01*
X145503445Y-55907200D02*
X145646302Y-55954819D01*
X145646302Y-55954819D02*
X145884397Y-55954819D01*
X144884397Y-55954819D02*
X144884397Y-54954819D01*
X144217731Y-54954819D02*
X144027255Y-54954819D01*
X144027255Y-54954819D02*
X143932017Y-55002438D01*
X143932017Y-55002438D02*
X143836779Y-55097676D01*
X143836779Y-55097676D02*
X143789160Y-55288152D01*
X143789160Y-55288152D02*
X143789160Y-55621485D01*
X143789160Y-55621485D02*
X143836779Y-55811961D01*
X143836779Y-55811961D02*
X143932017Y-55907200D01*
X143932017Y-55907200D02*
X144027255Y-55954819D01*
X144027255Y-55954819D02*
X144217731Y-55954819D01*
X144217731Y-55954819D02*
X144312969Y-55907200D01*
X144312969Y-55907200D02*
X144408207Y-55811961D01*
X144408207Y-55811961D02*
X144455826Y-55621485D01*
X144455826Y-55621485D02*
X144455826Y-55288152D01*
X144455826Y-55288152D02*
X144408207Y-55097676D01*
X144408207Y-55097676D02*
X144312969Y-55002438D01*
X144312969Y-55002438D02*
X144217731Y-54954819D01*
X98854819Y-52761905D02*
X99664342Y-52761905D01*
X99664342Y-52761905D02*
X99759580Y-52809524D01*
X99759580Y-52809524D02*
X99807200Y-52857143D01*
X99807200Y-52857143D02*
X99854819Y-52952381D01*
X99854819Y-52952381D02*
X99854819Y-53142857D01*
X99854819Y-53142857D02*
X99807200Y-53238095D01*
X99807200Y-53238095D02*
X99759580Y-53285714D01*
X99759580Y-53285714D02*
X99664342Y-53333333D01*
X99664342Y-53333333D02*
X98854819Y-53333333D01*
X99854819Y-54333333D02*
X99854819Y-53761905D01*
X99854819Y-54047619D02*
X98854819Y-54047619D01*
X98854819Y-54047619D02*
X98997676Y-53952381D01*
X98997676Y-53952381D02*
X99092914Y-53857143D01*
X99092914Y-53857143D02*
X99140533Y-53761905D01*
X98854819Y-54952381D02*
X98854819Y-55047619D01*
X98854819Y-55047619D02*
X98902438Y-55142857D01*
X98902438Y-55142857D02*
X98950057Y-55190476D01*
X98950057Y-55190476D02*
X99045295Y-55238095D01*
X99045295Y-55238095D02*
X99235771Y-55285714D01*
X99235771Y-55285714D02*
X99473866Y-55285714D01*
X99473866Y-55285714D02*
X99664342Y-55238095D01*
X99664342Y-55238095D02*
X99759580Y-55190476D01*
X99759580Y-55190476D02*
X99807200Y-55142857D01*
X99807200Y-55142857D02*
X99854819Y-55047619D01*
X99854819Y-55047619D02*
X99854819Y-54952381D01*
X99854819Y-54952381D02*
X99807200Y-54857143D01*
X99807200Y-54857143D02*
X99759580Y-54809524D01*
X99759580Y-54809524D02*
X99664342Y-54761905D01*
X99664342Y-54761905D02*
X99473866Y-54714286D01*
X99473866Y-54714286D02*
X99235771Y-54714286D01*
X99235771Y-54714286D02*
X99045295Y-54761905D01*
X99045295Y-54761905D02*
X98950057Y-54809524D01*
X98950057Y-54809524D02*
X98902438Y-54857143D01*
X98902438Y-54857143D02*
X98854819Y-54952381D01*
X117166666Y-60929580D02*
X117214285Y-60977200D01*
X117214285Y-60977200D02*
X117357142Y-61024819D01*
X117357142Y-61024819D02*
X117452380Y-61024819D01*
X117452380Y-61024819D02*
X117595237Y-60977200D01*
X117595237Y-60977200D02*
X117690475Y-60881961D01*
X117690475Y-60881961D02*
X117738094Y-60786723D01*
X117738094Y-60786723D02*
X117785713Y-60596247D01*
X117785713Y-60596247D02*
X117785713Y-60453390D01*
X117785713Y-60453390D02*
X117738094Y-60262914D01*
X117738094Y-60262914D02*
X117690475Y-60167676D01*
X117690475Y-60167676D02*
X117595237Y-60072438D01*
X117595237Y-60072438D02*
X117452380Y-60024819D01*
X117452380Y-60024819D02*
X117357142Y-60024819D01*
X117357142Y-60024819D02*
X117214285Y-60072438D01*
X117214285Y-60072438D02*
X117166666Y-60120057D01*
X116309523Y-60024819D02*
X116499999Y-60024819D01*
X116499999Y-60024819D02*
X116595237Y-60072438D01*
X116595237Y-60072438D02*
X116642856Y-60120057D01*
X116642856Y-60120057D02*
X116738094Y-60262914D01*
X116738094Y-60262914D02*
X116785713Y-60453390D01*
X116785713Y-60453390D02*
X116785713Y-60834342D01*
X116785713Y-60834342D02*
X116738094Y-60929580D01*
X116738094Y-60929580D02*
X116690475Y-60977200D01*
X116690475Y-60977200D02*
X116595237Y-61024819D01*
X116595237Y-61024819D02*
X116404761Y-61024819D01*
X116404761Y-61024819D02*
X116309523Y-60977200D01*
X116309523Y-60977200D02*
X116261904Y-60929580D01*
X116261904Y-60929580D02*
X116214285Y-60834342D01*
X116214285Y-60834342D02*
X116214285Y-60596247D01*
X116214285Y-60596247D02*
X116261904Y-60501009D01*
X116261904Y-60501009D02*
X116309523Y-60453390D01*
X116309523Y-60453390D02*
X116404761Y-60405771D01*
X116404761Y-60405771D02*
X116595237Y-60405771D01*
X116595237Y-60405771D02*
X116690475Y-60453390D01*
X116690475Y-60453390D02*
X116738094Y-60501009D01*
X116738094Y-60501009D02*
X116785713Y-60596247D01*
X60854819Y-57238095D02*
X61664342Y-57238095D01*
X61664342Y-57238095D02*
X61759580Y-57285714D01*
X61759580Y-57285714D02*
X61807200Y-57333333D01*
X61807200Y-57333333D02*
X61854819Y-57428571D01*
X61854819Y-57428571D02*
X61854819Y-57619047D01*
X61854819Y-57619047D02*
X61807200Y-57714285D01*
X61807200Y-57714285D02*
X61759580Y-57761904D01*
X61759580Y-57761904D02*
X61664342Y-57809523D01*
X61664342Y-57809523D02*
X60854819Y-57809523D01*
X60950057Y-58238095D02*
X60902438Y-58285714D01*
X60902438Y-58285714D02*
X60854819Y-58380952D01*
X60854819Y-58380952D02*
X60854819Y-58619047D01*
X60854819Y-58619047D02*
X60902438Y-58714285D01*
X60902438Y-58714285D02*
X60950057Y-58761904D01*
X60950057Y-58761904D02*
X61045295Y-58809523D01*
X61045295Y-58809523D02*
X61140533Y-58809523D01*
X61140533Y-58809523D02*
X61283390Y-58761904D01*
X61283390Y-58761904D02*
X61854819Y-58190476D01*
X61854819Y-58190476D02*
X61854819Y-58809523D01*
X98854819Y-33761905D02*
X99664342Y-33761905D01*
X99664342Y-33761905D02*
X99759580Y-33809524D01*
X99759580Y-33809524D02*
X99807200Y-33857143D01*
X99807200Y-33857143D02*
X99854819Y-33952381D01*
X99854819Y-33952381D02*
X99854819Y-34142857D01*
X99854819Y-34142857D02*
X99807200Y-34238095D01*
X99807200Y-34238095D02*
X99759580Y-34285714D01*
X99759580Y-34285714D02*
X99664342Y-34333333D01*
X99664342Y-34333333D02*
X98854819Y-34333333D01*
X99854819Y-35333333D02*
X99854819Y-34761905D01*
X99854819Y-35047619D02*
X98854819Y-35047619D01*
X98854819Y-35047619D02*
X98997676Y-34952381D01*
X98997676Y-34952381D02*
X99092914Y-34857143D01*
X99092914Y-34857143D02*
X99140533Y-34761905D01*
X98854819Y-35666667D02*
X98854819Y-36285714D01*
X98854819Y-36285714D02*
X99235771Y-35952381D01*
X99235771Y-35952381D02*
X99235771Y-36095238D01*
X99235771Y-36095238D02*
X99283390Y-36190476D01*
X99283390Y-36190476D02*
X99331009Y-36238095D01*
X99331009Y-36238095D02*
X99426247Y-36285714D01*
X99426247Y-36285714D02*
X99664342Y-36285714D01*
X99664342Y-36285714D02*
X99759580Y-36238095D01*
X99759580Y-36238095D02*
X99807200Y-36190476D01*
X99807200Y-36190476D02*
X99854819Y-36095238D01*
X99854819Y-36095238D02*
X99854819Y-35809524D01*
X99854819Y-35809524D02*
X99807200Y-35714286D01*
X99807200Y-35714286D02*
X99759580Y-35666667D01*
X79854819Y-73238095D02*
X80664342Y-73238095D01*
X80664342Y-73238095D02*
X80759580Y-73285714D01*
X80759580Y-73285714D02*
X80807200Y-73333333D01*
X80807200Y-73333333D02*
X80854819Y-73428571D01*
X80854819Y-73428571D02*
X80854819Y-73619047D01*
X80854819Y-73619047D02*
X80807200Y-73714285D01*
X80807200Y-73714285D02*
X80759580Y-73761904D01*
X80759580Y-73761904D02*
X80664342Y-73809523D01*
X80664342Y-73809523D02*
X79854819Y-73809523D01*
X79854819Y-74190476D02*
X79854819Y-74809523D01*
X79854819Y-74809523D02*
X80235771Y-74476190D01*
X80235771Y-74476190D02*
X80235771Y-74619047D01*
X80235771Y-74619047D02*
X80283390Y-74714285D01*
X80283390Y-74714285D02*
X80331009Y-74761904D01*
X80331009Y-74761904D02*
X80426247Y-74809523D01*
X80426247Y-74809523D02*
X80664342Y-74809523D01*
X80664342Y-74809523D02*
X80759580Y-74761904D01*
X80759580Y-74761904D02*
X80807200Y-74714285D01*
X80807200Y-74714285D02*
X80854819Y-74619047D01*
X80854819Y-74619047D02*
X80854819Y-74333333D01*
X80854819Y-74333333D02*
X80807200Y-74238095D01*
X80807200Y-74238095D02*
X80759580Y-74190476D01*
X147312970Y-53954819D02*
X147646303Y-53478628D01*
X147884398Y-53954819D02*
X147884398Y-52954819D01*
X147884398Y-52954819D02*
X147503446Y-52954819D01*
X147503446Y-52954819D02*
X147408208Y-53002438D01*
X147408208Y-53002438D02*
X147360589Y-53050057D01*
X147360589Y-53050057D02*
X147312970Y-53145295D01*
X147312970Y-53145295D02*
X147312970Y-53288152D01*
X147312970Y-53288152D02*
X147360589Y-53383390D01*
X147360589Y-53383390D02*
X147408208Y-53431009D01*
X147408208Y-53431009D02*
X147503446Y-53478628D01*
X147503446Y-53478628D02*
X147884398Y-53478628D01*
X146884398Y-53431009D02*
X146551065Y-53431009D01*
X146408208Y-53954819D02*
X146884398Y-53954819D01*
X146884398Y-53954819D02*
X146884398Y-52954819D01*
X146884398Y-52954819D02*
X146408208Y-52954819D01*
X146027255Y-53907200D02*
X145884398Y-53954819D01*
X145884398Y-53954819D02*
X145646303Y-53954819D01*
X145646303Y-53954819D02*
X145551065Y-53907200D01*
X145551065Y-53907200D02*
X145503446Y-53859580D01*
X145503446Y-53859580D02*
X145455827Y-53764342D01*
X145455827Y-53764342D02*
X145455827Y-53669104D01*
X145455827Y-53669104D02*
X145503446Y-53573866D01*
X145503446Y-53573866D02*
X145551065Y-53526247D01*
X145551065Y-53526247D02*
X145646303Y-53478628D01*
X145646303Y-53478628D02*
X145836779Y-53431009D01*
X145836779Y-53431009D02*
X145932017Y-53383390D01*
X145932017Y-53383390D02*
X145979636Y-53335771D01*
X145979636Y-53335771D02*
X146027255Y-53240533D01*
X146027255Y-53240533D02*
X146027255Y-53145295D01*
X146027255Y-53145295D02*
X145979636Y-53050057D01*
X145979636Y-53050057D02*
X145932017Y-53002438D01*
X145932017Y-53002438D02*
X145836779Y-52954819D01*
X145836779Y-52954819D02*
X145598684Y-52954819D01*
X145598684Y-52954819D02*
X145455827Y-53002438D01*
X145027255Y-53431009D02*
X144693922Y-53431009D01*
X144551065Y-53954819D02*
X145027255Y-53954819D01*
X145027255Y-53954819D02*
X145027255Y-52954819D01*
X145027255Y-52954819D02*
X144551065Y-52954819D01*
X144265350Y-52954819D02*
X143693922Y-52954819D01*
X143979636Y-53954819D02*
X143979636Y-52954819D01*
X148142857Y-73859580D02*
X148190476Y-73907200D01*
X148190476Y-73907200D02*
X148333333Y-73954819D01*
X148333333Y-73954819D02*
X148428571Y-73954819D01*
X148428571Y-73954819D02*
X148571428Y-73907200D01*
X148571428Y-73907200D02*
X148666666Y-73811961D01*
X148666666Y-73811961D02*
X148714285Y-73716723D01*
X148714285Y-73716723D02*
X148761904Y-73526247D01*
X148761904Y-73526247D02*
X148761904Y-73383390D01*
X148761904Y-73383390D02*
X148714285Y-73192914D01*
X148714285Y-73192914D02*
X148666666Y-73097676D01*
X148666666Y-73097676D02*
X148571428Y-73002438D01*
X148571428Y-73002438D02*
X148428571Y-72954819D01*
X148428571Y-72954819D02*
X148333333Y-72954819D01*
X148333333Y-72954819D02*
X148190476Y-73002438D01*
X148190476Y-73002438D02*
X148142857Y-73050057D01*
X147190476Y-73954819D02*
X147761904Y-73954819D01*
X147476190Y-73954819D02*
X147476190Y-72954819D01*
X147476190Y-72954819D02*
X147571428Y-73097676D01*
X147571428Y-73097676D02*
X147666666Y-73192914D01*
X147666666Y-73192914D02*
X147761904Y-73240533D01*
X146238095Y-73954819D02*
X146809523Y-73954819D01*
X146523809Y-73954819D02*
X146523809Y-72954819D01*
X146523809Y-72954819D02*
X146619047Y-73097676D01*
X146619047Y-73097676D02*
X146714285Y-73192914D01*
X146714285Y-73192914D02*
X146809523Y-73240533D01*
X121666666Y-70929580D02*
X121714285Y-70977200D01*
X121714285Y-70977200D02*
X121857142Y-71024819D01*
X121857142Y-71024819D02*
X121952380Y-71024819D01*
X121952380Y-71024819D02*
X122095237Y-70977200D01*
X122095237Y-70977200D02*
X122190475Y-70881961D01*
X122190475Y-70881961D02*
X122238094Y-70786723D01*
X122238094Y-70786723D02*
X122285713Y-70596247D01*
X122285713Y-70596247D02*
X122285713Y-70453390D01*
X122285713Y-70453390D02*
X122238094Y-70262914D01*
X122238094Y-70262914D02*
X122190475Y-70167676D01*
X122190475Y-70167676D02*
X122095237Y-70072438D01*
X122095237Y-70072438D02*
X121952380Y-70024819D01*
X121952380Y-70024819D02*
X121857142Y-70024819D01*
X121857142Y-70024819D02*
X121714285Y-70072438D01*
X121714285Y-70072438D02*
X121666666Y-70120057D01*
X121333332Y-70024819D02*
X120666666Y-70024819D01*
X120666666Y-70024819D02*
X121095237Y-71024819D01*
X154333333Y-29669819D02*
X154333333Y-30384104D01*
X154333333Y-30384104D02*
X154380952Y-30526961D01*
X154380952Y-30526961D02*
X154476190Y-30622200D01*
X154476190Y-30622200D02*
X154619047Y-30669819D01*
X154619047Y-30669819D02*
X154714285Y-30669819D01*
X153904761Y-29765057D02*
X153857142Y-29717438D01*
X153857142Y-29717438D02*
X153761904Y-29669819D01*
X153761904Y-29669819D02*
X153523809Y-29669819D01*
X153523809Y-29669819D02*
X153428571Y-29717438D01*
X153428571Y-29717438D02*
X153380952Y-29765057D01*
X153380952Y-29765057D02*
X153333333Y-29860295D01*
X153333333Y-29860295D02*
X153333333Y-29955533D01*
X153333333Y-29955533D02*
X153380952Y-30098390D01*
X153380952Y-30098390D02*
X153952380Y-30669819D01*
X153952380Y-30669819D02*
X153333333Y-30669819D01*
X145884398Y-57002438D02*
X145979636Y-56954819D01*
X145979636Y-56954819D02*
X146122493Y-56954819D01*
X146122493Y-56954819D02*
X146265350Y-57002438D01*
X146265350Y-57002438D02*
X146360588Y-57097676D01*
X146360588Y-57097676D02*
X146408207Y-57192914D01*
X146408207Y-57192914D02*
X146455826Y-57383390D01*
X146455826Y-57383390D02*
X146455826Y-57526247D01*
X146455826Y-57526247D02*
X146408207Y-57716723D01*
X146408207Y-57716723D02*
X146360588Y-57811961D01*
X146360588Y-57811961D02*
X146265350Y-57907200D01*
X146265350Y-57907200D02*
X146122493Y-57954819D01*
X146122493Y-57954819D02*
X146027255Y-57954819D01*
X146027255Y-57954819D02*
X145884398Y-57907200D01*
X145884398Y-57907200D02*
X145836779Y-57859580D01*
X145836779Y-57859580D02*
X145836779Y-57526247D01*
X145836779Y-57526247D02*
X146027255Y-57526247D01*
X145408207Y-57954819D02*
X145408207Y-56954819D01*
X145408207Y-56954819D02*
X144836779Y-57954819D01*
X144836779Y-57954819D02*
X144836779Y-56954819D01*
X144360588Y-57954819D02*
X144360588Y-56954819D01*
X144360588Y-56954819D02*
X144122493Y-56954819D01*
X144122493Y-56954819D02*
X143979636Y-57002438D01*
X143979636Y-57002438D02*
X143884398Y-57097676D01*
X143884398Y-57097676D02*
X143836779Y-57192914D01*
X143836779Y-57192914D02*
X143789160Y-57383390D01*
X143789160Y-57383390D02*
X143789160Y-57526247D01*
X143789160Y-57526247D02*
X143836779Y-57716723D01*
X143836779Y-57716723D02*
X143884398Y-57811961D01*
X143884398Y-57811961D02*
X143979636Y-57907200D01*
X143979636Y-57907200D02*
X144122493Y-57954819D01*
X144122493Y-57954819D02*
X144360588Y-57954819D01*
X126142857Y-79789580D02*
X126190476Y-79837200D01*
X126190476Y-79837200D02*
X126333333Y-79884819D01*
X126333333Y-79884819D02*
X126428571Y-79884819D01*
X126428571Y-79884819D02*
X126571428Y-79837200D01*
X126571428Y-79837200D02*
X126666666Y-79741961D01*
X126666666Y-79741961D02*
X126714285Y-79646723D01*
X126714285Y-79646723D02*
X126761904Y-79456247D01*
X126761904Y-79456247D02*
X126761904Y-79313390D01*
X126761904Y-79313390D02*
X126714285Y-79122914D01*
X126714285Y-79122914D02*
X126666666Y-79027676D01*
X126666666Y-79027676D02*
X126571428Y-78932438D01*
X126571428Y-78932438D02*
X126428571Y-78884819D01*
X126428571Y-78884819D02*
X126333333Y-78884819D01*
X126333333Y-78884819D02*
X126190476Y-78932438D01*
X126190476Y-78932438D02*
X126142857Y-78980057D01*
X125190476Y-79884819D02*
X125761904Y-79884819D01*
X125476190Y-79884819D02*
X125476190Y-78884819D01*
X125476190Y-78884819D02*
X125571428Y-79027676D01*
X125571428Y-79027676D02*
X125666666Y-79122914D01*
X125666666Y-79122914D02*
X125761904Y-79170533D01*
X124571428Y-78884819D02*
X124476190Y-78884819D01*
X124476190Y-78884819D02*
X124380952Y-78932438D01*
X124380952Y-78932438D02*
X124333333Y-78980057D01*
X124333333Y-78980057D02*
X124285714Y-79075295D01*
X124285714Y-79075295D02*
X124238095Y-79265771D01*
X124238095Y-79265771D02*
X124238095Y-79503866D01*
X124238095Y-79503866D02*
X124285714Y-79694342D01*
X124285714Y-79694342D02*
X124333333Y-79789580D01*
X124333333Y-79789580D02*
X124380952Y-79837200D01*
X124380952Y-79837200D02*
X124476190Y-79884819D01*
X124476190Y-79884819D02*
X124571428Y-79884819D01*
X124571428Y-79884819D02*
X124666666Y-79837200D01*
X124666666Y-79837200D02*
X124714285Y-79789580D01*
X124714285Y-79789580D02*
X124761904Y-79694342D01*
X124761904Y-79694342D02*
X124809523Y-79503866D01*
X124809523Y-79503866D02*
X124809523Y-79265771D01*
X124809523Y-79265771D02*
X124761904Y-79075295D01*
X124761904Y-79075295D02*
X124714285Y-78980057D01*
X124714285Y-78980057D02*
X124666666Y-78932438D01*
X124666666Y-78932438D02*
X124571428Y-78884819D01*
X136854819Y-93761905D02*
X137664342Y-93761905D01*
X137664342Y-93761905D02*
X137759580Y-93809524D01*
X137759580Y-93809524D02*
X137807200Y-93857143D01*
X137807200Y-93857143D02*
X137854819Y-93952381D01*
X137854819Y-93952381D02*
X137854819Y-94142857D01*
X137854819Y-94142857D02*
X137807200Y-94238095D01*
X137807200Y-94238095D02*
X137759580Y-94285714D01*
X137759580Y-94285714D02*
X137664342Y-94333333D01*
X137664342Y-94333333D02*
X136854819Y-94333333D01*
X137854819Y-95333333D02*
X137854819Y-94761905D01*
X137854819Y-95047619D02*
X136854819Y-95047619D01*
X136854819Y-95047619D02*
X136997676Y-94952381D01*
X136997676Y-94952381D02*
X137092914Y-94857143D01*
X137092914Y-94857143D02*
X137140533Y-94761905D01*
X136950057Y-95714286D02*
X136902438Y-95761905D01*
X136902438Y-95761905D02*
X136854819Y-95857143D01*
X136854819Y-95857143D02*
X136854819Y-96095238D01*
X136854819Y-96095238D02*
X136902438Y-96190476D01*
X136902438Y-96190476D02*
X136950057Y-96238095D01*
X136950057Y-96238095D02*
X137045295Y-96285714D01*
X137045295Y-96285714D02*
X137140533Y-96285714D01*
X137140533Y-96285714D02*
X137283390Y-96238095D01*
X137283390Y-96238095D02*
X137854819Y-95666667D01*
X137854819Y-95666667D02*
X137854819Y-96285714D01*
X41854819Y-57761905D02*
X42664342Y-57761905D01*
X42664342Y-57761905D02*
X42759580Y-57809524D01*
X42759580Y-57809524D02*
X42807200Y-57857143D01*
X42807200Y-57857143D02*
X42854819Y-57952381D01*
X42854819Y-57952381D02*
X42854819Y-58142857D01*
X42854819Y-58142857D02*
X42807200Y-58238095D01*
X42807200Y-58238095D02*
X42759580Y-58285714D01*
X42759580Y-58285714D02*
X42664342Y-58333333D01*
X42664342Y-58333333D02*
X41854819Y-58333333D01*
X41950057Y-58761905D02*
X41902438Y-58809524D01*
X41902438Y-58809524D02*
X41854819Y-58904762D01*
X41854819Y-58904762D02*
X41854819Y-59142857D01*
X41854819Y-59142857D02*
X41902438Y-59238095D01*
X41902438Y-59238095D02*
X41950057Y-59285714D01*
X41950057Y-59285714D02*
X42045295Y-59333333D01*
X42045295Y-59333333D02*
X42140533Y-59333333D01*
X42140533Y-59333333D02*
X42283390Y-59285714D01*
X42283390Y-59285714D02*
X42854819Y-58714286D01*
X42854819Y-58714286D02*
X42854819Y-59333333D01*
X42854819Y-59809524D02*
X42854819Y-60000000D01*
X42854819Y-60000000D02*
X42807200Y-60095238D01*
X42807200Y-60095238D02*
X42759580Y-60142857D01*
X42759580Y-60142857D02*
X42616723Y-60238095D01*
X42616723Y-60238095D02*
X42426247Y-60285714D01*
X42426247Y-60285714D02*
X42045295Y-60285714D01*
X42045295Y-60285714D02*
X41950057Y-60238095D01*
X41950057Y-60238095D02*
X41902438Y-60190476D01*
X41902438Y-60190476D02*
X41854819Y-60095238D01*
X41854819Y-60095238D02*
X41854819Y-59904762D01*
X41854819Y-59904762D02*
X41902438Y-59809524D01*
X41902438Y-59809524D02*
X41950057Y-59761905D01*
X41950057Y-59761905D02*
X42045295Y-59714286D01*
X42045295Y-59714286D02*
X42283390Y-59714286D01*
X42283390Y-59714286D02*
X42378628Y-59761905D01*
X42378628Y-59761905D02*
X42426247Y-59809524D01*
X42426247Y-59809524D02*
X42473866Y-59904762D01*
X42473866Y-59904762D02*
X42473866Y-60095238D01*
X42473866Y-60095238D02*
X42426247Y-60190476D01*
X42426247Y-60190476D02*
X42378628Y-60238095D01*
X42378628Y-60238095D02*
X42283390Y-60285714D01*
X134166666Y-64454819D02*
X134499999Y-63978628D01*
X134738094Y-64454819D02*
X134738094Y-63454819D01*
X134738094Y-63454819D02*
X134357142Y-63454819D01*
X134357142Y-63454819D02*
X134261904Y-63502438D01*
X134261904Y-63502438D02*
X134214285Y-63550057D01*
X134214285Y-63550057D02*
X134166666Y-63645295D01*
X134166666Y-63645295D02*
X134166666Y-63788152D01*
X134166666Y-63788152D02*
X134214285Y-63883390D01*
X134214285Y-63883390D02*
X134261904Y-63931009D01*
X134261904Y-63931009D02*
X134357142Y-63978628D01*
X134357142Y-63978628D02*
X134738094Y-63978628D01*
X133309523Y-63788152D02*
X133309523Y-64454819D01*
X133547618Y-63407200D02*
X133785713Y-64121485D01*
X133785713Y-64121485D02*
X133166666Y-64121485D01*
X160954819Y-25333333D02*
X160478628Y-25000000D01*
X160954819Y-24761905D02*
X159954819Y-24761905D01*
X159954819Y-24761905D02*
X159954819Y-25142857D01*
X159954819Y-25142857D02*
X160002438Y-25238095D01*
X160002438Y-25238095D02*
X160050057Y-25285714D01*
X160050057Y-25285714D02*
X160145295Y-25333333D01*
X160145295Y-25333333D02*
X160288152Y-25333333D01*
X160288152Y-25333333D02*
X160383390Y-25285714D01*
X160383390Y-25285714D02*
X160431009Y-25238095D01*
X160431009Y-25238095D02*
X160478628Y-25142857D01*
X160478628Y-25142857D02*
X160478628Y-24761905D01*
X160050057Y-25714286D02*
X160002438Y-25761905D01*
X160002438Y-25761905D02*
X159954819Y-25857143D01*
X159954819Y-25857143D02*
X159954819Y-26095238D01*
X159954819Y-26095238D02*
X160002438Y-26190476D01*
X160002438Y-26190476D02*
X160050057Y-26238095D01*
X160050057Y-26238095D02*
X160145295Y-26285714D01*
X160145295Y-26285714D02*
X160240533Y-26285714D01*
X160240533Y-26285714D02*
X160383390Y-26238095D01*
X160383390Y-26238095D02*
X160954819Y-25666667D01*
X160954819Y-25666667D02*
X160954819Y-26285714D01*
X128359580Y-53333333D02*
X128407200Y-53285714D01*
X128407200Y-53285714D02*
X128454819Y-53142857D01*
X128454819Y-53142857D02*
X128454819Y-53047619D01*
X128454819Y-53047619D02*
X128407200Y-52904762D01*
X128407200Y-52904762D02*
X128311961Y-52809524D01*
X128311961Y-52809524D02*
X128216723Y-52761905D01*
X128216723Y-52761905D02*
X128026247Y-52714286D01*
X128026247Y-52714286D02*
X127883390Y-52714286D01*
X127883390Y-52714286D02*
X127692914Y-52761905D01*
X127692914Y-52761905D02*
X127597676Y-52809524D01*
X127597676Y-52809524D02*
X127502438Y-52904762D01*
X127502438Y-52904762D02*
X127454819Y-53047619D01*
X127454819Y-53047619D02*
X127454819Y-53142857D01*
X127454819Y-53142857D02*
X127502438Y-53285714D01*
X127502438Y-53285714D02*
X127550057Y-53333333D01*
X127454819Y-53666667D02*
X127454819Y-54285714D01*
X127454819Y-54285714D02*
X127835771Y-53952381D01*
X127835771Y-53952381D02*
X127835771Y-54095238D01*
X127835771Y-54095238D02*
X127883390Y-54190476D01*
X127883390Y-54190476D02*
X127931009Y-54238095D01*
X127931009Y-54238095D02*
X128026247Y-54285714D01*
X128026247Y-54285714D02*
X128264342Y-54285714D01*
X128264342Y-54285714D02*
X128359580Y-54238095D01*
X128359580Y-54238095D02*
X128407200Y-54190476D01*
X128407200Y-54190476D02*
X128454819Y-54095238D01*
X128454819Y-54095238D02*
X128454819Y-53809524D01*
X128454819Y-53809524D02*
X128407200Y-53714286D01*
X128407200Y-53714286D02*
X128359580Y-53666667D01*
X60854819Y-38238095D02*
X61664342Y-38238095D01*
X61664342Y-38238095D02*
X61759580Y-38285714D01*
X61759580Y-38285714D02*
X61807200Y-38333333D01*
X61807200Y-38333333D02*
X61854819Y-38428571D01*
X61854819Y-38428571D02*
X61854819Y-38619047D01*
X61854819Y-38619047D02*
X61807200Y-38714285D01*
X61807200Y-38714285D02*
X61759580Y-38761904D01*
X61759580Y-38761904D02*
X61664342Y-38809523D01*
X61664342Y-38809523D02*
X60854819Y-38809523D01*
X60854819Y-39761904D02*
X60854819Y-39285714D01*
X60854819Y-39285714D02*
X61331009Y-39238095D01*
X61331009Y-39238095D02*
X61283390Y-39285714D01*
X61283390Y-39285714D02*
X61235771Y-39380952D01*
X61235771Y-39380952D02*
X61235771Y-39619047D01*
X61235771Y-39619047D02*
X61283390Y-39714285D01*
X61283390Y-39714285D02*
X61331009Y-39761904D01*
X61331009Y-39761904D02*
X61426247Y-39809523D01*
X61426247Y-39809523D02*
X61664342Y-39809523D01*
X61664342Y-39809523D02*
X61759580Y-39761904D01*
X61759580Y-39761904D02*
X61807200Y-39714285D01*
X61807200Y-39714285D02*
X61854819Y-39619047D01*
X61854819Y-39619047D02*
X61854819Y-39380952D01*
X61854819Y-39380952D02*
X61807200Y-39285714D01*
X61807200Y-39285714D02*
X61759580Y-39238095D01*
X131359580Y-72833333D02*
X131407200Y-72785714D01*
X131407200Y-72785714D02*
X131454819Y-72642857D01*
X131454819Y-72642857D02*
X131454819Y-72547619D01*
X131454819Y-72547619D02*
X131407200Y-72404762D01*
X131407200Y-72404762D02*
X131311961Y-72309524D01*
X131311961Y-72309524D02*
X131216723Y-72261905D01*
X131216723Y-72261905D02*
X131026247Y-72214286D01*
X131026247Y-72214286D02*
X130883390Y-72214286D01*
X130883390Y-72214286D02*
X130692914Y-72261905D01*
X130692914Y-72261905D02*
X130597676Y-72309524D01*
X130597676Y-72309524D02*
X130502438Y-72404762D01*
X130502438Y-72404762D02*
X130454819Y-72547619D01*
X130454819Y-72547619D02*
X130454819Y-72642857D01*
X130454819Y-72642857D02*
X130502438Y-72785714D01*
X130502438Y-72785714D02*
X130550057Y-72833333D01*
X130454819Y-73738095D02*
X130454819Y-73261905D01*
X130454819Y-73261905D02*
X130931009Y-73214286D01*
X130931009Y-73214286D02*
X130883390Y-73261905D01*
X130883390Y-73261905D02*
X130835771Y-73357143D01*
X130835771Y-73357143D02*
X130835771Y-73595238D01*
X130835771Y-73595238D02*
X130883390Y-73690476D01*
X130883390Y-73690476D02*
X130931009Y-73738095D01*
X130931009Y-73738095D02*
X131026247Y-73785714D01*
X131026247Y-73785714D02*
X131264342Y-73785714D01*
X131264342Y-73785714D02*
X131359580Y-73738095D01*
X131359580Y-73738095D02*
X131407200Y-73690476D01*
X131407200Y-73690476D02*
X131454819Y-73595238D01*
X131454819Y-73595238D02*
X131454819Y-73357143D01*
X131454819Y-73357143D02*
X131407200Y-73261905D01*
X131407200Y-73261905D02*
X131359580Y-73214286D01*
X142238094Y-25954819D02*
X142238094Y-24954819D01*
X142238094Y-24954819D02*
X141999999Y-24954819D01*
X141999999Y-24954819D02*
X141857142Y-25002438D01*
X141857142Y-25002438D02*
X141761904Y-25097676D01*
X141761904Y-25097676D02*
X141714285Y-25192914D01*
X141714285Y-25192914D02*
X141666666Y-25383390D01*
X141666666Y-25383390D02*
X141666666Y-25526247D01*
X141666666Y-25526247D02*
X141714285Y-25716723D01*
X141714285Y-25716723D02*
X141761904Y-25811961D01*
X141761904Y-25811961D02*
X141857142Y-25907200D01*
X141857142Y-25907200D02*
X141999999Y-25954819D01*
X141999999Y-25954819D02*
X142238094Y-25954819D01*
X141285713Y-25050057D02*
X141238094Y-25002438D01*
X141238094Y-25002438D02*
X141142856Y-24954819D01*
X141142856Y-24954819D02*
X140904761Y-24954819D01*
X140904761Y-24954819D02*
X140809523Y-25002438D01*
X140809523Y-25002438D02*
X140761904Y-25050057D01*
X140761904Y-25050057D02*
X140714285Y-25145295D01*
X140714285Y-25145295D02*
X140714285Y-25240533D01*
X140714285Y-25240533D02*
X140761904Y-25383390D01*
X140761904Y-25383390D02*
X141333332Y-25954819D01*
X141333332Y-25954819D02*
X140714285Y-25954819D01*
X70354819Y-113761905D02*
X71164342Y-113761905D01*
X71164342Y-113761905D02*
X71259580Y-113809524D01*
X71259580Y-113809524D02*
X71307200Y-113857143D01*
X71307200Y-113857143D02*
X71354819Y-113952381D01*
X71354819Y-113952381D02*
X71354819Y-114142857D01*
X71354819Y-114142857D02*
X71307200Y-114238095D01*
X71307200Y-114238095D02*
X71259580Y-114285714D01*
X71259580Y-114285714D02*
X71164342Y-114333333D01*
X71164342Y-114333333D02*
X70354819Y-114333333D01*
X71354819Y-115333333D02*
X71354819Y-114761905D01*
X71354819Y-115047619D02*
X70354819Y-115047619D01*
X70354819Y-115047619D02*
X70497676Y-114952381D01*
X70497676Y-114952381D02*
X70592914Y-114857143D01*
X70592914Y-114857143D02*
X70640533Y-114761905D01*
X70354819Y-116190476D02*
X70354819Y-116000000D01*
X70354819Y-116000000D02*
X70402438Y-115904762D01*
X70402438Y-115904762D02*
X70450057Y-115857143D01*
X70450057Y-115857143D02*
X70592914Y-115761905D01*
X70592914Y-115761905D02*
X70783390Y-115714286D01*
X70783390Y-115714286D02*
X71164342Y-115714286D01*
X71164342Y-115714286D02*
X71259580Y-115761905D01*
X71259580Y-115761905D02*
X71307200Y-115809524D01*
X71307200Y-115809524D02*
X71354819Y-115904762D01*
X71354819Y-115904762D02*
X71354819Y-116095238D01*
X71354819Y-116095238D02*
X71307200Y-116190476D01*
X71307200Y-116190476D02*
X71259580Y-116238095D01*
X71259580Y-116238095D02*
X71164342Y-116285714D01*
X71164342Y-116285714D02*
X70926247Y-116285714D01*
X70926247Y-116285714D02*
X70831009Y-116238095D01*
X70831009Y-116238095D02*
X70783390Y-116190476D01*
X70783390Y-116190476D02*
X70735771Y-116095238D01*
X70735771Y-116095238D02*
X70735771Y-115904762D01*
X70735771Y-115904762D02*
X70783390Y-115809524D01*
X70783390Y-115809524D02*
X70831009Y-115761905D01*
X70831009Y-115761905D02*
X70926247Y-115714286D01*
X127354819Y-112761905D02*
X128164342Y-112761905D01*
X128164342Y-112761905D02*
X128259580Y-112809524D01*
X128259580Y-112809524D02*
X128307200Y-112857143D01*
X128307200Y-112857143D02*
X128354819Y-112952381D01*
X128354819Y-112952381D02*
X128354819Y-113142857D01*
X128354819Y-113142857D02*
X128307200Y-113238095D01*
X128307200Y-113238095D02*
X128259580Y-113285714D01*
X128259580Y-113285714D02*
X128164342Y-113333333D01*
X128164342Y-113333333D02*
X127354819Y-113333333D01*
X127450057Y-113761905D02*
X127402438Y-113809524D01*
X127402438Y-113809524D02*
X127354819Y-113904762D01*
X127354819Y-113904762D02*
X127354819Y-114142857D01*
X127354819Y-114142857D02*
X127402438Y-114238095D01*
X127402438Y-114238095D02*
X127450057Y-114285714D01*
X127450057Y-114285714D02*
X127545295Y-114333333D01*
X127545295Y-114333333D02*
X127640533Y-114333333D01*
X127640533Y-114333333D02*
X127783390Y-114285714D01*
X127783390Y-114285714D02*
X128354819Y-113714286D01*
X128354819Y-113714286D02*
X128354819Y-114333333D01*
X127783390Y-114904762D02*
X127735771Y-114809524D01*
X127735771Y-114809524D02*
X127688152Y-114761905D01*
X127688152Y-114761905D02*
X127592914Y-114714286D01*
X127592914Y-114714286D02*
X127545295Y-114714286D01*
X127545295Y-114714286D02*
X127450057Y-114761905D01*
X127450057Y-114761905D02*
X127402438Y-114809524D01*
X127402438Y-114809524D02*
X127354819Y-114904762D01*
X127354819Y-114904762D02*
X127354819Y-115095238D01*
X127354819Y-115095238D02*
X127402438Y-115190476D01*
X127402438Y-115190476D02*
X127450057Y-115238095D01*
X127450057Y-115238095D02*
X127545295Y-115285714D01*
X127545295Y-115285714D02*
X127592914Y-115285714D01*
X127592914Y-115285714D02*
X127688152Y-115238095D01*
X127688152Y-115238095D02*
X127735771Y-115190476D01*
X127735771Y-115190476D02*
X127783390Y-115095238D01*
X127783390Y-115095238D02*
X127783390Y-114904762D01*
X127783390Y-114904762D02*
X127831009Y-114809524D01*
X127831009Y-114809524D02*
X127878628Y-114761905D01*
X127878628Y-114761905D02*
X127973866Y-114714286D01*
X127973866Y-114714286D02*
X128164342Y-114714286D01*
X128164342Y-114714286D02*
X128259580Y-114761905D01*
X128259580Y-114761905D02*
X128307200Y-114809524D01*
X128307200Y-114809524D02*
X128354819Y-114904762D01*
X128354819Y-114904762D02*
X128354819Y-115095238D01*
X128354819Y-115095238D02*
X128307200Y-115190476D01*
X128307200Y-115190476D02*
X128259580Y-115238095D01*
X128259580Y-115238095D02*
X128164342Y-115285714D01*
X128164342Y-115285714D02*
X127973866Y-115285714D01*
X127973866Y-115285714D02*
X127878628Y-115238095D01*
X127878628Y-115238095D02*
X127831009Y-115190476D01*
X127831009Y-115190476D02*
X127783390Y-115095238D01*
D13*
%TO.C,U33*%
X156090000Y-43400000D02*
X156090000Y-49410000D01*
X162910000Y-45650000D02*
X162910000Y-49410000D01*
X162910000Y-49410000D02*
X161650000Y-49410000D01*
X156090000Y-49410000D02*
X157350000Y-49410000D01*
%TO.C,U30*%
X57440000Y-77000000D02*
X57440000Y-77650000D01*
X57440000Y-77000000D02*
X57440000Y-76350000D01*
X60560000Y-77000000D02*
X60560000Y-78675000D01*
X60560000Y-77000000D02*
X60560000Y-76350000D01*
%TO.C,U1*%
X38440000Y-40000000D02*
X38440000Y-40650000D01*
X38440000Y-40000000D02*
X38440000Y-39350000D01*
X41560000Y-40000000D02*
X41560000Y-41675000D01*
X41560000Y-40000000D02*
X41560000Y-39350000D01*
%TO.C,R1*%
X148022500Y-27762742D02*
X148022500Y-28237258D01*
X146977500Y-27762742D02*
X146977500Y-28237258D01*
%TO.C,TP1*%
X143200000Y-59500000D02*
G75*
G03*
X143200000Y-59500000I-700000J0D01*
G01*
%TO.C,R3*%
X125737258Y-72522500D02*
X125262742Y-72522500D01*
X125737258Y-71477500D02*
X125262742Y-71477500D01*
%TO.C,U6*%
X76440000Y-55000000D02*
X76440000Y-55650000D01*
X76440000Y-55000000D02*
X76440000Y-54350000D01*
X79560000Y-55000000D02*
X79560000Y-56675000D01*
X79560000Y-55000000D02*
X79560000Y-54350000D01*
%TO.C,C4*%
X133859420Y-66490000D02*
X134140580Y-66490000D01*
X133859420Y-67510000D02*
X134140580Y-67510000D01*
%TO.C,C1*%
X154490000Y-47640580D02*
X154490000Y-47359420D01*
X155510000Y-47640580D02*
X155510000Y-47359420D01*
%TO.C,U21*%
X133440000Y-38000000D02*
X133440000Y-38650000D01*
X133440000Y-38000000D02*
X133440000Y-37350000D01*
X136560000Y-38000000D02*
X136560000Y-39675000D01*
X136560000Y-38000000D02*
X136560000Y-37350000D01*
%TO.C,U7*%
X95440000Y-73000000D02*
X95440000Y-73650000D01*
X95440000Y-73000000D02*
X95440000Y-72350000D01*
X98560000Y-73000000D02*
X98560000Y-74675000D01*
X98560000Y-73000000D02*
X98560000Y-72350000D01*
%TO.C,U14*%
X114440000Y-55000000D02*
X114440000Y-55650000D01*
X114440000Y-55000000D02*
X114440000Y-54350000D01*
X117560000Y-55000000D02*
X117560000Y-56675000D01*
X117560000Y-55000000D02*
X117560000Y-54350000D01*
%TO.C,U25*%
X152440000Y-38000000D02*
X152440000Y-38650000D01*
X152440000Y-38000000D02*
X152440000Y-37350000D01*
X155560000Y-38000000D02*
X155560000Y-39675000D01*
X155560000Y-38000000D02*
X155560000Y-37350000D01*
D14*
%TO.C,IC4*%
X101380000Y-98025000D02*
X101380000Y-99550000D01*
X111450000Y-99900000D02*
X101550000Y-99900000D01*
X101550000Y-99900000D02*
X101550000Y-103100000D01*
X111450000Y-103100000D02*
X111450000Y-99900000D01*
X101550000Y-103100000D02*
X111450000Y-103100000D01*
D13*
%TO.C,U23*%
X38440000Y-97000000D02*
X38440000Y-97650000D01*
X38440000Y-97000000D02*
X38440000Y-96350000D01*
X41560000Y-97000000D02*
X41560000Y-98675000D01*
X41560000Y-97000000D02*
X41560000Y-96350000D01*
%TO.C,U32*%
X150649000Y-110220000D02*
X150324000Y-110782917D01*
X150649000Y-110220000D02*
X150974000Y-109657083D01*
X153351000Y-111780000D02*
X152513500Y-113230593D01*
X153351000Y-111780000D02*
X153676000Y-111217083D01*
%TO.C,SW1*%
X141750000Y-70500000D02*
X141750000Y-68500000D01*
X142750000Y-67200000D02*
X143200000Y-66750000D01*
X142750000Y-71800000D02*
X143200000Y-72250000D01*
X143200000Y-66750000D02*
X145800000Y-66750000D01*
X143200000Y-72250000D02*
X145800000Y-72250000D01*
X146250000Y-67200000D02*
X145800000Y-66750000D01*
X146250000Y-71800000D02*
X145800000Y-72250000D01*
X147250000Y-70500000D02*
X147250000Y-68500000D01*
%TO.C,MCU1*%
X121890000Y-68110000D02*
X122340000Y-68110000D01*
X128660000Y-68110000D02*
X128660000Y-69400000D01*
X129110000Y-68110000D02*
X128660000Y-68110000D01*
X121890000Y-67660000D02*
X121890000Y-68110000D01*
X129110000Y-67660000D02*
X129110000Y-68110000D01*
X121890000Y-61340000D02*
X121890000Y-60890000D01*
X129110000Y-61340000D02*
X129110000Y-60890000D01*
X121890000Y-60890000D02*
X122340000Y-60890000D01*
X129110000Y-60890000D02*
X128660000Y-60890000D01*
%TO.C,SW2*%
X141750000Y-64500000D02*
X141750000Y-62500000D01*
X142750000Y-61200000D02*
X143200000Y-60750000D01*
X142750000Y-65800000D02*
X143200000Y-66250000D01*
X143200000Y-60750000D02*
X145800000Y-60750000D01*
X143200000Y-66250000D02*
X145800000Y-66250000D01*
X146250000Y-61200000D02*
X145800000Y-60750000D01*
X146250000Y-65800000D02*
X145800000Y-66250000D01*
X147250000Y-64500000D02*
X147250000Y-62500000D01*
%TO.C,U4*%
X95440000Y-92000000D02*
X95440000Y-92650000D01*
X95440000Y-92000000D02*
X95440000Y-91350000D01*
X98560000Y-92000000D02*
X98560000Y-93675000D01*
X98560000Y-92000000D02*
X98560000Y-91350000D01*
%TO.C,C9*%
X128510000Y-74584420D02*
X128510000Y-74865580D01*
X127490000Y-74584420D02*
X127490000Y-74865580D01*
%TO.C,U22*%
X152440000Y-57000000D02*
X152440000Y-57650000D01*
X152440000Y-57000000D02*
X152440000Y-56350000D01*
X155560000Y-57000000D02*
X155560000Y-58675000D01*
X155560000Y-57000000D02*
X155560000Y-56350000D01*
%TO.C,U11*%
X114440000Y-74000000D02*
X114440000Y-74650000D01*
X114440000Y-74000000D02*
X114440000Y-73350000D01*
X117560000Y-74000000D02*
X117560000Y-75675000D01*
X117560000Y-74000000D02*
X117560000Y-73350000D01*
D14*
%TO.C,IC1*%
X101380000Y-41025000D02*
X101380000Y-42550000D01*
X111450000Y-42900000D02*
X101550000Y-42900000D01*
X101550000Y-42900000D02*
X101550000Y-46100000D01*
X111450000Y-46100000D02*
X111450000Y-42900000D01*
X101550000Y-46100000D02*
X111450000Y-46100000D01*
D13*
%TO.C,U20*%
X85940000Y-112000000D02*
X85940000Y-112650000D01*
X85940000Y-112000000D02*
X85940000Y-111350000D01*
X89060000Y-112000000D02*
X89060000Y-113675000D01*
X89060000Y-112000000D02*
X89060000Y-111350000D01*
%TO.C,U24*%
X104940000Y-112000000D02*
X104940000Y-112650000D01*
X104940000Y-112000000D02*
X104940000Y-111350000D01*
X108060000Y-112000000D02*
X108060000Y-113675000D01*
X108060000Y-112000000D02*
X108060000Y-111350000D01*
%TO.C,C2*%
X164510000Y-47359420D02*
X164510000Y-47640580D01*
X163490000Y-47359420D02*
X163490000Y-47640580D01*
%TO.C,U31*%
X76440000Y-93000000D02*
X76440000Y-93650000D01*
X76440000Y-93000000D02*
X76440000Y-92350000D01*
X79560000Y-93000000D02*
X79560000Y-94675000D01*
X79560000Y-93000000D02*
X79560000Y-92350000D01*
%TO.C,Y1*%
X127150000Y-73000000D02*
X127150000Y-77000000D01*
X123850000Y-73000000D02*
X127150000Y-73000000D01*
%TO.C,U18*%
X133440000Y-57000000D02*
X133440000Y-57650000D01*
X133440000Y-57000000D02*
X133440000Y-56350000D01*
X136560000Y-57000000D02*
X136560000Y-58675000D01*
X136560000Y-57000000D02*
X136560000Y-56350000D01*
%TO.C,U19*%
X152440000Y-76000000D02*
X152440000Y-76650000D01*
X152440000Y-76000000D02*
X152440000Y-75350000D01*
X155560000Y-76000000D02*
X155560000Y-77675000D01*
X155560000Y-76000000D02*
X155560000Y-75350000D01*
%TO.C,U17*%
X114440000Y-36000000D02*
X114440000Y-36650000D01*
X114440000Y-36000000D02*
X114440000Y-35350000D01*
X117560000Y-36000000D02*
X117560000Y-37675000D01*
X117560000Y-36000000D02*
X117560000Y-35350000D01*
%TO.C,U27*%
X57440000Y-96000000D02*
X57440000Y-96650000D01*
X57440000Y-96000000D02*
X57440000Y-95350000D01*
X60560000Y-96000000D02*
X60560000Y-97675000D01*
X60560000Y-96000000D02*
X60560000Y-95350000D01*
D14*
%TO.C,IC3*%
X101380000Y-79025000D02*
X101380000Y-80550000D01*
X111450000Y-80900000D02*
X101550000Y-80900000D01*
X101550000Y-80900000D02*
X101550000Y-84100000D01*
X111450000Y-84100000D02*
X111450000Y-80900000D01*
X101550000Y-84100000D02*
X111450000Y-84100000D01*
D13*
%TO.C,D1*%
X144500000Y-31440000D02*
X143850000Y-31440000D01*
X144500000Y-31440000D02*
X145150000Y-31440000D01*
X144500000Y-34560000D02*
X142825000Y-34560000D01*
X144500000Y-34560000D02*
X145150000Y-34560000D01*
%TO.C,R5*%
X143762742Y-26477500D02*
X144237258Y-26477500D01*
X143762742Y-27522500D02*
X144237258Y-27522500D01*
%TO.C,U26*%
X38440000Y-78000000D02*
X38440000Y-78650000D01*
X38440000Y-78000000D02*
X38440000Y-77350000D01*
X41560000Y-78000000D02*
X41560000Y-79675000D01*
X41560000Y-78000000D02*
X41560000Y-77350000D01*
D14*
%TO.C,IC2*%
X101380000Y-60025000D02*
X101380000Y-61550000D01*
X111450000Y-61900000D02*
X101550000Y-61900000D01*
X101550000Y-61900000D02*
X101550000Y-65100000D01*
X111450000Y-65100000D02*
X111450000Y-61900000D01*
X101550000Y-65100000D02*
X111450000Y-65100000D01*
D13*
%TO.C,U8*%
X114440000Y-93000000D02*
X114440000Y-93650000D01*
X114440000Y-93000000D02*
X114440000Y-92350000D01*
X117560000Y-93000000D02*
X117560000Y-94675000D01*
X117560000Y-93000000D02*
X117560000Y-92350000D01*
%TO.C,U15*%
X133440000Y-76000000D02*
X133440000Y-76650000D01*
X133440000Y-76000000D02*
X133440000Y-75350000D01*
X136560000Y-76000000D02*
X136560000Y-77675000D01*
X136560000Y-76000000D02*
X136560000Y-75350000D01*
%TO.C,U9*%
X76440000Y-36000000D02*
X76440000Y-36650000D01*
X76440000Y-36000000D02*
X76440000Y-35350000D01*
X79560000Y-36000000D02*
X79560000Y-37675000D01*
X79560000Y-36000000D02*
X79560000Y-35350000D01*
%TO.C,TP3*%
X143200000Y-55500000D02*
G75*
G03*
X143200000Y-55500000I-700000J0D01*
G01*
%TO.C,U10*%
X95440000Y-54000000D02*
X95440000Y-54650000D01*
X95440000Y-54000000D02*
X95440000Y-53350000D01*
X98560000Y-54000000D02*
X98560000Y-55675000D01*
X98560000Y-54000000D02*
X98560000Y-53350000D01*
%TO.C,C6*%
X117140580Y-62510000D02*
X116859420Y-62510000D01*
X117140580Y-61490000D02*
X116859420Y-61490000D01*
%TO.C,U2*%
X57440000Y-58000000D02*
X57440000Y-58650000D01*
X57440000Y-58000000D02*
X57440000Y-57350000D01*
X60560000Y-58000000D02*
X60560000Y-59675000D01*
X60560000Y-58000000D02*
X60560000Y-57350000D01*
%TO.C,U13*%
X95440000Y-35000000D02*
X95440000Y-35650000D01*
X95440000Y-35000000D02*
X95440000Y-34350000D01*
X98560000Y-35000000D02*
X98560000Y-36675000D01*
X98560000Y-35000000D02*
X98560000Y-34350000D01*
%TO.C,U3*%
X76440000Y-74000000D02*
X76440000Y-74650000D01*
X76440000Y-74000000D02*
X76440000Y-73350000D01*
X79560000Y-74000000D02*
X79560000Y-75675000D01*
X79560000Y-74000000D02*
X79560000Y-73350000D01*
%TO.C,TP4*%
X143200000Y-53500000D02*
G75*
G03*
X143200000Y-53500000I-700000J0D01*
G01*
%TO.C,C11*%
X144359420Y-72990000D02*
X144640580Y-72990000D01*
X144359420Y-74010000D02*
X144640580Y-74010000D01*
%TO.C,C7*%
X121640580Y-72510000D02*
X121359420Y-72510000D01*
X121640580Y-71490000D02*
X121359420Y-71490000D01*
%TO.C,J2*%
X149420000Y-20715000D02*
X149420000Y-22420000D01*
X149420000Y-26350000D02*
X149420000Y-24430000D01*
X158580000Y-20715000D02*
X149420000Y-20715000D01*
X158580000Y-22420000D02*
X158580000Y-20715000D01*
X158580000Y-24430000D02*
X158580000Y-26350000D01*
%TO.C,TP2*%
X143200000Y-57500000D02*
G75*
G03*
X143200000Y-57500000I-700000J0D01*
G01*
%TO.C,C10*%
X125359420Y-77490000D02*
X125640580Y-77490000D01*
X125359420Y-78510000D02*
X125640580Y-78510000D01*
%TO.C,U12*%
X133440000Y-95000000D02*
X133440000Y-95650000D01*
X133440000Y-95000000D02*
X133440000Y-94350000D01*
X136560000Y-95000000D02*
X136560000Y-96675000D01*
X136560000Y-95000000D02*
X136560000Y-94350000D01*
%TO.C,U29*%
X38440000Y-59000000D02*
X38440000Y-59650000D01*
X38440000Y-59000000D02*
X38440000Y-58350000D01*
X41560000Y-59000000D02*
X41560000Y-60675000D01*
X41560000Y-59000000D02*
X41560000Y-58350000D01*
%TO.C,R4*%
X133762742Y-64977500D02*
X134237258Y-64977500D01*
X133762742Y-66022500D02*
X134237258Y-66022500D01*
%TO.C,R2*%
X161022500Y-27762742D02*
X161022500Y-28237258D01*
X159977500Y-27762742D02*
X159977500Y-28237258D01*
%TO.C,C3*%
X127490000Y-56140580D02*
X127490000Y-55859420D01*
X128510000Y-56140580D02*
X128510000Y-55859420D01*
%TO.C,U5*%
X57440000Y-39000000D02*
X57440000Y-39650000D01*
X57440000Y-39000000D02*
X57440000Y-38350000D01*
X60560000Y-39000000D02*
X60560000Y-40675000D01*
X60560000Y-39000000D02*
X60560000Y-38350000D01*
%TO.C,C5*%
X130010000Y-72859420D02*
X130010000Y-73140580D01*
X128990000Y-72859420D02*
X128990000Y-73140580D01*
%TO.C,D2*%
X142515000Y-24765000D02*
X144800000Y-24765000D01*
X142515000Y-26235000D02*
X142515000Y-24765000D01*
X144800000Y-26235000D02*
X142515000Y-26235000D01*
%TO.C,U16*%
X66940000Y-115000000D02*
X66940000Y-115650000D01*
X66940000Y-115000000D02*
X66940000Y-114350000D01*
X70060000Y-115000000D02*
X70060000Y-116675000D01*
X70060000Y-115000000D02*
X70060000Y-114350000D01*
%TO.C,U28*%
X123940000Y-114000000D02*
X123940000Y-114650000D01*
X123940000Y-114000000D02*
X123940000Y-113350000D01*
X127060000Y-114000000D02*
X127060000Y-115675000D01*
X127060000Y-114000000D02*
X127060000Y-113350000D01*
%TD*%
%LPC*%
D15*
%TO.C,H29*%
X82420000Y-112000000D03*
X92580000Y-112000000D03*
%TD*%
%TO.C,H17*%
X72920000Y-74000000D03*
X83080000Y-74000000D03*
%TD*%
D16*
%TO.C,H34*%
X49500000Y-87500000D03*
%TD*%
D15*
%TO.C,H3*%
X72920000Y-36000000D03*
X83080000Y-36000000D03*
%TD*%
%TO.C,H20*%
X129920000Y-76000000D03*
X140080000Y-76000000D03*
%TD*%
%TO.C,H2*%
X53920000Y-39000000D03*
X64080000Y-39000000D03*
%TD*%
%TO.C,H31*%
X120420000Y-114000000D03*
X130580000Y-114000000D03*
%TD*%
%TO.C,H11*%
X91920000Y-54000000D03*
X102080000Y-54000000D03*
%TD*%
%TO.C,H19*%
X110920000Y-74000000D03*
X121080000Y-74000000D03*
%TD*%
%TO.C,H9*%
X53920000Y-58000000D03*
X64080000Y-58000000D03*
%TD*%
%TO.C,H24*%
X72920000Y-93000000D03*
X83080000Y-93000000D03*
%TD*%
%TO.C,H21*%
X148920000Y-76000000D03*
X159080000Y-76000000D03*
%TD*%
%TO.C,H1*%
X34920000Y-40000000D03*
X45080000Y-40000000D03*
%TD*%
%TO.C,H23*%
X53920000Y-96000000D03*
X64080000Y-96000000D03*
%TD*%
%TO.C,H10*%
X72920000Y-55000000D03*
X83080000Y-55000000D03*
%TD*%
D16*
%TO.C,H33*%
X49500000Y-49500000D03*
%TD*%
D15*
%TO.C,H14*%
X148920000Y-57000000D03*
X159080000Y-57000000D03*
%TD*%
D16*
%TO.C,H37*%
X144500000Y-47500000D03*
%TD*%
D15*
%TO.C,H32*%
X147600591Y-108460000D03*
X156399409Y-113540000D03*
%TD*%
%TO.C,H5*%
X110920000Y-36000000D03*
X121080000Y-36000000D03*
%TD*%
%TO.C,H16*%
X53920000Y-77000000D03*
X64080000Y-77000000D03*
%TD*%
%TO.C,H7*%
X148920000Y-38000000D03*
X159080000Y-38000000D03*
%TD*%
%TO.C,H13*%
X129920000Y-57000000D03*
X140080000Y-57000000D03*
%TD*%
D16*
%TO.C,H36*%
X144500000Y-104500000D03*
%TD*%
D15*
%TO.C,H30*%
X101420000Y-112000000D03*
X111580000Y-112000000D03*
%TD*%
%TO.C,H8*%
X34920000Y-59000000D03*
X45080000Y-59000000D03*
%TD*%
%TO.C,H15*%
X34920000Y-78000000D03*
X45080000Y-78000000D03*
%TD*%
%TO.C,H18*%
X91920000Y-73000000D03*
X102080000Y-73000000D03*
%TD*%
%TO.C,H25*%
X91920000Y-92000000D03*
X102080000Y-92000000D03*
%TD*%
D16*
%TO.C,H35*%
X97000000Y-101500000D03*
%TD*%
D15*
%TO.C,H26*%
X110920000Y-93000000D03*
X121080000Y-93000000D03*
%TD*%
%TO.C,H12*%
X110920000Y-55000000D03*
X121080000Y-55000000D03*
%TD*%
%TO.C,H6*%
X129920000Y-38000000D03*
X140080000Y-38000000D03*
%TD*%
%TO.C,H27*%
X129920000Y-95000000D03*
X140080000Y-95000000D03*
%TD*%
%TO.C,H28*%
X63420000Y-115000000D03*
X73580000Y-115000000D03*
%TD*%
D16*
%TO.C,H38*%
X97000000Y-44500000D03*
%TD*%
D15*
%TO.C,H4*%
X91920000Y-35000000D03*
X102080000Y-35000000D03*
%TD*%
%TO.C,H22*%
X34920000Y-97000000D03*
X45080000Y-97000000D03*
%TD*%
D17*
%TO.C,U33*%
X157200000Y-44350000D03*
X159500000Y-44350000D03*
D18*
X159500000Y-50650000D03*
D17*
X161800000Y-44350000D03*
%TD*%
D19*
%TO.C,U30*%
X59950000Y-77937500D03*
X58050000Y-77937500D03*
X59000000Y-76062500D03*
%TD*%
%TO.C,U1*%
X40950000Y-40937500D03*
X39050000Y-40937500D03*
X40000000Y-39062500D03*
%TD*%
D20*
%TO.C,R1*%
X147500000Y-27175000D03*
X147500000Y-28825000D03*
%TD*%
D21*
%TO.C,TP1*%
X142500000Y-59500000D03*
%TD*%
D22*
%TO.C,R3*%
X126325000Y-72000000D03*
X124675000Y-72000000D03*
%TD*%
D19*
%TO.C,U6*%
X78950000Y-55937500D03*
X77050000Y-55937500D03*
X78000000Y-54062500D03*
%TD*%
D23*
%TO.C,C4*%
X133225000Y-67000000D03*
X134775000Y-67000000D03*
%TD*%
D24*
%TO.C,C1*%
X155000000Y-48275000D03*
X155000000Y-46725000D03*
%TD*%
D19*
%TO.C,U21*%
X135950000Y-38937500D03*
X134050000Y-38937500D03*
X135000000Y-37062500D03*
%TD*%
%TO.C,U7*%
X97950000Y-73937500D03*
X96050000Y-73937500D03*
X97000000Y-72062500D03*
%TD*%
%TO.C,U14*%
X116950000Y-55937500D03*
X115050000Y-55937500D03*
X116000000Y-54062500D03*
%TD*%
%TO.C,U25*%
X154950000Y-38937500D03*
X153050000Y-38937500D03*
X154000000Y-37062500D03*
%TD*%
D25*
%TO.C,IC4*%
X102055000Y-98788000D03*
X103325000Y-98788000D03*
X104595000Y-98788000D03*
X105865000Y-98788000D03*
X107135000Y-98788000D03*
X108405000Y-98788000D03*
X109675000Y-98788000D03*
X110945000Y-98788000D03*
X110945000Y-104212000D03*
X109675000Y-104212000D03*
X108405000Y-104212000D03*
X107135000Y-104212000D03*
X105865000Y-104212000D03*
X104595000Y-104212000D03*
X103325000Y-104212000D03*
X102055000Y-104212000D03*
%TD*%
D19*
%TO.C,U23*%
X40950000Y-97937500D03*
X39050000Y-97937500D03*
X40000000Y-96062500D03*
%TD*%
D26*
%TO.C,U32*%
X152353974Y-112286899D03*
X150708526Y-111336899D03*
X152468750Y-110188101D03*
%TD*%
D27*
%TO.C,SW1*%
X141500000Y-71375000D03*
X147500000Y-71375000D03*
X141500000Y-67625000D03*
X147500000Y-67625000D03*
%TD*%
D28*
%TO.C,MCU1*%
X128250000Y-68662500D03*
X127750000Y-68662500D03*
X127250000Y-68662500D03*
X126750000Y-68662500D03*
X126250000Y-68662500D03*
X125750000Y-68662500D03*
X125250000Y-68662500D03*
X124750000Y-68662500D03*
X124250000Y-68662500D03*
X123750000Y-68662500D03*
X123250000Y-68662500D03*
X122750000Y-68662500D03*
D29*
X121337500Y-67250000D03*
X121337500Y-66750000D03*
X121337500Y-66250000D03*
X121337500Y-65750000D03*
X121337500Y-65250000D03*
X121337500Y-64750000D03*
X121337500Y-64250000D03*
X121337500Y-63750000D03*
X121337500Y-63250000D03*
X121337500Y-62750000D03*
X121337500Y-62250000D03*
X121337500Y-61750000D03*
D28*
X122750000Y-60337500D03*
X123250000Y-60337500D03*
X123750000Y-60337500D03*
X124250000Y-60337500D03*
X124750000Y-60337500D03*
X125250000Y-60337500D03*
X125750000Y-60337500D03*
X126250000Y-60337500D03*
X126750000Y-60337500D03*
X127250000Y-60337500D03*
X127750000Y-60337500D03*
X128250000Y-60337500D03*
D29*
X129662500Y-61750000D03*
X129662500Y-62250000D03*
X129662500Y-62750000D03*
X129662500Y-63250000D03*
X129662500Y-63750000D03*
X129662500Y-64250000D03*
X129662500Y-64750000D03*
X129662500Y-65250000D03*
X129662500Y-65750000D03*
X129662500Y-66250000D03*
X129662500Y-66750000D03*
X129662500Y-67250000D03*
%TD*%
D27*
%TO.C,SW2*%
X141500000Y-65375000D03*
X147500000Y-65375000D03*
X141500000Y-61625000D03*
X147500000Y-61625000D03*
%TD*%
D19*
%TO.C,U4*%
X97950000Y-92937500D03*
X96050000Y-92937500D03*
X97000000Y-91062500D03*
%TD*%
D30*
%TO.C,C9*%
X128000000Y-73950000D03*
X128000000Y-75500000D03*
%TD*%
D19*
%TO.C,U22*%
X154950000Y-57937500D03*
X153050000Y-57937500D03*
X154000000Y-56062500D03*
%TD*%
%TO.C,U11*%
X116950000Y-74937500D03*
X115050000Y-74937500D03*
X116000000Y-73062500D03*
%TD*%
D25*
%TO.C,IC1*%
X102055000Y-41788000D03*
X103325000Y-41788000D03*
X104595000Y-41788000D03*
X105865000Y-41788000D03*
X107135000Y-41788000D03*
X108405000Y-41788000D03*
X109675000Y-41788000D03*
X110945000Y-41788000D03*
X110945000Y-47212000D03*
X109675000Y-47212000D03*
X108405000Y-47212000D03*
X107135000Y-47212000D03*
X105865000Y-47212000D03*
X104595000Y-47212000D03*
X103325000Y-47212000D03*
X102055000Y-47212000D03*
%TD*%
D19*
%TO.C,U20*%
X88450000Y-112937500D03*
X86550000Y-112937500D03*
X87500000Y-111062500D03*
%TD*%
%TO.C,U24*%
X107450000Y-112937500D03*
X105550000Y-112937500D03*
X106500000Y-111062500D03*
%TD*%
D30*
%TO.C,C2*%
X164000000Y-46725000D03*
X164000000Y-48275000D03*
%TD*%
D19*
%TO.C,U31*%
X78950000Y-93937500D03*
X77050000Y-93937500D03*
X78000000Y-92062500D03*
%TD*%
D31*
%TO.C,Y1*%
X126350000Y-73900000D03*
X126350000Y-76100000D03*
X124650000Y-76100000D03*
X124650000Y-73900000D03*
%TD*%
D19*
%TO.C,U18*%
X135950000Y-57937500D03*
X134050000Y-57937500D03*
X135000000Y-56062500D03*
%TD*%
%TO.C,U19*%
X154950000Y-76937500D03*
X153050000Y-76937500D03*
X154000000Y-75062500D03*
%TD*%
%TO.C,U17*%
X116950000Y-36937500D03*
X115050000Y-36937500D03*
X116000000Y-35062500D03*
%TD*%
%TO.C,U27*%
X59950000Y-96937500D03*
X58050000Y-96937500D03*
X59000000Y-95062500D03*
%TD*%
D25*
%TO.C,IC3*%
X102055000Y-79788000D03*
X103325000Y-79788000D03*
X104595000Y-79788000D03*
X105865000Y-79788000D03*
X107135000Y-79788000D03*
X108405000Y-79788000D03*
X109675000Y-79788000D03*
X110945000Y-79788000D03*
X110945000Y-85212000D03*
X109675000Y-85212000D03*
X108405000Y-85212000D03*
X107135000Y-85212000D03*
X105865000Y-85212000D03*
X104595000Y-85212000D03*
X103325000Y-85212000D03*
X102055000Y-85212000D03*
%TD*%
D32*
%TO.C,D1*%
X143562500Y-33950000D03*
X143562500Y-32050000D03*
X145437500Y-33000000D03*
%TD*%
D33*
%TO.C,R5*%
X143175000Y-27000000D03*
X144825000Y-27000000D03*
%TD*%
D19*
%TO.C,U26*%
X40950000Y-78937500D03*
X39050000Y-78937500D03*
X40000000Y-77062500D03*
%TD*%
D25*
%TO.C,IC2*%
X102055000Y-60788000D03*
X103325000Y-60788000D03*
X104595000Y-60788000D03*
X105865000Y-60788000D03*
X107135000Y-60788000D03*
X108405000Y-60788000D03*
X109675000Y-60788000D03*
X110945000Y-60788000D03*
X110945000Y-66212000D03*
X109675000Y-66212000D03*
X108405000Y-66212000D03*
X107135000Y-66212000D03*
X105865000Y-66212000D03*
X104595000Y-66212000D03*
X103325000Y-66212000D03*
X102055000Y-66212000D03*
%TD*%
D19*
%TO.C,U8*%
X116950000Y-93937500D03*
X115050000Y-93937500D03*
X116000000Y-92062500D03*
%TD*%
%TO.C,U15*%
X135950000Y-76937500D03*
X134050000Y-76937500D03*
X135000000Y-75062500D03*
%TD*%
%TO.C,U9*%
X78950000Y-36937500D03*
X77050000Y-36937500D03*
X78000000Y-35062500D03*
%TD*%
D21*
%TO.C,TP3*%
X142500000Y-55500000D03*
%TD*%
D19*
%TO.C,U10*%
X97950000Y-54937500D03*
X96050000Y-54937500D03*
X97000000Y-53062500D03*
%TD*%
D34*
%TO.C,C6*%
X117775000Y-62000000D03*
X116225000Y-62000000D03*
%TD*%
D19*
%TO.C,U2*%
X59950000Y-58937500D03*
X58050000Y-58937500D03*
X59000000Y-57062500D03*
%TD*%
%TO.C,U13*%
X97950000Y-35937500D03*
X96050000Y-35937500D03*
X97000000Y-34062500D03*
%TD*%
%TO.C,U3*%
X78950000Y-74937500D03*
X77050000Y-74937500D03*
X78000000Y-73062500D03*
%TD*%
D21*
%TO.C,TP4*%
X142500000Y-53500000D03*
%TD*%
D23*
%TO.C,C11*%
X143725000Y-73500000D03*
X145275000Y-73500000D03*
%TD*%
D34*
%TO.C,C7*%
X122275000Y-72000000D03*
X120725000Y-72000000D03*
%TD*%
D35*
%TO.C,J2*%
X151110000Y-27105000D03*
X156890000Y-27105000D03*
D36*
X150650000Y-28170000D03*
X151450000Y-28170000D03*
X152750000Y-28170000D03*
X153750000Y-28170000D03*
X154250000Y-28170000D03*
X155250000Y-28170000D03*
X156550000Y-28170000D03*
X157350000Y-28170000D03*
X157050000Y-28170000D03*
X156250000Y-28170000D03*
X155750000Y-28170000D03*
X154750000Y-28170000D03*
X153250000Y-28170000D03*
X152250000Y-28170000D03*
X151750000Y-28170000D03*
X150950000Y-28170000D03*
D37*
X149680000Y-23425000D03*
D38*
X149680000Y-27605000D03*
D37*
X158320000Y-23425000D03*
D38*
X158320000Y-27605000D03*
%TD*%
D21*
%TO.C,TP2*%
X142500000Y-57500000D03*
%TD*%
D23*
%TO.C,C10*%
X124725000Y-78000000D03*
X126275000Y-78000000D03*
%TD*%
D19*
%TO.C,U12*%
X135950000Y-95937500D03*
X134050000Y-95937500D03*
X135000000Y-94062500D03*
%TD*%
%TO.C,U29*%
X40950000Y-59937500D03*
X39050000Y-59937500D03*
X40000000Y-58062500D03*
%TD*%
D33*
%TO.C,R4*%
X133175000Y-65500000D03*
X134825000Y-65500000D03*
%TD*%
D20*
%TO.C,R2*%
X160500000Y-27175000D03*
X160500000Y-28825000D03*
%TD*%
D24*
%TO.C,C3*%
X128000000Y-56775000D03*
X128000000Y-55225000D03*
%TD*%
D19*
%TO.C,U5*%
X59950000Y-39937500D03*
X58050000Y-39937500D03*
X59000000Y-38062500D03*
%TD*%
D30*
%TO.C,C5*%
X129500000Y-72225000D03*
X129500000Y-73775000D03*
%TD*%
D39*
%TO.C,D2*%
X143212500Y-25500000D03*
X144787500Y-25500000D03*
%TD*%
D19*
%TO.C,U16*%
X69450000Y-115937500D03*
X67550000Y-115937500D03*
X68500000Y-114062500D03*
%TD*%
%TO.C,U28*%
X126450000Y-114937500D03*
X124550000Y-114937500D03*
X125500000Y-113062500D03*
%TD*%
%LPD*%
M02*
