M48
; DRILL file {KiCad 7.0.6} date Sat Sep  2 14:36:04 2023
; FORMAT={-:-/ absolute / inch / decimal}
; #@! TF.CreationDate,2023-09-02T14:36:04+09:00
; #@! TF.GenerationSoftware,Kicad,Pcbnew,7.0.6
; #@! TF.FileFunction,Plated,1,2,PTH
FMAT,2
INCH
; #@! TA.AperFunction,Plated,PTH,ViaDrill
T1C0.0157
; #@! TA.AperFunction,Plated,PTH,ComponentDrill
T2C0.0236
; #@! TA.AperFunction,Plated,PTH,ComponentDrill
T3C0.0394
%
G90
G05
T1
X2.0472Y-2.0669
X2.0472Y-2.2638
X2.0472Y-2.4606
X2.0472Y-2.6575
X2.0472Y-2.8543
X2.0472Y-3.0512
X2.0472Y-3.248
X2.0472Y-3.4449
X2.0472Y-3.6417
X2.0472Y-3.8386
X2.0472Y-4.0354
X2.0472Y-4.2323
X2.0472Y-4.4291
X2.0472Y-4.626
X2.0472Y-4.8228
X2.0472Y-5.0197
X2.0472Y-5.2165
X2.0472Y-5.4134
X2.0472Y-5.6102
X2.0472Y-5.8071
X2.0472Y-6.0039
X2.2441Y-2.0669
X2.2441Y-6.0039
X2.2638Y-3.2087
X2.2638Y-3.4055
X2.2638Y-3.9961
X2.2638Y-4.1535
X2.2835Y-2.5787
X2.2835Y-3.3268
X2.2835Y-4.0748
X2.2839Y-4.7249
X2.4409Y-2.0669
X2.4409Y-3.0315
X2.4409Y-3.1496
X2.4409Y-3.8189
X2.4409Y-3.937
X2.4409Y-4.6654
X2.4409Y-4.7244
X2.4409Y-6.0039
X2.4803Y-2.6575
X2.4803Y-3.3268
X2.4803Y-4.0748
X2.4806Y-4.921
X2.5197Y-3.0118
X2.5197Y-3.0906
X2.5197Y-3.7402
X2.5197Y-3.8583
X2.5197Y-4.6654
X2.5197Y-4.7244
X2.5394Y-4.9213
X2.6378Y-2.0669
X2.6378Y-6.0039
X2.6575Y-3.0118
X2.6575Y-3.0906
X2.6575Y-3.6614
X2.6575Y-3.7402
X2.6575Y-4.6654
X2.6575Y-4.7244
X2.8346Y-2.0669
X2.8346Y-2.9528
X2.8346Y-6.0039
X2.8543Y-3.0709
X2.8543Y-3.6614
X2.8543Y-3.7402
X2.8543Y-4.5866
X2.8543Y-4.7047
X2.9528Y-4.6063
X3.0315Y-2.0669
X3.0315Y-2.5394
X3.0315Y-3.2874
X3.0315Y-4.0354
X3.0315Y-4.685
X3.0315Y-6.0039
X3.0512Y-2.9134
X3.0512Y-3.0118
X3.0512Y-3.6614
X3.0512Y-3.7402
X3.0512Y-4.4094
X3.0512Y-4.5472
X3.189Y-3.6614
X3.189Y-3.7402
X3.189Y-4.1732
X3.189Y-4.4094
X3.189Y-4.5079
X3.2283Y-2.0669
X3.2283Y-2.6181
X3.2283Y-3.2874
X3.2283Y-4.0354
X3.2283Y-4.7835
X3.2283Y-6.0039
X3.2677Y-2.6969
X3.2677Y-2.815
X3.2677Y-2.9134
X3.2677Y-3.0118
X3.2677Y-3.5039
X3.2677Y-3.6024
X3.2677Y-3.6614
X3.2677Y-3.7402
X3.2677Y-4.1043
X3.2677Y-4.1732
X3.2677Y-4.4094
X3.2677Y-4.5079
X3.3563Y-4.685
X3.4252Y-2.0669
X3.4252Y-6.0039
X3.4449Y-2.874
X3.4449Y-3.0118
X3.4449Y-3.6319
X3.4449Y-3.7402
X3.4449Y-3.9567
X3.4449Y-4.0748
X3.4449Y-4.4094
X3.4449Y-4.5079
X3.4449Y-5.3445
X3.5039Y-5.4331
X3.622Y-2.0669
X3.622Y-6.0039
X3.6417Y-2.8937
X3.6417Y-3.0118
X3.6417Y-3.6417
X3.6417Y-3.747
X3.6417Y-4.4094
X3.6417Y-4.5079
X3.6417Y-5.1575
X3.6417Y-5.2756
X3.7205Y-4.8425
X3.7795Y-2.4213
X3.7795Y-3.1693
X3.7795Y-3.9173
X3.7795Y-4.6654
X3.8189Y-2.0669
X3.8189Y-6.0039
X3.8386Y-2.5492
X3.8386Y-2.8937
X3.8386Y-3.0118
X3.8386Y-3.2972
X3.8386Y-3.6417
X3.8386Y-3.7598
X3.8386Y-4.4094
X3.8386Y-4.5079
X3.8386Y-4.9606
X3.8386Y-5.0787
X3.878Y-4.5669
X3.9764Y-2.5
X3.9764Y-3.1693
X3.9764Y-3.9173
X3.9764Y-4.6654
X4.0059Y-4.5177
X4.0157Y-2.0669
X4.0157Y-6.0039
X4.0354Y-2.6476
X4.0354Y-2.7461
X4.0354Y-2.8937
X4.0354Y-3.0118
X4.0354Y-3.3957
X4.0354Y-3.4941
X4.0354Y-3.6417
X4.0354Y-3.7598
X4.0354Y-4.4094
X4.0354Y-4.8425
X4.0354Y-4.9409
X4.1732Y-3.6417
X4.1831Y-2.8937
X4.1929Y-5.5413
X4.2028Y-4.4094
X4.2126Y-2.0669
X4.2126Y-3.7598
X4.2126Y-6.0039
X4.2323Y-3.0118
X4.2323Y-4.5472
X4.2323Y-4.8425
X4.2323Y-4.9409
X4.2323Y-5.2362
X4.252Y-5.315
X4.252Y-5.5906
X4.2618Y-2.8642
X4.2717Y-3.6319
X4.4094Y-2.0669
X4.4094Y-6.0039
X4.4291Y-2.874
X4.4291Y-3.0118
X4.4291Y-3.622
X4.4291Y-3.7598
X4.4291Y-4.3898
X4.4291Y-4.5472
X4.4291Y-4.8425
X4.4291Y-4.9409
X4.4291Y-5.2165
X4.4291Y-5.315
X4.5276Y-2.3819
X4.5276Y-3.0118
X4.5276Y-3.1299
X4.5276Y-3.7598
X4.5276Y-3.878
X4.5276Y-4.626
X4.5325Y-3.4301
X4.6063Y-2.0669
X4.6063Y-6.0039
X4.626Y-2.5394
X4.626Y-2.874
X4.626Y-3.0118
X4.626Y-3.622
X4.626Y-3.7598
X4.626Y-4.3898
X4.626Y-4.8425
X4.626Y-5.2165
X4.626Y-5.315
X4.7244Y-2.4606
X4.7244Y-3.1299
X4.7244Y-3.8878
X4.7244Y-4.6309
X4.7638Y-4.7244
X4.7638Y-4.8425
X4.7638Y-5.1575
X4.8031Y-2.0669
X4.8031Y-6.0039
X4.8228Y-2.5591
X4.8228Y-3.622
X4.8228Y-3.7598
X4.8228Y-4.252
X4.8228Y-4.3898
X4.8228Y-4.5276
X4.8228Y-5.2165
X4.8228Y-5.315
X4.8425Y-4.0748
X4.872Y-3.9468
X4.872Y-4.252
X4.9016Y-4.0748
X4.9016Y-5.1772
X4.9114Y-3.002
X4.9213Y-2.5394
X4.9213Y-4.252
X4.9409Y-5.5315
X4.9606Y-3.7992
X4.9705Y-5.0591
X4.9803Y-5.2362
X5.0Y-2.0669
X5.0Y-2.7559
X5.0Y-3.5039
X5.0Y-3.878
X5.0Y-3.9961
X5.0Y-4.252
X5.0Y-4.9803
X5.0Y-5.315
X5.0Y-5.5807
X5.0Y-6.0039
X5.0098Y-4.6654
X5.0197Y-2.4409
X5.0394Y-4.428
X5.0782Y-4.8223
X5.0787Y-2.5197
X5.0787Y-3.6909
X5.0787Y-4.1934
X5.0881Y-5.0497
X5.0925Y-2.9335
X5.1083Y-5.6201
X5.1083Y-5.2067
X5.1181Y-2.6772
X5.1181Y-4.1929
X5.1181Y-4.8228
X5.128Y-3.3465
X5.1378Y-3.75
X5.1378Y-5.3937
X5.1569Y-3.3169
X5.1575Y-2.7165
X5.1575Y-3.4764
X5.1575Y-3.9961
X5.1969Y-2.0669
X5.1969Y-3.3366
X5.1969Y-6.0039
X5.2165Y-2.5197
X5.2165Y-2.7953
X5.2165Y-2.8642
X5.2165Y-2.9921
X5.2165Y-4.4685
X5.2165Y-4.5866
X5.2165Y-4.7244
X5.2165Y-4.8228
X5.2165Y-4.9803
X5.2165Y-5.0591
X5.2165Y-5.2953
X5.2362Y-3.3661
X5.2559Y-4.8932
X5.2657Y-3.6122
X5.2756Y-2.4213
X5.2756Y-2.7559
X5.2756Y-3.1594
X5.2756Y-3.9173
X5.2756Y-4.1452
X5.2756Y-4.2913
X5.2756Y-4.6654
X5.2854Y-3.3858
X5.2953Y-3.5827
X5.3248Y-3.6122
X5.3346Y-3.4449
X5.3346Y-4.7638
X5.3543Y-3.6422
X5.3543Y-3.5236
X5.3937Y-2.0669
X5.3937Y-6.0039
X5.4134Y-2.5197
X5.4134Y-2.6378
X5.4134Y-2.7953
X5.4134Y-2.8642
X5.4134Y-2.9921
X5.4134Y-3.7402
X5.4134Y-4.9016
X5.4134Y-5.0197
X5.4134Y-5.3543
X5.4134Y-5.4528
X5.4232Y-4.1929
X5.4232Y-4.3504
X5.4429Y-3.6417
X5.4578Y-3.8238
X5.4606Y-4.1339
X5.4606Y-4.3209
X5.4724Y-2.4803
X5.4724Y-2.6378
X5.4724Y-3.1594
X5.4724Y-4.6654
X5.4724Y-4.8917
X5.4921Y-3.4449
X5.4921Y-4.0354
X5.4921Y-4.1929
X5.4921Y-4.3504
X5.4921Y-4.5472
X5.4921Y-4.7244
X5.4921Y-4.8228
X5.4928Y-3.8419
X5.5315Y-3.6614
X5.5512Y-4.1929
X5.5512Y-4.3504
X5.5512Y-4.5472
X5.5512Y-4.7244
X5.5512Y-4.8228
X5.5555Y-3.4055
X5.563Y-4.0354
X5.5787Y-3.689
X5.5906Y-2.0669
X5.5906Y-2.6181
X5.5906Y-2.9921
X5.5906Y-3.0807
X5.5906Y-4.1142
X5.5906Y-6.0039
X5.6004Y-2.7953
X5.6004Y-3.4055
X5.6102Y-2.5197
X5.6102Y-5.3543
X5.6102Y-5.4921
X5.6122Y-3.3043
X5.6299Y-2.874
X5.6299Y-3.9764
X5.6398Y-5.5709
X5.6681Y-3.3016
X5.6693Y-2.9921
X5.6693Y-3.0807
X5.6693Y-3.1988
X5.7087Y-3.5039
X5.7087Y-3.5827
X5.748Y-2.6181
X5.748Y-2.9921
X5.748Y-3.5433
X5.7667Y-3.1299
X5.7874Y-2.0669
X5.7874Y-3.5039
X5.7874Y-3.5827
X5.7874Y-6.0039
X5.8071Y-4.1142
X5.8071Y-4.1929
X5.8071Y-4.2717
X5.8071Y-4.7638
X5.8071Y-4.8228
X5.8071Y-5.3543
X5.8081Y-3.1299
X5.8122Y-2.3476
X5.8169Y-3.7697
X5.8268Y-2.5197
X5.8268Y-2.6181
X5.8268Y-2.9921
X5.8414Y-2.3768
X5.8563Y-5.4921
X5.8858Y-5.5709
X5.9016Y-3.311
X5.9055Y-3.1693
X5.9055Y-5.3543
X5.9646Y-3.4055
X5.9646Y-3.7008
X5.9843Y-2.0669
X5.9843Y-3.6024
X5.9843Y-6.0039
X5.9843Y-3.5138
X6.0039Y-2.6181
X6.0039Y-2.9921
X6.0039Y-3.0512
X6.0039Y-3.3268
X6.0039Y-4.0551
X6.0039Y-4.1929
X6.0039Y-4.2717
X6.0039Y-4.8228
X6.0039Y-5.3543
X6.0039Y-5.4331
X6.0236Y-3.1693
X6.0236Y-3.9961
X6.0236Y-4.7441
X6.0827Y-3.4843
X6.11Y-5.6201
X6.122Y-2.4016
X6.1614Y-3.6417
X6.1614Y-3.5827
X6.1614Y-3.8386
X6.1811Y-2.0669
X6.1811Y-2.6181
X6.1811Y-2.9921
X6.1811Y-3.0512
X6.1811Y-4.1929
X6.1811Y-4.2717
X6.1811Y-5.3543
X6.1811Y-5.4331
X6.1811Y-6.0039
X6.185Y-3.3455
X6.185Y-3.4055
X6.2205Y-2.5492
X6.2205Y-3.248
X6.2205Y-3.6811
X6.2205Y-3.9961
X6.2205Y-4.5866
X6.2205Y-4.7441
X6.2598Y-2.6181
X6.2598Y-2.9921
X6.2598Y-3.0512
X6.2598Y-3.4843
X6.2598Y-4.1929
X6.2598Y-4.2717
X6.2598Y-5.3543
X6.2598Y-5.4331
X6.3268Y-3.4134
X6.378Y-2.0669
X6.378Y-6.0039
X6.3971Y-3.5133
X6.3976Y-2.5394
X6.3976Y-2.6181
X6.3976Y-2.9921
X6.3976Y-3.0512
X6.3976Y-4.1929
X6.3976Y-4.2717
X6.3976Y-5.3543
X6.3976Y-5.4331
X6.3976Y-2.3031
X6.4468Y-3.5138
X6.4567Y-3.3957
X6.4665Y-3.8484
X6.4961Y-3.2185
X6.4961Y-3.5138
X6.4961Y-3.7402
X6.5089Y-2.1752
X6.5157Y-3.3957
X6.565Y-3.3957
X6.5748Y-6.0039
X6.5945Y-2.3031
X6.5945Y-2.5394
X6.5945Y-2.6181
X6.5945Y-2.9921
X6.5945Y-4.1929
X6.5945Y-4.2717
X6.5945Y-5.3543
X6.5945Y-5.4331
X6.6535Y-3.5039
X6.6929Y-2.1752
X6.6929Y-5.4528
X6.7717Y-2.5394
X6.7717Y-2.6181
X6.7717Y-2.7067
X6.7717Y-3.1693
X6.7717Y-3.2874
X6.7717Y-3.9173
X6.7717Y-6.0039
X6.7754Y-2.2085
X6.7913Y-3.4252
X6.7913Y-3.5039
X6.7913Y-3.5827
X6.7913Y-3.6614
X6.7913Y-4.1339
X6.811Y-1.9291
X6.811Y-2.0669
X6.811Y-5.2362
X6.8701Y-1.6535
X6.8701Y-1.752
X6.8701Y-2.4016
X6.8996Y-4.0945
X6.9291Y-1.9291
X6.9291Y-2.0669
X6.9291Y-3.4252
X6.9291Y-3.5827
X6.9291Y-3.6614
X6.9488Y-2.2835
X6.9685Y-3.2283
X6.9685Y-3.5236
X6.9685Y-3.9961
X6.9685Y-6.0039
X7.0079Y-3.4252
X7.0079Y-3.5827
X7.0079Y-3.6614
X7.126Y-2.0669
X7.1654Y-6.0039
X7.1772Y-2.6772
X7.3622Y-2.0669
X7.3622Y-2.2638
X7.3622Y-2.4606
X7.3622Y-2.6575
X7.3622Y-2.8543
X7.3622Y-3.0512
X7.3622Y-3.248
X7.3622Y-3.4449
X7.3622Y-3.6417
X7.3622Y-3.8386
X7.3622Y-4.0354
X7.3622Y-4.2323
X7.3622Y-4.4291
X7.3622Y-4.626
X7.3622Y-4.8228
X7.3622Y-5.0197
X7.3622Y-5.2165
X7.3622Y-5.4134
X7.3622Y-5.6102
X7.3622Y-5.8071
X7.3622Y-6.0039
T3
X7.2441Y-3.422
X7.2441Y-3.522
X7.2441Y-3.622
X7.2441Y-3.722
X7.2441Y-3.822
T2
G00X6.7Y-1.6781
M15
G01X6.7Y-1.7018
M16
G05
G00X6.7Y-1.8329
M15
G01X6.7Y-1.8762
M16
G05
G00X7.0402Y-1.6781
M15
G01X7.0402Y-1.7018
M16
G05
G00X7.0402Y-1.8329
M15
G01X7.0402Y-1.8762
M16
G05
T0
M30
