M48
; DRILL file {KiCad 7.0.6} date Sat Sep  2 14:36:04 2023
; FORMAT={-:-/ absolute / inch / decimal}
; #@! TF.CreationDate,2023-09-02T14:36:04+09:00
; #@! TF.GenerationSoftware,Kicad,Pcbnew,7.0.6
; #@! TF.FileFunction,NonPlated,1,2,NPTH
FMAT,2
INCH
; #@! TA.AperFunction,NonPlated,NPTH,ComponentDrill
T1C0.0256
; #@! TA.AperFunction,NonPlated,NPTH,ComponentDrill
T2C0.0689
; #@! TA.AperFunction,NonPlated,NPTH,ComponentDrill
T3C0.0866
%
G90
G05
T1
X6.7563Y-1.8348
X6.9839Y-1.8348
T2
X2.1819Y-2.5787
X2.1819Y-3.3268
X2.1819Y-4.0748
X2.1819Y-4.8228
X2.5819Y-2.5787
X2.5819Y-3.3268
X2.5819Y-4.0748
X2.5819Y-4.8228
X2.9299Y-2.5394
X2.9299Y-3.2874
X2.9299Y-4.0354
X2.9299Y-4.7835
X3.3039Y-5.5315
X3.3299Y-2.5394
X3.3299Y-3.2874
X3.3299Y-4.0354
X3.3299Y-4.7835
X3.678Y-2.4213
X3.678Y-3.1693
X3.678Y-3.9173
X3.678Y-4.6654
X3.7039Y-5.5315
X4.052Y-5.4134
X4.078Y-2.4213
X4.078Y-3.1693
X4.078Y-3.9173
X4.078Y-4.6654
X4.426Y-2.3819
X4.426Y-3.1299
X4.426Y-3.878
X4.426Y-4.626
X4.452Y-5.4134
X4.8Y-5.4134
X4.826Y-2.3819
X4.826Y-3.1299
X4.826Y-3.878
X4.826Y-4.626
X5.174Y-2.4213
X5.174Y-3.1693
X5.174Y-3.9173
X5.174Y-4.6654
X5.2Y-5.4134
X5.548Y-5.4921
X5.574Y-2.4213
X5.574Y-3.1693
X5.574Y-3.9173
X5.574Y-4.6654
X5.922Y-2.5
X5.922Y-3.248
X5.922Y-3.9961
X5.922Y-4.7441
X5.948Y-5.4921
X6.322Y-2.5
X6.322Y-3.248
X6.322Y-3.9961
X6.322Y-4.7441
X6.6181Y-5.274
X6.6701Y-2.5
X6.6701Y-3.248
X6.6701Y-3.9961
X6.9645Y-5.474
X7.0701Y-2.5
X7.0701Y-3.248
X7.0701Y-3.9961
T3
X2.7559Y-2.9528
X2.7559Y-4.4488
X4.626Y-2.7559
X4.626Y-5.0
X6.4961Y-2.874
X6.4961Y-5.1181
T0
M30
