%TF.GenerationSoftware,KiCad,Pcbnew,7.0.6*%
%TF.CreationDate,2023-09-02T14:36:04+09:00*%
%TF.ProjectId,ember,656d6265-722e-46b6-9963-61645f706362,rev?*%
%TF.SameCoordinates,Original*%
%TF.FileFunction,Legend,Top*%
%TF.FilePolarity,Positive*%
%FSLAX46Y46*%
G04 Gerber Fmt 4.6, Leading zero omitted, Abs format (unit mm)*
G04 Created by KiCad (PCBNEW 7.0.6) date 2023-09-02 14:36:04*
%MOMM*%
%LPD*%
G01*
G04 APERTURE LIST*
%ADD10C,0.150000*%
%ADD11C,0.300000*%
%ADD12C,1.750000*%
%ADD13C,2.200000*%
%ADD14R,1.700000X1.700000*%
%ADD15O,1.700000X1.700000*%
%ADD16C,0.650000*%
%ADD17O,1.000000X1.600000*%
%ADD18O,1.000000X2.100000*%
G04 APERTURE END LIST*
D10*
%TO.C,H35*%
X101000000Y-130500000D02*
X101000000Y-132500000D01*
X101000000Y-142500000D02*
X101000000Y-144500000D01*
X101000000Y-144500000D02*
X103000000Y-144500000D01*
X103000000Y-130500000D02*
X101000000Y-130500000D01*
X113000000Y-130500000D02*
X115000000Y-130500000D01*
X113000000Y-144500000D02*
X115000000Y-144500000D01*
X115000000Y-130500000D02*
X115000000Y-132500000D01*
X115000000Y-144500000D02*
X115000000Y-142500000D01*
%TO.C,H23*%
X91500000Y-92500000D02*
X91500000Y-94500000D01*
X91500000Y-104500000D02*
X91500000Y-106500000D01*
X91500000Y-106500000D02*
X93500000Y-106500000D01*
X93500000Y-92500000D02*
X91500000Y-92500000D01*
X103500000Y-92500000D02*
X105500000Y-92500000D01*
X103500000Y-106500000D02*
X105500000Y-106500000D01*
X105500000Y-92500000D02*
X105500000Y-94500000D01*
X105500000Y-106500000D02*
X105500000Y-104500000D01*
%TO.C,H9*%
X91500000Y-54500000D02*
X91500000Y-56500000D01*
X91500000Y-66500000D02*
X91500000Y-68500000D01*
X91500000Y-68500000D02*
X93500000Y-68500000D01*
X93500000Y-54500000D02*
X91500000Y-54500000D01*
X103500000Y-54500000D02*
X105500000Y-54500000D01*
X103500000Y-68500000D02*
X105500000Y-68500000D01*
X105500000Y-54500000D02*
X105500000Y-56500000D01*
X105500000Y-68500000D02*
X105500000Y-66500000D01*
%TO.C,H26*%
X148500000Y-94500000D02*
X148500000Y-96500000D01*
X148500000Y-106500000D02*
X148500000Y-108500000D01*
X148500000Y-108500000D02*
X150500000Y-108500000D01*
X150500000Y-94500000D02*
X148500000Y-94500000D01*
X160500000Y-94500000D02*
X162500000Y-94500000D01*
X160500000Y-108500000D02*
X162500000Y-108500000D01*
X162500000Y-94500000D02*
X162500000Y-96500000D01*
X162500000Y-108500000D02*
X162500000Y-106500000D01*
%TO.C,H8*%
X72500000Y-57500000D02*
X72500000Y-59500000D01*
X72500000Y-69500000D02*
X72500000Y-71500000D01*
X72500000Y-71500000D02*
X74500000Y-71500000D01*
X74500000Y-57500000D02*
X72500000Y-57500000D01*
X84500000Y-57500000D02*
X86500000Y-57500000D01*
X84500000Y-71500000D02*
X86500000Y-71500000D01*
X86500000Y-57500000D02*
X86500000Y-59500000D01*
X86500000Y-71500000D02*
X86500000Y-69500000D01*
%TO.C,H37*%
X139000000Y-132500000D02*
X139000000Y-134500000D01*
X139000000Y-144500000D02*
X139000000Y-146500000D01*
X139000000Y-146500000D02*
X141000000Y-146500000D01*
X141000000Y-132500000D02*
X139000000Y-132500000D01*
X151000000Y-132500000D02*
X153000000Y-132500000D01*
X151000000Y-146500000D02*
X153000000Y-146500000D01*
X153000000Y-132500000D02*
X153000000Y-134500000D01*
X153000000Y-146500000D02*
X153000000Y-144500000D01*
%TO.C,H17*%
X110500000Y-72500000D02*
X110500000Y-74500000D01*
X110500000Y-84500000D02*
X110500000Y-86500000D01*
X110500000Y-86500000D02*
X112500000Y-86500000D01*
X112500000Y-72500000D02*
X110500000Y-72500000D01*
X122500000Y-72500000D02*
X124500000Y-72500000D01*
X122500000Y-86500000D02*
X124500000Y-86500000D01*
X124500000Y-72500000D02*
X124500000Y-74500000D01*
X124500000Y-86500000D02*
X124500000Y-84500000D01*
%TO.C,H25*%
X129500000Y-92500000D02*
X129500000Y-94500000D01*
X129500000Y-104500000D02*
X129500000Y-106500000D01*
X129500000Y-106500000D02*
X131500000Y-106500000D01*
X131500000Y-92500000D02*
X129500000Y-92500000D01*
X141500000Y-92500000D02*
X143500000Y-92500000D01*
X141500000Y-106500000D02*
X143500000Y-106500000D01*
X143500000Y-92500000D02*
X143500000Y-94500000D01*
X143500000Y-106500000D02*
X143500000Y-104500000D01*
%TO.C,H15*%
X72500000Y-76500000D02*
X72500000Y-78500000D01*
X72500000Y-88500000D02*
X72500000Y-90500000D01*
X72500000Y-90500000D02*
X74500000Y-90500000D01*
X74500000Y-76500000D02*
X72500000Y-76500000D01*
X84500000Y-76500000D02*
X86500000Y-76500000D01*
X84500000Y-90500000D02*
X86500000Y-90500000D01*
X86500000Y-76500000D02*
X86500000Y-78500000D01*
X86500000Y-90500000D02*
X86500000Y-88500000D01*
%TO.C,G\u002A\u002A\u002A*%
G36*
X174504684Y-42453318D02*
G01*
X174513355Y-42466519D01*
X174525559Y-42486363D01*
X174540183Y-42511066D01*
X174547192Y-42523177D01*
X174557997Y-42541952D01*
X174573994Y-42569711D01*
X174594512Y-42605291D01*
X174618879Y-42647529D01*
X174646423Y-42695259D01*
X174676472Y-42747318D01*
X174708356Y-42802542D01*
X174741401Y-42859767D01*
X174770702Y-42910498D01*
X174802659Y-42965860D01*
X174832811Y-43018168D01*
X174860656Y-43066548D01*
X174885693Y-43110126D01*
X174907422Y-43148028D01*
X174925341Y-43179380D01*
X174938950Y-43203307D01*
X174947747Y-43218936D01*
X174951232Y-43225393D01*
X174951269Y-43225507D01*
X174945660Y-43226142D01*
X174929839Y-43226715D01*
X174905315Y-43227201D01*
X174873597Y-43227580D01*
X174836194Y-43227826D01*
X174794616Y-43227919D01*
X174792848Y-43227919D01*
X174742899Y-43228047D01*
X174703641Y-43228462D01*
X174674045Y-43229210D01*
X174653081Y-43230339D01*
X174639722Y-43231896D01*
X174632938Y-43233926D01*
X174631644Y-43235245D01*
X174631407Y-43241670D01*
X174631187Y-43259326D01*
X174630983Y-43287723D01*
X174630798Y-43326370D01*
X174630630Y-43374777D01*
X174630481Y-43432455D01*
X174630350Y-43498912D01*
X174630239Y-43573658D01*
X174630148Y-43656203D01*
X174630076Y-43746057D01*
X174630025Y-43842730D01*
X174629995Y-43945731D01*
X174629986Y-44054569D01*
X174629999Y-44168756D01*
X174630034Y-44287799D01*
X174630091Y-44411210D01*
X174630172Y-44538498D01*
X174630276Y-44669172D01*
X174630363Y-44762972D01*
X174631864Y-46283373D01*
X175033318Y-45903910D01*
X175091649Y-45848738D01*
X175147937Y-45795426D01*
X175201546Y-45744582D01*
X175251840Y-45696811D01*
X175298185Y-45652719D01*
X175339944Y-45612912D01*
X175376481Y-45577997D01*
X175407162Y-45548578D01*
X175431350Y-45525264D01*
X175448411Y-45508658D01*
X175457707Y-45499368D01*
X175458580Y-45498440D01*
X175481229Y-45469072D01*
X175503473Y-45432034D01*
X175523279Y-45391265D01*
X175538613Y-45350703D01*
X175543276Y-45334495D01*
X175545746Y-45324293D01*
X175547840Y-45313872D01*
X175549591Y-45302215D01*
X175551027Y-45288306D01*
X175552180Y-45271129D01*
X175553081Y-45249667D01*
X175553761Y-45222904D01*
X175554250Y-45189823D01*
X175554578Y-45149407D01*
X175554778Y-45100641D01*
X175554879Y-45042508D01*
X175554913Y-44973992D01*
X175554915Y-44950008D01*
X175554915Y-44611029D01*
X175423050Y-44611029D01*
X175291186Y-44611029D01*
X175291186Y-44218366D01*
X175291186Y-43825704D01*
X175683849Y-43825704D01*
X176076511Y-43825704D01*
X176076511Y-44218254D01*
X176076511Y-44610805D01*
X175946112Y-44612382D01*
X175815713Y-44613959D01*
X175812551Y-44977319D01*
X175809389Y-45340678D01*
X175794322Y-45391002D01*
X175760712Y-45483818D01*
X175717384Y-45570549D01*
X175664678Y-45650551D01*
X175642824Y-45678370D01*
X175633121Y-45689005D01*
X175615523Y-45707031D01*
X175590684Y-45731816D01*
X175559256Y-45762729D01*
X175521893Y-45799139D01*
X175479245Y-45840415D01*
X175431968Y-45885926D01*
X175380712Y-45935040D01*
X175326131Y-45987127D01*
X175268878Y-46041556D01*
X175209605Y-46097696D01*
X175188625Y-46117517D01*
X175128902Y-46173937D01*
X175070999Y-46228703D01*
X175015563Y-46281199D01*
X174963242Y-46330809D01*
X174914683Y-46376917D01*
X174870533Y-46418908D01*
X174831440Y-46456164D01*
X174798052Y-46488070D01*
X174771016Y-46514011D01*
X174750980Y-46533368D01*
X174738591Y-46545528D01*
X174736106Y-46548047D01*
X174709866Y-46578563D01*
X174687839Y-46612433D01*
X174673457Y-46640101D01*
X174667124Y-46653056D01*
X174661421Y-46664745D01*
X174656314Y-46675815D01*
X174651770Y-46686912D01*
X174647758Y-46698684D01*
X174644244Y-46711777D01*
X174641195Y-46726837D01*
X174638579Y-46744511D01*
X174636362Y-46765446D01*
X174634511Y-46790288D01*
X174632995Y-46819685D01*
X174631780Y-46854282D01*
X174630833Y-46894726D01*
X174630122Y-46941664D01*
X174629613Y-46995743D01*
X174629274Y-47057608D01*
X174629072Y-47127908D01*
X174628975Y-47207287D01*
X174628948Y-47296394D01*
X174628960Y-47395874D01*
X174628978Y-47506375D01*
X174628978Y-47516193D01*
X174629023Y-48247554D01*
X174676987Y-48260916D01*
X174758686Y-48289596D01*
X174834900Y-48328192D01*
X174904895Y-48375907D01*
X174967939Y-48431942D01*
X175023301Y-48495499D01*
X175070246Y-48565782D01*
X175108044Y-48641990D01*
X175135962Y-48723328D01*
X175147530Y-48773548D01*
X175152644Y-48811648D01*
X175155457Y-48857196D01*
X175155965Y-48906148D01*
X175154169Y-48954459D01*
X175150067Y-48998083D01*
X175147599Y-49014364D01*
X175130541Y-49084081D01*
X175103585Y-49156042D01*
X175077902Y-49209078D01*
X175033403Y-49280435D01*
X174979645Y-49345349D01*
X174917637Y-49403029D01*
X174848393Y-49452680D01*
X174772921Y-49493510D01*
X174692234Y-49524725D01*
X174665723Y-49532487D01*
X174644053Y-49538098D01*
X174625043Y-49542174D01*
X174606114Y-49544957D01*
X174584685Y-49546687D01*
X174558174Y-49547608D01*
X174524002Y-49547959D01*
X174500000Y-49547998D01*
X174460252Y-49547862D01*
X174429647Y-49547293D01*
X174405610Y-49546053D01*
X174385565Y-49543899D01*
X174366936Y-49540594D01*
X174347147Y-49535895D01*
X174334696Y-49532593D01*
X174251781Y-49504333D01*
X174174767Y-49466474D01*
X174104261Y-49419807D01*
X174040869Y-49365118D01*
X173985198Y-49303195D01*
X173937854Y-49234827D01*
X173899443Y-49160802D01*
X173870573Y-49081908D01*
X173851849Y-48998933D01*
X173843878Y-48912665D01*
X173843627Y-48894457D01*
X173849158Y-48806024D01*
X173865747Y-48721435D01*
X173893309Y-48640901D01*
X173931757Y-48564635D01*
X173981007Y-48492848D01*
X174028649Y-48438242D01*
X174090690Y-48381553D01*
X174158952Y-48333248D01*
X174231712Y-48294361D01*
X174307246Y-48265927D01*
X174322939Y-48261477D01*
X174371066Y-48248596D01*
X174371066Y-48006015D01*
X174370994Y-47943065D01*
X174370752Y-47890639D01*
X174370301Y-47847539D01*
X174369603Y-47812570D01*
X174368618Y-47784533D01*
X174367308Y-47762233D01*
X174365633Y-47744472D01*
X174363556Y-47730055D01*
X174361829Y-47721254D01*
X174351279Y-47684880D01*
X174335577Y-47645606D01*
X174316472Y-47606926D01*
X174295712Y-47572336D01*
X174275045Y-47545328D01*
X174272427Y-47542526D01*
X174264398Y-47534573D01*
X174248462Y-47519152D01*
X174225231Y-47496847D01*
X174195319Y-47468240D01*
X174159338Y-47433914D01*
X174117899Y-47394453D01*
X174071617Y-47350439D01*
X174021103Y-47302455D01*
X173966969Y-47251085D01*
X173909829Y-47196912D01*
X173850294Y-47140517D01*
X173809898Y-47102279D01*
X173733350Y-47029768D01*
X173664970Y-46964831D01*
X173604341Y-46907061D01*
X173551047Y-46856050D01*
X173504669Y-46811391D01*
X173464792Y-46772677D01*
X173430999Y-46739500D01*
X173402872Y-46711454D01*
X173379996Y-46688132D01*
X173361954Y-46669125D01*
X173348328Y-46654027D01*
X173338702Y-46642431D01*
X173337082Y-46640313D01*
X173308673Y-46598904D01*
X173280400Y-46551329D01*
X173254350Y-46501517D01*
X173232611Y-46453395D01*
X173220303Y-46420513D01*
X173213737Y-46400369D01*
X173208102Y-46381813D01*
X173203327Y-46363793D01*
X173199340Y-46345255D01*
X173196070Y-46325148D01*
X173193447Y-46302416D01*
X173191399Y-46276009D01*
X173189855Y-46244872D01*
X173188744Y-46207953D01*
X173187995Y-46164198D01*
X173187536Y-46112555D01*
X173187296Y-46051971D01*
X173187204Y-45981393D01*
X173187191Y-45930490D01*
X173187164Y-45580964D01*
X173135910Y-45554872D01*
X173083910Y-45522706D01*
X173036848Y-45482392D01*
X172996929Y-45436133D01*
X172966358Y-45386137D01*
X172965464Y-45384304D01*
X172944842Y-45336459D01*
X172931817Y-45292275D01*
X172925473Y-45247360D01*
X172924891Y-45197320D01*
X172925143Y-45191232D01*
X172933178Y-45123151D01*
X172950989Y-45061206D01*
X172978958Y-45004525D01*
X173017468Y-44952234D01*
X173040427Y-44927826D01*
X173089056Y-44885863D01*
X173139912Y-44854561D01*
X173194752Y-44833169D01*
X173255334Y-44820936D01*
X173298569Y-44817542D01*
X173351497Y-44817651D01*
X173397253Y-44822802D01*
X173439564Y-44833719D01*
X173482155Y-44851123D01*
X173489177Y-44854525D01*
X173547308Y-44889458D01*
X173597368Y-44932890D01*
X173639357Y-44984823D01*
X173671211Y-45040842D01*
X173694355Y-45102547D01*
X173706510Y-45165626D01*
X173708105Y-45228839D01*
X173699568Y-45290943D01*
X173681329Y-45350700D01*
X173653815Y-45406867D01*
X173617457Y-45458205D01*
X173572682Y-45503473D01*
X173519919Y-45541429D01*
X173493187Y-45556042D01*
X173444588Y-45580197D01*
X173446554Y-45941010D01*
X173446972Y-46015211D01*
X173447378Y-46078641D01*
X173447804Y-46132249D01*
X173448285Y-46176987D01*
X173448854Y-46213803D01*
X173449544Y-46243648D01*
X173450390Y-46267471D01*
X173451424Y-46286223D01*
X173452680Y-46300854D01*
X173454193Y-46312314D01*
X173455994Y-46321552D01*
X173458119Y-46329519D01*
X173460539Y-46336987D01*
X173478473Y-46381869D01*
X173501046Y-46427068D01*
X173519834Y-46458331D01*
X173526264Y-46465673D01*
X173540579Y-46480420D01*
X173562130Y-46501942D01*
X173590267Y-46529611D01*
X173624341Y-46562798D01*
X173663702Y-46600873D01*
X173707701Y-46643208D01*
X173755687Y-46689173D01*
X173807011Y-46738141D01*
X173861023Y-46789481D01*
X173901509Y-46827843D01*
X173958047Y-46881352D01*
X174013127Y-46933495D01*
X174066016Y-46983578D01*
X174115980Y-47030903D01*
X174162284Y-47074777D01*
X174204195Y-47114503D01*
X174240979Y-47149385D01*
X174271902Y-47178729D01*
X174296231Y-47201839D01*
X174313231Y-47218018D01*
X174319747Y-47224243D01*
X174371066Y-47273429D01*
X174371066Y-45250767D01*
X174371066Y-43228104D01*
X174210288Y-43226546D01*
X174049510Y-43224988D01*
X174273290Y-42836811D01*
X174308971Y-42774995D01*
X174342989Y-42716214D01*
X174374886Y-42661246D01*
X174404207Y-42610871D01*
X174430496Y-42565867D01*
X174453297Y-42527013D01*
X174472154Y-42495087D01*
X174486611Y-42470868D01*
X174496211Y-42455135D01*
X174500499Y-42448667D01*
X174500659Y-42448544D01*
X174504684Y-42453318D01*
G37*
%TO.C,H30*%
X91500000Y-111500000D02*
X91500000Y-113500000D01*
X91500000Y-123500000D02*
X91500000Y-125500000D01*
X91500000Y-125500000D02*
X93500000Y-125500000D01*
X93500000Y-111500000D02*
X91500000Y-111500000D01*
X103500000Y-111500000D02*
X105500000Y-111500000D01*
X103500000Y-125500000D02*
X105500000Y-125500000D01*
X105500000Y-111500000D02*
X105500000Y-113500000D01*
X105500000Y-125500000D02*
X105500000Y-123500000D01*
%TO.C,H27*%
X167500000Y-94500000D02*
X167500000Y-96500000D01*
X167500000Y-106500000D02*
X167500000Y-108500000D01*
X167500000Y-108500000D02*
X169500000Y-108500000D01*
X169500000Y-94500000D02*
X167500000Y-94500000D01*
X179500000Y-94500000D02*
X181500000Y-94500000D01*
X179500000Y-108500000D02*
X181500000Y-108500000D01*
X181500000Y-94500000D02*
X181500000Y-96500000D01*
X181500000Y-108500000D02*
X181500000Y-106500000D01*
%TO.C,H7*%
X53500000Y-58500000D02*
X53500000Y-60500000D01*
X53500000Y-70500000D02*
X53500000Y-72500000D01*
X53500000Y-72500000D02*
X55500000Y-72500000D01*
X55500000Y-58500000D02*
X53500000Y-58500000D01*
X65500000Y-58500000D02*
X67500000Y-58500000D01*
X65500000Y-72500000D02*
X67500000Y-72500000D01*
X67500000Y-58500000D02*
X67500000Y-60500000D01*
X67500000Y-72500000D02*
X67500000Y-70500000D01*
%TO.C,H29*%
X72500000Y-114500000D02*
X72500000Y-116500000D01*
X72500000Y-126500000D02*
X72500000Y-128500000D01*
X72500000Y-128500000D02*
X74500000Y-128500000D01*
X74500000Y-114500000D02*
X72500000Y-114500000D01*
X84500000Y-114500000D02*
X86500000Y-114500000D01*
X84500000Y-128500000D02*
X86500000Y-128500000D01*
X86500000Y-114500000D02*
X86500000Y-116500000D01*
X86500000Y-128500000D02*
X86500000Y-126500000D01*
%TO.C,H16*%
X91500000Y-73500000D02*
X91500000Y-75500000D01*
X91500000Y-85500000D02*
X91500000Y-87500000D01*
X91500000Y-87500000D02*
X93500000Y-87500000D01*
X93500000Y-73500000D02*
X91500000Y-73500000D01*
X103500000Y-73500000D02*
X105500000Y-73500000D01*
X103500000Y-87500000D02*
X105500000Y-87500000D01*
X105500000Y-73500000D02*
X105500000Y-75500000D01*
X105500000Y-87500000D02*
X105500000Y-85500000D01*
%TO.C,H20*%
X167500000Y-75500000D02*
X167500000Y-77500000D01*
X167500000Y-87500000D02*
X167500000Y-89500000D01*
X167500000Y-89500000D02*
X169500000Y-89500000D01*
X169500000Y-75500000D02*
X167500000Y-75500000D01*
X179500000Y-75500000D02*
X181500000Y-75500000D01*
X179500000Y-89500000D02*
X181500000Y-89500000D01*
X181500000Y-75500000D02*
X181500000Y-77500000D01*
X181500000Y-89500000D02*
X181500000Y-87500000D01*
%TO.C,H38*%
X169937822Y-126937822D02*
X168937822Y-128669873D01*
X163937822Y-137330127D02*
X162937822Y-139062178D01*
X162937822Y-139062178D02*
X164669873Y-140062178D01*
X171669873Y-127937822D02*
X169937822Y-126937822D01*
X180330127Y-132937822D02*
X182062178Y-133937822D01*
X173330127Y-145062178D02*
X175062178Y-146062178D01*
X182062178Y-133937822D02*
X181062178Y-135669873D01*
X175062178Y-146062178D02*
X176062178Y-144330127D01*
%TO.C,H11*%
X129500000Y-54500000D02*
X129500000Y-56500000D01*
X129500000Y-66500000D02*
X129500000Y-68500000D01*
X129500000Y-68500000D02*
X131500000Y-68500000D01*
X131500000Y-54500000D02*
X129500000Y-54500000D01*
X141500000Y-54500000D02*
X143500000Y-54500000D01*
X141500000Y-68500000D02*
X143500000Y-68500000D01*
X143500000Y-54500000D02*
X143500000Y-56500000D01*
X143500000Y-68500000D02*
X143500000Y-66500000D01*
%TO.C,H22*%
X72500000Y-95500000D02*
X72500000Y-97500000D01*
X72500000Y-107500000D02*
X72500000Y-109500000D01*
X72500000Y-109500000D02*
X74500000Y-109500000D01*
X74500000Y-95500000D02*
X72500000Y-95500000D01*
X84500000Y-95500000D02*
X86500000Y-95500000D01*
X84500000Y-109500000D02*
X86500000Y-109500000D01*
X86500000Y-95500000D02*
X86500000Y-97500000D01*
X86500000Y-109500000D02*
X86500000Y-107500000D01*
%TO.C,H13*%
X167500000Y-56500000D02*
X167500000Y-58500000D01*
X167500000Y-68500000D02*
X167500000Y-70500000D01*
X167500000Y-70500000D02*
X169500000Y-70500000D01*
X169500000Y-56500000D02*
X167500000Y-56500000D01*
X179500000Y-56500000D02*
X181500000Y-56500000D01*
X179500000Y-70500000D02*
X181500000Y-70500000D01*
X181500000Y-56500000D02*
X181500000Y-58500000D01*
X181500000Y-70500000D02*
X181500000Y-68500000D01*
%TO.C,H19*%
X148500000Y-75500000D02*
X148500000Y-77500000D01*
X148500000Y-87500000D02*
X148500000Y-89500000D01*
X148500000Y-89500000D02*
X150500000Y-89500000D01*
X150500000Y-75500000D02*
X148500000Y-75500000D01*
X160500000Y-75500000D02*
X162500000Y-75500000D01*
X160500000Y-89500000D02*
X162500000Y-89500000D01*
X162500000Y-75500000D02*
X162500000Y-77500000D01*
X162500000Y-89500000D02*
X162500000Y-87500000D01*
%TO.C,H36*%
X120000000Y-130500000D02*
X120000000Y-132500000D01*
X120000000Y-142500000D02*
X120000000Y-144500000D01*
X120000000Y-144500000D02*
X122000000Y-144500000D01*
X122000000Y-130500000D02*
X120000000Y-130500000D01*
X132000000Y-130500000D02*
X134000000Y-130500000D01*
X132000000Y-144500000D02*
X134000000Y-144500000D01*
X134000000Y-130500000D02*
X134000000Y-132500000D01*
X134000000Y-144500000D02*
X134000000Y-142500000D01*
%TO.C,H14*%
X53500000Y-77500000D02*
X53500000Y-79500000D01*
X53500000Y-89500000D02*
X53500000Y-91500000D01*
X53500000Y-91500000D02*
X55500000Y-91500000D01*
X55500000Y-77500000D02*
X53500000Y-77500000D01*
X65500000Y-77500000D02*
X67500000Y-77500000D01*
X65500000Y-91500000D02*
X67500000Y-91500000D01*
X67500000Y-77500000D02*
X67500000Y-79500000D01*
X67500000Y-91500000D02*
X67500000Y-89500000D01*
%TO.C,H21*%
X53500000Y-96500000D02*
X53500000Y-98500000D01*
X53500000Y-108500000D02*
X53500000Y-110500000D01*
X53500000Y-110500000D02*
X55500000Y-110500000D01*
X55500000Y-96500000D02*
X53500000Y-96500000D01*
X65500000Y-96500000D02*
X67500000Y-96500000D01*
X65500000Y-110500000D02*
X67500000Y-110500000D01*
X67500000Y-96500000D02*
X67500000Y-98500000D01*
X67500000Y-110500000D02*
X67500000Y-108500000D01*
%TO.C,H24*%
X110500000Y-91500000D02*
X110500000Y-93500000D01*
X110500000Y-103500000D02*
X110500000Y-105500000D01*
X110500000Y-105500000D02*
X112500000Y-105500000D01*
X112500000Y-91500000D02*
X110500000Y-91500000D01*
X122500000Y-91500000D02*
X124500000Y-91500000D01*
X122500000Y-105500000D02*
X124500000Y-105500000D01*
X124500000Y-91500000D02*
X124500000Y-93500000D01*
X124500000Y-105500000D02*
X124500000Y-103500000D01*
%TO.C,H31*%
X110500000Y-110500000D02*
X110500000Y-112500000D01*
X110500000Y-122500000D02*
X110500000Y-124500000D01*
X110500000Y-124500000D02*
X112500000Y-124500000D01*
X112500000Y-110500000D02*
X110500000Y-110500000D01*
X122500000Y-110500000D02*
X124500000Y-110500000D01*
X122500000Y-124500000D02*
X124500000Y-124500000D01*
X124500000Y-110500000D02*
X124500000Y-112500000D01*
X124500000Y-124500000D02*
X124500000Y-122500000D01*
%TO.C,H32*%
X129500000Y-111500000D02*
X129500000Y-113500000D01*
X129500000Y-123500000D02*
X129500000Y-125500000D01*
X129500000Y-125500000D02*
X131500000Y-125500000D01*
X131500000Y-111500000D02*
X129500000Y-111500000D01*
X141500000Y-111500000D02*
X143500000Y-111500000D01*
X141500000Y-125500000D02*
X143500000Y-125500000D01*
X143500000Y-111500000D02*
X143500000Y-113500000D01*
X143500000Y-125500000D02*
X143500000Y-123500000D01*
%TO.C,H18*%
X129500000Y-73500000D02*
X129500000Y-75500000D01*
X129500000Y-85500000D02*
X129500000Y-87500000D01*
X129500000Y-87500000D02*
X131500000Y-87500000D01*
X131500000Y-73500000D02*
X129500000Y-73500000D01*
X141500000Y-73500000D02*
X143500000Y-73500000D01*
X141500000Y-87500000D02*
X143500000Y-87500000D01*
X143500000Y-73500000D02*
X143500000Y-75500000D01*
X143500000Y-87500000D02*
X143500000Y-85500000D01*
%TO.C,H12*%
X148500000Y-56500000D02*
X148500000Y-58500000D01*
X148500000Y-68500000D02*
X148500000Y-70500000D01*
X148500000Y-70500000D02*
X150500000Y-70500000D01*
X150500000Y-56500000D02*
X148500000Y-56500000D01*
X160500000Y-56500000D02*
X162500000Y-56500000D01*
X160500000Y-70500000D02*
X162500000Y-70500000D01*
X162500000Y-56500000D02*
X162500000Y-58500000D01*
X162500000Y-70500000D02*
X162500000Y-68500000D01*
%TO.C,H33*%
X148500000Y-113500000D02*
X148500000Y-115500000D01*
X148500000Y-125500000D02*
X148500000Y-127500000D01*
X148500000Y-127500000D02*
X150500000Y-127500000D01*
X150500000Y-113500000D02*
X148500000Y-113500000D01*
X160500000Y-113500000D02*
X162500000Y-113500000D01*
X160500000Y-127500000D02*
X162500000Y-127500000D01*
X162500000Y-113500000D02*
X162500000Y-115500000D01*
X162500000Y-127500000D02*
X162500000Y-125500000D01*
%TO.C,H34*%
X82000000Y-133500000D02*
X82000000Y-135500000D01*
X82000000Y-145500000D02*
X82000000Y-147500000D01*
X82000000Y-147500000D02*
X84000000Y-147500000D01*
X84000000Y-133500000D02*
X82000000Y-133500000D01*
X94000000Y-133500000D02*
X96000000Y-133500000D01*
X94000000Y-147500000D02*
X96000000Y-147500000D01*
X96000000Y-133500000D02*
X96000000Y-135500000D01*
X96000000Y-147500000D02*
X96000000Y-145500000D01*
%TO.C,H10*%
X110500000Y-53500000D02*
X110500000Y-55500000D01*
X110500000Y-65500000D02*
X110500000Y-67500000D01*
X110500000Y-67500000D02*
X112500000Y-67500000D01*
X112500000Y-53500000D02*
X110500000Y-53500000D01*
X122500000Y-53500000D02*
X124500000Y-53500000D01*
X122500000Y-67500000D02*
X124500000Y-67500000D01*
X124500000Y-53500000D02*
X124500000Y-55500000D01*
X124500000Y-67500000D02*
X124500000Y-65500000D01*
%TO.C,H28*%
X53500000Y-115500000D02*
X53500000Y-117500000D01*
X53500000Y-127500000D02*
X53500000Y-129500000D01*
X53500000Y-129500000D02*
X55500000Y-129500000D01*
X55500000Y-115500000D02*
X53500000Y-115500000D01*
X65500000Y-115500000D02*
X67500000Y-115500000D01*
X65500000Y-129500000D02*
X67500000Y-129500000D01*
X67500000Y-115500000D02*
X67500000Y-117500000D01*
X67500000Y-129500000D02*
X67500000Y-127500000D01*
%TD*%
%LPC*%
D11*
X53554510Y-148100114D02*
X54054510Y-148100114D01*
X54268796Y-148885828D02*
X53554510Y-148885828D01*
X53554510Y-148885828D02*
X53554510Y-147385828D01*
X53554510Y-147385828D02*
X54268796Y-147385828D01*
X54911653Y-148885828D02*
X54911653Y-147885828D01*
X54911653Y-148028685D02*
X54983082Y-147957257D01*
X54983082Y-147957257D02*
X55125939Y-147885828D01*
X55125939Y-147885828D02*
X55340225Y-147885828D01*
X55340225Y-147885828D02*
X55483082Y-147957257D01*
X55483082Y-147957257D02*
X55554511Y-148100114D01*
X55554511Y-148100114D02*
X55554511Y-148885828D01*
X55554511Y-148100114D02*
X55625939Y-147957257D01*
X55625939Y-147957257D02*
X55768796Y-147885828D01*
X55768796Y-147885828D02*
X55983082Y-147885828D01*
X55983082Y-147885828D02*
X56125939Y-147957257D01*
X56125939Y-147957257D02*
X56197368Y-148100114D01*
X56197368Y-148100114D02*
X56197368Y-148885828D01*
X56911653Y-148885828D02*
X56911653Y-147385828D01*
X56911653Y-147957257D02*
X57054511Y-147885828D01*
X57054511Y-147885828D02*
X57340225Y-147885828D01*
X57340225Y-147885828D02*
X57483082Y-147957257D01*
X57483082Y-147957257D02*
X57554511Y-148028685D01*
X57554511Y-148028685D02*
X57625939Y-148171542D01*
X57625939Y-148171542D02*
X57625939Y-148600114D01*
X57625939Y-148600114D02*
X57554511Y-148742971D01*
X57554511Y-148742971D02*
X57483082Y-148814400D01*
X57483082Y-148814400D02*
X57340225Y-148885828D01*
X57340225Y-148885828D02*
X57054511Y-148885828D01*
X57054511Y-148885828D02*
X56911653Y-148814400D01*
X58840225Y-148814400D02*
X58697368Y-148885828D01*
X58697368Y-148885828D02*
X58411654Y-148885828D01*
X58411654Y-148885828D02*
X58268796Y-148814400D01*
X58268796Y-148814400D02*
X58197368Y-148671542D01*
X58197368Y-148671542D02*
X58197368Y-148100114D01*
X58197368Y-148100114D02*
X58268796Y-147957257D01*
X58268796Y-147957257D02*
X58411654Y-147885828D01*
X58411654Y-147885828D02*
X58697368Y-147885828D01*
X58697368Y-147885828D02*
X58840225Y-147957257D01*
X58840225Y-147957257D02*
X58911654Y-148100114D01*
X58911654Y-148100114D02*
X58911654Y-148242971D01*
X58911654Y-148242971D02*
X58197368Y-148385828D01*
X59554510Y-148885828D02*
X59554510Y-147885828D01*
X59554510Y-148171542D02*
X59625939Y-148028685D01*
X59625939Y-148028685D02*
X59697368Y-147957257D01*
X59697368Y-147957257D02*
X59840225Y-147885828D01*
X59840225Y-147885828D02*
X59983082Y-147885828D01*
X61483081Y-147885828D02*
X61840224Y-148885828D01*
X61840224Y-148885828D02*
X62197367Y-147885828D01*
X63340224Y-148814400D02*
X63197367Y-148885828D01*
X63197367Y-148885828D02*
X62911653Y-148885828D01*
X62911653Y-148885828D02*
X62768795Y-148814400D01*
X62768795Y-148814400D02*
X62697367Y-148671542D01*
X62697367Y-148671542D02*
X62697367Y-148100114D01*
X62697367Y-148100114D02*
X62768795Y-147957257D01*
X62768795Y-147957257D02*
X62911653Y-147885828D01*
X62911653Y-147885828D02*
X63197367Y-147885828D01*
X63197367Y-147885828D02*
X63340224Y-147957257D01*
X63340224Y-147957257D02*
X63411653Y-148100114D01*
X63411653Y-148100114D02*
X63411653Y-148242971D01*
X63411653Y-148242971D02*
X62697367Y-148385828D01*
X64054509Y-148885828D02*
X64054509Y-147885828D01*
X64054509Y-148171542D02*
X64125938Y-148028685D01*
X64125938Y-148028685D02*
X64197367Y-147957257D01*
X64197367Y-147957257D02*
X64340224Y-147885828D01*
X64340224Y-147885828D02*
X64483081Y-147885828D01*
X65768795Y-148885828D02*
X64911652Y-148885828D01*
X65340223Y-148885828D02*
X65340223Y-147385828D01*
X65340223Y-147385828D02*
X65197366Y-147600114D01*
X65197366Y-147600114D02*
X65054509Y-147742971D01*
X65054509Y-147742971D02*
X64911652Y-147814400D01*
X66411651Y-148742971D02*
X66483080Y-148814400D01*
X66483080Y-148814400D02*
X66411651Y-148885828D01*
X66411651Y-148885828D02*
X66340223Y-148814400D01*
X66340223Y-148814400D02*
X66411651Y-148742971D01*
X66411651Y-148742971D02*
X66411651Y-148885828D01*
X67911652Y-148885828D02*
X67054509Y-148885828D01*
X67483080Y-148885828D02*
X67483080Y-147385828D01*
X67483080Y-147385828D02*
X67340223Y-147600114D01*
X67340223Y-147600114D02*
X67197366Y-147742971D01*
X67197366Y-147742971D02*
X67054509Y-147814400D01*
X54197368Y-151300828D02*
X54197368Y-149800828D01*
X54197368Y-151229400D02*
X54054510Y-151300828D01*
X54054510Y-151300828D02*
X53768796Y-151300828D01*
X53768796Y-151300828D02*
X53625939Y-151229400D01*
X53625939Y-151229400D02*
X53554510Y-151157971D01*
X53554510Y-151157971D02*
X53483082Y-151015114D01*
X53483082Y-151015114D02*
X53483082Y-150586542D01*
X53483082Y-150586542D02*
X53554510Y-150443685D01*
X53554510Y-150443685D02*
X53625939Y-150372257D01*
X53625939Y-150372257D02*
X53768796Y-150300828D01*
X53768796Y-150300828D02*
X54054510Y-150300828D01*
X54054510Y-150300828D02*
X54197368Y-150372257D01*
X55483082Y-151229400D02*
X55340225Y-151300828D01*
X55340225Y-151300828D02*
X55054511Y-151300828D01*
X55054511Y-151300828D02*
X54911653Y-151229400D01*
X54911653Y-151229400D02*
X54840225Y-151086542D01*
X54840225Y-151086542D02*
X54840225Y-150515114D01*
X54840225Y-150515114D02*
X54911653Y-150372257D01*
X54911653Y-150372257D02*
X55054511Y-150300828D01*
X55054511Y-150300828D02*
X55340225Y-150300828D01*
X55340225Y-150300828D02*
X55483082Y-150372257D01*
X55483082Y-150372257D02*
X55554511Y-150515114D01*
X55554511Y-150515114D02*
X55554511Y-150657971D01*
X55554511Y-150657971D02*
X54840225Y-150800828D01*
X56125939Y-151229400D02*
X56268796Y-151300828D01*
X56268796Y-151300828D02*
X56554510Y-151300828D01*
X56554510Y-151300828D02*
X56697367Y-151229400D01*
X56697367Y-151229400D02*
X56768796Y-151086542D01*
X56768796Y-151086542D02*
X56768796Y-151015114D01*
X56768796Y-151015114D02*
X56697367Y-150872257D01*
X56697367Y-150872257D02*
X56554510Y-150800828D01*
X56554510Y-150800828D02*
X56340225Y-150800828D01*
X56340225Y-150800828D02*
X56197367Y-150729400D01*
X56197367Y-150729400D02*
X56125939Y-150586542D01*
X56125939Y-150586542D02*
X56125939Y-150515114D01*
X56125939Y-150515114D02*
X56197367Y-150372257D01*
X56197367Y-150372257D02*
X56340225Y-150300828D01*
X56340225Y-150300828D02*
X56554510Y-150300828D01*
X56554510Y-150300828D02*
X56697367Y-150372257D01*
X57411653Y-151300828D02*
X57411653Y-150300828D01*
X57411653Y-149800828D02*
X57340225Y-149872257D01*
X57340225Y-149872257D02*
X57411653Y-149943685D01*
X57411653Y-149943685D02*
X57483082Y-149872257D01*
X57483082Y-149872257D02*
X57411653Y-149800828D01*
X57411653Y-149800828D02*
X57411653Y-149943685D01*
X58768797Y-150300828D02*
X58768797Y-151515114D01*
X58768797Y-151515114D02*
X58697368Y-151657971D01*
X58697368Y-151657971D02*
X58625939Y-151729400D01*
X58625939Y-151729400D02*
X58483082Y-151800828D01*
X58483082Y-151800828D02*
X58268797Y-151800828D01*
X58268797Y-151800828D02*
X58125939Y-151729400D01*
X58768797Y-151229400D02*
X58625939Y-151300828D01*
X58625939Y-151300828D02*
X58340225Y-151300828D01*
X58340225Y-151300828D02*
X58197368Y-151229400D01*
X58197368Y-151229400D02*
X58125939Y-151157971D01*
X58125939Y-151157971D02*
X58054511Y-151015114D01*
X58054511Y-151015114D02*
X58054511Y-150586542D01*
X58054511Y-150586542D02*
X58125939Y-150443685D01*
X58125939Y-150443685D02*
X58197368Y-150372257D01*
X58197368Y-150372257D02*
X58340225Y-150300828D01*
X58340225Y-150300828D02*
X58625939Y-150300828D01*
X58625939Y-150300828D02*
X58768797Y-150372257D01*
X59483082Y-150300828D02*
X59483082Y-151300828D01*
X59483082Y-150443685D02*
X59554511Y-150372257D01*
X59554511Y-150372257D02*
X59697368Y-150300828D01*
X59697368Y-150300828D02*
X59911654Y-150300828D01*
X59911654Y-150300828D02*
X60054511Y-150372257D01*
X60054511Y-150372257D02*
X60125940Y-150515114D01*
X60125940Y-150515114D02*
X60125940Y-151300828D01*
X61411654Y-151229400D02*
X61268797Y-151300828D01*
X61268797Y-151300828D02*
X60983083Y-151300828D01*
X60983083Y-151300828D02*
X60840225Y-151229400D01*
X60840225Y-151229400D02*
X60768797Y-151086542D01*
X60768797Y-151086542D02*
X60768797Y-150515114D01*
X60768797Y-150515114D02*
X60840225Y-150372257D01*
X60840225Y-150372257D02*
X60983083Y-150300828D01*
X60983083Y-150300828D02*
X61268797Y-150300828D01*
X61268797Y-150300828D02*
X61411654Y-150372257D01*
X61411654Y-150372257D02*
X61483083Y-150515114D01*
X61483083Y-150515114D02*
X61483083Y-150657971D01*
X61483083Y-150657971D02*
X60768797Y-150800828D01*
X62768797Y-151300828D02*
X62768797Y-149800828D01*
X62768797Y-151229400D02*
X62625939Y-151300828D01*
X62625939Y-151300828D02*
X62340225Y-151300828D01*
X62340225Y-151300828D02*
X62197368Y-151229400D01*
X62197368Y-151229400D02*
X62125939Y-151157971D01*
X62125939Y-151157971D02*
X62054511Y-151015114D01*
X62054511Y-151015114D02*
X62054511Y-150586542D01*
X62054511Y-150586542D02*
X62125939Y-150443685D01*
X62125939Y-150443685D02*
X62197368Y-150372257D01*
X62197368Y-150372257D02*
X62340225Y-150300828D01*
X62340225Y-150300828D02*
X62625939Y-150300828D01*
X62625939Y-150300828D02*
X62768797Y-150372257D01*
X64625939Y-151300828D02*
X64625939Y-149800828D01*
X64625939Y-150372257D02*
X64768797Y-150300828D01*
X64768797Y-150300828D02*
X65054511Y-150300828D01*
X65054511Y-150300828D02*
X65197368Y-150372257D01*
X65197368Y-150372257D02*
X65268797Y-150443685D01*
X65268797Y-150443685D02*
X65340225Y-150586542D01*
X65340225Y-150586542D02*
X65340225Y-151015114D01*
X65340225Y-151015114D02*
X65268797Y-151157971D01*
X65268797Y-151157971D02*
X65197368Y-151229400D01*
X65197368Y-151229400D02*
X65054511Y-151300828D01*
X65054511Y-151300828D02*
X64768797Y-151300828D01*
X64768797Y-151300828D02*
X64625939Y-151229400D01*
X65840225Y-150300828D02*
X66197368Y-151300828D01*
X66554511Y-150300828D02*
X66197368Y-151300828D01*
X66197368Y-151300828D02*
X66054511Y-151657971D01*
X66054511Y-151657971D02*
X65983082Y-151729400D01*
X65983082Y-151729400D02*
X65840225Y-151800828D01*
X69197368Y-150586542D02*
X69125939Y-150515114D01*
X69125939Y-150515114D02*
X68983082Y-150443685D01*
X68983082Y-150443685D02*
X68840225Y-150443685D01*
X68840225Y-150443685D02*
X68697368Y-150515114D01*
X68697368Y-150515114D02*
X68625939Y-150586542D01*
X68625939Y-150586542D02*
X68554511Y-150729400D01*
X68554511Y-150729400D02*
X68554511Y-150872257D01*
X68554511Y-150872257D02*
X68625939Y-151015114D01*
X68625939Y-151015114D02*
X68697368Y-151086542D01*
X68697368Y-151086542D02*
X68840225Y-151157971D01*
X68840225Y-151157971D02*
X68983082Y-151157971D01*
X68983082Y-151157971D02*
X69125939Y-151086542D01*
X69125939Y-151086542D02*
X69197368Y-151015114D01*
X69197368Y-150443685D02*
X69197368Y-151015114D01*
X69197368Y-151015114D02*
X69268796Y-151086542D01*
X69268796Y-151086542D02*
X69340225Y-151086542D01*
X69340225Y-151086542D02*
X69483082Y-151015114D01*
X69483082Y-151015114D02*
X69554511Y-150872257D01*
X69554511Y-150872257D02*
X69554511Y-150515114D01*
X69554511Y-150515114D02*
X69411654Y-150300828D01*
X69411654Y-150300828D02*
X69197368Y-150157971D01*
X69197368Y-150157971D02*
X68911654Y-150086542D01*
X68911654Y-150086542D02*
X68625939Y-150157971D01*
X68625939Y-150157971D02*
X68411654Y-150300828D01*
X68411654Y-150300828D02*
X68268796Y-150515114D01*
X68268796Y-150515114D02*
X68197368Y-150800828D01*
X68197368Y-150800828D02*
X68268796Y-151086542D01*
X68268796Y-151086542D02*
X68411654Y-151300828D01*
X68411654Y-151300828D02*
X68625939Y-151443685D01*
X68625939Y-151443685D02*
X68911654Y-151515114D01*
X68911654Y-151515114D02*
X69197368Y-151443685D01*
X69197368Y-151443685D02*
X69411654Y-151300828D01*
X70197367Y-151300828D02*
X70197367Y-149800828D01*
X70340225Y-150729400D02*
X70768796Y-151300828D01*
X70768796Y-150300828D02*
X70197367Y-150872257D01*
X71983082Y-151229400D02*
X71840225Y-151300828D01*
X71840225Y-151300828D02*
X71554511Y-151300828D01*
X71554511Y-151300828D02*
X71411653Y-151229400D01*
X71411653Y-151229400D02*
X71340225Y-151086542D01*
X71340225Y-151086542D02*
X71340225Y-150515114D01*
X71340225Y-150515114D02*
X71411653Y-150372257D01*
X71411653Y-150372257D02*
X71554511Y-150300828D01*
X71554511Y-150300828D02*
X71840225Y-150300828D01*
X71840225Y-150300828D02*
X71983082Y-150372257D01*
X71983082Y-150372257D02*
X72054511Y-150515114D01*
X72054511Y-150515114D02*
X72054511Y-150657971D01*
X72054511Y-150657971D02*
X71340225Y-150800828D01*
X72697367Y-150300828D02*
X72697367Y-151300828D01*
X72697367Y-150443685D02*
X72768796Y-150372257D01*
X72768796Y-150372257D02*
X72911653Y-150300828D01*
X72911653Y-150300828D02*
X73125939Y-150300828D01*
X73125939Y-150300828D02*
X73268796Y-150372257D01*
X73268796Y-150372257D02*
X73340225Y-150515114D01*
X73340225Y-150515114D02*
X73340225Y-151300828D01*
X73911653Y-150300828D02*
X74268796Y-151300828D01*
X74625939Y-150300828D02*
X74268796Y-151300828D01*
X74268796Y-151300828D02*
X74125939Y-151657971D01*
X74125939Y-151657971D02*
X74054510Y-151729400D01*
X74054510Y-151729400D02*
X73911653Y-151800828D01*
X75411653Y-151300828D02*
X75268796Y-151229400D01*
X75268796Y-151229400D02*
X75197367Y-151157971D01*
X75197367Y-151157971D02*
X75125939Y-151015114D01*
X75125939Y-151015114D02*
X75125939Y-150586542D01*
X75125939Y-150586542D02*
X75197367Y-150443685D01*
X75197367Y-150443685D02*
X75268796Y-150372257D01*
X75268796Y-150372257D02*
X75411653Y-150300828D01*
X75411653Y-150300828D02*
X75625939Y-150300828D01*
X75625939Y-150300828D02*
X75768796Y-150372257D01*
X75768796Y-150372257D02*
X75840225Y-150443685D01*
X75840225Y-150443685D02*
X75911653Y-150586542D01*
X75911653Y-150586542D02*
X75911653Y-151015114D01*
X75911653Y-151015114D02*
X75840225Y-151157971D01*
X75840225Y-151157971D02*
X75768796Y-151229400D01*
X75768796Y-151229400D02*
X75625939Y-151300828D01*
X75625939Y-151300828D02*
X75411653Y-151300828D01*
X76483082Y-151229400D02*
X76625939Y-151300828D01*
X76625939Y-151300828D02*
X76911653Y-151300828D01*
X76911653Y-151300828D02*
X77054510Y-151229400D01*
X77054510Y-151229400D02*
X77125939Y-151086542D01*
X77125939Y-151086542D02*
X77125939Y-151015114D01*
X77125939Y-151015114D02*
X77054510Y-150872257D01*
X77054510Y-150872257D02*
X76911653Y-150800828D01*
X76911653Y-150800828D02*
X76697368Y-150800828D01*
X76697368Y-150800828D02*
X76554510Y-150729400D01*
X76554510Y-150729400D02*
X76483082Y-150586542D01*
X76483082Y-150586542D02*
X76483082Y-150515114D01*
X76483082Y-150515114D02*
X76554510Y-150372257D01*
X76554510Y-150372257D02*
X76697368Y-150300828D01*
X76697368Y-150300828D02*
X76911653Y-150300828D01*
X76911653Y-150300828D02*
X77054510Y-150372257D01*
X77768796Y-151300828D02*
X77768796Y-149800828D01*
X78411654Y-151300828D02*
X78411654Y-150515114D01*
X78411654Y-150515114D02*
X78340225Y-150372257D01*
X78340225Y-150372257D02*
X78197368Y-150300828D01*
X78197368Y-150300828D02*
X77983082Y-150300828D01*
X77983082Y-150300828D02*
X77840225Y-150372257D01*
X77840225Y-150372257D02*
X77768796Y-150443685D01*
X79125939Y-151300828D02*
X79125939Y-150300828D01*
X79125939Y-149800828D02*
X79054511Y-149872257D01*
X79054511Y-149872257D02*
X79125939Y-149943685D01*
X79125939Y-149943685D02*
X79197368Y-149872257D01*
X79197368Y-149872257D02*
X79125939Y-149800828D01*
X79125939Y-149800828D02*
X79125939Y-149943685D01*
X79697368Y-150300828D02*
X80483083Y-150300828D01*
X80483083Y-150300828D02*
X79697368Y-151300828D01*
X79697368Y-151300828D02*
X80483083Y-151300828D01*
X81268797Y-151300828D02*
X81125940Y-151229400D01*
X81125940Y-151229400D02*
X81054511Y-151157971D01*
X81054511Y-151157971D02*
X80983083Y-151015114D01*
X80983083Y-151015114D02*
X80983083Y-150586542D01*
X80983083Y-150586542D02*
X81054511Y-150443685D01*
X81054511Y-150443685D02*
X81125940Y-150372257D01*
X81125940Y-150372257D02*
X81268797Y-150300828D01*
X81268797Y-150300828D02*
X81483083Y-150300828D01*
X81483083Y-150300828D02*
X81625940Y-150372257D01*
X81625940Y-150372257D02*
X81697369Y-150443685D01*
X81697369Y-150443685D02*
X81768797Y-150586542D01*
X81768797Y-150586542D02*
X81768797Y-151015114D01*
X81768797Y-151015114D02*
X81697369Y-151157971D01*
X81697369Y-151157971D02*
X81625940Y-151229400D01*
X81625940Y-151229400D02*
X81483083Y-151300828D01*
X81483083Y-151300828D02*
X81268797Y-151300828D01*
X82983083Y-151229400D02*
X82840226Y-151300828D01*
X82840226Y-151300828D02*
X82554512Y-151300828D01*
X82554512Y-151300828D02*
X82411654Y-151229400D01*
X82411654Y-151229400D02*
X82340226Y-151086542D01*
X82340226Y-151086542D02*
X82340226Y-150515114D01*
X82340226Y-150515114D02*
X82411654Y-150372257D01*
X82411654Y-150372257D02*
X82554512Y-150300828D01*
X82554512Y-150300828D02*
X82840226Y-150300828D01*
X82840226Y-150300828D02*
X82983083Y-150372257D01*
X82983083Y-150372257D02*
X83054512Y-150515114D01*
X83054512Y-150515114D02*
X83054512Y-150657971D01*
X83054512Y-150657971D02*
X82340226Y-150800828D01*
D12*
%TO.C,H35*%
X102920000Y-137500000D03*
X113080000Y-137500000D03*
%TD*%
%TO.C,H23*%
X93420000Y-99500000D03*
X103580000Y-99500000D03*
%TD*%
D13*
%TO.C,H3*%
X70000000Y-113000000D03*
%TD*%
D12*
%TO.C,H9*%
X93420000Y-61500000D03*
X103580000Y-61500000D03*
%TD*%
%TO.C,H26*%
X150420000Y-101500000D03*
X160580000Y-101500000D03*
%TD*%
%TO.C,H8*%
X74420000Y-64500000D03*
X84580000Y-64500000D03*
%TD*%
%TO.C,H37*%
X140920000Y-139500000D03*
X151080000Y-139500000D03*
%TD*%
%TO.C,H17*%
X112420000Y-79500000D03*
X122580000Y-79500000D03*
%TD*%
%TO.C,H25*%
X131420000Y-99500000D03*
X141580000Y-99500000D03*
%TD*%
%TO.C,H15*%
X74420000Y-83500000D03*
X84580000Y-83500000D03*
%TD*%
%TO.C,H30*%
X93420000Y-118500000D03*
X103580000Y-118500000D03*
%TD*%
%TO.C,H27*%
X169420000Y-101500000D03*
X179580000Y-101500000D03*
%TD*%
%TO.C,H7*%
X55420000Y-65500000D03*
X65580000Y-65500000D03*
%TD*%
%TO.C,H29*%
X74420000Y-121500000D03*
X84580000Y-121500000D03*
%TD*%
%TO.C,H16*%
X93420000Y-80500000D03*
X103580000Y-80500000D03*
%TD*%
D13*
%TO.C,H1*%
X70000000Y-75000000D03*
%TD*%
D12*
%TO.C,H20*%
X169420000Y-82500000D03*
X179580000Y-82500000D03*
%TD*%
D13*
%TO.C,H4*%
X165000000Y-73000000D03*
%TD*%
D12*
%TO.C,H38*%
X168100591Y-133960000D03*
X176899409Y-139040000D03*
%TD*%
%TO.C,H11*%
X131420000Y-61500000D03*
X141580000Y-61500000D03*
%TD*%
%TO.C,H22*%
X74420000Y-102500000D03*
X84580000Y-102500000D03*
%TD*%
%TO.C,H13*%
X169420000Y-63500000D03*
X179580000Y-63500000D03*
%TD*%
%TO.C,H19*%
X150420000Y-82500000D03*
X160580000Y-82500000D03*
%TD*%
D13*
%TO.C,H2*%
X165000000Y-130000000D03*
%TD*%
D12*
%TO.C,H36*%
X121920000Y-137500000D03*
X132080000Y-137500000D03*
%TD*%
%TO.C,H14*%
X55420000Y-84500000D03*
X65580000Y-84500000D03*
%TD*%
%TO.C,H21*%
X55420000Y-103500000D03*
X65580000Y-103500000D03*
%TD*%
%TO.C,H24*%
X112420000Y-98500000D03*
X122580000Y-98500000D03*
%TD*%
%TO.C,H31*%
X112420000Y-117500000D03*
X122580000Y-117500000D03*
%TD*%
D13*
%TO.C,H5*%
X117500000Y-127000000D03*
%TD*%
D12*
%TO.C,H32*%
X131420000Y-118500000D03*
X141580000Y-118500000D03*
%TD*%
%TO.C,H18*%
X131420000Y-80500000D03*
X141580000Y-80500000D03*
%TD*%
%TO.C,H12*%
X150420000Y-63500000D03*
X160580000Y-63500000D03*
%TD*%
%TO.C,H33*%
X150420000Y-120500000D03*
X160580000Y-120500000D03*
%TD*%
%TO.C,H34*%
X83920000Y-140500000D03*
X94080000Y-140500000D03*
%TD*%
D13*
%TO.C,H6*%
X117500000Y-70000000D03*
%TD*%
D12*
%TO.C,H10*%
X112420000Y-60500000D03*
X122580000Y-60500000D03*
%TD*%
%TO.C,H28*%
X55420000Y-122500000D03*
X65580000Y-122500000D03*
%TD*%
D14*
%TO.C,J2*%
X184000000Y-86920000D03*
D15*
X184000000Y-89460000D03*
X184000000Y-92000000D03*
X184000000Y-94540000D03*
X184000000Y-97080000D03*
%TD*%
D16*
%TO.C,J1*%
X171610000Y-46605000D03*
X177390000Y-46605000D03*
D17*
X170180000Y-42925000D03*
D18*
X170180000Y-47105000D03*
D17*
X178820000Y-42925000D03*
D18*
X178820000Y-47105000D03*
%TD*%
%LPD*%
M02*
